<svg width="179" height="27" viewBox="0 0 179 27" fill="none" xmlns="http://www.w3.org/2000/svg">
<g clip-path="url(#clip0_7008_150305)">
<path d="M4.94642 0C1.1884 0 -1.18508 4.1087 0.595034 7.23913L10.8801 24.6522C12.6602 27.7826 17.4072 27.9783 19.3851 24.8478L30.2635 7.43478C32.2414 4.1087 29.868 0 26.11 0H4.94642V0Z" fill="url(#paint0_linear_7008_150305)"/>
<path d="M9.89062 11.5447C9.89062 8.60988 12.4619 6.06641 15.4287 6.06641C18.3956 6.06641 20.9669 8.60988 20.9669 11.5447C20.9669 13.6968 20.1757 14.2838 16.0221 20.349C15.8243 20.7403 15.231 20.7403 14.8354 20.349C10.6818 14.2838 9.89062 13.6968 9.89062 11.5447ZM17.8022 11.5447C17.8022 10.3708 16.8133 9.19684 15.4287 9.19684C14.0442 9.19684 13.0553 10.1751 13.0553 11.5447C13.0553 12.7186 14.0442 13.8925 15.4287 13.8925C16.8133 13.8925 17.8022 12.7186 17.8022 11.5447Z" fill="white"/>
<path fill-rule="evenodd" clip-rule="evenodd" d="M46.284 24.261H41.7349V5.86974H36.3945V2.15234H51.6244V5.86974H46.284V24.261ZM55.9758 8.99979V11.3476C56.3714 10.1737 56.767 9.7824 57.3604 9.39109C57.9537 8.99979 58.9427 8.60848 59.9316 8.60848H60.525V12.9128H59.5361C58.3493 12.9128 57.3604 13.4998 56.767 14.2824C56.1736 15.065 56.1736 15.652 56.1736 17.0215V24.4563H51.8223V8.99979H55.9758ZM78.524 9.00007H74.1726V10.9566C72.5903 9.19573 71.2058 8.41312 69.0301 8.41312C64.6787 8.41312 61.3163 11.9349 61.3163 16.8262C61.3163 21.5218 64.4809 24.8479 68.8323 24.8479C71.008 24.8479 72.7881 23.8696 74.1726 22.1088V24.2609H78.524V9.00007ZM70.019 21.5218C67.6456 21.5218 65.8654 19.5653 65.8654 16.8262C65.8654 13.8914 67.6456 11.9349 70.019 11.9349C72.5903 11.9349 74.3704 13.8914 74.3704 16.6305C74.3704 19.3696 72.3925 21.5218 70.019 21.5218ZM95.3364 22.5001C93.5562 24.0653 91.7761 24.8479 89.4027 24.8479C84.6557 24.8479 81.2933 21.3262 81.2933 16.6305C81.2933 11.7392 84.6557 8.41312 89.6004 8.41312C91.9739 8.41312 93.754 9.19573 95.7319 10.9566L92.9629 13.5001C91.9739 12.5218 90.985 12.1305 89.7982 12.1305C87.4248 12.1305 85.6446 14.087 85.6446 16.6305C85.6446 19.174 87.4248 21.1305 89.996 21.1305C91.1828 21.1305 91.9739 20.7392 92.9629 19.7609L95.3364 22.5001ZM97.1165 24.261H101.468V18.0002L105.819 24.261H110.764L105.424 16.2393L110.764 9.00017H105.819L101.468 14.8697V2.15234H97.1165V24.261ZM117.291 24.261H112.742V2.15234H117.291V11.5436H125.796V2.15234H130.345V24.261H125.796V15.261H117.291V24.261ZM142.015 21.1305C139.839 21.1305 138.257 19.7609 137.861 17.6088H150.124V16.8262C150.124 11.9349 146.564 8.41312 141.619 8.41312C136.872 8.41312 133.51 11.7392 133.51 16.6305C133.51 21.3262 137.07 24.8479 142.015 24.8479C145.179 24.8479 147.948 23.087 149.531 20.1522L145.575 19.174C144.981 20.3479 143.597 21.1305 142.015 21.1305ZM141.817 11.9349C143.993 11.9349 145.377 13.3044 145.773 15.2609H138.059C138.454 13.1088 139.839 11.9349 141.817 11.9349ZM156.849 8.99979V11.3476C157.244 10.1737 157.64 9.7824 158.233 9.39109C158.827 8.99979 159.816 8.60848 160.805 8.60848H161.398V12.9128H160.409C159.222 12.9128 158.233 13.4998 157.64 14.2824C157.047 15.065 157.047 15.652 157.047 17.0215V24.4563H152.695V8.99979H156.849ZM170.496 24.8479C175.243 24.8479 179.001 21.3262 179.001 16.8262C179.001 11.9349 175.441 8.41312 170.496 8.41312C165.354 8.41312 161.991 11.7392 161.991 16.6305C161.991 21.5218 165.551 24.8479 170.496 24.8479ZM170.496 21.1305C167.925 21.1305 166.343 19.3696 166.343 16.6305C166.343 13.8914 168.123 12.1305 170.496 12.3262C173.067 12.3262 174.65 14.087 174.65 16.8262C174.65 19.3696 172.87 21.1305 170.496 21.1305Z" fill="white"/>
</g>
<defs>
<linearGradient id="paint0_linear_7008_150305" x1="6.3084" y1="17.2207" x2="25.0989" y2="-1.7751" gradientUnits="userSpaceOnUse">
<stop stop-color="#FF00C8"/>
<stop offset="0.33" stop-color="#D600FF"/>
<stop offset="0.66" stop-color="#601CFF"/>
<stop offset="1" stop-color="#00D3FF"/>
</linearGradient>
<clipPath id="clip0_7008_150305">
<rect width="179" height="27" fill="white"/>
</clipPath>
</defs>
</svg>
