<svg width="19" height="19" viewBox="0 0 19 19" fill="none" xmlns="http://www.w3.org/2000/svg">
<path d="M14.6866 2H3.89138C3.27786 2 2.68948 2.24372 2.25566 2.67754C1.82184 3.11136 1.57813 3.69974 1.57812 4.31325V12.0241C1.57813 12.6376 1.82184 13.226 2.25566 13.6598C2.68948 14.0936 3.27786 14.3373 3.89138 14.3373H5.92704L5.47981 15.1084C5.34446 15.3429 5.2732 15.6088 5.2732 15.8795C5.2732 16.1502 5.34446 16.4162 5.47981 16.6506C5.61633 16.8871 5.81319 17.0831 6.05027 17.2186C6.28736 17.354 6.55616 17.4241 6.82921 17.4217H11.8104C12.0809 17.4214 12.3465 17.35 12.5806 17.2147C12.8147 17.0793 13.0092 16.8848 13.1444 16.6506C13.2797 16.4162 13.351 16.1502 13.351 15.8795C13.351 15.6088 13.2797 15.3429 13.1444 15.1084L12.6894 14.3373H14.6866C15.3001 14.3373 15.8885 14.0936 16.3223 13.6598C16.7561 13.226 16.9998 12.6376 16.9998 12.0241V4.31325C16.9998 3.69974 16.7561 3.11136 16.3223 2.67754C15.8885 2.24372 15.3001 2 14.6866 2ZM6.79837 15.8795L7.7468 14.3373H10.8311L11.7564 15.8795H6.79837ZM15.4576 12.0241C15.4576 12.2286 15.3764 12.4247 15.2318 12.5693C15.0872 12.7139 14.8911 12.7952 14.6866 12.7952H3.89138C3.68687 12.7952 3.49075 12.7139 3.34614 12.5693C3.20153 12.4247 3.12029 12.2286 3.12029 12.0241V11.253H15.4576V12.0241ZM15.4576 9.71084H3.12029V4.31325C3.12029 4.10875 3.20153 3.91262 3.34614 3.76801C3.49075 3.62341 3.68687 3.54217 3.89138 3.54217H14.6866C14.8911 3.54217 15.0872 3.62341 15.2318 3.76801C15.3764 3.91262 15.4576 4.10875 15.4576 4.31325V9.71084Z" fill="white"/>
</svg>
