<svg width="20" height="19" viewBox="0 0 20 19" fill="none" xmlns="http://www.w3.org/2000/svg">
<path d="M15.542 9.71084H10.1444V4.31325C10.1444 3.8506 9.836 3.54217 9.37335 3.54217C5.51793 3.54217 2.43359 6.62651 2.43359 10.4819C2.43359 14.3373 5.51793 17.4217 9.37335 17.4217C13.2288 17.4217 16.3131 14.3373 16.3131 10.4819C16.3131 10.0193 16.0047 9.71084 15.542 9.71084ZM10.1444 15.8024C7.21432 16.2651 4.43841 14.1831 4.05287 11.253C3.59022 8.32289 5.67215 5.54699 8.60227 5.16145V10.4819C8.60227 10.9446 8.9107 11.253 9.37335 11.253H14.6938C14.3854 13.6434 12.5348 15.494 10.1444 15.8024ZM12.4577 2C11.995 2 11.6866 2.30843 11.6866 2.77108V7.39759C11.6866 7.86024 11.995 8.16867 12.4577 8.16867H17.0842C17.5468 8.16867 17.8553 7.86024 17.8553 7.39759C17.8553 4.39036 15.4649 2 12.4577 2ZM13.2288 6.62651V3.61928C14.7709 3.92771 15.9276 5.08434 16.236 6.62651H13.2288Z" fill="white"/>
</svg>
