<svg width="20" height="20" viewBox="0 0 20 20" fill="none" xmlns="http://www.w3.org/2000/svg">
<path d="M16.8637 14.7887V9.78413C17.07 9.66937 17.2469 9.50829 17.3804 9.31357C17.5139 9.11885 17.6004 8.89581 17.6331 8.66199C17.6658 8.42817 17.6438 8.18995 17.5688 7.96608C17.4938 7.74222 17.3679 7.53881 17.2009 7.37186C17.034 7.20492 16.8306 7.079 16.6067 7.004C16.3829 6.929 16.1446 6.90698 15.9108 6.93967C15.677 6.97236 15.4539 7.05886 15.2592 7.19237C15.0645 7.32588 14.9034 7.50276 14.7887 7.70908H12.2864V5.20681C12.4927 5.09205 12.6696 4.93097 12.8031 4.73625C12.9366 4.54153 13.0231 4.31849 13.0558 4.08467C13.0885 3.85085 13.0665 3.61263 12.9915 3.38876C12.9165 3.1649 12.7906 2.96149 12.6236 2.79454C12.4567 2.6276 12.2533 2.50168 12.0294 2.42668C11.8055 2.35168 11.5673 2.32966 11.3335 2.36235C11.0997 2.39504 10.8766 2.48154 10.6819 2.61505C10.4872 2.74856 10.3261 2.92544 10.2113 3.13176H5.20681C5.09205 2.92544 4.93097 2.74856 4.73625 2.61505C4.54153 2.48154 4.31849 2.39504 4.08467 2.36235C3.85085 2.32966 3.61263 2.35168 3.38876 2.42668C3.1649 2.50168 2.96149 2.6276 2.79454 2.79454C2.6276 2.96149 2.50168 3.1649 2.42668 3.38876C2.35168 3.61263 2.32966 3.85085 2.36235 4.08467C2.39504 4.31849 2.48154 4.54153 2.61505 4.73625C2.74856 4.93097 2.92544 5.09205 3.13176 5.20681V10.2113C2.92544 10.3261 2.74856 10.4872 2.61505 10.6819C2.48154 10.8766 2.39504 11.0997 2.36235 11.3335C2.32966 11.5673 2.35168 11.8055 2.42668 12.0294C2.50168 12.2533 2.6276 12.4567 2.79454 12.6236C2.96149 12.7906 3.1649 12.9165 3.38876 12.9915C3.61263 13.0665 3.85085 13.0885 4.08467 13.0558C4.31849 13.0231 4.54153 12.9366 4.73625 12.8031C4.93097 12.6696 5.09205 12.4927 5.20681 12.2864H7.70908V14.7887C7.50276 14.9034 7.32588 15.0645 7.19237 15.2592C7.05886 15.4539 6.97236 15.677 6.93967 15.9108C6.90698 16.1446 6.929 16.3829 7.004 16.6067C7.079 16.8306 7.20492 17.034 7.37186 17.2009C7.53881 17.3679 7.74222 17.4938 7.96608 17.5688C8.18995 17.6438 8.42817 17.6658 8.66199 17.6331C8.89581 17.6004 9.11885 17.5139 9.31357 17.3804C9.50829 17.2469 9.66937 17.07 9.78413 16.8637H14.7887C14.9034 17.07 15.0645 17.2469 15.2592 17.3804C15.4539 17.5139 15.677 17.6004 15.9108 17.6331C16.1446 17.6658 16.3829 17.6438 16.6067 17.5688C16.8306 17.4938 17.034 17.3679 17.2009 17.2009C17.3679 17.034 17.4938 16.8306 17.5688 16.6067C17.6438 16.3829 17.6658 16.1446 17.6331 15.9108C17.6004 15.677 17.5139 15.4539 17.3804 15.2592C17.2469 15.0645 17.07 14.9034 16.8637 14.7887ZM6.9462 8.47197C6.9478 8.73824 7.01906 8.99945 7.1529 9.22964C7.28673 9.45984 7.47848 9.651 7.70908 9.78413V10.7606H5.20681C5.0768 10.5312 4.88696 10.3414 4.65754 10.2113V5.20681C4.88696 5.0768 5.0768 4.88696 5.20681 4.65754H10.2113C10.3414 4.88696 10.5312 5.0768 10.7606 5.20681V7.70908H9.78413C9.61424 7.42269 9.35531 7.19974 9.04686 7.07425C8.73841 6.94876 8.39738 6.92763 8.0758 7.01408C7.75422 7.10052 7.46974 7.2898 7.26579 7.55303C7.06183 7.81626 6.94959 8.13899 6.9462 8.47197ZM10.7606 9.23486V10.2113C10.5312 10.3414 10.3414 10.5312 10.2113 10.7606H9.23486V9.78413C9.46428 9.65412 9.65412 9.46428 9.78413 9.23486H10.7606ZM15.3379 14.7887C15.1085 14.9187 14.9187 15.1085 14.7887 15.3379H9.78413C9.65412 15.1085 9.46428 14.9187 9.23486 14.7887V12.2864H10.2113C10.3261 12.4927 10.4872 12.6696 10.6819 12.8031C10.8766 12.9366 11.0997 13.0231 11.3335 13.0558C11.5673 13.0885 11.8055 13.0665 12.0294 12.9915C12.2533 12.9165 12.4567 12.7906 12.6236 12.6236C12.7906 12.4567 12.9165 12.2533 12.9915 12.0294C13.0665 11.8055 13.0885 11.5673 13.0558 11.3335C13.0231 11.0997 12.9366 10.8766 12.8031 10.6819C12.6696 10.4872 12.4927 10.3261 12.2864 10.2113V9.23486H14.7887C14.9187 9.46428 15.1085 9.65412 15.3379 9.78413V14.7887Z" fill="white"/>
</svg>
