<svg width="19" height="23" viewBox="0 0 19 23" fill="none" xmlns="http://www.w3.org/2000/svg">
<g clip-path="url(#clip0_2242_19803)">
<path d="M13.4897 14.0659C14.39 12.9574 14.8143 11.5374 14.6698 10.1167C14.5253 8.69607 13.8237 7.39057 12.7186 6.48612C12.0855 5.97873 11.3474 5.61862 10.5579 5.4319C9.76831 5.24518 8.9471 5.23654 8.15379 5.4066C7.26308 5.60361 6.43683 6.02316 5.75221 6.62605C5.06759 7.22895 4.54695 7.99553 4.23891 8.85419C3.93087 9.71286 3.84549 10.6356 3.99073 11.5362C4.13597 12.4368 4.5071 13.2859 5.06946 14.0042C5.58198 14.6277 5.87467 15.4028 5.90223 16.2095V16.4331C5.60883 16.7166 5.4397 17.1047 5.43187 17.5126V19.0548C5.43187 19.4638 5.59435 19.8561 5.88356 20.1453C6.17277 20.4345 6.56503 20.597 6.97404 20.597V21.368C6.97404 21.5725 7.05528 21.7687 7.19988 21.9133C7.34449 22.0579 7.54062 22.1391 7.74512 22.1391C7.94962 22.1391 8.14575 22.0579 8.29036 21.9133C8.43497 21.7687 8.5162 21.5725 8.5162 21.368V20.597H10.0584V21.368C10.0584 21.5725 10.1396 21.7687 10.2842 21.9133C10.4288 22.0579 10.625 22.1391 10.8295 22.1391C11.034 22.1391 11.2301 22.0579 11.3747 21.9133C11.5193 21.7687 11.6005 21.5725 11.6005 21.368V20.597C12.0096 20.597 12.4018 20.4345 12.691 20.1453C12.9802 19.8561 13.1427 19.4638 13.1427 19.0548V17.5126C13.1431 17.1091 12.9853 16.7216 12.7032 16.4331V16.1015C12.7257 15.3532 13.0032 14.635 13.4897 14.0659ZM6.97404 19.0548V17.5126H11.6005V19.0548H6.97404ZM12.2868 13.102C11.6042 13.9071 11.2083 14.916 11.161 15.9705H7.40584C7.33311 14.9022 6.92877 13.8832 6.24922 13.0558C5.84101 12.5435 5.57006 11.9356 5.46193 11.2896C5.35379 10.6435 5.41204 9.9806 5.63118 9.36331C5.85032 8.74602 6.22311 8.19474 6.7144 7.76149C7.20568 7.32824 7.79925 7.02731 8.4391 6.88708C9.00599 6.75921 9.59447 6.76115 10.1605 6.89275C10.7266 7.02435 11.2555 7.28221 11.7079 7.64706C12.1602 8.0119 12.5242 8.47428 12.7727 8.99963C13.0212 9.52497 13.1477 10.0997 13.1427 10.6808C13.1475 11.5628 12.8449 12.419 12.2868 13.102Z" fill="white"/>
<g clip-path="url(#clip1_2242_19803)">
<path d="M11.5689 11.0086C11.5226 10.9558 11.497 10.888 11.497 10.8177C11.497 10.7475 11.5226 10.6797 11.5689 10.6269L11.9391 10.2105C11.9799 10.165 12.0052 10.1078 12.0114 10.047C12.0176 9.98622 12.0045 9.92502 11.9738 9.8722L11.3955 8.87172C11.3651 8.81895 11.3188 8.77713 11.2632 8.7522C11.2077 8.72728 11.1457 8.72053 11.0861 8.73292L10.5424 8.8428C10.4733 8.85709 10.4013 8.84557 10.34 8.81042C10.2787 8.77526 10.2325 8.71889 10.2099 8.65196L10.0335 8.1228C10.0141 8.06537 9.97717 8.01548 9.92787 7.9802C9.87858 7.94492 9.81944 7.92602 9.75882 7.92617H8.6022C8.53914 7.92288 8.47674 7.94032 8.42453 7.97583C8.37232 8.01133 8.33316 8.06295 8.31304 8.1228L8.15111 8.65196C8.12856 8.71889 8.08229 8.77526 8.02103 8.81042C7.95977 8.84557 7.88776 8.85709 7.81858 8.8428L7.26051 8.73292C7.204 8.72494 7.14638 8.73385 7.09493 8.75855C7.04347 8.78325 7.00047 8.82263 6.97136 8.87172L6.39304 9.8722C6.36157 9.92443 6.34742 9.98528 6.35261 10.046C6.35781 10.1068 6.38208 10.1644 6.42196 10.2105L6.78919 10.6269C6.83554 10.6797 6.86111 10.7475 6.86111 10.8177C6.86111 10.888 6.83554 10.9558 6.78919 11.0086L6.42196 11.425C6.38208 11.4711 6.35781 11.5287 6.35261 11.5894C6.34742 11.6502 6.36157 11.711 6.39304 11.7633L6.97136 12.7638C7.00175 12.8165 7.04802 12.8584 7.10357 12.8833C7.15913 12.9082 7.22114 12.9149 7.28075 12.9026L7.82437 12.7927C7.89354 12.7784 7.96555 12.7899 8.02681 12.8251C8.08807 12.8602 8.13434 12.9166 8.1569 12.9835L8.33328 13.5127C8.3534 13.5725 8.39256 13.6241 8.44477 13.6597C8.49698 13.6952 8.55938 13.7126 8.62244 13.7093H9.77907C9.83969 13.7095 9.89882 13.6906 9.94812 13.6553C9.99741 13.62 10.0344 13.5701 10.0538 13.5127L10.2302 12.9835C10.2527 12.9166 10.299 12.8602 10.3602 12.8251C10.4215 12.7899 10.4935 12.7784 10.5627 12.7927L11.1063 12.9026C11.1659 12.9149 11.2279 12.9082 11.2835 12.8833C11.339 12.8584 11.3853 12.8165 11.4157 12.7638L11.994 11.7633C12.0247 11.7105 12.0379 11.6493 12.0317 11.5885C12.0254 11.5277 12.0001 11.4705 11.9593 11.425L11.5689 11.0086ZM11.1381 11.3961L11.3694 11.6563L10.9993 12.2982L10.6581 12.2288C10.4498 12.1863 10.2332 12.2216 10.0493 12.3282C9.86541 12.4348 9.72706 12.6053 9.66051 12.8071L9.55063 13.131H8.81039L8.70629 12.8014C8.63975 12.5995 8.50139 12.4291 8.3175 12.3225C8.1336 12.2158 7.91696 12.1805 7.7087 12.223L7.3675 12.2924L6.9916 11.6534L7.22292 11.3932C7.36517 11.2341 7.44382 11.0282 7.44382 10.8148C7.44382 10.6015 7.36517 10.3956 7.22292 10.2365L6.9916 9.97629L7.36172 9.34015L7.70292 9.40955C7.91118 9.45212 8.12782 9.41674 8.31171 9.31014C8.49561 9.20353 8.63396 9.03311 8.70051 8.83123L8.81039 8.50449H9.55063L9.66051 8.83413C9.72706 9.036 9.86541 9.20642 10.0493 9.31303C10.2332 9.41963 10.4498 9.45501 10.6581 9.41244L10.9993 9.34304L11.3694 9.98497L11.1381 10.2452C10.9974 10.4039 10.9198 10.6086 10.9198 10.8206C10.9198 11.0327 10.9974 11.2374 11.1381 11.3961V11.3961ZM9.18051 9.66111C8.95175 9.66111 8.72813 9.72895 8.53792 9.85604C8.34772 9.98313 8.19947 10.1638 8.11193 10.3751C8.02439 10.5865 8.00148 10.819 8.04611 11.0434C8.09074 11.2678 8.2009 11.4738 8.36265 11.6356C8.52441 11.7974 8.7305 11.9075 8.95487 11.9521C9.17923 11.9968 9.41179 11.9739 9.62313 11.8863C9.83448 11.7988 10.0151 11.6505 10.1422 11.4603C10.2693 11.2701 10.3371 11.0465 10.3371 10.8177C10.3371 10.511 10.2153 10.2168 9.99837 9.99988C9.78146 9.78297 9.48727 9.66111 9.18051 9.66111V9.66111ZM9.18051 11.3961C9.06613 11.3961 8.95432 11.3621 8.85922 11.2986C8.76411 11.235 8.68999 11.1447 8.64622 11.0391C8.60245 10.9334 8.591 10.8171 8.61331 10.7049C8.63563 10.5927 8.6907 10.4897 8.77158 10.4088C8.85246 10.3279 8.95551 10.2729 9.06769 10.2505C9.17987 10.2282 9.29615 10.2397 9.40182 10.2834C9.5075 10.3272 9.59782 10.4013 9.66136 10.4964C9.72491 10.5915 9.75882 10.7034 9.75882 10.8177C9.75882 10.9711 9.6979 11.1182 9.58944 11.2267C9.48099 11.3351 9.33389 11.3961 9.18051 11.3961Z" fill="#FCFCFC"/>
</g>
</g>
<path d="M4.08594 2.14844L5.82088 5.04" stroke="white" stroke-width="2"/>
<path d="M15.0703 2.72656L13.3354 5.61813" stroke="white" stroke-width="2"/>
<path d="M9.66016 0.988281L9.60426 4.35993" stroke="white" stroke-width="2"/>
<defs>
<clipPath id="clip0_2242_19803">
<rect width="18.506" height="18.506" fill="white" transform="translate(0.0351562 4.45703)"/>
</clipPath>
<clipPath id="clip1_2242_19803">
<rect width="6.93976" height="6.93976" fill="white" transform="translate(5.81641 7.34766)"/>
</clipPath>
</defs>
</svg>
