<svg width="19" height="19" viewBox="0 0 19 19" fill="none" xmlns="http://www.w3.org/2000/svg">
<path d="M11.0986 0.180859L11.0794 0.176881C11.0197 0.163859 10.9401 0.14722 10.8566 0.135645L10.8338 0.132751C10.6435 0.105984 10.4527 0.0796988 10.2615 0.0538961L10.1989 0.0455766C9.88779 0.0159157 9.57307 2.48922e-08 9.26088 2.48922e-08C8.91194 -2.53941e-05 8.56327 0.0194171 8.2165 0.0582368L8.19009 0.0611305C8.03165 0.0817485 7.86126 0.104899 7.68545 0.133474L7.64928 0.139262C7.56499 0.153369 7.49155 0.166752 7.42499 0.179413L7.38882 0.185924C6.09896 0.44994 4.88108 0.988568 3.81797 1.76519L3.72247 1.83753C3.69172 1.85996 3.66133 1.88311 3.63239 1.9059C3.59115 1.937 3.55027 1.96956 3.50867 2.00248L3.47611 2.02852C3.45947 2.04154 3.44319 2.05456 3.42655 2.06831C3.38314 2.10448 3.3401 2.14065 3.29524 2.17682C3.26774 2.19997 3.24061 2.22312 3.21384 2.24664L3.14728 2.30198C2.83002 2.58094 2.53221 2.88126 2.25593 3.20085L2.23748 3.22292C2.22301 3.23955 2.20818 3.25656 2.19479 3.27247C2.13474 3.34482 2.08229 3.40667 2.02875 3.47395C1.98823 3.52495 1.94808 3.57559 1.9072 3.62876C1.11096 4.66405 0.544758 5.85726 0.246398 7.12876V7.13418L0.242781 7.14937C0.21782 7.26078 0.1972 7.36243 0.179474 7.45937V7.46516C0.125935 7.74079 0.088313 8.02293 0.0557553 8.27324L0.0427323 8.37198V8.38139C0.0141539 8.67185 4.56496e-05 8.96737 4.56496e-05 9.26C-0.00618543 11.2364 0.625634 13.162 1.80157 14.7505C1.64371 15.1259 1.60899 15.5416 1.70239 15.9379C1.7958 16.3342 2.01251 16.6907 2.32136 16.9561C2.63021 17.2214 3.01527 17.382 3.42116 17.4146C3.82706 17.4473 4.23285 17.3504 4.58018 17.1379C4.59899 17.1263 4.61635 17.1144 4.63589 17.1017L4.8041 16.9758C5.08756 16.7394 5.29725 16.4267 5.4083 16.0747C5.51936 15.7227 5.52711 15.3463 5.43066 14.99C5.20203 14.1537 4.45646 13.5768 3.60924 13.5768H3.57523C3.40266 13.5842 3.23122 13.6084 3.06336 13.6491C3.03731 13.6104 3.00982 13.5692 2.98051 13.5239L2.96749 13.5037L2.96062 13.4939C2.69457 13.0997 2.46637 12.6813 2.27908 12.2442L2.27329 12.2308C1.55367 10.5302 1.47577 8.62631 2.05407 6.87266L2.05696 6.86326C2.29835 6.13721 2.6488 5.45212 3.09627 4.83148L3.10387 4.82063C4.17581 3.33118 5.75136 2.28074 7.53858 1.86394L7.5791 1.85489C7.828 1.79847 8.07963 1.75476 8.33299 1.72395C8.58731 1.69301 8.84303 1.6749 9.09918 1.66969H9.11871C9.30248 1.66644 9.48336 1.66969 9.65591 1.67838H9.6787C9.99971 1.69611 10.3193 1.73404 10.6355 1.79196L10.6797 1.79991H10.6959L10.7925 1.81077C11.2599 1.86177 11.6633 1.5865 11.7512 1.15786C11.8445 0.713671 11.5638 0.294078 11.0986 0.180859ZM3.06516 15.3427L3.06878 15.3296C3.09609 15.2488 3.14242 15.1758 3.20386 15.1166C3.2653 15.0574 3.34007 15.0139 3.42185 14.9896C3.46954 14.9755 3.51899 14.9682 3.56872 14.9679H3.57089C3.7103 14.9675 3.84426 15.022 3.94379 15.1197C4.04331 15.2173 4.10039 15.3501 4.10267 15.4895C4.10368 15.5867 4.0783 15.6823 4.02925 15.7662C3.9802 15.8501 3.9093 15.9191 3.82412 15.9659L3.78324 15.9858C3.71949 16.0136 3.65092 16.0287 3.58138 16.0303C3.43896 16.0316 3.30186 15.9763 3.20014 15.8766C3.09842 15.7769 3.04038 15.641 3.03876 15.4986C3.03941 15.4455 3.04832 15.393 3.06516 15.3427Z" fill="white"/>
<path d="M16.7202 3.7691C16.8784 3.39383 16.9134 2.97804 16.8202 2.5816C16.727 2.18517 16.5103 1.82855 16.2014 1.5631C15.8926 1.29765 15.5074 1.13707 15.1014 1.10448C14.6955 1.07189 14.2896 1.16898 13.9423 1.38175C13.8872 1.41528 13.8339 1.45187 13.7828 1.49136L13.7571 1.50474L13.7191 1.54091C13.4358 1.77737 13.2261 2.09013 13.1151 2.44212C13.0041 2.7941 12.9964 3.17052 13.0929 3.52675C13.3205 4.3587 14.0697 4.93962 14.9107 4.93962H14.9469C15.1196 4.93217 15.2912 4.90794 15.4592 4.86728C15.4859 4.90743 15.5134 4.94903 15.5416 4.99243L15.6484 5.15376C15.7207 5.26698 15.7905 5.38128 15.8542 5.49305C15.8669 5.51476 15.8792 5.5361 15.8904 5.55925C16.0203 5.79016 16.1379 6.02778 16.2427 6.27111C16.2445 6.27545 16.246 6.27943 16.2481 6.28377C16.263 6.31994 16.2778 6.35322 16.2934 6.39229C16.3046 6.41978 16.3154 6.44727 16.3274 6.47801C16.3393 6.50876 16.3527 6.54204 16.3635 6.57423L16.3686 6.58798C16.3766 6.60823 16.3842 6.62849 16.3921 6.64911C16.4022 6.67732 16.4124 6.70626 16.4211 6.73158L16.4247 6.74243C16.4337 6.76739 16.4424 6.79235 16.4511 6.81767L16.454 6.82599C16.4902 6.92908 16.5245 7.04302 16.5603 7.16781C16.5676 7.19349 16.5748 7.21917 16.5817 7.24486L16.5853 7.25679C16.603 7.32154 16.6197 7.38557 16.6359 7.45321C16.6558 7.53604 16.6761 7.62466 16.6953 7.71799C16.7144 7.81131 16.7314 7.90572 16.7481 8.00121V8.00519C16.7506 8.0193 16.7528 8.03268 16.755 8.04679L16.7571 8.06053C16.7644 8.10575 16.7712 8.1506 16.7777 8.1998C16.7843 8.24899 16.7908 8.29384 16.7966 8.34448L16.8016 8.38861C16.8092 8.44902 16.8154 8.51124 16.8208 8.57237L16.8269 8.64869C16.8313 8.69897 16.8349 8.75105 16.8378 8.80423C16.8378 8.82448 16.8403 8.84546 16.8414 8.86753V8.90949C16.8439 8.95434 16.8454 8.99739 16.8465 9.04549V9.04984C16.8483 9.11205 16.8497 9.18259 16.8497 9.25999C16.8497 9.29002 16.8497 9.31895 16.8497 9.34862V9.36381C16.8497 9.3913 16.8497 9.41915 16.8476 9.45351C16.8454 9.48788 16.8458 9.5226 16.8447 9.55733V9.56094C16.8447 9.61231 16.8403 9.66657 16.8364 9.72697V9.74036C16.8365 9.74373 16.8365 9.74711 16.8364 9.75048V9.76459C16.8364 9.79064 16.8331 9.81632 16.8309 9.84417L16.8237 9.93424C16.8237 9.93894 16.8237 9.94364 16.8237 9.94726C16.8208 9.97656 16.8179 10.0055 16.8146 10.0352V10.0456C16.8118 10.0735 16.8089 10.101 16.8049 10.1325L16.8027 10.1538C16.8027 10.1661 16.8002 10.1791 16.798 10.1929V10.1997C16.798 10.2088 16.7958 10.2182 16.7944 10.2287L16.7922 10.2446C16.789 10.2696 16.7857 10.2949 16.7814 10.3249C16.7749 10.3726 16.7673 10.4204 16.76 10.4678L16.7575 10.4844C16.7448 10.5604 16.7325 10.6291 16.7188 10.7014C16.7148 10.7239 16.7105 10.7463 16.705 10.7738C16.6884 10.8566 16.6689 10.9398 16.6519 11.0183L16.6367 11.0794C16.6251 11.1272 16.6132 11.1742 16.6005 11.2209L16.5853 11.2762C16.5582 11.3757 16.5281 11.4777 16.4952 11.579L16.4739 11.6452C16.4737 11.6471 16.4737 11.649 16.4739 11.651C16.4739 11.6542 16.4717 11.6575 16.4703 11.6614L16.4594 11.6933C16.4493 11.7237 16.4391 11.753 16.4294 11.7812L16.424 11.7956C16.4098 11.8362 16.3954 11.877 16.3798 11.9172L16.3708 11.9425C16.3556 11.9834 16.3393 12.0239 16.3223 12.0669C16.3053 12.11 16.2861 12.1552 16.2688 12.1982C16.2514 12.2413 16.2348 12.2789 16.217 12.3191C16.2131 12.3274 16.2098 12.3353 16.2062 12.3433V12.3465C16.1671 12.4334 16.1306 12.5115 16.0944 12.5856L16.0911 12.5918V12.5943L16.0864 12.603C16.0474 12.6833 16.0065 12.7622 15.962 12.8457C15.9421 12.8837 15.9215 12.921 15.9012 12.9578C15.8979 12.9631 15.8948 12.9685 15.8922 12.9741C15.869 13.0143 15.8462 13.0544 15.8198 13.0964C15.7934 13.1383 15.7721 13.1774 15.7475 13.2161C15.7229 13.2548 15.6972 13.2975 15.6722 13.3366L15.5887 13.4559C15.5391 13.5304 15.4856 13.6082 15.4241 13.6936L15.419 13.7005C15.4035 13.7229 15.3868 13.7449 15.368 13.7703L15.3195 13.8354C15.2834 13.8813 15.2497 13.9265 15.2161 13.9699C15.1752 14.0209 15.1419 14.0625 15.1097 14.1005C15.0504 14.1729 14.9965 14.2351 14.9455 14.2926L14.8887 14.3559C14.8525 14.3975 14.8127 14.4387 14.7726 14.4814L14.7154 14.5411C14.5978 14.6626 14.4748 14.7813 14.3508 14.8938L14.3475 14.897L14.2849 14.9527C14.2487 14.986 14.2071 15.0211 14.159 15.0612L14.1543 15.0652C14.0791 15.1282 14.019 15.1774 13.9648 15.22L13.9441 15.2363L13.9054 15.2667C13.862 15.3003 13.8154 15.3354 13.7626 15.3752C13.6938 15.4259 13.6236 15.4758 13.5545 15.5235C13.4916 15.5666 13.4272 15.6096 13.352 15.6581C13.2539 15.7207 13.1537 15.7818 13.0568 15.8389L12.9768 15.8845L12.9088 15.9229C12.8813 15.9373 12.8542 15.9518 12.8296 15.9655L12.8097 15.976L12.7316 16.0169L12.6809 16.0426L12.6766 16.0448C12.6502 16.0585 12.623 16.0719 12.5948 16.0856L12.5268 16.1185L12.4501 16.1547C12.3676 16.1909 12.2884 16.2271 12.2139 16.2589C12.1954 16.2669 12.1777 16.2744 12.1589 16.2817L12.1314 16.2936C12.08 16.3142 12.0283 16.3345 11.9744 16.3551L11.9122 16.3786L11.8796 16.3906L11.8384 16.4058L11.8294 16.4094L11.744 16.4394L11.7338 16.4423C11.6792 16.4611 11.6253 16.4785 11.5696 16.4973H11.566L11.4875 16.5219C11.4318 16.5389 11.3757 16.5551 11.3215 16.5707C11.2672 16.5863 11.2093 16.6014 11.1507 16.6163C11.0921 16.6311 11.0368 16.6448 10.9861 16.6568L10.9434 16.6662C10.8798 16.6807 10.8175 16.6937 10.7575 16.706L10.666 16.7241C10.5686 16.7418 10.4793 16.7566 10.3932 16.7696L10.3679 16.7736C10.1508 16.8051 9.92943 16.8275 9.71274 16.8402C9.62484 16.8456 9.53006 16.8489 9.42877 16.851H9.26092C9.19797 16.851 9.13503 16.851 9.07244 16.8492H9.05074C8.98816 16.8474 8.92413 16.8449 8.85575 16.8409H8.84309C8.5221 16.8234 8.20252 16.7857 7.88626 16.728L7.85009 16.7208L7.73071 16.7092C7.26296 16.6582 6.85997 16.9335 6.77207 17.3621C6.68127 17.7962 6.94101 18.2035 7.38994 18.3287C7.39645 18.3305 7.40296 18.3319 7.40803 18.3337L7.4442 18.342C7.49485 18.3532 7.56973 18.3688 7.65112 18.3807L7.80632 18.4024C7.95897 18.4237 8.11175 18.4446 8.26465 18.4654L8.32543 18.4733C8.63617 18.5041 8.95162 18.52 9.26309 18.52C9.30758 18.52 9.35208 18.52 9.39476 18.52H9.47688L9.62158 18.516L9.68742 18.5131H9.69466L9.79052 18.5081L9.9175 18.5005H9.93269C9.97357 18.4976 10.0152 18.4943 10.056 18.4907L10.1856 18.4791L10.2941 18.4676H10.4699L10.4959 18.4422C10.616 18.4256 10.7162 18.4108 10.8125 18.3956C10.8245 18.3941 10.8357 18.3923 10.8461 18.3901L10.8711 18.3862C10.9533 18.3727 11.0302 18.359 11.1019 18.3453L11.1308 18.3395C12.422 18.0763 13.6412 17.5378 14.7053 16.7606L14.7121 16.7555C14.7436 16.7324 14.7751 16.7092 14.8019 16.689C14.8286 16.6687 14.8626 16.6438 14.8898 16.6224C14.9363 16.587 14.9827 16.5508 15.029 16.5139L15.0482 16.4984L15.0967 16.4593C15.1401 16.4231 15.1839 16.3869 15.2287 16.3508C15.2533 16.3302 15.2783 16.3088 15.3011 16.2875L15.3734 16.2242C15.6906 15.9457 15.9883 15.6459 16.2644 15.3267L16.2981 15.2877L16.3281 15.2515C16.3871 15.1817 16.4395 15.1184 16.4923 15.0518C16.5332 15.0008 16.5737 14.9498 16.6146 14.8963C17.4111 13.8604 17.9772 12.6664 18.275 11.3941C18.275 11.3941 18.275 11.392 18.275 11.3912L18.2797 11.3713C18.3022 11.2712 18.3235 11.1684 18.3427 11.0635L18.3456 11.0483C18.3955 10.7789 18.431 10.5097 18.4657 10.2489L18.4787 10.1495V10.1408C18.5058 9.85394 18.5199 9.55841 18.5199 9.26144C18.527 7.28467 17.8958 5.35841 16.7202 3.7691ZM15.4566 3.17769L15.4523 3.19143C15.4255 3.27056 15.3804 3.34225 15.3207 3.4007C15.261 3.45915 15.1883 3.5027 15.1086 3.52783L15.0996 3.53036C15.0212 3.55352 14.9385 3.55823 14.858 3.54414C14.7774 3.53005 14.7013 3.49753 14.6354 3.44914C14.5695 3.40074 14.5157 3.33777 14.4782 3.26514C14.4407 3.19251 14.4205 3.1122 14.4191 3.03047C14.4188 2.99403 14.4223 2.95765 14.4296 2.92195L14.4314 2.9111C14.4479 2.83624 14.4802 2.76577 14.5262 2.70443C14.5722 2.6431 14.6308 2.59233 14.698 2.55553L14.74 2.53491C14.803 2.50775 14.8707 2.49302 14.9393 2.49151C15.0817 2.49006 15.2189 2.54522 15.3207 2.64486C15.4224 2.74451 15.4804 2.88047 15.482 3.02287C15.4815 3.07547 15.4729 3.12768 15.4566 3.17769Z" fill="white"/>
<path d="M14.7637 8.40332C14.7619 7.99349 14.4725 7.7005 14.0597 7.69109C14.0047 7.69109 13.9512 7.69109 13.8969 7.69109H13.8228C13.7555 7.52036 13.6889 7.3489 13.6198 7.16913L13.6072 7.13694L13.7483 6.99225C14.0525 6.67466 14.0496 6.26881 13.7407 5.95701C13.3337 5.54754 12.9368 5.15146 12.5617 4.77925C12.2434 4.46383 11.8313 4.46637 11.5126 4.78576C11.4699 4.82845 11.4287 4.87077 11.3882 4.91309C11.195 4.83857 11.0102 4.76659 10.8289 4.69606V4.62986C10.8289 4.57524 10.8289 4.51918 10.8289 4.46094C10.8188 4.04894 10.5254 3.76029 10.1152 3.75884C9.54434 3.75631 8.96952 3.75631 8.40736 3.75884C7.9975 3.75884 7.70412 4.04822 7.69399 4.46166C7.69399 4.53401 7.69399 4.60382 7.69399 4.6664V4.69823C7.51311 4.77057 7.32753 4.84074 7.13508 4.91526C7.09891 4.87692 7.05984 4.83677 7.02077 4.7977C6.68506 4.4613 6.28497 4.45913 5.94998 4.79227C5.59583 5.14459 5.21744 5.52331 4.79238 5.94978C4.63393 6.10857 4.55001 6.29232 4.54964 6.48042C4.54928 6.66851 4.63393 6.85263 4.79238 7.01034C4.83398 7.05266 4.87631 7.09317 4.91718 7.13187C4.91429 7.13875 4.9114 7.14562 4.90886 7.15249L4.90633 7.159C4.83398 7.33986 4.76489 7.5171 4.69869 7.69109C4.6191 7.69109 4.53988 7.69109 4.4621 7.69362C4.05151 7.70122 3.76211 7.99457 3.7585 8.40404C3.75596 8.97447 3.7556 9.53332 3.7585 10.1124C3.7585 10.5223 4.0479 10.8156 4.45993 10.8265C4.53698 10.8265 4.61693 10.8297 4.69833 10.8294C4.7667 11.0102 4.8376 11.1886 4.90669 11.3629L4.91501 11.3835L4.89946 11.3991L4.79962 11.4996C4.46282 11.8396 4.4621 12.243 4.79636 12.579C5.16824 12.953 5.55423 13.3386 5.94311 13.7267C6.27448 14.0566 6.6847 14.0566 7.01426 13.7267C7.05586 13.6855 7.09601 13.6443 7.13436 13.6038C7.31849 13.6761 7.50732 13.7484 7.69362 13.824V13.9029C7.69362 13.9539 7.69362 14.0067 7.69362 14.0624C7.70375 14.4744 7.9975 14.7631 8.40736 14.7645C8.70834 14.7645 9.00787 14.7645 9.26146 14.7645C9.51504 14.7645 9.81928 14.7645 10.1156 14.7645C10.5251 14.7645 10.8184 14.4751 10.8286 14.0617C10.8286 14.0031 10.8286 13.9463 10.8286 13.8913V13.8226C11.0094 13.7502 11.1954 13.6779 11.3886 13.6038C11.4302 13.6472 11.4743 13.6931 11.5191 13.7376C11.8375 14.0545 12.2499 14.0541 12.5682 13.7376C13.0067 13.301 13.389 12.919 13.7356 12.5692C14.0612 12.2437 14.0572 11.8364 13.7287 11.5083C13.6871 11.4664 13.6452 11.4258 13.6043 11.3868C13.6748 11.2059 13.749 11.016 13.8249 10.8276H13.8948C13.9483 10.8276 14.0033 10.8276 14.0623 10.8276C14.4728 10.8163 14.7608 10.5223 14.7626 10.1128C14.7626 9.82559 14.7648 9.53839 14.7648 9.25299C14.7648 8.9676 14.7651 8.68184 14.7637 8.40332ZM13.113 7.04289C13.113 7.04072 13.1159 7.03674 13.1192 7.03023C13.1194 7.03167 13.1194 7.03313 13.1192 7.03457L13.1127 7.04144L13.113 7.04289ZM12.281 12.027L12.0278 12.2784L12.0187 12.269C11.7525 12.0064 11.4179 11.9702 11.101 12.1695C10.7646 12.3803 10.3957 12.534 10.0092 12.6246C9.64744 12.7114 9.44523 12.9639 9.43582 13.3354C9.43582 13.3455 9.43582 13.3552 9.43582 13.3654H9.08709C9.08058 12.9584 8.87981 12.7063 8.4902 12.6155C8.11263 12.5269 7.75205 12.3772 7.42267 12.1724C7.08986 11.9677 6.7679 12.0057 6.4908 12.2828L6.24011 12.0295C6.51106 11.7622 6.55194 11.4244 6.3508 11.1014C6.14071 10.7636 5.98723 10.3937 5.89645 10.0065C5.81035 9.64256 5.55568 9.43964 5.17873 9.43421H5.16064V9.08407H5.16788C5.56183 9.07684 5.80782 8.87934 5.8997 8.49628C5.99068 8.11406 6.14316 7.74915 6.35117 7.41582C6.54941 7.09896 6.51251 6.76473 6.24951 6.4985L6.24698 6.49561L6.49804 6.24241C6.49941 6.2437 6.50086 6.24491 6.50238 6.24602C6.76573 6.50972 7.09637 6.54842 7.40893 6.35454C7.74978 6.14222 8.12328 5.9875 8.51444 5.8966C8.8704 5.81196 9.07913 5.55044 9.08601 5.17751C9.08601 5.17244 9.08601 5.16665 9.08601 5.16123H9.4351C9.44088 5.55912 9.64021 5.80617 10.0273 5.89986C10.4009 5.98728 10.7576 6.13539 11.0832 6.33826C11.416 6.54734 11.7384 6.51695 12.0166 6.25109L12.2698 6.50429C12.0039 6.77884 11.9713 7.09643 12.1754 7.4245C12.3799 7.75453 12.53 8.11531 12.62 8.49302C12.7129 8.88115 12.9625 9.08082 13.363 9.0866V9.43675C12.9625 9.44072 12.7118 9.63967 12.62 10.0285C12.5296 10.4066 12.3793 10.7678 12.175 11.0985C11.9684 11.428 12.005 11.7496 12.281 12.027Z" fill="white"/>
<path d="M11.3228 9.20177C11.3011 8.66558 11.0762 8.15772 10.6937 7.7813C10.3188 7.40844 9.81165 7.19885 9.28286 7.19821C9.25428 7.19821 9.22787 7.19821 9.20291 7.20002C8.65357 7.21994 8.13399 7.45464 7.75591 7.85364C7.56899 8.04775 7.42328 8.27767 7.32754 8.52955C7.2318 8.78144 7.18801 9.05008 7.19881 9.31933C7.21918 9.86859 7.45398 10.388 7.85286 10.7662C8.22513 11.1228 8.72064 11.3221 9.23619 11.3225C9.2626 11.3225 9.29046 11.3225 9.3194 11.3225C9.59705 11.3122 9.86989 11.2468 10.1221 11.1302C10.3743 11.0136 10.6008 10.8481 10.7885 10.6432C11.1313 10.2746 11.3221 9.79012 11.3228 9.28677C11.3228 9.25856 11.3228 9.22998 11.3228 9.20177ZM10.2708 9.25747C10.2714 9.38939 10.2457 9.5201 10.1952 9.642C10.1448 9.76389 10.0706 9.87455 9.97706 9.96753C9.88348 10.0625 9.77228 10.1383 9.64968 10.1907C9.52833 10.2416 9.39818 10.2683 9.26658 10.2692H9.25971C9.12875 10.269 8.99913 10.2429 8.87827 10.1925C8.7574 10.1421 8.64768 10.0684 8.55538 9.97549C8.41434 9.83523 8.31794 9.65638 8.27832 9.46146C8.23871 9.26654 8.25764 9.06426 8.33274 8.88008C8.40785 8.6959 8.53576 8.53805 8.70038 8.4264C8.86501 8.31474 9.05898 8.25428 9.2579 8.25262H9.26441C9.3961 8.25267 9.52648 8.27871 9.64809 8.32923C9.76969 8.37976 9.88013 8.45378 9.97308 8.54706C10.1613 8.73576 10.2677 8.99095 10.2694 9.25747H10.2708Z" fill="white"/>
</svg>
