<svg width="622" height="1289" viewBox="0 0 622 1289" fill="none" xmlns="http://www.w3.org/2000/svg">
<g opacity="0.08">
<path d="M-100.614 279.631C-51.4514 264.809 -10.0012 263.181 25.4438 272.083C60.8827 280.984 90.4007 300.432 115.67 327.902C166.253 382.89 199.742 469.932 229.465 568.522C259.189 667.112 279.393 758.16 267.632 831.943C261.757 868.803 247.908 901.326 223.294 928.332C198.677 955.342 163.234 976.896 114.071 991.718C15.7867 1021.35 -66.4838 1002.72 -131.612 952.161C-196.785 901.57 -244.875 818.945 -274.561 720.48C-304.247 622.015 -309.841 526.578 -283.491 448.394C-257.16 370.265 -198.899 309.263 -100.614 279.631Z" stroke="#575757" stroke-width="2"/>
<path d="M-160.021 297.62C-113.995 274.853 -73.3887 266.376 -36.9584 269.279C-0.534235 272.182 31.7994 286.468 61.2732 309.369C120.272 355.21 167.726 435.497 213.383 527.795C259.039 620.093 294.056 706.532 294.69 781.244C295.007 818.568 286.741 852.937 266.945 883.649C247.145 914.367 215.766 941.498 169.741 964.265C77.7283 1009.78 -6.49292 1005.04 -79.1008 965.983C-151.759 926.896 -212.88 853.387 -258.479 761.205C-304.077 669.024 -325.415 575.835 -312.391 494.365C-299.376 412.951 -252.033 343.135 -160.021 297.62Z" stroke="#575757" stroke-width="2"/>
<path d="M-223.875 330.346C-183.059 299.19 -144.826 283.097 -108.514 278.973C-72.2074 274.85 -37.7371 282.683 -4.42472 299.518C62.2576 333.218 124.203 402.937 186.682 484.789C249.162 566.642 300.078 644.779 315.001 717.988C322.456 754.561 320.921 789.877 307.37 823.811C293.817 857.75 268.211 890.387 227.395 921.542C145.796 983.828 62.2253 995.3 -16.5165 970.861C-95.3129 946.405 -169.375 885.954 -231.775 804.205C-294.175 722.456 -332.956 635.075 -335.768 552.619C-338.577 470.219 -305.474 392.632 -223.875 330.346Z" stroke="#575757" stroke-width="2"/>
<path d="M174.619 327.726C220.29 351.196 251.249 378.805 270.575 409.823C289.898 440.835 297.636 475.327 296.747 512.641C294.967 587.335 258.628 673.226 211.562 764.814C164.495 856.401 115.815 935.951 56.1199 980.881C26.2983 1003.33 -6.25057 1017.12 -42.7149 1019.46C-79.1855 1021.8 -119.658 1012.7 -165.328 989.235C-256.632 942.314 -302.898 871.78 -314.663 790.176C-326.436 708.516 -303.671 615.666 -256.664 524.194C-209.657 432.723 -147.416 360.159 -74.167 322.191C-0.968599 284.25 83.3153 280.805 174.619 327.726Z" stroke="#575757" stroke-width="2"/>
<path d="M119.379 299.423C168.308 314.997 203.416 337.092 227.617 364.477C251.814 391.857 265.162 424.589 270.471 461.534C281.099 535.489 259.501 626.216 228.269 724.339C197.037 822.461 162.217 908.98 110.797 963.185C85.1089 990.265 55.2961 1009.26 19.7248 1017.61C-15.8525 1025.97 -57.2729 1023.71 -106.202 1008.13C-204.021 976.998 -261.34 915.11 -286.47 836.585C-311.617 758.007 -304.56 662.667 -273.367 564.669C-242.175 466.671 -192.824 384.793 -126.882 335.208C-60.9863 285.657 21.5603 268.288 119.379 299.423Z" stroke="#575757" stroke-width="2"/>
<path d="M50.7039 278.633C101.71 284.554 140.398 299.52 169.393 321.766C198.383 344.008 217.75 373.579 230.033 408.825C254.62 479.379 250.789 572.562 238.916 674.849C227.044 777.136 209.429 868.72 169.335 931.765C149.306 963.261 123.68 987.609 90.3656 1002.62C57.0459 1017.63 15.9581 1023.34 -35.0476 1017.42C-137.017 1005.58 -205.123 955.811 -244.819 883.549C-284.542 811.238 -295.865 716.31 -284.008 614.153C-272.15 511.996 -239.385 422.185 -184.154 360.895C-128.961 299.647 -51.2659 266.798 50.7039 278.633Z" stroke="#575757" stroke-width="2"/>
<path d="M-25.6006 271.39C25.5387 266.764 66.4687 273.51 99.3973 289.362C132.32 305.212 157.321 330.202 176.546 362.195C215.03 426.236 230.318 518.237 239.595 620.792C248.872 723.346 250.342 816.597 223.975 886.505C210.803 921.428 190.693 950.499 161.149 972C131.599 993.504 92.5441 1007.49 41.4048 1012.11C-60.8321 1021.36 -137.67 986.553 -191.293 923.926C-244.953 861.256 -275.433 770.644 -284.698 668.219C-293.964 565.795 -280.239 471.184 -238.696 399.902C-197.182 328.669 -127.838 280.639 -25.6006 271.39Z" stroke="#575757" stroke-width="2"/>
<path d="M333.992 534.511C353.099 582.172 358.382 623.317 352.645 659.409C346.909 695.496 330.144 726.617 305.013 754.214C254.709 809.456 170.964 850.502 75.3848 888.817C-20.1946 927.133 -109.102 955.299 -183.636 950.102C-220.87 947.506 -254.489 936.583 -283.564 914.451C-312.643 892.315 -337.243 858.915 -356.349 811.254C-394.546 715.97 -383.252 632.375 -338.647 563.036C-294.01 493.649 -215.956 438.45 -120.498 400.183C-25.0392 361.916 69.5304 347.914 149.736 367.255C229.886 386.582 295.795 439.228 333.992 534.511Z" stroke="#575757" stroke-width="2"/>
<path d="M310.828 476.926C337.571 520.761 349.601 560.46 349.927 597.004C350.253 633.542 338.879 667.011 318.671 698.393C278.22 761.21 202.439 815.57 114.534 869.201C26.6287 922.831 -56.3794 965.346 -130.743 972.577C-167.893 976.189 -202.857 970.991 -235.198 953.985C-267.545 936.976 -297.342 908.115 -324.085 864.281C-377.549 776.648 -380.269 692.338 -347.775 616.564C-315.259 540.737 -247.436 473.362 -159.642 419.8C-71.8482 366.238 19.0918 336.752 101.394 342.53C183.638 348.303 257.364 389.293 310.828 476.926Z" stroke="#575757" stroke-width="2"/>
<path d="M272.588 416.208C307.227 454.113 326.635 490.775 333.95 526.581C341.263 562.381 336.506 597.409 322.679 632.078C295 701.476 231.025 769.338 155.012 838.803C78.9976 908.268 5.66256 965.886 -65.9421 987.217C-101.714 997.874 -137.027 999.464 -172.025 988.963C-207.029 978.461 -241.799 955.837 -276.438 917.933C-345.688 842.154 -364.496 759.923 -347.108 679.331C-329.708 598.682 -276.035 519.57 -200.117 450.193C-124.199 380.816 -40.5847 334.469 41.3011 324.385C123.13 314.309 203.338 340.429 272.588 416.208Z" stroke="#575757" stroke-width="2"/>
<path d="M219.714 360.723C261.367 390.751 287.856 422.674 302.332 456.231C316.806 489.781 319.306 525.042 312.854 561.805C299.939 635.394 251.179 714.895 190.962 798.426C130.744 881.956 70.7289 953.343 4.99318 988.855C-27.8464 1006.59 -62.0895 1015.37 -98.4949 1012.24C-134.906 1009.11 -173.566 994.068 -215.219 964.04C-298.49 904.009 -333.703 827.356 -333.148 744.911C-332.593 662.408 -296.216 573.999 -236.075 490.574C-175.934 407.149 -103.553 344.695 -25.4552 318.094C52.5888 291.511 136.442 300.692 219.714 360.723Z" stroke="#575757" stroke-width="2"/>
<path d="M310.632 812.466C291.352 860.057 266.63 893.368 237.47 915.397C208.316 937.424 174.657 948.224 137.413 950.684C62.8614 955.61 -25.943 927.12 -121.382 888.457C-216.821 849.793 -300.416 808.443 -350.519 753.018C-375.549 725.329 -392.201 694.148 -397.805 658.041C-403.41 621.927 -397.977 580.802 -378.698 533.211C-340.154 438.068 -274.053 385.663 -193.833 366.627C-113.558 347.578 -19.04 361.924 76.2784 400.539C171.597 439.153 249.45 494.637 293.833 564.186C338.186 633.687 349.175 717.322 310.632 812.466Z" stroke="#575757" stroke-width="2"/>
<path d="M333.868 754.91C322.744 805.038 303.887 841.987 278.783 868.545C253.683 895.1 222.28 911.33 185.96 919.931C113.256 937.148 20.9572 923.773 -79.5709 901.466C-180.099 879.159 -269.392 852.239 -327.99 805.887C-357.263 782.731 -378.854 754.741 -390.366 720.063C-401.881 685.378 -403.34 643.922 -392.217 593.793C-369.979 493.576 -313.48 430.938 -237.526 398.868C-161.519 366.775 -65.9309 365.254 34.47 387.532C134.871 409.811 220.844 451.621 276.143 512.85C331.403 574.037 356.106 654.693 333.868 754.91Z" stroke="#575757" stroke-width="2"/>
<path d="M348.411 684.644C347.089 735.975 335.652 775.85 316.096 806.723C296.543 837.591 268.828 859.532 234.825 874.926C166.762 905.741 73.6096 910.281 -29.3295 907.63C-132.269 904.978 -225.063 895.647 -291.45 861.369C-324.615 844.244 -351.164 820.905 -369.101 789.072C-387.042 757.232 -396.41 716.822 -395.088 665.491C-392.445 562.87 -348.98 490.576 -280.569 444.56C-212.111 398.511 -118.581 378.721 -15.7726 381.37C87.0363 384.018 179.423 408.598 245.419 458.11C311.37 507.587 351.055 582.024 348.411 684.644Z" stroke="#575757" stroke-width="2"/>
<path d="M348.785 608C357.979 658.518 354.931 699.888 342.095 734.106C329.262 768.317 306.614 795.458 276.474 817.475C216.142 861.547 125.883 885.024 24.5737 903.461C-76.7357 921.897 -169.479 931.723 -241.469 911.732C-277.434 901.745 -308.191 884.323 -332.254 856.825C-356.322 829.324 -373.749 791.68 -382.942 741.161C-401.322 640.166 -373.546 560.516 -315.98 501.492C-258.375 442.428 -170.861 403.946 -69.6803 385.533C31.5009 367.119 126.961 372.304 201.681 407.287C276.35 442.246 330.406 507.004 348.785 608Z" stroke="#575757" stroke-width="2"/>
<path d="M274.884 869.792C247.338 913.126 217.015 941.433 184.361 957.843C151.712 974.251 116.657 978.804 79.5805 974.509C5.36254 965.91 -76.8484 921.873 -163.751 866.633C-250.653 811.393 -325.421 755.646 -364.708 692.095C-384.335 660.346 -395.09 626.673 -394.092 590.148C-393.093 553.615 -380.333 514.144 -352.787 470.81C-297.718 384.177 -223.251 344.551 -140.914 340.293C-58.5193 336.033 31.8622 367.188 118.655 422.358C205.447 477.528 272.019 546.141 303.133 622.553C334.225 698.913 329.953 783.159 274.884 869.792Z" stroke="#575757" stroke-width="2"/>
</g>
</svg>
