<svg width="363" height="425" viewBox="0 0 363 425" fill="none" xmlns="http://www.w3.org/2000/svg">
<mask id="mask0_6060_148218" style="mask-type:alpha" maskUnits="userSpaceOnUse" x="0" y="0" width="363" height="425">
<rect width="363" height="425" fill="#FF5B53"/>
</mask>
<g mask="url(#mask0_6060_148218)">
<g style="mix-blend-mode:color-burn">
<g style="mix-blend-mode:hard-light">
<path d="M297.286 -100.136C314.252 -42.0703 315.756 6.79159 304.906 48.4802C294.057 90.1628 270.836 124.756 238.212 154.256C172.915 213.299 70.0391 251.867 -46.3592 285.876C-162.757 319.886 -270.215 342.773 -357.029 328.173C-400.404 320.879 -438.597 304.229 -470.181 274.945C-501.769 245.656 -526.808 203.67 -543.774 145.604C-577.694 29.512 -554.912 -67.2424 -494.685 -143.475C-434.422 -219.753 -336.6 -275.566 -220.327 -309.539C-104.054 -343.511 8.42934 -349.145 100.28 -317.312C192.076 -285.497 263.366 -216.229 297.286 -100.136Z" stroke="#575757" stroke-width="2"/>
<path d="M267.63 -191.993C296.86 -139.029 308.993 -91.6739 307.503 -48.6222C306.014 -5.57672 290.903 33.2509 265.503 69.1602C214.668 141.031 122.69 201.123 16.5206 259.718C-89.6486 318.312 -189.52 364.101 -277.427 368.801C-321.349 371.149 -362.255 363.237 -399.469 341.552C-436.688 319.864 -470.288 284.356 -499.518 231.392C-557.958 125.502 -556.843 26.1084 -514.706 -61.4316C-472.545 -149.023 -389.263 -224.841 -283.208 -283.372C-177.153 -341.904 -68.611 -371.952 27.973 -360.933C124.5 -349.922 209.19 -297.883 267.63 -191.993Z" stroke="#575757" stroke-width="2"/>
<path d="M-225.331 -441.688C-167.413 -459.149 -118.565 -461.072 -76.7855 -450.578C-35.0116 -440.087 -0.220804 -417.162 29.5571 -384.791C89.1566 -320.002 128.603 -217.46 163.607 -101.357C198.611 14.7465 222.416 122.005 208.56 208.94C201.636 252.375 185.314 290.71 156.301 322.543C127.283 354.381 85.5136 379.778 27.5947 397.24C-88.2031 432.152 -185.149 410.199 -261.894 350.626C-338.684 291.017 -395.332 193.677 -430.298 77.6982C-465.264 -38.2801 -471.86 -150.711 -440.813 -242.831C-409.785 -334.896 -341.129 -406.776 -225.331 -441.688Z" stroke="#575757" stroke-width="2"/>
<path d="M-295.319 -420.492C-241.096 -447.314 -193.243 -457.307 -150.302 -453.885C-107.367 -450.464 -69.2571 -433.624 -34.5249 -406.638C34.9904 -352.625 90.8904 -258.041 144.657 -149.347C198.423 -40.6529 239.68 61.1748 240.427 149.204C240.8 193.186 231.059 233.696 207.724 269.899C184.386 306.106 147.404 338.077 93.1815 364.899C-15.2265 418.524 -114.47 412.946 -200.029 366.919C-285.638 320.866 -357.639 234.263 -411.348 125.686C-465.056 17.1085 -490.199 -92.6734 -474.854 -188.665C-459.517 -284.6 -403.727 -366.867 -295.319 -420.492Z" stroke="#575757" stroke-width="2"/>
<path d="M-370.548 -381.934C-322.462 -418.639 -277.407 -437.607 -234.605 -442.468C-191.808 -447.328 -151.18 -438.094 -111.924 -418.255C-33.3557 -378.548 39.6156 -296.413 113.194 -200.02C186.771 -103.628 246.757 -11.5805 264.34 74.6781C273.125 117.776 271.319 159.401 255.345 199.401C239.369 239.406 209.191 277.865 161.105 314.569C64.9663 387.954 -33.51 401.476 -126.297 372.678C-219.139 343.863 -306.386 272.643 -379.884 176.355C-453.383 80.0659 -499.075 -22.8734 -502.388 -120.027C-505.698 -217.124 -466.687 -308.549 -370.548 -381.934Z" stroke="#575757" stroke-width="2"/>
<path d="M-441.166 -325.661C-401.594 -371.416 -361.365 -399.19 -320.459 -412.694C-279.559 -426.195 -237.901 -425.458 -195.42 -414.058C-110.396 -391.241 -22.1818 -325.748 69.5387 -246.423C161.259 -167.097 238.786 -89.2475 273.623 -8.4012C291.028 31.9924 297.764 73.1088 290.301 115.528C282.836 157.954 261.152 201.767 221.58 247.522C142.463 339.002 48.827 372.359 -47.8867 363.127C-144.657 353.889 -244.615 301.998 -336.237 222.758C-427.859 143.518 -493.619 52.0855 -516.712 -42.3422C-539.792 -136.714 -520.283 -234.181 -441.166 -325.661Z" stroke="#575757" stroke-width="2"/>
<path d="M-572.865 -19.6378C-576.749 -80.0069 -567.554 -128.019 -547.867 -166.335C-528.182 -204.645 -497.971 -233.336 -459.695 -255.005C-383.086 -298.374 -274.273 -313.56 -153.258 -321.346C-32.2434 -329.132 77.6191 -328.015 159.153 -294.82C199.891 -278.235 233.53 -253.652 257.961 -218.18C282.396 -182.703 297.668 -136.265 301.552 -75.896C309.318 44.8005 265.969 134.25 190.556 195.501C115.098 256.788 7.45363 289.906 -113.431 297.684C-234.316 305.461 -345.317 286.41 -428.006 235.298C-510.646 184.216 -565.1 101.059 -572.865 -19.6378Z" stroke="#575757" stroke-width="2"/>
</g>
</g>
</g>
</svg>
