<svg width="144" height="144" viewBox="0 0 144 144" fill="none" xmlns="http://www.w3.org/2000/svg">
<g filter="url(#filter0_d_4908_153526)">
<circle cx="72.4375" cy="57" r="41.5" fill="#FABB5A"/>
<path d="M81.2702 43.168H62.6035C61.5426 43.168 60.5252 43.5894 59.7751 44.3395C59.0249 45.0897 58.6035 46.1071 58.6035 47.168V60.5013C58.6035 61.5622 59.0249 62.5796 59.7751 63.3297C60.5252 64.0799 61.5426 64.5013 62.6035 64.5013H66.1235L65.3502 65.8346C65.1161 66.24 64.9929 66.6999 64.9929 67.168C64.9929 67.6361 65.1161 68.0959 65.3502 68.5013C65.5862 68.9102 65.9267 69.2491 66.3366 69.4834C66.7466 69.7176 67.2114 69.8389 67.6835 69.8346H76.2968C76.7645 69.8342 77.2238 69.7107 77.6286 69.4767C78.0335 69.2427 78.3697 68.9063 78.6035 68.5013C78.8376 68.0959 78.9608 67.6361 78.9608 67.168C78.9608 66.6999 78.8376 66.24 78.6035 65.8346L77.8168 64.5013H81.2702C82.331 64.5013 83.3485 64.0799 84.0986 63.3297C84.8488 62.5796 85.2702 61.5622 85.2702 60.5013V47.168C85.2702 46.1071 84.8488 45.0897 84.0986 44.3395C83.3485 43.5894 82.331 43.168 81.2702 43.168ZM67.6302 67.168L69.2702 64.5013H74.6035L76.2035 67.168H67.6302ZM82.6035 60.5013C82.6035 60.8549 82.463 61.1941 82.213 61.4441C81.9629 61.6942 81.6238 61.8346 81.2702 61.8346H62.6035C62.2499 61.8346 61.9108 61.6942 61.6607 61.4441C61.4107 61.1941 61.2702 60.8549 61.2702 60.5013V59.168H82.6035V60.5013ZM82.6035 56.5013H61.2702V47.168C61.2702 46.8143 61.4107 46.4752 61.6607 46.2252C61.9108 45.9751 62.2499 45.8346 62.6035 45.8346H81.2702C81.6238 45.8346 81.9629 45.9751 82.213 46.2252C82.463 46.4752 82.6035 46.8143 82.6035 47.168V56.5013Z" fill="white"/>
</g>
<defs>
<filter id="filter0_d_4908_153526" x="0.9375" y="0.5" width="143" height="143" filterUnits="userSpaceOnUse" color-interpolation-filters="sRGB">
<feFlood flood-opacity="0" result="BackgroundImageFix"/>
<feColorMatrix in="SourceAlpha" type="matrix" values="0 0 0 0 0 0 0 0 0 0 0 0 0 0 0 0 0 0 127 0" result="hardAlpha"/>
<feOffset dy="15"/>
<feGaussianBlur stdDeviation="15"/>
<feComposite in2="hardAlpha" operator="out"/>
<feColorMatrix type="matrix" values="0 0 0 0 0.980392 0 0 0 0 0.733333 0 0 0 0 0.352941 0 0 0 0.26 0"/>
<feBlend mode="normal" in2="BackgroundImageFix" result="effect1_dropShadow_4908_153526"/>
<feBlend mode="normal" in="SourceGraphic" in2="effect1_dropShadow_4908_153526" result="shape"/>
</filter>
</defs>
</svg>
