<svg width="1101" height="1991" viewBox="0 0 1101 1991" fill="none" xmlns="http://www.w3.org/2000/svg">
<g style="mix-blend-mode:hard-light">
<path d="M1316.02 646.815C1367.55 687.763 1399.57 730.243 1416.1 774.111C1432.64 817.974 1433.72 863.303 1423.25 910.006C1402.29 1003.47 1335.09 1102.33 1253.02 1205.61C1170.95 1308.89 1089.84 1396.7 1003.52 1438.23C960.391 1458.98 915.989 1468.17 869.525 1461.97C823.056 1455.78 774.439 1434.18 722.907 1393.24C619.876 1311.37 579.368 1211.08 585.027 1105.51C590.689 999.888 642.577 888.878 724.564 785.699C806.55 682.519 902.966 606.892 1004.58 577.511C1106.14 548.146 1212.99 564.946 1316.02 646.815Z" stroke="#575757" stroke-width="2"/>
<path d="M1231.99 583.808C1291.22 612.521 1331.74 646.989 1357.45 686.19C1383.16 725.387 1394.11 769.387 1394.08 817.249C1394.03 913.037 1350.02 1024.18 1292.48 1142.88C1234.93 1261.59 1174.93 1364.98 1099.76 1424.35C1062.2 1454.01 1020.88 1472.67 974.181 1476.77C927.479 1480.86 875.322 1470.4 816.095 1441.69C697.679 1384.28 636.259 1295.25 618.741 1190.99C601.213 1086.68 627.621 967.019 685.111 848.433C742.601 729.847 820.186 634.999 912.936 584.149C1005.64 533.327 1113.58 526.4 1231.99 583.808Z" stroke="#575757" stroke-width="2"/>
<path d="M697.828 616.046C746.613 571.861 793.736 547.178 839.71 537.999C885.677 528.821 930.579 535.126 974.956 553.054C1063.77 588.936 1150.38 671.327 1238.94 769.102C1327.49 866.877 1400.93 961.197 1427.87 1053.12C1441.33 1099.05 1443.17 1144.35 1429.5 1189.19C1415.83 1234.03 1386.61 1278.49 1337.83 1322.68C1240.29 1411.02 1134.75 1434.67 1031.51 1411.92C928.211 1389.15 827.12 1319.89 738.651 1222.21C650.183 1124.54 591.246 1017.1 578.786 912.064C566.333 807.082 600.289 704.388 697.828 616.046Z" stroke="#575757" stroke-width="2"/>
<path d="M638.923 669.533C679.709 617.872 722.088 585.718 765.904 569.045C809.714 552.373 855.04 551.147 901.775 561.471C995.308 582.133 1094.38 649.026 1197.92 730.768C1301.46 812.51 1389.52 893.35 1431.32 979.535C1452.21 1022.6 1461.53 1066.97 1455.49 1113.45C1449.44 1159.94 1428 1208.63 1387.21 1260.29C1305.67 1363.58 1205.5 1404.4 1099.92 1399.07C994.28 1393.74 883.107 1342.21 779.67 1260.55C676.233 1178.88 600.301 1082.71 570.601 981.188C540.916 879.724 557.379 772.822 638.923 669.533Z" stroke="#575757" stroke-width="2"/>
<path d="M582.966 742.531C613.108 684.018 648.549 644.347 688.363 619.595C728.172 594.846 772.425 584.966 820.272 586.154C916.031 588.529 1026.07 635.222 1143.34 695.633C1260.62 756.045 1362.52 818.534 1420.05 895.123C1448.79 933.392 1466.44 975.159 1469.4 1021.94C1472.36 1068.73 1460.64 1120.62 1430.5 1179.13C1370.23 1296.12 1279.74 1355.36 1175.08 1370.34C1070.38 1385.33 951.395 1356.03 834.239 1295.67C717.083 1235.32 624.146 1155.46 575.563 1061.5C527.005 967.596 522.701 859.519 582.966 742.531Z" stroke="#575757" stroke-width="2"/>
<path d="M539.81 830.794C557.361 767.357 583.949 721.282 617.866 688.917C651.778 656.556 693.079 637.843 740.16 629.229C834.384 611.99 951.645 635.214 1078.79 670.39C1205.93 705.566 1318.45 745.916 1390.41 809.135C1426.37 840.723 1452.18 878.004 1464.64 923.193C1477.09 968.389 1476.22 1021.58 1458.67 1085.01C1423.58 1211.85 1347.09 1288.33 1247.71 1324.38C1148.28 1360.45 1025.82 1356.07 898.8 1320.93C771.785 1285.79 664.491 1226.6 597.735 1144.55C531.015 1062.54 504.719 957.627 539.81 830.794Z" stroke="#575757" stroke-width="2"/>
<path d="M593.323 1264.67C551.97 1213.46 529.993 1165.02 523.43 1118.6C516.868 1072.19 525.704 1027.71 546.115 984.421C586.966 897.78 674.126 815.972 776.756 733.091C879.386 650.211 977.711 582.228 1071.01 560.534C1117.63 549.695 1162.97 550.42 1206.96 566.607C1250.95 582.795 1293.69 614.479 1335.04 665.686C1417.72 768.068 1435.36 874.782 1406.8 976.568C1378.22 1078.41 1303.36 1175.42 1200.83 1258.22C1098.3 1341.02 987.703 1393.78 882.128 1400.27C776.61 1406.77 676.003 1367.05 593.323 1264.67Z" stroke="#575757" stroke-width="2"/>
</g>
<circle cx="640.293" cy="875.318" r="14.142" transform="rotate(-25.39 640.293 875.318)" fill="#343434"/>
<circle cx="876.199" cy="547.804" r="10.8785" transform="rotate(-25.39 876.199 547.804)" fill="#343434"/>
<circle cx="749.156" cy="1273.4" r="7.07101" transform="rotate(-25.39 749.156 1273.4)" fill="#343434"/>
</svg>
