<svg width="76" height="76" viewBox="0 0 76 76" fill="none" xmlns="http://www.w3.org/2000/svg">
<rect width="76" height="76" rx="38" fill="#212121"/>
<path d="M50.0013 46.3727V37.626C50.3619 37.4254 50.671 37.1439 50.9044 36.8036C51.1377 36.4633 51.2889 36.0734 51.346 35.6648C51.4031 35.2561 51.3647 34.8398 51.2336 34.4485C51.1025 34.0572 50.8824 33.7017 50.5906 33.41C50.2989 33.1182 49.9434 32.8981 49.5521 32.767C49.1608 32.6359 48.7445 32.5975 48.3358 32.6546C47.9272 32.7117 47.5374 32.8629 47.197 33.0962C46.8567 33.3296 46.5752 33.6387 46.3746 33.9993H42.0013V29.626C42.3619 29.4254 42.671 29.1439 42.9044 28.8036C43.1377 28.4633 43.2889 28.0734 43.346 27.6648C43.4031 27.2561 43.3647 26.8398 43.2336 26.4485C43.1025 26.0572 42.8824 25.7017 42.5906 25.41C42.2989 25.1182 41.9434 24.8981 41.5521 24.767C41.1608 24.6359 40.7445 24.5975 40.3358 24.6546C39.9272 24.7117 39.5374 24.8629 39.197 25.0962C38.8567 25.3296 38.5752 25.6387 38.3746 25.9993H29.6279C29.4274 25.6387 29.1458 25.3296 28.8055 25.0962C28.4652 24.8629 28.0754 24.7117 27.6667 24.6546C27.2581 24.5975 26.8417 24.6359 26.4505 24.767C26.0592 24.8981 25.7037 25.1182 25.4119 25.41C25.1201 25.7017 24.9 26.0572 24.769 26.4485C24.6379 26.8398 24.5994 27.2561 24.6565 27.6648C24.7137 28.0734 24.8649 28.4633 25.0982 28.8036C25.3315 29.1439 25.6407 29.4254 26.0013 29.626V38.3727C25.6407 38.5732 25.3315 38.8548 25.0982 39.1951C24.8649 39.5354 24.7137 39.9252 24.6565 40.3339C24.5994 40.7425 24.6379 41.1589 24.769 41.5501C24.9 41.9414 25.1201 42.2969 25.4119 42.5887C25.7037 42.8805 26.0592 43.1006 26.4505 43.2316C26.8417 43.3627 27.2581 43.4012 27.6667 43.3441C28.0754 43.2869 28.4652 43.1358 28.8055 42.9024C29.1458 42.6691 29.4274 42.3599 29.6279 41.9993H34.0013V46.3727C33.6407 46.5732 33.3315 46.8548 33.0982 47.1951C32.8649 47.5354 32.7137 47.9252 32.6565 48.3339C32.5994 48.7425 32.6379 49.1589 32.769 49.5502C32.9 49.9414 33.1201 50.2969 33.4119 50.5887C33.7037 50.8805 34.0592 51.1006 34.4505 51.2316C34.8417 51.3627 35.2581 51.4012 35.6667 51.3441C36.0754 51.2869 36.4652 51.1358 36.8055 50.9024C37.1458 50.6691 37.4274 50.3599 37.6279 49.9993H46.3746C46.5752 50.3599 46.8567 50.6691 47.197 50.9024C47.5374 51.1358 47.9272 51.2869 48.3358 51.3441C48.7445 51.4012 49.1608 51.3627 49.5521 51.2316C49.9434 51.1006 50.2989 50.8805 50.5906 50.5887C50.8824 50.2969 51.1025 49.9414 51.2336 49.5502C51.3647 49.1589 51.4031 48.7425 51.346 48.3339C51.2889 47.9252 51.1377 47.5354 50.9044 47.1951C50.671 46.8548 50.3619 46.5732 50.0013 46.3727ZM32.6679 35.3327C32.6708 35.798 32.7953 36.2546 33.0292 36.6569C33.2631 37.0592 33.5982 37.3933 34.0013 37.626V39.3327H29.6279C29.4007 38.9317 29.0689 38.5999 28.6679 38.3727V29.626C29.0689 29.3988 29.4007 29.067 29.6279 28.666H38.3746C38.6018 29.067 38.9336 29.3988 39.3346 29.626V33.9993H37.6279C37.331 33.4988 36.8785 33.1091 36.3394 32.8898C35.8003 32.6705 35.2042 32.6335 34.6422 32.7846C34.0802 32.9357 33.583 33.2665 33.2265 33.7266C32.8701 34.1866 32.6739 34.7507 32.6679 35.3327ZM39.3346 36.666V38.3727C38.9336 38.5999 38.6018 38.9317 38.3746 39.3327H36.6679V37.626C37.0689 37.3988 37.4007 37.067 37.6279 36.666H39.3346ZM47.3346 46.3727C46.9336 46.5999 46.6018 46.9317 46.3746 47.3327H37.6279C37.4007 46.9317 37.0689 46.5999 36.6679 46.3727V41.9993H38.3746C38.5752 42.3599 38.8567 42.6691 39.197 42.9024C39.5374 43.1358 39.9272 43.2869 40.3358 43.3441C40.7445 43.4012 41.1608 43.3627 41.5521 43.2316C41.9434 43.1006 42.2989 42.8805 42.5906 42.5887C42.8824 42.2969 43.1025 41.9414 43.2336 41.5501C43.3647 41.1589 43.4031 40.7425 43.346 40.3339C43.2889 39.9252 43.1377 39.5354 42.9044 39.1951C42.671 38.8548 42.3619 38.5732 42.0013 38.3727V36.666H46.3746C46.6018 37.067 46.9336 37.3988 47.3346 37.626V46.3727Z" fill="white"/>
</svg>
