<svg width="912" height="1407" viewBox="0 0 912 1407" fill="none" xmlns="http://www.w3.org/2000/svg">
<g opacity="0.16">
<g style="mix-blend-mode:hard-light">
<path d="M1133.29 614.864C1150.25 672.93 1151.76 721.792 1140.91 763.48C1130.06 805.163 1106.84 839.756 1074.21 869.256C1008.92 928.299 906.039 966.867 789.641 1000.88C673.243 1034.89 565.785 1057.77 478.971 1043.17C435.596 1035.88 397.403 1019.23 365.819 989.945C334.231 960.656 309.192 918.67 292.226 860.604C258.306 744.512 281.088 647.758 341.315 571.525C401.578 495.247 499.4 439.434 615.673 405.461C731.946 371.489 844.429 365.855 936.28 397.688C1028.08 429.503 1099.37 498.771 1133.29 614.864Z" stroke="#575757" stroke-width="2"/>
<path d="M1103.63 523.007C1132.86 575.971 1144.99 623.326 1143.5 666.378C1142.01 709.423 1126.9 748.251 1101.5 784.16C1050.67 856.031 958.69 916.123 852.521 974.718C746.351 1033.31 646.48 1079.1 558.573 1083.8C514.651 1086.15 473.745 1078.24 436.531 1056.55C399.312 1034.86 365.712 999.356 336.482 946.392C278.042 840.502 279.157 741.108 321.294 653.568C363.455 565.977 446.737 490.159 552.792 431.628C658.847 373.096 767.389 343.048 863.973 354.067C960.5 365.078 1045.19 417.117 1103.63 523.007Z" stroke="#575757" stroke-width="2"/>
<path d="M610.669 273.312C668.587 255.851 717.435 253.928 759.215 264.422C800.988 274.913 835.779 297.838 865.557 330.209C925.157 394.998 964.603 497.54 999.607 613.643C1034.61 729.746 1058.42 837.005 1044.56 923.94C1037.64 967.375 1021.31 1005.71 992.301 1037.54C963.283 1069.38 921.514 1094.78 863.595 1112.24C747.797 1147.15 650.851 1125.2 574.106 1065.63C497.316 1006.02 440.668 908.677 405.702 792.698C370.736 676.72 364.14 564.289 395.187 472.169C426.215 380.104 494.871 308.224 610.669 273.312Z" stroke="#575757" stroke-width="2"/>
<path d="M540.681 294.508C594.904 267.686 642.757 257.693 685.698 261.115C728.633 264.536 766.743 281.376 801.475 308.362C870.99 362.375 926.89 456.959 980.657 565.653C1034.42 674.347 1075.68 776.175 1076.43 864.204C1076.8 908.186 1067.06 948.696 1043.72 984.899C1020.39 1021.11 983.404 1053.08 929.182 1079.9C820.773 1133.52 721.53 1127.95 635.971 1081.92C550.362 1035.87 478.361 949.263 424.652 840.686C370.944 732.109 345.801 622.327 361.146 526.335C376.483 430.4 432.273 348.133 540.681 294.508Z" stroke="#575757" stroke-width="2"/>
<path d="M465.452 333.066C513.538 296.361 558.593 277.393 601.395 272.532C644.192 267.672 684.82 276.906 724.076 296.745C802.644 336.452 875.616 418.587 949.194 514.98C1022.77 611.372 1082.76 703.42 1100.34 789.678C1109.13 832.776 1107.32 874.401 1091.34 914.401C1075.37 954.406 1045.19 992.865 997.105 1029.57C900.966 1102.95 802.49 1116.48 709.703 1087.68C616.861 1058.86 529.614 987.643 456.116 891.355C382.617 795.066 336.925 692.127 333.612 594.973C330.302 497.876 369.313 406.451 465.452 333.066Z" stroke="#575757" stroke-width="2"/>
<path d="M394.834 389.339C434.406 343.584 474.635 315.81 515.541 302.306C556.441 288.805 598.099 289.542 640.58 300.942C725.604 323.759 813.818 389.252 905.539 468.577C997.259 547.903 1074.79 625.753 1109.62 706.599C1127.03 746.992 1133.76 788.109 1126.3 830.528C1118.84 872.954 1097.15 916.767 1057.58 962.522C978.463 1054 884.827 1087.36 788.113 1078.13C691.343 1068.89 591.385 1017 499.763 937.758C408.141 858.518 342.381 767.085 319.288 672.658C296.208 578.286 315.717 480.819 394.834 389.339Z" stroke="#575757" stroke-width="2"/>
<path d="M263.135 695.362C259.251 634.993 268.446 586.981 288.133 548.665C307.818 510.355 338.029 481.664 376.305 459.995C452.914 416.626 561.727 401.44 682.742 393.654C803.757 385.868 913.619 386.985 995.153 420.18C1035.89 436.765 1069.53 461.348 1093.96 496.82C1118.4 532.297 1133.67 578.735 1137.55 639.104C1145.32 759.8 1101.97 849.25 1026.56 910.501C951.098 971.788 843.454 1004.91 722.569 1012.68C601.684 1020.46 490.683 1001.41 407.994 950.298C325.354 899.216 270.9 816.059 263.135 695.362Z" stroke="#575757" stroke-width="2"/>
</g>
<circle cx="794.348" cy="1003.45" r="13" fill="#343434"/>
</g>
</svg>
