<svg width="76" height="76" viewBox="0 0 76 76" fill="none" xmlns="http://www.w3.org/2000/svg">
<rect width="76" height="76" rx="38" fill="#212121"/>
<path fill-rule="evenodd" clip-rule="evenodd" d="M28.0311 42.3637C28.5099 42.0884 29.1212 42.2535 29.3964 42.7323C30.2802 44.2697 31.539 45.5583 33.0554 46.4777C34.5718 47.3972 36.2964 47.9176 38.0682 47.9905C38.6201 48.0132 39.049 48.4789 39.0263 49.0307C39.0036 49.5825 38.5379 50.0115 37.9861 49.9888C35.8767 49.9021 33.8237 49.2825 32.0184 48.1879C30.2132 47.0933 28.7146 45.5593 27.6625 43.729C27.3873 43.2502 27.5523 42.6389 28.0311 42.3637Z" fill="white"/>
<path fill-rule="evenodd" clip-rule="evenodd" d="M48.9689 32.6363C48.4901 32.9116 47.8788 32.7465 47.6036 32.2677C46.7198 30.7303 45.461 29.4417 43.9446 28.5223C42.4282 27.6028 40.7036 27.0824 38.9318 27.0095C38.3799 26.9868 37.951 26.5211 37.9737 25.9693C37.9964 25.4175 38.4621 24.9885 39.0139 25.0112C41.1233 25.0979 43.1763 25.7175 44.9816 26.8121C46.7868 27.9067 48.2854 29.4407 49.3375 31.271C49.6127 31.7498 49.4477 32.3611 48.9689 32.6363Z" fill="white"/>
<path fill-rule="evenodd" clip-rule="evenodd" d="M30 26C28.8954 26 28 26.8954 28 28C28 29.1046 28.8954 30 30 30C31.1046 30 32 29.1046 32 28C32 26.8954 31.1046 26 30 26ZM26 28C26 25.7909 27.7909 24 30 24C32.2091 24 34 25.7909 34 28C34 30.2091 32.2091 32 30 32C27.7909 32 26 30.2091 26 28Z" fill="white"/>
<path fill-rule="evenodd" clip-rule="evenodd" d="M46 37C44.8954 37 44 37.8954 44 39C44 40.1046 44.8954 41 46 41C47.1046 41 48 40.1046 48 39C48 37.8954 47.1046 37 46 37ZM42 39C42 36.7909 43.7909 35 46 35C48.2091 35 50 36.7909 50 39C50 41.2091 48.2091 43 46 43C43.7909 43 42 41.2091 42 39Z" fill="white"/>
<path fill-rule="evenodd" clip-rule="evenodd" d="M30 35C27.7909 35 26 36.7909 26 39V40C26 40.5523 25.5523 41 25 41C24.4477 41 24 40.5523 24 40V39C24 35.6863 26.6863 33 30 33C33.3137 33 36 35.6863 36 39V40C36 40.5523 35.5523 41 35 41C34.4477 41 34 40.5523 34 40V39C34 36.7909 32.2091 35 30 35Z" fill="white"/>
<path fill-rule="evenodd" clip-rule="evenodd" d="M46 46C43.7909 46 42 47.7909 42 50V51C42 51.5523 41.5523 52 41 52C40.4477 52 40 51.5523 40 51V50C40 46.6863 42.6863 44 46 44C49.3137 44 52 46.6863 52 50V51C52 51.5523 51.5523 52 51 52C50.4477 52 50 51.5523 50 51V50C50 47.7909 48.2091 46 46 46Z" fill="white"/>
</svg>
