<svg width="76" height="76" viewBox="0 0 76 76" fill="none" xmlns="http://www.w3.org/2000/svg">
<rect width="76" height="76" rx="38" fill="#212121"/>
<path d="M47.3327 26H28.666C27.6051 26 26.5877 26.4214 25.8376 27.1716C25.0874 27.9217 24.666 28.9391 24.666 30V40.6667C24.666 41.7275 25.0874 42.7449 25.8376 43.4951C26.5877 44.2452 27.6051 44.6667 28.666 44.6667H36.666V47.3333H31.3327C30.9791 47.3333 30.6399 47.4738 30.3899 47.7239C30.1398 47.9739 29.9993 48.313 29.9993 48.6667C29.9993 49.0203 30.1398 49.3594 30.3899 49.6095C30.6399 49.8595 30.9791 50 31.3327 50H44.666C45.0196 50 45.3588 49.8595 45.6088 49.6095C45.8589 49.3594 45.9993 49.0203 45.9993 48.6667C45.9993 48.313 45.8589 47.9739 45.6088 47.7239C45.3588 47.4738 45.0196 47.3333 44.666 47.3333H39.3327V44.6667H47.3327C48.3935 44.6667 49.411 44.2452 50.1611 43.4951C50.9113 42.7449 51.3327 41.7275 51.3327 40.6667V30C51.3327 28.9391 50.9113 27.9217 50.1611 27.1716C49.411 26.4214 48.3935 26 47.3327 26ZM48.666 40.6667C48.666 41.0203 48.5255 41.3594 48.2755 41.6095C48.0254 41.8595 47.6863 42 47.3327 42H28.666C28.3124 42 27.9733 41.8595 27.7232 41.6095C27.4732 41.3594 27.3327 41.0203 27.3327 40.6667V30C27.3327 29.6464 27.4732 29.3072 27.7232 29.0572C27.9733 28.8071 28.3124 28.6667 28.666 28.6667H47.3327C47.6863 28.6667 48.0254 28.8071 48.2755 29.0572C48.5255 29.3072 48.666 29.6464 48.666 30V40.6667Z" fill="white"/>
</svg>
