<svg width="144" height="143" viewBox="0 0 144 143" fill="none" xmlns="http://www.w3.org/2000/svg">
<g filter="url(#filter0_d_5215_147385)">
<circle cx="72.4688" cy="56.5" r="41.5" fill="#FABB5A"/>
<path d="M80.2358 56.613C81.7925 54.6963 82.5262 52.2408 82.2763 49.7843C82.0264 47.3277 80.8132 45.0703 78.9024 43.5063C77.8077 42.629 76.5314 42.0063 75.1661 41.6834C73.8009 41.3606 72.3809 41.3456 71.0091 41.6397C69.4689 41.9803 68.0402 42.7058 66.8564 43.7483C65.6725 44.7908 64.7723 46.1164 64.2396 47.6012C63.707 49.0859 63.5593 50.6815 63.8105 52.2388C64.0616 53.7961 64.7034 55.2643 65.6758 56.5063C66.562 57.5845 67.0681 58.9248 67.1158 60.3197V60.7063C66.6084 61.1965 66.316 61.8677 66.3024 62.573V65.2397C66.3024 65.9469 66.5834 66.6252 67.0835 67.1253C67.5836 67.6254 68.2619 67.9063 68.9691 67.9063V69.2397C68.9691 69.5933 69.1096 69.9324 69.3596 70.1825C69.6097 70.4325 69.9488 70.573 70.3024 70.573C70.6561 70.573 70.9952 70.4325 71.2452 70.1825C71.4953 69.9324 71.6358 69.5933 71.6358 69.2397V67.9063H74.3024V69.2397C74.3024 69.5933 74.4429 69.9324 74.693 70.1825C74.943 70.4325 75.2821 70.573 75.6358 70.573C75.9894 70.573 76.3285 70.4325 76.5786 70.1825C76.8286 69.9324 76.9691 69.5933 76.9691 69.2397V67.9063C77.6763 67.9063 78.3546 67.6254 78.8547 67.1253C79.3548 66.6252 79.6358 65.9469 79.6358 65.2397V62.573C79.6364 61.8753 79.3635 61.2052 78.8758 60.7063V60.133C78.9147 58.839 79.3945 57.5971 80.2358 56.613ZM68.9691 65.2397V62.573H76.9691V65.2397H68.9691ZM78.1558 54.9463C76.9755 56.3385 76.2908 58.0831 76.2091 59.9063H69.7158C69.59 58.0591 68.8908 56.2972 67.7158 54.8663C67.0099 53.9805 66.5414 52.9295 66.3544 51.8123C66.1674 50.6952 66.2682 49.5489 66.6471 48.4815C67.026 47.4141 67.6706 46.4608 68.5201 45.7117C69.3697 44.9625 70.396 44.4422 71.5024 44.1997C72.4827 43.9786 73.5003 43.9819 74.479 44.2095C75.4578 44.437 76.3725 44.8829 77.1547 45.5138C77.9369 46.1447 78.5663 46.9442 78.996 47.8526C79.4256 48.761 79.6443 49.7548 79.6358 50.7597C79.6441 52.2849 79.1208 53.7653 78.1558 54.9463Z" fill="white"/>
<path d="M76.9182 51.3307C76.8381 51.2394 76.7938 51.1221 76.7938 51.0007C76.7938 50.8792 76.8381 50.7619 76.9182 50.6707L77.5582 49.9507C77.6287 49.872 77.6725 49.773 77.6833 49.6679C77.6941 49.5628 77.6713 49.457 77.6182 49.3657L76.6182 47.6357C76.5657 47.5444 76.4857 47.4721 76.3896 47.429C76.2935 47.3859 76.1863 47.3743 76.0832 47.3957L75.1432 47.5857C75.0236 47.6104 74.8991 47.5905 74.7932 47.5297C74.6872 47.4689 74.6072 47.3714 74.5682 47.2557L74.2632 46.3407C74.2297 46.2414 74.1658 46.1551 74.0805 46.0941C73.9953 46.0331 73.893 46.0004 73.7882 46.0007H71.7882C71.6792 45.995 71.5713 46.0251 71.481 46.0865C71.3907 46.1479 71.323 46.2372 71.2882 46.3407L71.0082 47.2557C70.9692 47.3714 70.8892 47.4689 70.7833 47.5297C70.6773 47.5905 70.5528 47.6104 70.4332 47.5857L69.4682 47.3957C69.3705 47.3819 69.2709 47.3973 69.1819 47.44C69.0929 47.4827 69.0186 47.5508 68.9682 47.6357L67.9682 49.3657C67.9138 49.456 67.8893 49.5612 67.8983 49.6663C67.9073 49.7714 67.9493 49.8709 68.0182 49.9507L68.6532 50.6707C68.7334 50.7619 68.7776 50.8792 68.7776 51.0007C68.7776 51.1221 68.7334 51.2394 68.6532 51.3307L68.0182 52.0507C67.9493 52.1305 67.9073 52.23 67.8983 52.3351C67.8893 52.4401 67.9138 52.5454 67.9682 52.6357L68.9682 54.3657C69.0208 54.4569 69.1008 54.5292 69.1968 54.5723C69.2929 54.6154 69.4001 54.6271 69.5032 54.6057L70.4432 54.4157C70.5628 54.391 70.6873 54.4109 70.7933 54.4717C70.8992 54.5325 70.9792 54.6299 71.0182 54.7457L71.3232 55.6607C71.358 55.7642 71.4257 55.8534 71.516 55.9148C71.6063 55.9762 71.7142 56.0064 71.8232 56.0007H73.8232C73.928 56.001 74.0303 55.9683 74.1155 55.9073C74.2008 55.8462 74.2647 55.76 74.2982 55.6607L74.6032 54.7457C74.6422 54.6299 74.7222 54.5325 74.8282 54.4717C74.9341 54.4109 75.0586 54.391 75.1782 54.4157L76.1182 54.6057C76.2213 54.6271 76.3285 54.6154 76.4246 54.5723C76.5207 54.5292 76.6007 54.4569 76.6532 54.3657L77.6532 52.6357C77.7063 52.5443 77.7291 52.4385 77.7183 52.3334C77.7075 52.2283 77.6637 52.1293 77.5932 52.0507L76.9182 51.3307ZM76.1732 52.0007L76.5732 52.4507L75.9332 53.5607L75.3432 53.4407C74.9831 53.3671 74.6085 53.4282 74.2905 53.6126C73.9725 53.7969 73.7333 54.0916 73.6182 54.4407L73.4282 55.0007H72.1482L71.9682 54.4307C71.8531 54.0816 71.6139 53.7869 71.2959 53.6026C70.9779 53.4182 70.6033 53.3571 70.2432 53.4307L69.6532 53.5507L69.0032 52.4457L69.4032 51.9957C69.6492 51.7207 69.7852 51.3646 69.7852 50.9957C69.7852 50.6267 69.6492 50.2707 69.4032 49.9957L69.0032 49.5457L69.6432 48.4457L70.2332 48.5657C70.5933 48.6393 70.9679 48.5781 71.2859 48.3938C71.6039 48.2094 71.8431 47.9148 71.9582 47.5657L72.1482 47.0007H73.4282L73.6182 47.5707C73.7333 47.9198 73.9725 48.2144 74.2905 48.3988C74.6085 48.5831 74.9831 48.6443 75.3432 48.5707L75.9332 48.4507L76.5732 49.5607L76.1732 50.0107C75.93 50.2851 75.7957 50.639 75.7957 51.0057C75.7957 51.3723 75.93 51.7263 76.1732 52.0007V52.0007ZM72.7882 49.0007C72.3926 49.0007 72.006 49.118 71.6771 49.3377C71.3482 49.5575 71.0918 49.8699 70.9405 50.2353C70.7891 50.6008 70.7495 51.0029 70.8266 51.3909C70.9038 51.7788 71.0943 52.1352 71.374 52.4149C71.6537 52.6946 72.0101 52.8851 72.398 52.9623C72.786 53.0394 73.1881 52.9998 73.5536 52.8484C73.919 52.6971 74.2314 52.4407 74.4511 52.1118C74.6709 51.7829 74.7882 51.3962 74.7882 51.0007C74.7882 50.4702 74.5775 49.9615 74.2024 49.5865C73.8274 49.2114 73.3186 49.0007 72.7882 49.0007V49.0007ZM72.7882 52.0007C72.5904 52.0007 72.3971 51.942 72.2326 51.8321C72.0682 51.7223 71.94 51.5661 71.8643 51.3834C71.7886 51.2006 71.7688 50.9996 71.8074 50.8056C71.846 50.6116 71.9413 50.4334 72.0811 50.2936C72.221 50.1537 72.3991 50.0585 72.5931 50.0199C72.7871 49.9813 72.9882 50.0011 73.1709 50.0768C73.3536 50.1525 73.5098 50.2807 73.6197 50.4451C73.7296 50.6096 73.7882 50.8029 73.7882 51.0007C73.7882 51.2659 73.6829 51.5203 73.4953 51.7078C73.3078 51.8953 73.0534 52.0007 72.7882 52.0007Z" fill="#FCFCFC"/>
</g>
<path d="M63.9688 36L66.9688 41" stroke="white" stroke-width="2"/>
<path d="M82.9688 37L79.9688 42" stroke="white" stroke-width="2"/>
<path d="M73.6113 34L73.5147 39.8302" stroke="white" stroke-width="2"/>
<defs>
<filter id="filter0_d_5215_147385" x="0.96875" y="0" width="143" height="143" filterUnits="userSpaceOnUse" color-interpolation-filters="sRGB">
<feFlood flood-opacity="0" result="BackgroundImageFix"/>
<feColorMatrix in="SourceAlpha" type="matrix" values="0 0 0 0 0 0 0 0 0 0 0 0 0 0 0 0 0 0 127 0" result="hardAlpha"/>
<feOffset dy="15"/>
<feGaussianBlur stdDeviation="15"/>
<feComposite in2="hardAlpha" operator="out"/>
<feColorMatrix type="matrix" values="0 0 0 0 0.980392 0 0 0 0 0.733333 0 0 0 0 0.352941 0 0 0 0.26 0"/>
<feBlend mode="normal" in2="BackgroundImageFix" result="effect1_dropShadow_5215_147385"/>
<feBlend mode="normal" in="SourceGraphic" in2="effect1_dropShadow_5215_147385" result="shape"/>
</filter>
</defs>
</svg>
