<svg width="135" height="135" viewBox="0 0 135 135" fill="none" xmlns="http://www.w3.org/2000/svg">
<g filter="url(#filter0_d_4908_153511)">
<circle cx="67.6367" cy="54.5" r="41.5" fill="#FABB5A"/>
<path d="M80.138 62.3727V53.626C80.4986 53.4254 80.8077 53.1439 81.0411 52.8036C81.2744 52.4632 81.4256 52.0734 81.4827 51.6648C81.5399 51.2561 81.5014 50.8398 81.3703 50.4485C81.2392 50.0572 81.0191 49.7017 80.7274 49.41C80.4356 49.1182 80.0801 48.8981 79.6888 48.767C79.2976 48.6359 78.8812 48.5975 78.4726 48.6546C78.0639 48.7117 77.6741 48.8629 77.3338 49.0962C76.9934 49.3296 76.7119 49.6387 76.5113 49.9993H72.138V45.626C72.4986 45.4254 72.8077 45.1439 73.0411 44.8036C73.2744 44.4633 73.4256 44.0734 73.4827 43.6648C73.5399 43.2561 73.5014 42.8398 73.3703 42.4485C73.2392 42.0572 73.0191 41.7017 72.7274 41.41C72.4356 41.1182 72.0801 40.8981 71.6888 40.767C71.2976 40.6359 70.8812 40.5975 70.4726 40.6546C70.0639 40.7117 69.6741 40.8629 69.3338 41.0962C68.9934 41.3296 68.7119 41.6387 68.5113 41.9993H59.7647C59.5641 41.6387 59.2826 41.3296 58.9422 41.0962C58.6019 40.8629 58.2121 40.7117 57.8034 40.6546C57.3948 40.5975 56.9784 40.6359 56.5872 40.767C56.1959 40.8981 55.8404 41.1182 55.5486 41.41C55.2569 41.7017 55.0368 42.0572 54.9057 42.4485C54.7746 42.8398 54.7361 43.2561 54.7933 43.6648C54.8504 44.0734 55.0016 44.4633 55.2349 44.8036C55.4683 45.1439 55.7774 45.4254 56.138 45.626V54.3727C55.7774 54.5732 55.4683 54.8548 55.2349 55.1951C55.0016 55.5354 54.8504 55.9252 54.7933 56.3339C54.7361 56.7425 54.7746 57.1589 54.9057 57.5502C55.0368 57.9414 55.2569 58.2969 55.5486 58.5887C55.8404 58.8805 56.1959 59.1006 56.5872 59.2316C56.9784 59.3627 57.3948 59.4012 57.8034 59.3441C58.2121 59.2869 58.6019 59.1358 58.9422 58.9024C59.2826 58.6691 59.5641 58.3599 59.7647 57.9993H64.138V62.3727C63.7774 62.5732 63.4683 62.8548 63.2349 63.1951C63.0016 63.5354 62.8504 63.9252 62.7933 64.3339C62.7361 64.7425 62.7746 65.1589 62.9057 65.5502C63.0368 65.9414 63.2569 66.2969 63.5486 66.5887C63.8404 66.8805 64.1959 67.1006 64.5872 67.2316C64.9784 67.3627 65.3948 67.4012 65.8034 67.3441C66.2121 67.2869 66.6019 67.1358 66.9422 66.9024C67.2826 66.6691 67.5641 66.3599 67.7647 65.9993H76.5113C76.7119 66.3599 76.9934 66.6691 77.3338 66.9024C77.6741 67.1358 78.0639 67.2869 78.4726 67.3441C78.8812 67.4012 79.2976 67.3627 79.6888 67.2316C80.0801 67.1006 80.4356 66.8805 80.7274 66.5887C81.0191 66.2969 81.2392 65.9414 81.3703 65.5502C81.5014 65.1589 81.5399 64.7425 81.4827 64.3339C81.4256 63.9252 81.2744 63.5354 81.0411 63.1951C80.8077 62.8548 80.4986 62.5732 80.138 62.3727ZM62.8047 51.3327C62.8075 51.798 62.932 52.2546 63.1659 52.6569C63.3998 53.0592 63.735 53.3933 64.138 53.626V55.3327H59.7647C59.5374 54.9317 59.2056 54.5999 58.8047 54.3727V45.626C59.2056 45.3988 59.5374 45.067 59.7647 44.666H68.5113C68.7386 45.067 69.0704 45.3988 69.4713 45.626V49.9993H67.7647C67.4677 49.4988 67.0152 49.1091 66.4761 48.8898C65.937 48.6705 65.341 48.6335 64.7789 48.7846C64.2169 48.9357 63.7197 49.2665 63.3632 49.7266C63.0068 50.1866 62.8106 50.7507 62.8047 51.3327V51.3327ZM69.4713 52.666V54.3727C69.0704 54.5999 68.7386 54.9317 68.5113 55.3327H66.8047V53.626C67.2056 53.3988 67.5374 53.067 67.7647 52.666H69.4713ZM77.4713 62.3727C77.0704 62.5999 76.7386 62.9317 76.5113 63.3327H67.7647C67.5374 62.9317 67.2056 62.5999 66.8047 62.3727V57.9993H68.5113C68.7119 58.3599 68.9934 58.6691 69.3338 58.9024C69.6741 59.1358 70.0639 59.2869 70.4726 59.3441C70.8812 59.4012 71.2976 59.3627 71.6888 59.2316C72.0801 59.1006 72.4356 58.8805 72.7274 58.5887C73.0191 58.2969 73.2392 57.9414 73.3703 57.5502C73.5014 57.1589 73.5399 56.7425 73.4827 56.3339C73.4256 55.9252 73.2744 55.5354 73.0411 55.1951C72.8077 54.8548 72.4986 54.5732 72.138 54.3727V52.666H76.5113C76.7386 53.067 77.0704 53.3988 77.4713 53.626V62.3727Z" fill="white"/>
</g>
<defs>
<filter id="filter0_d_4908_153511" x="0.466616" y="0.164948" width="134.34" height="134.34" filterUnits="userSpaceOnUse" color-interpolation-filters="sRGB">
<feFlood flood-opacity="0" result="BackgroundImageFix"/>
<feColorMatrix in="SourceAlpha" type="matrix" values="0 0 0 0 0 0 0 0 0 0 0 0 0 0 0 0 0 0 127 0" result="hardAlpha"/>
<feOffset dy="12.8351"/>
<feGaussianBlur stdDeviation="12.8351"/>
<feComposite in2="hardAlpha" operator="out"/>
<feColorMatrix type="matrix" values="0 0 0 0 0.980392 0 0 0 0 0.733333 0 0 0 0 0.352941 0 0 0 0.26 0"/>
<feBlend mode="normal" in2="BackgroundImageFix" result="effect1_dropShadow_4908_153511"/>
<feBlend mode="normal" in="SourceGraphic" in2="effect1_dropShadow_4908_153511" result="shape"/>
</filter>
</defs>
</svg>
