<svg width="895" height="1382" viewBox="0 0 895 1382" fill="none" xmlns="http://www.w3.org/2000/svg">
<g style="mix-blend-mode:hard-light" opacity="0.42">
<path d="M1086.48 530.039C1113.13 584.346 1122.97 632.23 1119.41 675.16C1115.86 718.084 1098.9 756.141 1071.8 790.788C1017.57 860.132 922.809 915.734 813.946 969.158C705.083 1022.58 603.126 1063.52 515.095 1063.99C471.112 1064.22 430.633 1054.35 394.504 1030.9C358.37 1007.45 326.516 970.369 299.866 916.062C246.582 807.486 252.473 708.26 298.769 622.847C345.092 537.383 431.921 465.655 540.667 412.289C649.413 358.923 759.274 334.126 855.216 349.774C951.103 365.413 1033.19 421.462 1086.48 530.039Z" stroke="#575757" stroke-width="2"/>
<path d="M1041.54 444.611C1079.4 491.792 1099.46 536.373 1105.36 579.045C1111.25 621.711 1103.01 662.551 1084.13 702.277C1046.34 781.786 966 856.73 871.423 932.625C776.845 1008.52 686.28 1070.72 600.474 1090.4C557.602 1100.22 515.945 1099.43 475.569 1084.43C435.188 1069.43 396.009 1040.19 358.147 993.013C282.451 898.684 266.543 800.565 293.08 707.106C319.633 613.592 388.714 524.642 483.19 448.828C577.667 373.014 679.467 324.837 776.512 319.167C873.5 313.501 965.844 350.282 1041.54 444.611Z" stroke="#575757" stroke-width="2"/>
<path d="M585.321 260.869C643.24 243.407 692.087 241.485 733.867 251.978C775.641 262.47 810.432 285.395 840.209 317.765C899.809 382.554 939.256 485.097 974.259 601.2C1009.26 717.303 1033.07 824.561 1019.21 911.496C1012.29 954.932 995.967 993.266 966.953 1025.1C937.936 1056.94 896.166 1082.34 838.247 1099.8C722.449 1134.71 625.504 1112.76 548.758 1053.18C471.968 993.574 415.32 896.233 380.354 780.255C345.388 664.277 338.793 551.845 369.839 459.726C400.867 367.661 469.523 295.781 585.321 260.869Z" stroke="#575757" stroke-width="2"/>
<path d="M515.334 282.065C569.556 255.243 617.409 245.249 660.35 248.671C703.286 252.093 741.395 268.933 776.127 295.919C845.643 349.932 901.543 444.516 955.309 553.21C1009.08 661.904 1050.33 763.731 1051.08 851.761C1051.45 895.743 1041.71 936.253 1018.38 972.455C995.038 1008.66 958.057 1040.63 903.834 1067.46C795.426 1121.08 696.182 1115.5 610.623 1069.48C525.014 1023.42 453.013 936.819 399.304 828.242C345.596 719.665 320.453 609.883 335.799 513.892C351.135 417.956 406.926 335.69 515.334 282.065Z" stroke="#575757" stroke-width="2"/>
<path d="M440.104 320.621C488.19 283.916 533.245 264.948 576.048 260.087C618.844 255.227 659.472 264.46 698.728 284.299C777.297 324.007 850.268 406.142 923.846 502.534C997.424 598.927 1057.41 690.974 1074.99 777.233C1083.78 820.331 1081.97 861.956 1066 901.956C1050.02 941.961 1019.84 980.419 971.757 1017.12C875.619 1090.51 777.142 1104.03 684.355 1075.23C591.514 1046.42 504.267 975.198 430.768 878.909C357.269 782.621 311.577 679.681 308.265 582.527C304.954 485.43 343.966 394.005 440.104 320.621Z" stroke="#575757" stroke-width="2"/>
<path d="M369.488 376.9C409.06 331.144 449.289 303.371 490.195 289.867C531.096 276.365 572.754 277.103 615.235 288.503C700.259 311.319 788.472 376.813 880.193 456.138C971.913 535.463 1049.44 613.313 1084.28 694.159C1101.68 734.553 1108.42 775.669 1100.95 818.089C1093.49 860.515 1071.81 904.327 1032.23 950.083C953.117 1041.56 859.481 1074.92 762.768 1065.69C665.997 1056.45 566.039 1004.56 474.417 925.318C382.795 846.078 317.035 754.646 293.942 660.218C270.863 565.846 290.371 468.379 369.488 376.9Z" stroke="#575757" stroke-width="2"/>
<path d="M242.931 758.235C228.775 699.421 229.62 650.543 242.461 609.424C255.3 568.311 280.157 534.874 314.161 506.975C382.219 451.138 486.83 417.558 604.728 389.181C722.626 360.804 831.059 343.107 917.071 361.861C960.045 371.232 997.394 389.697 1027.53 420.465C1057.68 451.238 1080.67 494.378 1094.83 553.193C1123.13 670.781 1095.73 766.329 1031.9 839.579C968.046 912.873 867.656 963.921 749.884 992.268C632.113 1020.61 519.489 1020.84 429.274 984.626C339.112 948.438 271.233 875.823 242.931 758.235Z" stroke="#575757" stroke-width="2"/>
</g>
<circle cx="366.5" cy="812.5" r="6.5" fill="#343434"/>
<circle cx="671" cy="1094" r="5" fill="#343434"/>
</svg>
