<svg width="76" height="76" viewBox="0 0 76 76" fill="none" xmlns="http://www.w3.org/2000/svg">
<rect width="76" height="76" rx="38" fill="#212121"/>
<path d="M34 42.5C33.8022 42.5 33.6089 42.5586 33.4444 42.6685C33.28 42.7784 33.1518 42.9346 33.0761 43.1173C33.0004 43.3 32.9806 43.5011 33.0192 43.6951C33.0578 43.8891 33.153 44.0673 33.2929 44.2071C33.4327 44.347 33.6109 44.4422 33.8049 44.4808C33.9989 44.5194 34.2 44.4996 34.3827 44.4239C34.5654 44.3482 34.7216 44.22 34.8315 44.0556C34.9414 43.8911 35 43.6978 35 43.5C35 43.2348 34.8946 42.9804 34.7071 42.7929C34.5196 42.6054 34.2652 42.5 34 42.5V42.5ZM38 28C34 28 30 29.37 30 32V44C30 46.63 34 48 38 48C42 48 46 46.63 46 44V32C46 29.37 42 28 38 28ZM44 44C44 44.71 41.72 46 38 46C34.28 46 32 44.71 32 44V40.73C33.8721 41.62 35.9279 42.0551 38 42C40.0721 42.0551 42.1279 41.62 44 40.73V44ZM44 38C44 38.71 41.72 40 38 40C34.28 40 32 38.71 32 38V34.73C33.8721 35.62 35.9279 36.0551 38 36C40.0721 36.0551 42.1279 35.62 44 34.73V38ZM38 34C34.28 34 32 32.71 32 32C32 31.29 34.28 30 38 30C41.72 30 44 31.29 44 32C44 32.71 41.72 34 38 34ZM34 36.5C33.8022 36.5 33.6089 36.5586 33.4444 36.6685C33.28 36.7784 33.1518 36.9346 33.0761 37.1173C33.0004 37.3 32.9806 37.5011 33.0192 37.6951C33.0578 37.8891 33.153 38.0673 33.2929 38.2071C33.4327 38.347 33.6109 38.4422 33.8049 38.4808C33.9989 38.5194 34.2 38.4996 34.3827 38.4239C34.5654 38.3482 34.7216 38.22 34.8315 38.0556C34.9414 37.8911 35 37.6978 35 37.5C35 37.2348 34.8946 36.9804 34.7071 36.7929C34.5196 36.6054 34.2652 36.5 34 36.5V36.5Z" fill="white"/>
</svg>
