<svg width="76" height="76" viewBox="0 0 76 76" fill="none" xmlns="http://www.w3.org/2000/svg">
<rect width="76" height="76" rx="38" fill="#212121"/>
<path d="M49.8503 39.1876C49.6099 38.9255 49.4772 38.5884 49.4772 38.2394C49.4772 37.8905 49.6099 37.5534 49.8503 37.2913L51.7703 35.2225C51.9819 34.9965 52.1133 34.7121 52.1456 34.4101C52.178 34.1081 52.1096 33.8041 51.9503 33.5416L48.9503 28.5709C48.7927 28.3087 48.5527 28.1009 48.2645 27.9771C47.9763 27.8533 47.6546 27.8197 47.3453 27.8813L44.5253 28.4272C44.1665 28.4982 43.7929 28.441 43.4752 28.2663C43.1574 28.0916 42.9173 27.8116 42.8003 27.479L41.8853 24.85C41.7847 24.5646 41.593 24.3168 41.3373 24.1415C41.0816 23.9662 40.7748 23.8723 40.4603 23.873H34.4603C34.1332 23.8567 33.8095 23.9433 33.5387 24.1197C33.2678 24.2961 33.0647 24.5526 32.9603 24.85L32.1203 27.479C32.0033 27.8116 31.7633 28.0916 31.4455 28.2663C31.1277 28.441 30.7542 28.4982 30.3953 28.4272L27.5003 27.8813C27.2072 27.8416 26.9083 27.8859 26.6414 28.0086C26.3744 28.1313 26.1514 28.327 26.0003 28.5709L23.0003 33.5416C22.8371 33.8012 22.7637 34.1035 22.7906 34.4054C22.8175 34.7073 22.9435 34.9933 23.1503 35.2225L25.0553 37.2913C25.2958 37.5534 25.4284 37.8905 25.4284 38.2394C25.4284 38.5884 25.2958 38.9255 25.0553 39.1876L23.1503 41.2564C22.9435 41.4856 22.8175 41.7716 22.7906 42.0735C22.7637 42.3754 22.8371 42.6777 23.0003 42.9373L26.0003 47.908C26.158 48.1702 26.398 48.378 26.6862 48.5018C26.9744 48.6256 27.2961 48.6592 27.6053 48.5976L30.4253 48.0517C30.7842 47.9807 31.1577 48.0379 31.4755 48.2126C31.7933 48.3873 32.0333 48.6673 32.1503 48.9999L33.0653 51.6289C33.1697 51.9263 33.3728 52.1828 33.6437 52.3592C33.9145 52.5356 34.2382 52.6222 34.5653 52.6059H40.5653C40.8798 52.6066 41.1866 52.5127 41.4423 52.3374C41.698 52.1621 41.8897 51.9143 41.9903 51.6289L42.9053 48.9999C43.0223 48.6673 43.2624 48.3873 43.5802 48.2126C43.8979 48.0379 44.2715 47.9807 44.6303 48.0517L47.4503 48.5976C47.7596 48.6592 48.0813 48.6256 48.3695 48.5018C48.6577 48.378 48.8977 48.1702 49.0553 47.908L52.0553 42.9373C52.2146 42.6748 52.283 42.3708 52.2506 42.0688C52.2183 41.7668 52.0869 41.4824 51.8753 41.2564L49.8503 39.1876ZM47.6153 41.1127L48.8153 42.4057L46.8953 45.595L45.1253 45.2503C44.045 45.0387 42.9212 45.2145 41.9672 45.7442C41.0133 46.2738 40.2955 47.1205 39.9503 48.1235L39.3803 49.7326H35.5403L35.0003 48.0948C34.6551 47.0918 33.9374 46.2451 32.9834 45.7154C32.0295 45.1858 30.9057 45.01 29.8253 45.2215L28.0553 45.5663L26.1053 42.3913L27.3053 41.0984C28.0433 40.3082 28.4512 39.2852 28.4512 38.2251C28.4512 37.1649 28.0433 36.142 27.3053 35.3518L26.1053 34.0588L28.0253 30.8982L29.7953 31.243C30.8757 31.4545 31.9995 31.2788 32.9534 30.7491C33.9074 30.2194 34.6251 29.3727 34.9703 28.3697L35.5403 26.7463H39.3803L39.9503 28.3841C40.2955 29.3871 41.0133 30.2338 41.9672 30.7635C42.9212 31.2931 44.045 31.4689 45.1253 31.2574L46.8953 30.9126L48.8153 34.1019L47.6153 35.3949C46.8857 36.1833 46.4828 37.2003 46.4828 38.2538C46.4828 39.3073 46.8857 40.3244 47.6153 41.1127ZM37.4603 32.4929C36.2736 32.4929 35.1136 32.8299 34.1269 33.4614C33.1402 34.0928 32.3712 34.9903 31.9171 36.0403C31.4629 37.0904 31.3441 38.2458 31.5756 39.3605C31.8071 40.4753 32.3786 41.4992 33.2177 42.3029C34.0568 43.1066 35.1259 43.6539 36.2898 43.8756C37.4537 44.0973 38.6601 43.9835 39.7564 43.5486C40.8528 43.1136 41.7899 42.3771 42.4491 41.4321C43.1084 40.487 43.4603 39.376 43.4603 38.2394C43.4603 36.7154 42.8282 35.2537 41.703 34.176C40.5778 33.0983 39.0516 32.4929 37.4603 32.4929ZM37.4603 41.1127C36.867 41.1127 36.287 40.9442 35.7936 40.6285C35.3003 40.3128 34.9158 39.864 34.6887 39.339C34.4616 38.814 34.4022 38.2363 34.518 37.6789C34.6337 37.1215 34.9195 36.6096 35.339 36.2077C35.7586 35.8059 36.2931 35.5322 36.8751 35.4214C37.457 35.3105 38.0602 35.3674 38.6084 35.5849C39.1566 35.8024 39.6251 36.1706 39.9547 36.6431C40.2844 37.1156 40.4603 37.6712 40.4603 38.2394C40.4603 39.0015 40.1443 39.7323 39.5817 40.2712C39.019 40.81 38.256 41.1127 37.4603 41.1127Z" fill="white"/>
</svg>
