<svg width="76" height="76" viewBox="0 0 76 76" fill="none" xmlns="http://www.w3.org/2000/svg">
<rect width="76" height="76" rx="38" fill="#212121"/>
<path d="M43.0899 28.8213C42.1702 28.0649 41.0933 27.5233 39.9376 27.2361C38.7819 26.9489 37.5767 26.9234 36.4099 27.1613C34.8563 27.4751 33.4309 28.2434 32.3146 29.3686C31.1983 30.4938 30.4414 31.9252 30.1399 33.4813C29.9198 34.648 29.9598 35.8489 30.2571 36.9984C30.5544 38.1479 31.1017 39.2176 31.8599 40.1313C32.5636 40.9254 32.967 41.9408 32.9999 43.0013V46.0013C32.9999 46.7969 33.316 47.56 33.8786 48.1226C34.4412 48.6852 35.2043 49.0013 35.9999 49.0013H39.9999C40.7956 49.0013 41.5587 48.6852 42.1213 48.1226C42.6839 47.56 42.9999 46.7969 42.9999 46.0013V43.1913C43.0335 42.0205 43.4637 40.8957 44.2199 40.0013C45.5451 38.3621 46.1697 36.2661 45.9581 34.1689C45.7465 32.0717 44.7158 30.1428 43.0899 28.8013V28.8213ZM40.9999 46.0013C40.9999 46.2665 40.8946 46.5209 40.707 46.7084C40.5195 46.8959 40.2652 47.0013 39.9999 47.0013H35.9999C35.7347 47.0013 35.4804 46.8959 35.2928 46.7084C35.1053 46.5209 34.9999 46.2665 34.9999 46.0013V45.0013H40.9999V46.0013ZM42.6699 38.7613C41.6644 39.9539 41.0778 41.4433 40.9999 43.0013H38.9999V40.0013C38.9999 39.7361 38.8946 39.4817 38.707 39.2942C38.5195 39.1066 38.2652 39.0013 37.9999 39.0013C37.7347 39.0013 37.4804 39.1066 37.2928 39.2942C37.1053 39.4817 36.9999 39.7361 36.9999 40.0013V43.0013H34.9999C34.9736 41.4694 34.4069 39.9961 33.3999 38.8413C32.7356 38.0453 32.2888 37.0907 32.1033 36.0706C31.9177 35.0506 31.9996 33.9998 32.341 33.0208C32.6825 32.0418 33.2718 31.168 34.0515 30.4846C34.8312 29.8012 35.7747 29.3315 36.7899 29.1213C37.6625 28.9416 38.5641 28.9585 39.4293 29.1708C40.2945 29.383 41.1016 29.7852 41.792 30.3482C42.4824 30.9113 43.0387 31.621 43.4206 32.4258C43.8025 33.2306 44.0004 34.1104 43.9999 35.0013C44.0073 36.3712 43.537 37.7008 42.6699 38.7613V38.7613Z" fill="white"/>
</svg>
