<svg width="76" height="76" viewBox="0 0 76 76" fill="none" xmlns="http://www.w3.org/2000/svg">
<rect width="76" height="76" rx="38" fill="#212121"/>
<path d="M35 36.5761H36C36.2652 36.5761 36.5196 36.4752 36.7071 36.2956C36.8946 36.116 37 35.8724 37 35.6184C37 35.3644 36.8946 35.1208 36.7071 34.9411C36.5196 34.7615 36.2652 34.6606 36 34.6606H35C34.7348 34.6606 34.4804 34.7615 34.2929 34.9411C34.1054 35.1208 34 35.3644 34 35.6184C34 35.8724 34.1054 36.116 34.2929 36.2956C34.4804 36.4752 34.7348 36.5761 35 36.5761ZM35 38.4917C34.7348 38.4917 34.4804 38.5926 34.2929 38.7722C34.1054 38.9518 34 39.1954 34 39.4494C34 39.7034 34.1054 39.947 34.2929 40.1267C34.4804 40.3063 34.7348 40.4072 35 40.4072H41C41.2652 40.4072 41.5196 40.3063 41.7071 40.1267C41.8946 39.947 42 39.7034 42 39.4494C42 39.1954 41.8946 38.9518 41.7071 38.7722C41.5196 38.5926 41.2652 38.4917 41 38.4917H35ZM46 35.5609C45.9896 35.4729 45.9695 35.3863 45.94 35.3023V35.2161C45.8919 35.1176 45.8278 35.0271 45.75 34.948L39.75 29.2014C39.6673 29.1269 39.5728 29.0655 39.47 29.0194C39.4402 29.0154 39.4099 29.0154 39.38 29.0194C39.2784 28.9636 39.1662 28.9278 39.05 28.9141H33C32.2044 28.9141 31.4413 29.2168 30.8787 29.7556C30.3161 30.2945 30 31.0253 30 31.7873V45.196C30 45.958 30.3161 46.6889 30.8787 47.2277C31.4413 47.7665 32.2044 48.0693 33 48.0693H43C43.7956 48.0693 44.5587 47.7665 45.1213 47.2277C45.6839 46.6889 46 45.958 46 45.196V35.6184C46 35.6184 46 35.6184 46 35.5609ZM40 32.18L42.59 34.6606H41C40.7348 34.6606 40.4804 34.5597 40.2929 34.3801C40.1054 34.2005 40 33.9569 40 33.7029V32.18ZM44 45.196C44 45.45 43.8946 45.6936 43.7071 45.8732C43.5196 46.0528 43.2652 46.1537 43 46.1537H33C32.7348 46.1537 32.4804 46.0528 32.2929 45.8732C32.1054 45.6936 32 45.45 32 45.196V31.7873C32 31.5333 32.1054 31.2897 32.2929 31.1101C32.4804 30.9305 32.7348 30.8296 33 30.8296H38V33.7029C38 34.4649 38.3161 35.1957 38.8787 35.7346C39.4413 36.2734 40.2044 36.5761 41 36.5761H44V45.196ZM41 42.3227H35C34.7348 42.3227 34.4804 42.4236 34.2929 42.6032C34.1054 42.7828 34 43.0264 34 43.2805C34 43.5345 34.1054 43.7781 34.2929 43.9577C34.4804 44.1373 34.7348 44.2382 35 44.2382H41C41.2652 44.2382 41.5196 44.1373 41.7071 43.9577C41.8946 43.7781 42 43.5345 42 43.2805C42 43.0264 41.8946 42.7828 41.7071 42.6032C41.5196 42.4236 41.2652 42.3227 41 42.3227Z" fill="white"/>
</svg>
