<svg width="76" height="76" viewBox="0 0 76 76" fill="none" xmlns="http://www.w3.org/2000/svg">
<rect width="76" height="76" rx="38" fill="#212121"/>
<path d="M28.2906 46.2914L32.0006 42.6114C30.5605 40.8158 29.8631 38.5367 30.0518 36.2427C30.2405 33.9487 31.3009 31.8142 33.0151 30.278C34.7292 28.7419 36.9668 27.9209 39.2677 27.9838C41.5685 28.0468 43.7579 28.9889 45.3854 30.6165C47.013 32.2441 47.9552 34.4334 48.0181 36.7343C48.0811 39.0352 47.2601 41.2727 45.7239 42.9869C44.1878 44.701 42.0533 45.7615 39.7593 45.9502C37.4653 46.1389 35.1862 45.4415 33.3906 44.0014L29.7106 47.6814C29.6176 47.7751 29.507 47.8495 29.3852 47.9003C29.2633 47.951 29.1326 47.9772 29.0006 47.9772C28.8686 47.9772 28.7379 47.951 28.616 47.9003C28.4941 47.8495 28.3835 47.7751 28.2906 47.6814C28.1103 47.4949 28.0096 47.2457 28.0096 46.9864C28.0096 46.727 28.1103 46.4778 28.2906 46.2914ZM39.0006 44.0014C40.3851 44.0014 41.7384 43.5908 42.8896 42.8217C44.0407 42.0525 44.9379 40.9592 45.4677 39.6802C45.9976 38.4011 46.1362 36.9936 45.8661 35.6357C45.596 34.2779 44.9293 33.0306 43.9503 32.0516C42.9714 31.0727 41.7241 30.406 40.3662 30.1359C39.0083 29.8658 37.6009 30.0044 36.3218 30.5342C35.0427 31.064 33.9495 31.9612 33.1803 33.1124C32.4111 34.2635 32.0006 35.6169 32.0006 37.0014C32.0006 38.8579 32.7381 40.6384 34.0508 41.9511C35.3636 43.2639 37.1441 44.0014 39.0006 44.0014Z" fill="white"/>
</svg>
