<svg width="76" height="76" viewBox="0 0 76 76" fill="none" xmlns="http://www.w3.org/2000/svg">
<rect width="76" height="76" rx="38" fill="#212121"/>
<path d="M33 42C33.3978 42 33.7794 41.842 34.0607 41.5607C34.342 41.2794 34.5 40.8978 34.5 40.5C34.5049 40.4501 34.5049 40.3999 34.5 40.35L37.29 37.56H37.52H37.75L39.36 39.17C39.36 39.17 39.36 39.22 39.36 39.25C39.36 39.6478 39.518 40.0294 39.7993 40.3107C40.0806 40.592 40.4622 40.75 40.86 40.75C41.2578 40.75 41.6394 40.592 41.9207 40.3107C42.202 40.0294 42.36 39.6478 42.36 39.25V39.17L46 35.5C46.2967 35.5 46.5867 35.412 46.8334 35.2472C47.08 35.0824 47.2723 34.8481 47.3858 34.574C47.4993 34.2999 47.5291 33.9983 47.4712 33.7074C47.4133 33.4164 47.2704 33.1491 47.0607 32.9393C46.8509 32.7296 46.5836 32.5867 46.2926 32.5288C46.0017 32.4709 45.7001 32.5006 45.426 32.6142C45.1519 32.7277 44.9176 32.92 44.7528 33.1666C44.588 33.4133 44.5 33.7033 44.5 34C44.4951 34.0499 44.4951 34.1001 44.5 34.15L40.89 37.76H40.73L39 36C39 35.6022 38.842 35.2206 38.5607 34.9393C38.2794 34.658 37.8978 34.5 37.5 34.5C37.1022 34.5 36.7206 34.658 36.4393 34.9393C36.158 35.2206 36 35.6022 36 36L33 39C32.6022 39 32.2206 39.158 31.9393 39.4393C31.658 39.7206 31.5 40.1022 31.5 40.5C31.5 40.8978 31.658 41.2794 31.9393 41.5607C32.2206 41.842 32.6022 42 33 42ZM46.5 46H29.5V29C29.5 28.7348 29.3946 28.4804 29.2071 28.2929C29.0196 28.1054 28.7652 28 28.5 28C28.2348 28 27.9804 28.1054 27.7929 28.2929C27.6054 28.4804 27.5 28.7348 27.5 29V47C27.5 47.2652 27.6054 47.5196 27.7929 47.7071C27.9804 47.8946 28.2348 48 28.5 48H46.5C46.7652 48 47.0196 47.8946 47.2071 47.7071C47.3946 47.5196 47.5 47.2652 47.5 47C47.5 46.7348 47.3946 46.4804 47.2071 46.2929C47.0196 46.1054 46.7652 46 46.5 46Z" fill="#FDFDFD"/>
</svg>
