<svg width="33" height="33" viewBox="0 0 33 33" fill="none" xmlns="http://www.w3.org/2000/svg">
<path d="M27.5 5.5H5.5C3.9875 5.5 2.76375 6.7375 2.76375 8.25L2.75 24.75C2.75 26.2625 3.9875 27.5 5.5 27.5H27.5C29.0125 27.5 30.25 26.2625 30.25 24.75V8.25C30.25 6.7375 29.0125 5.5 27.5 5.5ZM5.5 12.375H19.9375V17.1875H5.5V12.375ZM5.5 19.9375H19.9375V24.75H6.875C6.11875 24.75 5.5 24.1313 5.5 23.375V19.9375ZM26.125 24.75H22.6875V12.375H27.5V23.375C27.5 24.1313 26.8813 24.75 26.125 24.75Z" fill="#FFFFFF"/>
</svg>
