<svg width="33" height="33" viewBox="0 0 33 33" fill="none" xmlns="http://www.w3.org/2000/svg">
<path d="M30.25 6.875V9.625H26.125V13.75H23.375V9.625H19.25V6.875H23.375V2.75H26.125V6.875H30.25ZM26.125 26.125H6.875V6.875H15.125V4.125H6.875C5.3625 4.125 4.125 5.3625 4.125 6.875V26.125C4.125 27.6375 5.3625 28.875 6.875 28.875H26.125C27.6375 28.875 28.875 27.6375 28.875 26.125V17.875H26.125V26.125ZM20.625 17.875V23.375H23.375V17.875H20.625ZM15.125 23.375H17.875V12.375H15.125V23.375ZM12.375 23.375V15.125H9.625V23.375H12.375Z" fill="#FFFFFF"/>
</svg>
