<svg width="32" height="32" viewBox="0 0 32 32" fill="none" xmlns="http://www.w3.org/2000/svg">
<path d="M14.418 19.168H11.2513C11.2513 11.2988 17.6321 4.91797 25.5013 4.91797V8.08464C19.3738 8.08464 14.418 13.0405 14.418 19.168ZM25.5013 14.418V11.2513C21.1313 11.2513 17.5846 14.798 17.5846 19.168H20.7513C20.7513 16.5396 22.873 14.418 25.5013 14.418ZM8.08464 3.33464C8.08464 1.57714 6.67547 0.167969 4.91797 0.167969C3.16047 0.167969 1.7513 1.57714 1.7513 3.33464C1.7513 5.09214 3.16047 6.5013 4.91797 6.5013C6.67547 6.5013 8.08464 5.09214 8.08464 3.33464ZM15.1305 4.1263H11.9638C11.5838 6.37464 9.65213 8.08464 7.29297 8.08464H0.167969V14.418H9.66797V10.8396C12.613 9.90547 14.8138 7.3088 15.1305 4.1263ZM27.0846 23.918C28.8421 23.918 30.2513 22.5088 30.2513 20.7513C30.2513 18.9938 28.8421 17.5846 27.0846 17.5846C25.3271 17.5846 23.918 18.9938 23.918 20.7513C23.918 22.5088 25.3271 23.918 27.0846 23.918ZM24.7096 25.5013C22.3505 25.5013 20.4188 23.7913 20.0388 21.543H16.8721C17.1888 24.7255 19.3896 27.3221 22.3346 28.2563V31.8346H31.8346V25.5013H24.7096Z" fill="#FFFFFF"/>
</svg>
