<svg width="29" height="23" viewBox="0 0 29 23" fill="none" xmlns="http://www.w3.org/2000/svg">
<path d="M25.5 0.5H3.5C1.9875 0.5 0.76375 1.7375 0.76375 3.25L0.75 19.75C0.75 21.2625 1.9875 22.5 3.5 22.5H25.5C27.0125 22.5 28.25 21.2625 28.25 19.75V3.25C28.25 1.7375 27.0125 0.5 25.5 0.5ZM3.5 7.375H17.9375V12.1875H3.5V7.375ZM3.5 14.9375H17.9375V19.75H4.875C4.11875 19.75 3.5 19.1313 3.5 18.375V14.9375ZM24.125 19.75H20.6875V7.375H25.5V18.375C25.5 19.1313 24.8813 19.75 24.125 19.75Z" fill="#FFFFFF"/>
</svg>
