<svg width="98" height="98" viewBox="0 0 98 98" fill="none" xmlns="http://www.w3.org/2000/svg">
<g filter="url(#filter0_d_6443_149601)">
<rect x="8" y="5" width="80" height="80" rx="12" fill="white"/>
</g>
<path d="M34.4259 38.5549H37.5319C38.3887 38.5549 39.1385 38.2335 39.674 37.698C40.2095 37.1625 40.5308 36.3057 40.5308 35.5559C40.5308 34.8062 40.2095 33.9493 39.674 33.4138C39.1385 32.8783 38.2816 32.557 37.5319 32.557H34.4259C33.569 32.557 32.8193 32.8783 32.2838 33.4138C31.7482 33.9493 31.4269 34.8062 31.4269 35.5559C31.4269 36.3057 31.7482 37.1625 32.2838 37.698C32.8193 38.1264 33.569 38.5549 34.4259 38.5549ZM34.4259 44.6598C33.569 44.6598 32.8193 44.9812 32.2838 45.5167C31.7482 46.0522 31.4269 46.909 31.4269 47.6588C31.4269 48.4085 31.7482 49.2654 32.2838 49.8009C32.8193 50.3364 33.6761 50.6577 34.4259 50.6577H52.8479C53.7048 50.6577 54.4545 50.3364 54.99 49.8009C55.5255 49.2654 55.8469 48.4085 55.8469 47.6588C55.8469 46.909 55.5255 46.0522 54.99 45.5167C54.4545 44.9812 53.5977 44.6598 52.8479 44.6598H34.4259ZM49.7419 24.417L57.6676 32.3428H52.7408C51.884 32.3428 51.1342 32.0215 50.5987 31.4859C50.0632 30.9504 49.7419 30.0936 49.7419 29.3438V24.417ZM62.166 66.1879C62.166 67.0448 61.8447 67.7945 61.3092 68.33C60.7737 68.8656 59.9168 69.1869 59.1671 69.1869H28.2138C27.3569 69.1869 26.6072 68.8656 26.0717 68.33C25.5362 67.7945 25.2148 66.9377 25.2148 66.1879V23.1318C25.2148 22.2749 25.5362 21.5252 26.0717 20.9897C26.6072 20.4541 27.464 20.1328 28.2138 20.1328H43.6369V29.3438C43.6369 31.8073 44.6008 34.1636 46.3145 35.8772C48.0282 37.5909 50.3845 38.5549 52.8479 38.5549H62.0589L62.1406 66.1879H62.166ZM52.8479 56.9769H34.4259C33.569 56.9769 32.8193 57.2982 32.2838 57.8338C31.7482 58.3693 31.4269 59.2261 31.4269 59.9758C31.4269 60.7256 31.7482 61.5824 32.2838 62.1179C32.8193 62.6535 33.6761 62.9748 34.4259 62.9748H52.8479C53.7048 62.9748 54.4545 62.6535 54.99 62.1179C55.5255 61.5824 55.8469 60.7256 55.8469 59.9758C55.8469 59.2261 55.5255 58.3693 54.99 57.8338C54.4545 57.2982 53.7048 56.9769 52.8479 56.9769Z" fill="#FF5B53"/>
<path d="M78.7631 72.7209L78.3347 73.0422L78.7631 72.7209L75.1215 69.0794C76.5139 67.1515 77.2636 64.6881 77.0494 62.2246C76.8352 59.6541 75.6571 57.1907 73.7292 55.477C71.8013 53.7633 69.2308 52.7994 66.6602 52.9065C64.0897 53.0136 61.6263 54.0847 59.6984 55.9054C57.8776 57.7262 56.8066 60.1896 56.6995 62.8673C56.5924 65.4378 57.5563 68.0083 59.27 69.9362C60.9837 71.8641 63.4471 73.0422 66.0176 73.2564C68.481 73.4707 70.8373 72.828 72.8723 71.3286L76.5139 74.9701C76.621 75.0772 76.8352 75.2914 77.0494 75.2914C77.2636 75.3985 77.4778 75.3985 77.692 75.3985C77.9063 75.3985 78.1205 75.3985 78.3347 75.2914C78.5489 75.1843 78.656 75.0772 78.8702 74.9701C79.1915 74.6488 79.2986 74.2204 79.2986 73.8991C79.2986 73.5778 79.0844 73.0422 78.7631 72.7209ZM66.8744 70.1504C65.4821 70.1504 64.1968 69.722 63.0187 68.9722C61.8405 68.2225 60.9837 67.1515 60.4482 65.8662C59.9126 64.5809 59.8055 63.1886 60.0197 61.7962C60.341 60.4039 60.9837 59.2257 61.9476 58.2618C62.9116 57.2978 64.1968 56.6552 65.4821 56.3339C66.8744 56.0126 68.2668 56.2268 69.5521 56.7623C70.8373 57.2978 71.9084 58.1547 72.6581 59.3328C73.4078 60.511 73.8363 61.7962 73.8363 63.1886C73.8363 65.0094 73.0865 66.8302 71.8013 68.1154C70.516 69.4007 68.8023 70.1504 66.8744 70.1504Z" fill="black"/>
<path d="M78.7631 72.7209L78.3347 73.0422L78.7631 72.7209ZM78.7631 72.7209L75.1215 69.0794C76.5139 67.1515 77.2636 64.6881 77.0494 62.2246C76.8352 59.6541 75.6571 57.1907 73.7292 55.477C71.8013 53.7633 69.2308 52.7994 66.6602 52.9065C64.0897 53.0136 61.6263 54.0847 59.6984 55.9054C57.8776 57.7262 56.8066 60.1896 56.6995 62.8673C56.5924 65.4378 57.5563 68.0083 59.27 69.9362C60.9837 71.8641 63.4471 73.0422 66.0176 73.2564C68.481 73.4707 70.8373 72.828 72.8723 71.3286L76.5139 74.9701C76.621 75.0772 76.8352 75.2914 77.0494 75.2914C77.2636 75.3985 77.4778 75.3985 77.692 75.3985C77.9063 75.3985 78.1205 75.3985 78.3347 75.2914C78.5489 75.1843 78.656 75.0772 78.8702 74.9701C79.1915 74.6488 79.2986 74.2204 79.2986 73.8991C79.2986 73.5778 79.0844 73.0422 78.7631 72.7209ZM66.8744 70.1504C65.4821 70.1504 64.1968 69.722 63.0187 68.9723C61.8405 68.2225 60.9837 67.1515 60.4482 65.8662C59.9126 64.5809 59.8055 63.1886 60.0197 61.7962C60.341 60.4039 60.9837 59.2257 61.9476 58.2618C62.9116 57.2978 64.1968 56.6552 65.4821 56.3339C66.8744 56.0126 68.2668 56.2268 69.5521 56.7623C70.8373 57.2978 71.9084 58.1547 72.6581 59.3328C73.4078 60.511 73.8363 61.7962 73.8363 63.1886C73.8363 65.0094 73.0865 66.8302 71.8013 68.1154C70.516 69.4007 68.8023 70.1504 66.8744 70.1504Z" stroke="black"/>
<path d="M68.0541 34.3789V34.0576C67.947 33.7363 67.7327 33.415 67.5185 33.2008L48.9894 14.7787C48.7752 14.5645 48.4539 14.3503 48.1325 14.2432C48.0254 14.2432 47.9183 14.2432 47.8112 14.2432C47.4899 14.029 47.1686 13.9219 46.8473 13.9219H28.211C25.7476 13.9219 23.3913 14.8858 21.6776 16.5995C19.9639 18.3132 19 20.6695 19 23.1329V66.1891C19 68.6525 19.9639 71.0088 21.6776 72.7225C23.3913 74.4362 25.7476 75.4001 28.211 75.4001H53.8091C55.5228 75.4001 56.9151 74.0077 56.9151 72.2941C56.9151 70.5804 55.5228 69.188 53.8091 69.188H28.211C27.3542 69.188 26.6045 68.8667 26.0689 68.3312C25.5334 67.7957 25.2121 66.9388 25.2121 66.1891V23.1329C25.2121 22.2761 25.5334 21.5263 26.0689 20.9908C26.6045 20.4553 27.4613 20.134 28.211 20.134H43.6341V29.345C43.6341 31.8084 44.5981 34.1647 46.3118 35.8784C48.0254 37.5921 50.3817 38.556 52.8452 38.556H62.0562V48.4097C62.0562 50.1233 63.4485 51.5157 65.1622 51.5157C66.8759 51.5157 68.2683 50.1233 68.2683 48.4097V35.5571C68.2683 35.5571 68.2683 35.5571 68.2683 35.3429C68.2683 34.9144 68.1612 34.7002 68.0541 34.3789ZM52.8452 32.3439C51.9883 32.3439 51.2386 32.0226 50.7031 31.4871C50.1675 30.9516 49.8462 30.0947 49.8462 29.345V24.4182L57.8791 32.451H52.8452V32.3439Z" fill="black"/>
<defs>
<filter id="filter0_d_6443_149601" x="0" y="0" width="98" height="98" filterUnits="userSpaceOnUse" color-interpolation-filters="sRGB">
<feFlood flood-opacity="0" result="BackgroundImageFix"/>
<feColorMatrix in="SourceAlpha" type="matrix" values="0 0 0 0 0 0 0 0 0 0 0 0 0 0 0 0 0 0 127 0" result="hardAlpha"/>
<feMorphology radius="1" operator="erode" in="SourceAlpha" result="effect1_dropShadow_6443_149601"/>
<feOffset dx="1" dy="4"/>
<feGaussianBlur stdDeviation="5"/>
<feComposite in2="hardAlpha" operator="out"/>
<feColorMatrix type="matrix" values="0 0 0 0 0 0 0 0 0 0 0 0 0 0 0 0 0 0 0.3 0"/>
<feBlend mode="normal" in2="BackgroundImageFix" result="effect1_dropShadow_6443_149601"/>
<feBlend mode="normal" in="SourceGraphic" in2="effect1_dropShadow_6443_149601" result="shape"/>
</filter>
</defs>
</svg>
