<svg width="98" height="98" viewBox="0 0 98 98" fill="none" xmlns="http://www.w3.org/2000/svg">
<g filter="url(#filter0_d_6442_149587)">
<rect x="8" y="5" width="80" height="80" rx="12" fill="white"/>
</g>
<path d="M49.5413 60.7068C49.3998 60.5767 49.2457 60.4611 49.0813 60.3618C48.9345 60.248 48.7691 60.1605 48.5925 60.103C48.4213 60.0155 48.2367 59.9572 48.0462 59.9305C47.4955 59.8141 46.922 59.8745 46.4075 60.103C46.0507 60.2322 45.7267 60.4382 45.4584 60.7065C45.1901 60.9748 44.9841 61.2988 44.855 61.6555C44.6941 61.9967 44.6153 62.3709 44.625 62.748C44.6204 63.1218 44.6888 63.4929 44.8262 63.8405C44.9929 64.1841 45.2057 64.5033 45.4587 64.7893C45.7274 65.0558 46.046 65.2666 46.3963 65.4096C46.7466 65.5527 47.1216 65.6252 47.5 65.623C47.8771 65.6328 48.2513 65.554 48.5925 65.393C48.9409 65.2474 49.2618 65.0432 49.5413 64.7893C49.8077 64.5207 50.0185 64.2021 50.1616 63.8518C50.3047 63.5015 50.3772 63.1264 50.375 62.748C50.3705 62.3723 50.2923 62.0012 50.145 61.6555C50.0082 61.3026 49.803 60.9802 49.5413 60.7068ZM37.5813 48.8618C37.4345 48.748 37.2691 48.6605 37.0925 48.603C36.9251 48.4954 36.7402 48.4176 36.5462 48.373C36.1774 48.2872 35.7938 48.2872 35.425 48.373L34.9075 48.5455L34.39 48.8043L33.9587 49.1493C33.4198 49.7147 33.1209 50.4669 33.125 51.248C33.1228 51.6264 33.1953 52.0015 33.3384 52.3518C33.4815 52.7021 33.6923 53.0207 33.9587 53.2893C34.2382 53.5432 34.5591 53.7474 34.9075 53.893C35.3431 54.072 35.8159 54.1412 36.2845 54.0946C36.753 54.048 37.203 53.8871 37.5948 53.6259C37.9866 53.3647 38.3082 53.0112 38.5315 52.5966C38.7547 52.182 38.8727 51.7189 38.875 51.248C38.8644 50.4868 38.5666 49.7577 38.0413 49.2068L37.5813 48.8618ZM38.0413 60.7068C37.7678 60.4451 37.4454 60.2399 37.0925 60.103C36.5721 59.8617 35.9913 59.7816 35.425 59.873L34.9075 60.0455C34.7243 60.1085 34.5503 60.1955 34.39 60.3043C34.2394 60.4104 34.0954 60.5257 33.9587 60.6493C33.697 60.9227 33.4918 61.2451 33.355 61.598C33.2029 61.9422 33.1243 62.3143 33.1243 62.6905C33.1243 63.0668 33.2029 63.4389 33.355 63.783C33.5006 64.1315 33.7048 64.4523 33.9587 64.7318C34.2226 65.0087 34.5391 65.2301 34.8896 65.3831C35.2401 65.5362 35.6176 65.6177 36 65.623C36.3771 65.6328 36.7513 65.554 37.0925 65.393C37.4409 65.2474 37.7618 65.0432 38.0413 64.7893C38.2952 64.5098 38.4994 64.1889 38.645 63.8405C38.7971 63.4964 38.8757 63.1243 38.8757 62.748C38.8757 62.3718 38.7971 61.9997 38.645 61.6555C38.5082 61.3026 38.303 60.9802 38.0413 60.7068ZM46.4075 48.603C46.0546 48.7399 45.7322 48.9451 45.4587 49.2068C44.9334 49.7577 44.6356 50.4868 44.625 51.248C44.6273 51.7189 44.7453 52.182 44.9685 52.5966C45.1918 53.0112 45.5134 53.3647 45.9052 53.6259C46.297 53.8871 46.747 54.048 47.2155 54.0946C47.6841 54.1412 48.1569 54.072 48.5925 53.893C48.9409 53.7474 49.2618 53.5432 49.5413 53.2893C49.8077 53.0207 50.0185 52.7021 50.1616 52.3518C50.3047 52.0015 50.3772 51.6264 50.375 51.248C50.3644 50.4868 50.0666 49.7577 49.5413 49.2068C49.137 48.8079 48.6236 48.5376 48.0658 48.4302C47.5081 48.3227 46.9311 48.3829 46.4075 48.603ZM61.0412 60.7068C60.7618 60.4528 60.4409 60.2486 60.0925 60.103C59.5689 59.8829 58.9919 59.8227 58.4342 59.9302C57.8764 60.0376 57.363 60.3079 56.9588 60.7068C56.697 60.9802 56.4918 61.3026 56.355 61.6555C56.2029 61.9997 56.1243 62.3718 56.1243 62.748C56.1243 63.1243 56.2029 63.4964 56.355 63.8405C56.5006 64.1889 56.7048 64.5098 56.9588 64.7893C57.2274 65.0558 57.546 65.2666 57.8963 65.4096C58.2466 65.5527 58.6216 65.6252 59 65.623C59.3771 65.6328 59.7513 65.554 60.0925 65.393C60.4409 65.2474 60.7618 65.0432 61.0412 64.7893C61.4402 64.385 61.7104 63.8716 61.8179 63.3139C61.9253 62.7562 61.8652 62.1791 61.645 61.6555C61.5082 61.3026 61.303 60.9802 61.0412 60.7068ZM59 25.373H36C35.2375 25.373 34.5062 25.6759 33.9671 26.2151C33.4279 26.7543 33.125 27.4855 33.125 28.248V39.748C33.125 40.5105 33.4279 41.2418 33.9671 41.781C34.5062 42.3201 35.2375 42.623 36 42.623H59C59.7625 42.623 60.4938 42.3201 61.0329 41.781C61.5721 41.2418 61.875 40.5105 61.875 39.748V28.248C61.875 27.4855 61.5721 26.7543 61.0329 26.2151C60.4938 25.6759 59.7625 25.373 59 25.373ZM67.625 68.498C67.625 69.2605 67.3221 69.9918 66.7829 70.531C66.2438 71.0701 65.5125 71.373 64.75 71.373H30.25C29.4875 71.373 28.7562 71.0701 28.2171 70.531C27.6779 69.9918 27.375 69.2605 27.375 68.498V22.498C27.375 21.7355 27.6779 21.0043 28.2171 20.4651C28.7562 19.9259 29.4875 19.623 30.25 19.623H64.75C65.5125 19.623 66.2438 19.9259 66.7829 20.4651C67.3221 21.0043 67.625 21.7355 67.625 22.498V68.498ZM60.5812 48.8618C60.4345 48.748 60.2691 48.6605 60.0925 48.603C59.9213 48.5155 59.7367 48.4572 59.5463 48.4305C59.1774 48.3447 58.7938 48.3447 58.425 48.4305L57.9075 48.603L57.39 48.8618L56.9588 49.2068C56.4334 49.7577 56.1356 50.4868 56.125 51.248C56.1273 51.7189 56.2453 52.182 56.4685 52.5966C56.6918 53.0112 57.0134 53.3647 57.4052 53.6259C57.797 53.8871 58.247 54.048 58.7155 54.0946C59.1841 54.1412 59.6569 54.072 60.0925 53.893C60.4409 53.7474 60.7618 53.5432 61.0412 53.2893C61.3077 53.0207 61.5185 52.7021 61.6616 52.3518C61.8047 52.0015 61.8772 51.6264 61.875 51.248C61.8644 50.4868 61.5666 49.7577 61.0412 49.2068L60.5812 48.8618Z" fill="#FF5B53"/>
<path d="M59 25.373H36C35.2375 25.373 34.5062 25.6759 33.9671 26.2151C33.4279 26.7543 33.125 27.4855 33.125 28.248V39.748C33.125 40.5105 33.4279 41.2418 33.9671 41.781C34.5062 42.3201 35.2375 42.623 36 42.623H59C59.7625 42.623 60.4938 42.3201 61.0329 41.781C61.5721 41.2418 61.875 40.5105 61.875 39.748V28.248C61.875 27.4855 61.5721 26.7543 61.0329 26.2151C60.4938 25.6759 59.7625 25.373 59 25.373ZM56.125 36.873H38.875V31.123H56.125V36.873ZM64.75 13.873H30.25C27.9625 13.873 25.7687 14.7817 24.1512 16.3993C22.5337 18.0168 21.625 20.2106 21.625 22.498V68.498C21.625 70.7855 22.5337 72.9793 24.1512 74.5968C25.7687 76.2143 27.9625 77.123 30.25 77.123H64.75C67.0375 77.123 69.2313 76.2143 70.8488 74.5968C72.4663 72.9793 73.375 70.7855 73.375 68.498V22.498C73.375 20.2106 72.4663 18.0168 70.8488 16.3993C69.2313 14.7817 67.0375 13.873 64.75 13.873ZM67.625 68.498C67.625 69.2605 67.3221 69.9918 66.7829 70.531C66.2438 71.0701 65.5125 71.373 64.75 71.373H30.25C29.4875 71.373 28.7562 71.0701 28.2171 70.531C27.6779 69.9918 27.375 69.2605 27.375 68.498V22.498C27.375 21.7355 27.6779 21.0043 28.2171 20.4651C28.7562 19.9259 29.4875 19.623 30.25 19.623H64.75C65.5125 19.623 66.2438 19.9259 66.7829 20.4651C67.3221 21.0043 67.625 21.7355 67.625 22.498V68.498Z" fill="black"/>
<defs>
<filter id="filter0_d_6442_149587" x="0" y="0" width="98" height="98" filterUnits="userSpaceOnUse" color-interpolation-filters="sRGB">
<feFlood flood-opacity="0" result="BackgroundImageFix"/>
<feColorMatrix in="SourceAlpha" type="matrix" values="0 0 0 0 0 0 0 0 0 0 0 0 0 0 0 0 0 0 127 0" result="hardAlpha"/>
<feMorphology radius="1" operator="erode" in="SourceAlpha" result="effect1_dropShadow_6442_149587"/>
<feOffset dx="1" dy="4"/>
<feGaussianBlur stdDeviation="5"/>
<feComposite in2="hardAlpha" operator="out"/>
<feColorMatrix type="matrix" values="0 0 0 0 0 0 0 0 0 0 0 0 0 0 0 0 0 0 0.3 0"/>
<feBlend mode="normal" in2="BackgroundImageFix" result="effect1_dropShadow_6442_149587"/>
<feBlend mode="normal" in="SourceGraphic" in2="effect1_dropShadow_6442_149587" result="shape"/>
</filter>
</defs>
</svg>
