<svg width="98" height="98" viewBox="0 0 98 98" fill="none" xmlns="http://www.w3.org/2000/svg">
<g filter="url(#filter0_d_6442_149588)">
<rect x="8" y="5" width="80" height="80" rx="12" fill="white"/>
</g>
<path d="M61.5 35.7025C61.4701 35.4384 61.4122 35.1782 61.3275 34.9263V34.6675C61.1893 34.3719 61.0049 34.1002 60.7812 33.8625L43.5312 16.6125C43.2936 16.3889 43.0219 16.2045 42.7263 16.0662C42.6404 16.0541 42.5533 16.0541 42.4675 16.0662C42.1754 15.8988 41.8529 15.7912 41.5188 15.75H24.125C21.8375 15.75 19.6437 16.6587 18.0262 18.2762C16.4087 19.8937 15.5 22.0875 15.5 24.375V64.625C15.5 66.9125 16.4087 69.1063 18.0262 70.7238C19.6437 72.3413 21.8375 73.25 24.125 73.25H52.875C55.1625 73.25 57.3563 72.3413 58.9738 70.7238C60.5913 69.1063 61.5 66.9125 61.5 64.625V35.875C61.5 35.875 61.5 35.875 61.5 35.7025ZM44.25 25.5537L51.6963 33H47.125C46.3625 33 45.6312 32.6971 45.0921 32.1579C44.5529 31.6188 44.25 30.8875 44.25 30.125V25.5537ZM55.75 64.625C55.75 65.3875 55.4471 66.1188 54.9079 66.6579C54.3688 67.1971 53.6375 67.5 52.875 67.5H24.125C23.3625 67.5 22.6312 67.1971 22.0921 66.6579C21.5529 66.1188 21.25 65.3875 21.25 64.625V24.375C21.25 23.6125 21.5529 22.8812 22.0921 22.3421C22.6312 21.8029 23.3625 21.5 24.125 21.5H38.5V30.125C38.5 32.4125 39.4087 34.6063 41.0262 36.2238C42.6437 37.8413 44.8375 38.75 47.125 38.75H55.75V64.625Z" fill="black"/>
<path d="M29.875 38.75H32.75C33.5125 38.75 34.2438 38.4471 34.7829 37.9079C35.3221 37.3688 35.625 36.6375 35.625 35.875C35.625 35.1125 35.3221 34.3812 34.7829 33.8421C34.2438 33.3029 33.5125 33 32.75 33H29.875C29.1125 33 28.3812 33.3029 27.8421 33.8421C27.3029 34.3812 27 35.1125 27 35.875C27 36.6375 27.3029 37.3688 27.8421 37.9079C28.3812 38.4471 29.1125 38.75 29.875 38.75ZM29.875 44.5C29.1125 44.5 28.3812 44.8029 27.8421 45.3421C27.3029 45.8812 27 46.6125 27 47.375C27 48.1375 27.3029 48.8688 27.8421 49.4079C28.3812 49.9471 29.1125 50.25 29.875 50.25H47.125C47.8875 50.25 48.6188 49.9471 49.1579 49.4079C49.6971 48.8688 50 48.1375 50 47.375C50 46.6125 49.6971 45.8812 49.1579 45.3421C48.6188 44.8029 47.8875 44.5 47.125 44.5H29.875ZM44.25 25.5537L51.6963 33H47.125C46.3625 33 45.6312 32.6971 45.0921 32.1579C44.5529 31.6188 44.25 30.8875 44.25 30.125V25.5537ZM55.75 64.625C55.75 65.3875 55.4471 66.1188 54.9079 66.6579C54.3688 67.1971 53.6375 67.5 52.875 67.5H24.125C23.3625 67.5 22.6312 67.1971 22.0921 66.6579C21.5529 66.1188 21.25 65.3875 21.25 64.625V24.375C21.25 23.6125 21.5529 22.8812 22.0921 22.3421C22.6312 21.8029 23.3625 21.5 24.125 21.5H38.5V30.125C38.5 32.4125 39.4087 34.6063 41.0262 36.2238C42.6437 37.8413 44.8375 38.75 47.125 38.75H55.75V64.625ZM47.125 56H29.875C29.1125 56 28.3812 56.3029 27.8421 56.8421C27.3029 57.3812 27 58.1125 27 58.875C27 59.6375 27.3029 60.3688 27.8421 60.9079C28.3812 61.4471 29.1125 61.75 29.875 61.75H47.125C47.8875 61.75 48.6188 61.4471 49.1579 60.9079C49.6971 60.3688 50 59.6375 50 58.875C50 58.1125 49.6971 57.3812 49.1579 56.8421C48.6188 56.3029 47.8875 56 47.125 56Z" fill="#FF5B53"/>
<path d="M71.5 35.7025C71.4701 35.4384 71.4122 35.1782 71.3275 34.9263V34.6675C71.1893 34.3719 71.0049 34.1002 70.7812 33.8625L53.5312 16.6125C53.2936 16.3889 53.0219 16.2045 52.7263 16.0662C52.6404 16.0541 52.5533 16.0541 52.4675 16.0662C52.1754 15.8988 51.8529 15.7912 51.5188 15.75H34.125C31.8375 15.75 29.6437 16.6587 28.0262 18.2762C26.4087 19.8937 25.5 22.0875 25.5 24.375V64.625C25.5 66.9125 26.4087 69.1063 28.0262 70.7238C29.6437 72.3413 31.8375 73.25 34.125 73.25H62.875C65.1625 73.25 67.3563 72.3413 68.9738 70.7238C70.5913 69.1063 71.5 66.9125 71.5 64.625V35.875C71.5 35.875 71.5 35.875 71.5 35.7025ZM54.25 25.5537L61.6963 33H57.125C56.3625 33 55.6312 32.6971 55.0921 32.1579C54.5529 31.6188 54.25 30.8875 54.25 30.125V25.5537ZM65.75 64.625C65.75 65.3875 65.4471 66.1188 64.9079 66.6579C64.3688 67.1971 63.6375 67.5 62.875 67.5H34.125C33.3625 67.5 32.6312 67.1971 32.0921 66.6579C31.5529 66.1188 31.25 65.3875 31.25 64.625V24.375C31.25 23.6125 31.5529 22.8812 32.0921 22.3421C32.6312 21.8029 33.3625 21.5 34.125 21.5H48.5V30.125C48.5 32.4125 49.4087 34.6063 51.0262 36.2238C52.6437 37.8413 54.8375 38.75 57.125 38.75H65.75V64.625Z" fill="black"/>
<path d="M39.875 38.75H42.75C43.5125 38.75 44.2438 38.4471 44.7829 37.9079C45.3221 37.3688 45.625 36.6375 45.625 35.875C45.625 35.1125 45.3221 34.3812 44.7829 33.8421C44.2438 33.3029 43.5125 33 42.75 33H39.875C39.1125 33 38.3812 33.3029 37.8421 33.8421C37.3029 34.3812 37 35.1125 37 35.875C37 36.6375 37.3029 37.3688 37.8421 37.9079C38.3812 38.4471 39.1125 38.75 39.875 38.75ZM39.875 44.5C39.1125 44.5 38.3812 44.8029 37.8421 45.3421C37.3029 45.8812 37 46.6125 37 47.375C37 48.1375 37.3029 48.8688 37.8421 49.4079C38.3812 49.9471 39.1125 50.25 39.875 50.25H57.125C57.8875 50.25 58.6188 49.9471 59.1579 49.4079C59.6971 48.8688 60 48.1375 60 47.375C60 46.6125 59.6971 45.8812 59.1579 45.3421C58.6188 44.8029 57.8875 44.5 57.125 44.5H39.875ZM54.25 25.5537L61.6963 33H57.125C56.3625 33 55.6312 32.6971 55.0921 32.1579C54.5529 31.6188 54.25 30.8875 54.25 30.125V25.5537ZM65.75 64.625C65.75 65.3875 65.4471 66.1188 64.9079 66.6579C64.3688 67.1971 63.6375 67.5 62.875 67.5H34.125C33.3625 67.5 32.6312 67.1971 32.0921 66.6579C31.5529 66.1188 31.25 65.3875 31.25 64.625V24.375C31.25 23.6125 31.5529 22.8812 32.0921 22.3421C32.6312 21.8029 33.3625 21.5 34.125 21.5H48.5V30.125C48.5 32.4125 49.4087 34.6063 51.0262 36.2238C52.6437 37.8413 54.8375 38.75 57.125 38.75H65.75V64.625ZM57.125 56H39.875C39.1125 56 38.3812 56.3029 37.8421 56.8421C37.3029 57.3812 37 58.1125 37 58.875C37 59.6375 37.3029 60.3688 37.8421 60.9079C38.3812 61.4471 39.1125 61.75 39.875 61.75H57.125C57.8875 61.75 58.6188 61.4471 59.1579 60.9079C59.6971 60.3688 60 59.6375 60 58.875C60 58.1125 59.6971 57.3812 59.1579 56.8421C58.6188 56.3029 57.8875 56 57.125 56Z" fill="#FF5B53"/>
<path d="M81.5 35.7025C81.4701 35.4384 81.4122 35.1782 81.3275 34.9263V34.6675C81.1893 34.3719 81.0049 34.1002 80.7812 33.8625L63.5312 16.6125C63.2936 16.3889 63.0219 16.2045 62.7263 16.0662C62.6404 16.0541 62.5533 16.0541 62.4675 16.0662C62.1754 15.8988 61.8529 15.7912 61.5188 15.75H44.125C41.8375 15.75 39.6437 16.6587 38.0262 18.2762C36.4087 19.8937 35.5 22.0875 35.5 24.375V64.625C35.5 66.9125 36.4087 69.1063 38.0262 70.7238C39.6437 72.3413 41.8375 73.25 44.125 73.25H72.875C75.1625 73.25 77.3563 72.3413 78.9738 70.7238C80.5913 69.1063 81.5 66.9125 81.5 64.625V35.875C81.5 35.875 81.5 35.875 81.5 35.7025ZM64.25 25.5537L71.6963 33H67.125C66.3625 33 65.6312 32.6971 65.0921 32.1579C64.5529 31.6188 64.25 30.8875 64.25 30.125V25.5537ZM75.75 64.625C75.75 65.3875 75.4471 66.1188 74.9079 66.6579C74.3688 67.1971 73.6375 67.5 72.875 67.5H44.125C43.3625 67.5 42.6312 67.1971 42.0921 66.6579C41.5529 66.1188 41.25 65.3875 41.25 64.625V24.375C41.25 23.6125 41.5529 22.8812 42.0921 22.3421C42.6312 21.8029 43.3625 21.5 44.125 21.5H58.5V30.125C58.5 32.4125 59.4087 34.6063 61.0262 36.2238C62.6437 37.8413 64.8375 38.75 67.125 38.75H75.75V64.625Z" fill="black"/>
<path d="M49.875 38.75H52.75C53.5125 38.75 54.2438 38.4471 54.7829 37.9079C55.3221 37.3688 55.625 36.6375 55.625 35.875C55.625 35.1125 55.3221 34.3812 54.7829 33.8421C54.2438 33.3029 53.5125 33 52.75 33H49.875C49.1125 33 48.3812 33.3029 47.8421 33.8421C47.3029 34.3812 47 35.1125 47 35.875C47 36.6375 47.3029 37.3688 47.8421 37.9079C48.3812 38.4471 49.1125 38.75 49.875 38.75ZM49.875 44.5C49.1125 44.5 48.3812 44.8029 47.8421 45.3421C47.3029 45.8812 47 46.6125 47 47.375C47 48.1375 47.3029 48.8688 47.8421 49.4079C48.3812 49.9471 49.1125 50.25 49.875 50.25H67.125C67.8875 50.25 68.6188 49.9471 69.1579 49.4079C69.6971 48.8688 70 48.1375 70 47.375C70 46.6125 69.6971 45.8812 69.1579 45.3421C68.6188 44.8029 67.8875 44.5 67.125 44.5H49.875ZM64.25 25.5537L71.6963 33H67.125C66.3625 33 65.6312 32.6971 65.0921 32.1579C64.5529 31.6188 64.25 30.8875 64.25 30.125V25.5537ZM75.75 64.625C75.75 65.3875 75.4471 66.1188 74.9079 66.6579C74.3688 67.1971 73.6375 67.5 72.875 67.5H44.125C43.3625 67.5 42.6312 67.1971 42.0921 66.6579C41.5529 66.1188 41.25 65.3875 41.25 64.625V24.375C41.25 23.6125 41.5529 22.8812 42.0921 22.3421C42.6312 21.8029 43.3625 21.5 44.125 21.5H58.5V30.125C58.5 32.4125 59.4087 34.6063 61.0262 36.2238C62.6437 37.8413 64.8375 38.75 67.125 38.75H75.75V64.625ZM67.125 56H49.875C49.1125 56 48.3812 56.3029 47.8421 56.8421C47.3029 57.3812 47 58.1125 47 58.875C47 59.6375 47.3029 60.3688 47.8421 60.9079C48.3812 61.4471 49.1125 61.75 49.875 61.75H67.125C67.8875 61.75 68.6188 61.4471 69.1579 60.9079C69.6971 60.3688 70 59.6375 70 58.875C70 58.1125 69.6971 57.3812 69.1579 56.8421C68.6188 56.3029 67.8875 56 67.125 56Z" fill="#FF5B53"/>
<path d="M49.875 38.75H52.75C53.5125 38.75 54.2438 38.4471 54.7829 37.9079C55.3221 37.3688 55.625 36.6375 55.625 35.875C55.625 35.1125 55.3221 34.3812 54.7829 33.8421C54.2438 33.3029 53.5125 33 52.75 33H49.875C49.1125 33 48.3812 33.3029 47.8421 33.8421C47.3029 34.3812 47 35.1125 47 35.875C47 36.6375 47.3029 37.3688 47.8421 37.9079C48.3812 38.4471 49.1125 38.75 49.875 38.75ZM49.875 44.5C49.1125 44.5 48.3812 44.8029 47.8421 45.3421C47.3029 45.8812 47 46.6125 47 47.375C47 48.1375 47.3029 48.8688 47.8421 49.4079C48.3812 49.9471 49.1125 50.25 49.875 50.25H67.125C67.8875 50.25 68.6188 49.9471 69.1579 49.4079C69.6971 48.8688 70 48.1375 70 47.375C70 46.6125 69.6971 45.8812 69.1579 45.3421C68.6188 44.8029 67.8875 44.5 67.125 44.5H49.875ZM67.125 56H49.875C49.1125 56 48.3812 56.3029 47.8421 56.8421C47.3029 57.3812 47 58.1125 47 58.875C47 59.6375 47.3029 60.3688 47.8421 60.9079C48.3812 61.4471 49.1125 61.75 49.875 61.75H67.125C67.8875 61.75 68.6188 61.4471 69.1579 60.9079C69.6971 60.3688 70 59.6375 70 58.875C70 58.1125 69.6971 57.3812 69.1579 56.8421C68.6188 56.3029 67.8875 56 67.125 56Z" fill="white"/>
<defs>
<filter id="filter0_d_6442_149588" x="0" y="0" width="98" height="98" filterUnits="userSpaceOnUse" color-interpolation-filters="sRGB">
<feFlood flood-opacity="0" result="BackgroundImageFix"/>
<feColorMatrix in="SourceAlpha" type="matrix" values="0 0 0 0 0 0 0 0 0 0 0 0 0 0 0 0 0 0 127 0" result="hardAlpha"/>
<feMorphology radius="1" operator="erode" in="SourceAlpha" result="effect1_dropShadow_6442_149588"/>
<feOffset dx="1" dy="4"/>
<feGaussianBlur stdDeviation="5"/>
<feComposite in2="hardAlpha" operator="out"/>
<feColorMatrix type="matrix" values="0 0 0 0 0 0 0 0 0 0 0 0 0 0 0 0 0 0 0.3 0"/>
<feBlend mode="normal" in2="BackgroundImageFix" result="effect1_dropShadow_6442_149588"/>
<feBlend mode="normal" in="SourceGraphic" in2="effect1_dropShadow_6442_149588" result="shape"/>
</filter>
</defs>
</svg>
