<svg width="98" height="98" viewBox="0 0 98 98" fill="none" xmlns="http://www.w3.org/2000/svg">
<g filter="url(#filter0_d_6442_149584)">
<rect x="8" y="5" width="80" height="80" rx="12" fill="white"/>
</g>
<circle cx="48" cy="45" r="16" fill="#FF5B53"/>
<circle cx="48" cy="45" r="4" fill="white"/>
<path d="M47.625 24.5C43.6447 24.5 39.7537 25.6803 36.4442 27.8917C33.1346 30.103 30.5552 33.2461 29.0319 36.9235C27.5087 40.6009 27.1102 44.6473 27.8867 48.5512C28.6632 52.4551 30.58 56.041 33.3945 58.8555C36.209 61.6701 39.795 63.5868 43.6988 64.3633C47.6027 65.1398 51.6492 64.7413 55.3265 63.2181C59.0039 61.6949 62.147 59.1154 64.3583 55.8059C66.5697 52.4963 67.75 48.6054 67.75 44.625C67.75 39.2875 65.6297 34.1686 61.8555 30.3945C58.0814 26.6203 52.9625 24.5 47.625 24.5ZM47.625 59C44.7819 59 42.0026 58.1569 39.6387 56.5774C37.2747 54.9978 35.4323 52.7528 34.3442 50.1261C33.2562 47.4994 32.9716 44.6091 33.5262 41.8206C34.0809 39.0321 35.45 36.4707 37.4604 34.4603C39.4707 32.45 42.0321 31.0809 44.8206 30.5262C47.6091 29.9715 50.4994 30.2562 53.1261 31.3442C55.7528 32.4322 57.9978 34.2747 59.5774 36.6387C61.1569 39.0026 62 41.7819 62 44.625C62 48.4375 60.4855 52.0938 57.7897 54.7897C55.0938 57.4855 51.4375 59 47.625 59ZM47.625 36C45.9191 36 44.2516 36.5058 42.8332 37.4536C41.4148 38.4013 40.3094 39.7483 39.6566 41.3244C39.0037 42.9004 38.8329 44.6346 39.1657 46.3077C39.4985 47.9807 40.32 49.5176 41.5262 50.7238C42.7324 51.93 44.2693 52.7515 45.9424 53.0843C47.6154 53.4171 49.3496 53.2463 50.9257 52.5935C52.5017 51.9407 53.8487 50.8352 54.7964 49.4168C55.7442 47.9984 56.25 46.3309 56.25 44.625C56.25 42.3375 55.3413 40.1437 53.7238 38.5262C52.1063 36.9087 49.9125 36 47.625 36ZM47.625 47.5C47.0564 47.5 46.5005 47.3314 46.0277 47.0155C45.555 46.6996 45.1865 46.2506 44.9689 45.7252C44.7513 45.1999 44.6943 44.6218 44.8053 44.0641C44.9162 43.5064 45.19 42.9941 45.5921 42.5921C45.9942 42.19 46.5064 41.9162 47.0641 41.8052C47.6218 41.6943 48.1999 41.7512 48.7252 41.9688C49.2506 42.1864 49.6996 42.5549 50.0155 43.0277C50.3314 43.5005 50.5 44.0564 50.5 44.625C50.5 45.3875 50.1971 46.1188 49.6579 46.6579C49.1188 47.1971 48.3875 47.5 47.625 47.5ZM47.625 13C41.3702 13 35.2558 14.8548 30.0551 18.3298C24.8544 21.8048 20.8009 26.7439 18.4073 32.5226C16.0137 38.3013 15.3874 44.6601 16.6077 50.7947C17.8279 56.9294 20.8399 62.5644 25.2628 66.9873C29.6856 71.4101 35.3206 74.4221 41.4553 75.6423C47.5899 76.8626 53.9487 76.2363 59.7274 73.8427C65.5061 71.4491 70.4452 67.3956 73.9202 62.1949C77.3952 56.9942 79.25 50.8798 79.25 44.625C79.25 36.2375 75.9181 28.1936 69.9873 22.2627C64.0564 16.3319 56.0125 13 47.625 13ZM47.625 70.5C42.5074 70.5 37.5048 68.9825 33.2496 66.1393C28.9945 63.2961 25.678 59.255 23.7196 54.5269C21.7612 49.7989 21.2488 44.5963 22.2472 39.577C23.2456 34.5578 25.7099 29.9473 29.3286 26.3286C32.9473 22.7099 37.5578 20.2456 42.5771 19.2472C47.5963 18.2488 52.7989 18.7612 57.5269 20.7196C62.255 22.678 66.2961 25.9945 69.1393 30.2496C71.9825 34.5047 73.5 39.5074 73.5 44.625C73.5 51.4875 70.7739 58.0689 65.9214 62.9214C61.0689 67.7739 54.4875 70.5 47.625 70.5Z" fill="black"/>
<defs>
<filter id="filter0_d_6442_149584" x="0" y="0" width="98" height="98" filterUnits="userSpaceOnUse" color-interpolation-filters="sRGB">
<feFlood flood-opacity="0" result="BackgroundImageFix"/>
<feColorMatrix in="SourceAlpha" type="matrix" values="0 0 0 0 0 0 0 0 0 0 0 0 0 0 0 0 0 0 127 0" result="hardAlpha"/>
<feMorphology radius="1" operator="erode" in="SourceAlpha" result="effect1_dropShadow_6442_149584"/>
<feOffset dx="1" dy="4"/>
<feGaussianBlur stdDeviation="5"/>
<feComposite in2="hardAlpha" operator="out"/>
<feColorMatrix type="matrix" values="0 0 0 0 0 0 0 0 0 0 0 0 0 0 0 0 0 0 0.3 0"/>
<feBlend mode="normal" in2="BackgroundImageFix" result="effect1_dropShadow_6442_149584"/>
<feBlend mode="normal" in="SourceGraphic" in2="effect1_dropShadow_6442_149584" result="shape"/>
</filter>
</defs>
</svg>
