<svg width="98" height="98" viewBox="0 0 98 98" fill="none" xmlns="http://www.w3.org/2000/svg">
<g filter="url(#filter0_d_6442_149589)">
<rect x="8" y="5" width="80" height="80" rx="12" fill="white"/>
</g>
<path fill-rule="evenodd" clip-rule="evenodd" d="M51.6285 72.3477H55.6285V68.3477V55.3594H55.8103H75.4907H76.9389L78.0515 54.4323L80.6268 52.2862C82.8516 50.4322 82.8516 47.0151 80.6268 45.1611L78.0661 48.234L80.6268 45.1611L78.0515 43.015L76.9389 42.0879H75.4907H55.8103H55.6285V37.7911H55.8103H75.4907H76.9389L78.0515 36.864L80.6268 34.7178C82.8516 32.8638 82.8516 29.4468 80.6268 27.5928L78.0661 30.6657L80.6268 27.5928L78.0515 25.4466L76.9389 24.5195H75.4907H55.8103H55.6285V22.6611C55.6285 18.8345 52.5265 15.7324 48.6999 15.7324C44.8733 15.7324 41.7713 18.8345 41.7713 22.6611V32.6895H41.5369H20.1599H18.5797L17.4261 33.7694L14.4875 36.5206C12.5302 38.3531 12.5302 41.4587 14.4875 43.2912L17.2135 40.3795L14.4875 43.2912L17.4261 46.0424L18.5797 47.1223H20.1599H41.5369H41.7713V68.3477V72.3477H45.7713H51.6285ZM78.0661 30.6657C78.3718 30.9205 78.3718 31.3901 78.0661 31.6449L75.4907 33.7911H59.8103H55.8103V32.5195V29.7911V28.5195H59.8103H75.4907L78.0661 30.6657ZM78.0661 48.234C78.3718 48.4888 78.3718 48.9585 78.0661 49.2133L75.4907 51.3594H59.8103H55.8103V50.0879V47.3594V46.0879H59.8103H75.4907L78.0661 48.234ZM45.7713 22.6611C45.7713 21.0436 47.0824 19.7324 48.6999 19.7324C50.3173 19.7324 51.6285 21.0436 51.6285 22.6611V64.3477V68.3477H49.7713H47.6285H45.7713V64.3477V22.6611ZM37.5369 43.1223H20.1599L17.2213 40.3712C16.9523 40.1193 16.9523 39.6925 17.2213 39.4406L20.1599 36.6895H37.5369H41.5369V39.1223V40.6895V43.1223H37.5369Z" fill="black"/>
<path d="M20.1582 36.6895H41.5352V43.1223H20.1582L17.2196 40.3712C16.9506 40.1193 16.9506 39.6925 17.2196 39.4406L20.1582 36.6895Z" fill="#FF5B53"/>
<path d="M76.7012 34.8516L55.3242 34.8516L55.3242 28.4187L76.7012 28.4187L79.6398 31.1698C79.9088 31.4217 79.9088 31.8485 79.6398 32.1004L76.7012 34.8516Z" fill="#FF5B53"/>
<circle cx="59.082" cy="31.2559" r="1" fill="black"/>
<circle cx="63.082" cy="31.2559" r="1" fill="black"/>
<circle cx="67.082" cy="31.2559" r="1" fill="black"/>
<defs>
<filter id="filter0_d_6442_149589" x="0" y="0" width="98" height="98" filterUnits="userSpaceOnUse" color-interpolation-filters="sRGB">
<feFlood flood-opacity="0" result="BackgroundImageFix"/>
<feColorMatrix in="SourceAlpha" type="matrix" values="0 0 0 0 0 0 0 0 0 0 0 0 0 0 0 0 0 0 127 0" result="hardAlpha"/>
<feMorphology radius="1" operator="erode" in="SourceAlpha" result="effect1_dropShadow_6442_149589"/>
<feOffset dx="1" dy="4"/>
<feGaussianBlur stdDeviation="5"/>
<feComposite in2="hardAlpha" operator="out"/>
<feColorMatrix type="matrix" values="0 0 0 0 0 0 0 0 0 0 0 0 0 0 0 0 0 0 0.3 0"/>
<feBlend mode="normal" in2="BackgroundImageFix" result="effect1_dropShadow_6442_149589"/>
<feBlend mode="normal" in="SourceGraphic" in2="effect1_dropShadow_6442_149589" result="shape"/>
</filter>
</defs>
</svg>
