<svg width="98" height="98" viewBox="0 0 98 98" fill="none" xmlns="http://www.w3.org/2000/svg">
<g filter="url(#filter0_d_6442_149576)">
<rect x="8" y="5" width="80" height="80" rx="12" fill="white"/>
</g>
<path d="M44.41 56.2892C46.425 54.7039 47.8958 52.5299 48.6177 50.0697C49.3396 47.6096 49.2768 44.9856 48.4379 42.5628C47.5991 40.14 46.026 38.0389 43.9374 36.5518C41.8489 35.0648 39.3487 34.2656 36.7848 34.2656C34.2209 34.2656 31.7208 35.0648 29.6322 36.5518C27.5437 38.0389 25.9705 40.14 25.1317 42.5628C24.2929 44.9856 24.23 47.6096 24.952 50.0697C25.6739 52.5299 27.1447 54.7039 29.1597 56.2892C25.7069 57.6725 22.6943 59.9669 20.4429 62.9277C18.1915 65.8885 16.7858 69.4047 16.3757 73.1016C16.346 73.3715 16.3698 73.6446 16.4456 73.9053C16.5215 74.166 16.6479 74.4093 16.8178 74.6211C17.1608 75.049 17.6598 75.323 18.2049 75.383C18.75 75.4429 19.2966 75.2839 19.7244 74.9408C20.1523 74.5978 20.4263 74.0988 20.4863 73.5537C20.9376 69.536 22.8533 65.8254 25.8675 63.1309C28.8817 60.4363 32.7829 58.9468 36.8259 58.9468C40.8689 58.9468 44.7702 60.4363 47.7843 63.1309C50.7985 65.8254 52.7143 69.536 53.1656 73.5537C53.2215 74.0588 53.4624 74.5252 53.842 74.863C54.2215 75.2008 54.7128 75.386 55.2209 75.383H55.447C55.9857 75.321 56.4782 75.0485 56.8169 74.6251C57.1557 74.2016 57.3134 73.6614 57.2556 73.1221C56.8435 69.4148 55.4303 65.8895 53.1673 62.9241C50.9044 59.9588 47.8771 57.6652 44.41 56.2892ZM36.7848 54.8299C35.1588 54.8299 33.5693 54.3478 32.2174 53.4444C30.8654 52.5411 29.8117 51.2571 29.1894 49.7549C28.5672 48.2526 28.4044 46.5996 28.7216 45.0049C29.0388 43.4101 29.8218 41.9452 30.9716 40.7955C32.1213 39.6457 33.5862 38.8627 35.1809 38.5455C36.7757 38.2283 38.4287 38.3911 39.9309 39.0133C41.4332 39.6356 42.7171 40.6893 43.6205 42.0413C44.5239 43.3932 45.006 44.9827 45.006 46.6087C45.006 48.7891 44.1399 50.8802 42.5981 52.422C41.0563 53.9638 38.9652 54.8299 36.7848 54.8299Z" fill="black"/>
<path d="M58.3659 14H75.8637C76.8582 14 77.8119 14.395 78.5151 15.0982C79.2182 15.8014 79.6133 16.7551 79.6133 17.7495V30.248C79.6133 31.2424 79.2182 32.1961 78.5151 32.8993C77.8119 33.6025 76.8582 33.9975 75.8637 33.9975H61.378L56.7536 38.6345C56.6368 38.7503 56.4983 38.8419 56.346 38.9041C56.1938 38.9663 56.0307 38.9979 55.8662 38.9969C55.7023 39.0011 55.5396 38.9669 55.3913 38.8969C55.163 38.8032 54.9676 38.6439 54.8297 38.4393C54.6918 38.2347 54.6176 37.9938 54.6164 37.7471V17.7495C54.6164 16.7551 55.0114 15.8014 55.7146 15.0982C56.4178 14.395 57.3715 14 58.3659 14ZM57.1161 34.7349L59.9782 31.8603C60.095 31.7445 60.2335 31.6528 60.3858 31.5906C60.5381 31.5284 60.7011 31.4969 60.8656 31.4978H75.8637C76.1952 31.4978 76.5131 31.3662 76.7475 31.1318C76.9819 30.8974 77.1136 30.5795 77.1136 30.248V17.7495C77.1136 17.4181 76.9819 17.1002 76.7475 16.8658C76.5131 16.6314 76.1952 16.4997 75.8637 16.4997H58.3659C58.0344 16.4997 57.7165 16.6314 57.4821 16.8658C57.2477 17.1002 57.1161 17.4181 57.1161 17.7495V34.7349Z" fill="black"/>
<path d="M60.8653 20.2495H73.3637C73.6952 20.2495 74.0131 20.3812 74.2475 20.6156C74.4819 20.85 74.6136 21.1679 74.6136 21.4994C74.6136 21.8309 74.4819 22.1488 74.2475 22.3832C74.0131 22.6175 73.6952 22.7492 73.3637 22.7492H60.8653C60.5338 22.7492 60.2159 22.6175 59.9815 22.3832C59.7471 22.1488 59.6154 21.8309 59.6154 21.4994C59.6154 21.1679 59.7471 20.85 59.9815 20.6156C60.2159 20.3812 60.5338 20.2495 60.8653 20.2495ZM60.8653 25.2489H73.3637C73.6952 25.2489 74.0131 25.3806 74.2475 25.615C74.4819 25.8494 74.6136 26.1673 74.6136 26.4988C74.6136 26.8302 74.4819 27.1481 74.2475 27.3825C74.0131 27.6169 73.6952 27.7486 73.3637 27.7486H60.8653C60.5338 27.7486 60.2159 27.6169 59.9815 27.3825C59.7471 27.1481 59.6154 26.8302 59.6154 26.4988C59.6154 26.1673 59.7471 25.8494 59.9815 25.615C60.2159 25.3806 60.5338 25.2489 60.8653 25.2489ZM57.1158 34.7352L59.9779 31.8606C60.0947 31.7448 60.2332 31.6531 60.3855 31.5909C60.5377 31.5287 60.7008 31.4972 60.8653 31.4981H75.8634C76.1949 31.4981 76.5128 31.3665 76.7472 31.1321C76.9816 30.8977 77.1133 30.5798 77.1133 30.2483V17.7498C77.1133 17.4184 76.9816 17.1005 76.7472 16.8661C76.5128 16.6317 76.1949 16.5 75.8634 16.5H58.3656C58.0341 16.5 57.7162 16.6317 57.4818 16.8661C57.2474 17.1005 57.1158 17.4184 57.1158 17.7498V34.7352Z" fill="#FF5B53"/>
<defs>
<filter id="filter0_d_6442_149576" x="0" y="0" width="98" height="98" filterUnits="userSpaceOnUse" color-interpolation-filters="sRGB">
<feFlood flood-opacity="0" result="BackgroundImageFix"/>
<feColorMatrix in="SourceAlpha" type="matrix" values="0 0 0 0 0 0 0 0 0 0 0 0 0 0 0 0 0 0 127 0" result="hardAlpha"/>
<feMorphology radius="1" operator="erode" in="SourceAlpha" result="effect1_dropShadow_6442_149576"/>
<feOffset dx="1" dy="4"/>
<feGaussianBlur stdDeviation="5"/>
<feComposite in2="hardAlpha" operator="out"/>
<feColorMatrix type="matrix" values="0 0 0 0 0 0 0 0 0 0 0 0 0 0 0 0 0 0 0.3 0"/>
<feBlend mode="normal" in2="BackgroundImageFix" result="effect1_dropShadow_6442_149576"/>
<feBlend mode="normal" in="SourceGraphic" in2="effect1_dropShadow_6442_149576" result="shape"/>
</filter>
</defs>
</svg>
