<svg width="98" height="98" viewBox="0 0 98 98" fill="none" xmlns="http://www.w3.org/2000/svg">
<g filter="url(#filter0_d_6442_149585)">
<rect x="8" y="5" width="80" height="80" rx="12" fill="white"/>
</g>
<rect x="42" y="28" width="13" height="12" fill="#FF5B53"/>
<path d="M39.875 45.498H57.125C57.8875 45.498 58.6188 45.1951 59.1579 44.656C59.6971 44.1168 60 43.3855 60 42.623V25.373C60 24.6105 59.6971 23.8793 59.1579 23.3401C58.6188 22.8009 57.8875 22.498 57.125 22.498H39.875C39.1125 22.498 38.3812 22.8009 37.8421 23.3401C37.3029 23.8793 37 24.6105 37 25.373V42.623C37 43.3855 37.3029 44.1168 37.8421 44.656C38.3812 45.1951 39.1125 45.498 39.875 45.498ZM42.75 28.248H54.25V39.748H42.75V28.248ZM74.375 39.748H68.625C67.8625 39.748 67.1312 40.0509 66.5921 40.5901C66.0529 41.1293 65.75 41.8606 65.75 42.623C65.75 43.3855 66.0529 44.1168 66.5921 44.656C67.1312 45.1951 67.8625 45.498 68.625 45.498H74.375C75.1375 45.498 75.8688 45.1951 76.4079 44.656C76.9471 44.1168 77.25 43.3855 77.25 42.623C77.25 41.8606 76.9471 41.1293 76.4079 40.5901C75.8688 40.0509 75.1375 39.748 74.375 39.748ZM68.625 33.998H74.375C75.1375 33.998 75.8688 33.6951 76.4079 33.156C76.9471 32.6168 77.25 31.8855 77.25 31.123C77.25 30.3605 76.9471 29.6293 76.4079 29.0901C75.8688 28.5509 75.1375 28.248 74.375 28.248H68.625C67.8625 28.248 67.1312 28.5509 66.5921 29.0901C66.0529 29.6293 65.75 30.3605 65.75 31.123C65.75 31.8855 66.0529 32.6168 66.5921 33.156C67.1312 33.6951 67.8625 33.998 68.625 33.998ZM22.625 33.998H28.375C29.1375 33.998 29.8688 33.6951 30.4079 33.156C30.9471 32.6168 31.25 31.8855 31.25 31.123C31.25 30.3605 30.9471 29.6293 30.4079 29.0901C29.8688 28.5509 29.1375 28.248 28.375 28.248H22.625C21.8625 28.248 21.1312 28.5509 20.5921 29.0901C20.0529 29.6293 19.75 30.3605 19.75 31.123C19.75 31.8855 20.0529 32.6168 20.5921 33.156C21.1312 33.6951 21.8625 33.998 22.625 33.998ZM22.625 45.498H28.375C29.1375 45.498 29.8688 45.1951 30.4079 44.656C30.9471 44.1168 31.25 43.3855 31.25 42.623C31.25 41.8606 30.9471 41.1293 30.4079 40.5901C29.8688 40.0509 29.1375 39.748 28.375 39.748H22.625C21.8625 39.748 21.1312 40.0509 20.5921 40.5901C20.0529 41.1293 19.75 41.8606 19.75 42.623C19.75 43.3855 20.0529 44.1168 20.5921 44.656C21.1312 45.1951 21.8625 45.498 22.625 45.498ZM74.375 51.248H22.625C21.8625 51.248 21.1312 51.5509 20.5921 52.0901C20.0529 52.6293 19.75 53.3605 19.75 54.123C19.75 54.8855 20.0529 55.6168 20.5921 56.156C21.1312 56.6951 21.8625 56.998 22.625 56.998H74.375C75.1375 56.998 75.8688 56.6951 76.4079 56.156C76.9471 55.6168 77.25 54.8855 77.25 54.123C77.25 53.3605 76.9471 52.6293 76.4079 52.0901C75.8688 51.5509 75.1375 51.248 74.375 51.248ZM51.375 62.7481H22.625C21.8625 62.7481 21.1312 63.0509 20.5921 63.5901C20.0529 64.1293 19.75 64.8605 19.75 65.623C19.75 66.3855 20.0529 67.1168 20.5921 67.656C21.1312 68.1951 21.8625 68.498 22.625 68.498H51.375C52.1375 68.498 52.8688 68.1951 53.4079 67.656C53.9471 67.1168 54.25 66.3855 54.25 65.623C54.25 64.8605 53.9471 64.1293 53.4079 63.5901C52.8688 63.0509 52.1375 62.7481 51.375 62.7481Z" fill="black"/>
<defs>
<filter id="filter0_d_6442_149585" x="0" y="0" width="98" height="98" filterUnits="userSpaceOnUse" color-interpolation-filters="sRGB">
<feFlood flood-opacity="0" result="BackgroundImageFix"/>
<feColorMatrix in="SourceAlpha" type="matrix" values="0 0 0 0 0 0 0 0 0 0 0 0 0 0 0 0 0 0 127 0" result="hardAlpha"/>
<feMorphology radius="1" operator="erode" in="SourceAlpha" result="effect1_dropShadow_6442_149585"/>
<feOffset dx="1" dy="4"/>
<feGaussianBlur stdDeviation="5"/>
<feComposite in2="hardAlpha" operator="out"/>
<feColorMatrix type="matrix" values="0 0 0 0 0 0 0 0 0 0 0 0 0 0 0 0 0 0 0.3 0"/>
<feBlend mode="normal" in2="BackgroundImageFix" result="effect1_dropShadow_6442_149585"/>
<feBlend mode="normal" in="SourceGraphic" in2="effect1_dropShadow_6442_149585" result="shape"/>
</filter>
</defs>
</svg>
