<svg width="98" height="98" viewBox="0 0 98 98" fill="none" xmlns="http://www.w3.org/2000/svg">
<g filter="url(#filter0_d_6442_149586)">
<rect x="8" y="5" width="80" height="80" rx="12" fill="white"/>
</g>
<path d="M41.75 24.375C41.1814 24.375 40.6255 24.5436 40.1527 24.8595C39.6799 25.1754 39.3114 25.6244 39.0938 26.1498C38.8762 26.6751 38.8193 27.2532 38.9302 27.8109C39.0412 28.3686 39.315 28.8809 39.7171 29.2829C40.1191 29.685 40.6314 29.9588 41.1891 30.0698C41.7468 30.1807 42.3249 30.1238 42.8502 29.9062C43.3756 29.6886 43.8246 29.3201 44.1405 28.8473C44.4564 28.3745 44.625 27.8186 44.625 27.25C44.625 26.4875 44.3221 25.7562 43.7829 25.2171C43.2438 24.6779 42.5125 24.375 41.75 24.375ZM30.25 24.375C29.6814 24.375 29.1255 24.5436 28.6527 24.8595C28.1799 25.1754 27.8114 25.6244 27.5938 26.1498C27.3762 26.6751 27.3193 27.2532 27.4302 27.8109C27.5412 28.3686 27.815 28.8809 28.2171 29.2829C28.6191 29.685 29.1314 29.9588 29.6891 30.0698C30.2468 30.1807 30.8249 30.1238 31.3502 29.9062C31.8756 29.6886 32.3246 29.3201 32.6405 28.8473C32.9564 28.3745 33.125 27.8186 33.125 27.25C33.125 26.4875 32.8221 25.7562 32.2829 25.2171C31.7438 24.6779 31.0125 24.375 30.25 24.375ZM53.25 24.375C52.6814 24.375 52.1255 24.5436 51.6527 24.8595C51.1799 25.1754 50.8115 25.6244 50.5938 26.1498C50.3762 26.6751 50.3193 27.2532 50.4302 27.8109C50.5412 28.3686 50.815 28.8809 51.2171 29.2829C51.6191 29.685 52.1314 29.9588 52.6891 30.0698C53.2468 30.1807 53.8249 30.1238 54.3502 29.9062C54.8756 29.6886 55.3246 29.3201 55.6405 28.8473C55.9564 28.3745 56.125 27.8186 56.125 27.25C56.125 26.4875 55.8221 25.7562 55.2829 25.2171C54.7438 24.6779 54.0125 24.375 53.25 24.375ZM70.5 12.875H24.5C22.2125 12.875 20.0187 13.7837 18.4012 15.4012C16.7837 17.0187 15.875 19.2125 15.875 21.5V67.5C15.875 69.7875 16.7837 71.9813 18.4012 73.5988C20.0187 75.2163 22.2125 76.125 24.5 76.125H70.5C72.7875 76.125 74.9813 75.2163 76.5988 73.5988C78.2163 71.9813 79.125 69.7875 79.125 67.5V21.5C79.125 19.2125 78.2163 17.0187 76.5988 15.4012C74.9813 13.7837 72.7875 12.875 70.5 12.875ZM73.375 67.5C73.375 68.2625 73.0721 68.9938 72.5329 69.5329C71.9938 70.0721 71.2625 70.375 70.5 70.375H24.5C23.7375 70.375 23.0062 70.0721 22.4671 69.5329C21.9279 68.9938 21.625 68.2625 21.625 67.5V41.625H73.375V67.5ZM73.375 35.875H21.625V21.5C21.625 20.7375 21.9279 20.0062 22.4671 19.4671C23.0062 18.9279 23.7375 18.625 24.5 18.625H70.5C71.2625 18.625 71.9938 18.9279 72.5329 19.4671C73.0721 20.0062 73.375 20.7375 73.375 21.5V35.875Z" fill="black"/>
<path d="M41.75 24.375C41.1814 24.375 40.6255 24.5436 40.1527 24.8595C39.6799 25.1754 39.3114 25.6244 39.0938 26.1498C38.8762 26.6751 38.8193 27.2532 38.9302 27.8109C39.0412 28.3686 39.315 28.8809 39.7171 29.2829C40.1191 29.685 40.6314 29.9588 41.1891 30.0698C41.7468 30.1807 42.3249 30.1238 42.8502 29.9062C43.3756 29.6886 43.8246 29.3201 44.1405 28.8473C44.4564 28.3745 44.625 27.8186 44.625 27.25C44.625 26.4875 44.3221 25.7562 43.7829 25.2171C43.2438 24.6779 42.5125 24.375 41.75 24.375ZM30.25 24.375C29.6814 24.375 29.1255 24.5436 28.6527 24.8595C28.1799 25.1754 27.8114 25.6244 27.5938 26.1498C27.3762 26.6751 27.3193 27.2532 27.4302 27.8109C27.5412 28.3686 27.815 28.8809 28.2171 29.2829C28.6191 29.685 29.1314 29.9588 29.6891 30.0698C30.2468 30.1807 30.8249 30.1238 31.3502 29.9062C31.8756 29.6886 32.3246 29.3201 32.6405 28.8473C32.9564 28.3745 33.125 27.8186 33.125 27.25C33.125 26.4875 32.8221 25.7562 32.2829 25.2171C31.7438 24.6779 31.0125 24.375 30.25 24.375ZM53.25 24.375C52.6814 24.375 52.1255 24.5436 51.6527 24.8595C51.1799 25.1754 50.8115 25.6244 50.5938 26.1498C50.3762 26.6751 50.3193 27.2532 50.4302 27.8109C50.5412 28.3686 50.815 28.8809 51.2171 29.2829C51.6191 29.685 52.1314 29.9588 52.6891 30.0698C53.2468 30.1807 53.8249 30.1238 54.3502 29.9062C54.8756 29.6886 55.3246 29.3201 55.6405 28.8473C55.9564 28.3745 56.125 27.8186 56.125 27.25C56.125 26.4875 55.8221 25.7562 55.2829 25.2171C54.7438 24.6779 54.0125 24.375 53.25 24.375ZM73.375 35.875H21.625V21.5C21.625 20.7375 21.9279 20.0062 22.4671 19.4671C23.0062 18.9279 23.7375 18.625 24.5 18.625H70.5C71.2625 18.625 71.9938 18.9279 72.5329 19.4671C73.0721 20.0062 73.375 20.7375 73.375 21.5V35.875Z" fill="#FF5B53"/>
<rect x="29.5195" y="48.873" width="31.0986" height="3.88732" rx="1.94366" fill="black"/>
<rect x="29.5195" y="56.6484" width="20.4085" height="3.88732" rx="1.94366" fill="black"/>
<defs>
<filter id="filter0_d_6442_149586" x="0" y="0" width="98" height="98" filterUnits="userSpaceOnUse" color-interpolation-filters="sRGB">
<feFlood flood-opacity="0" result="BackgroundImageFix"/>
<feColorMatrix in="SourceAlpha" type="matrix" values="0 0 0 0 0 0 0 0 0 0 0 0 0 0 0 0 0 0 127 0" result="hardAlpha"/>
<feMorphology radius="1" operator="erode" in="SourceAlpha" result="effect1_dropShadow_6442_149586"/>
<feOffset dx="1" dy="4"/>
<feGaussianBlur stdDeviation="5"/>
<feComposite in2="hardAlpha" operator="out"/>
<feColorMatrix type="matrix" values="0 0 0 0 0 0 0 0 0 0 0 0 0 0 0 0 0 0 0.3 0"/>
<feBlend mode="normal" in2="BackgroundImageFix" result="effect1_dropShadow_6442_149586"/>
<feBlend mode="normal" in="SourceGraphic" in2="effect1_dropShadow_6442_149586" result="shape"/>
</filter>
</defs>
</svg>
