<svg width="997" height="1979" viewBox="0 0 997 1979" fill="none" xmlns="http://www.w3.org/2000/svg">
<g style="mix-blend-mode:hard-light">
<path d="M-33.8013 1466.36C-99.6178 1467.05 -151.251 1454.25 -191.739 1430.62C-232.221 1406.98 -261.633 1372.48 -282.94 1329.62C-325.582 1243.85 -335.717 1124.74 -337.101 992.827C-338.485 860.917 -330.851 741.623 -290.018 654.974C-269.615 611.679 -240.933 576.56 -200.956 552.084C-160.973 527.605 -109.62 513.727 -43.8031 513.036C87.7879 511.656 182.449 563.985 244.593 649.509C306.771 735.079 336.457 853.967 337.84 985.746C339.222 1117.53 312.037 1237.01 251.668 1323.87C191.332 1410.67 97.7896 1464.98 -33.8013 1466.36Z" stroke="#575757" stroke-width="2"/>
<path d="M71.146 1462.31C7.06705 1477.35 -46.1151 1476.13 -90.7849 1461.9C-135.449 1447.67 -171.684 1420.42 -201.831 1383.24C-262.166 1308.85 -298.053 1194.82 -328.194 1066.39C-358.336 937.966 -376.923 819.881 -355.985 726.409C-345.524 679.705 -325.199 639.173 -291.528 606.561C-257.852 573.945 -210.765 549.193 -146.686 534.154C-18.569 504.086 85.2312 534.494 164.544 604.392C243.899 674.328 298.817 783.87 328.929 912.171C359.04 1040.47 358.589 1163.01 318.632 1260.95C278.698 1358.83 199.263 1432.24 71.146 1462.31Z" stroke="#575757" stroke-width="2"/>
<path d="M465.525 1100.6C455.501 1165.66 434.474 1214.52 404.568 1250.62C374.665 1286.72 335.832 1310.13 290.079 1324.18C198.512 1352.3 79.3414 1342.93 -51.0368 1322.84C-181.415 1302.74 -297.879 1275.81 -376.731 1221.42C-416.131 1194.25 -446.116 1160.23 -463.763 1116.81C-481.413 1073.38 -486.753 1020.45 -476.728 955.397C-456.684 825.334 -389.653 740.446 -295.16 693.042C-200.615 645.611 -78.482 635.66 51.7673 655.732C182.017 675.804 295.488 722.063 371.366 795.757C447.204 869.41 485.569 970.54 465.525 1100.6Z" stroke="#575757" stroke-width="2"/>
<path d="M477.544 1021.95C478.442 1087.77 465.807 1139.44 442.3 1180C418.795 1220.56 384.379 1250.08 341.589 1271.52C255.951 1314.43 136.875 1324.94 4.97038 1326.74C-126.935 1328.54 -246.253 1321.28 -333.029 1280.72C-376.389 1260.46 -411.598 1231.89 -436.2 1191.99C-460.805 1152.08 -474.845 1100.77 -475.743 1034.96C-477.538 903.372 -425.507 808.546 -340.179 746.133C-254.806 683.686 -136.012 653.625 -4.23744 651.827C127.537 650.029 247.107 676.838 334.152 736.933C421.15 796.995 475.749 890.366 477.544 1021.95Z" stroke="#575757" stroke-width="2"/>
<path d="M474.974 930.011C488.454 994.436 485.943 1047.57 470.635 1091.88C455.328 1136.19 427.199 1171.75 389.304 1200.99C313.464 1259.5 198.602 1292.61 69.4805 1319.62C-59.6409 1346.64 -178.142 1362.35 -271.078 1339.15C-317.515 1327.56 -357.542 1306.26 -389.326 1271.81C-421.115 1237.35 -444.717 1189.68 -458.196 1125.25C-485.146 996.441 -452.228 893.41 -380.425 815.817C-308.584 738.183 -197.741 685.939 -68.7467 658.951C60.2471 631.963 182.737 635.388 279.676 677.71C376.563 720.009 448.025 801.202 474.974 930.011Z" stroke="#575757" stroke-width="2"/>
<path d="M452.849 834.283C479.207 894.595 487.606 947.123 481.674 993.628C475.743 1040.13 455.473 1080.69 424.351 1117.05C362.066 1189.82 256.392 1245.7 135.514 1298.53C14.6364 1351.35 -98.1537 1390.95 -193.87 1387.23C-241.695 1385.37 -285.23 1372.69 -323.384 1345.46C-361.542 1318.23 -394.387 1276.38 -420.745 1216.07C-473.444 1095.48 -462.272 987.899 -407.837 897.272C-353.374 806.597 -255.543 732.808 -134.785 680.033C-14.0265 627.259 106.58 605.585 210.121 627.207C313.606 648.818 400.149 713.697 452.849 834.283Z" stroke="#575757" stroke-width="2"/>
<path d="M137.835 531.171C202.216 544.861 249.812 568.619 284.165 600.521C318.513 632.418 339.685 672.514 351.125 718.989C374.02 812.001 357.916 930.45 330.477 1059.48C303.039 1188.51 269.553 1303.27 210.793 1378.91C181.433 1416.71 145.778 1444.73 101.423 1459.89C57.0619 1475.05 3.91708 1477.39 -60.4634 1463.7C-189.184 1436.32 -270.142 1364.6 -312.123 1267.57C-354.126 1170.49 -357.15 1047.99 -329.739 919.089C-302.327 790.184 -249.721 679.513 -171.851 607.926C-94.0236 536.379 9.1153 503.799 137.835 531.171Z" stroke="#575757" stroke-width="2"/>
</g>
<circle cx="362.858" cy="833.859" r="14.142" transform="rotate(115.538 362.858 833.859)" fill="#343434"/>
<circle cx="370.061" cy="1266.01" r="10.8785" transform="rotate(115.538 370.061 1266.01)" fill="#343434"/>
<circle cx="183.427" cy="622.429" r="7.07101" transform="rotate(115.538 183.427 622.429)" fill="#343434"/>
</svg>
