<svg width="1015" height="1990" viewBox="0 0 1015 1990" fill="none" xmlns="http://www.w3.org/2000/svg">
<g style="mix-blend-mode:hard-light">
<path d="M1315.05 645.909C1366.58 686.857 1398.6 729.337 1415.14 773.205C1431.67 817.068 1432.75 862.397 1422.28 909.1C1401.33 1002.57 1334.12 1101.43 1252.05 1204.71C1169.99 1307.99 1088.87 1395.79 1002.55 1437.32C959.424 1458.08 915.022 1467.26 868.559 1461.07C822.089 1454.87 773.472 1433.28 721.94 1392.33C618.909 1310.46 578.401 1210.17 584.061 1104.6C589.723 998.982 641.61 887.972 723.597 784.792C805.583 681.613 901.999 605.985 1003.61 576.605C1105.17 547.24 1212.02 564.04 1315.05 645.909Z" stroke="#575757" stroke-width="2"/>
<path d="M1231.02 582.902C1290.25 611.615 1330.77 646.083 1356.48 685.284C1382.19 724.481 1393.14 768.481 1393.11 816.343C1393.06 912.131 1349.05 1023.27 1291.51 1141.98C1233.96 1260.68 1173.96 1364.07 1098.79 1423.44C1061.23 1453.11 1019.91 1471.76 973.211 1475.86C926.509 1479.96 874.352 1469.49 815.125 1440.78C696.708 1383.37 635.288 1294.34 617.77 1190.08C600.242 1085.77 626.65 966.113 684.14 847.527C741.63 728.941 819.215 634.093 911.965 583.243C1004.67 532.42 1112.61 525.494 1231.02 582.902Z" stroke="#575757" stroke-width="2"/>
<path d="M696.859 615.14C745.644 570.955 792.767 546.272 838.741 537.093C884.709 527.915 929.611 534.22 973.988 552.148C1062.8 588.03 1149.41 670.42 1237.97 768.196C1326.52 865.971 1399.96 960.29 1426.9 1052.21C1440.36 1098.14 1442.2 1143.45 1428.53 1188.29C1414.86 1233.13 1385.65 1277.58 1336.86 1321.77C1239.32 1410.11 1133.78 1433.76 1030.54 1411.01C927.243 1388.24 826.151 1318.99 737.683 1221.31C649.214 1123.63 590.277 1016.2 577.817 911.157C565.364 806.176 599.321 703.482 696.859 615.14Z" stroke="#575757" stroke-width="2"/>
<path d="M637.957 668.627C678.742 616.966 721.121 584.812 764.937 568.139C808.747 551.467 854.073 550.241 900.808 560.565C994.341 581.227 1093.41 648.12 1196.95 729.862C1300.49 811.604 1388.55 892.444 1430.35 978.628C1451.24 1021.69 1460.57 1066.06 1454.52 1112.55C1448.47 1159.04 1427.03 1207.72 1386.24 1259.38C1304.7 1362.67 1204.54 1403.49 1098.95 1398.17C993.313 1392.84 882.14 1341.3 778.703 1259.64C675.266 1177.98 599.335 1081.8 569.634 980.282C539.949 878.818 556.412 771.916 637.957 668.627Z" stroke="#575757" stroke-width="2"/>
<path d="M581.999 741.625C612.141 683.112 647.582 643.441 687.396 618.689C727.205 593.94 771.458 584.06 819.305 585.247C915.064 587.623 1025.11 634.316 1142.38 694.727C1259.65 755.139 1361.55 817.628 1419.08 894.217C1447.83 932.486 1465.48 974.253 1468.44 1021.03C1471.4 1067.82 1459.67 1119.71 1429.53 1178.22C1369.26 1295.21 1278.77 1354.45 1174.12 1369.43C1069.41 1384.42 950.428 1355.12 833.272 1294.77C716.117 1234.42 623.18 1154.55 574.596 1060.6C526.038 966.689 521.734 858.613 581.999 741.625Z" stroke="#575757" stroke-width="2"/>
<path d="M538.842 829.888C556.393 766.451 582.98 720.376 616.897 688.011C650.809 655.65 692.11 636.937 739.191 628.323C833.415 611.083 950.676 634.307 1077.82 669.484C1204.96 704.66 1317.48 745.01 1389.44 808.229C1425.4 839.817 1451.21 877.097 1463.67 922.287C1476.13 967.482 1475.25 1020.67 1457.7 1084.11C1422.61 1210.94 1346.12 1287.42 1246.74 1323.47C1147.31 1359.54 1024.85 1355.16 897.832 1320.02C770.816 1284.88 663.522 1225.69 596.766 1143.64C530.046 1061.64 503.75 956.721 538.842 829.888Z" stroke="#575757" stroke-width="2"/>
<path d="M592.354 1263.76C551.001 1212.56 529.024 1164.11 522.461 1117.69C515.899 1071.28 524.735 1026.81 545.147 983.515C585.997 896.874 673.157 815.066 775.787 732.185C878.417 649.305 976.742 581.321 1070.04 559.628C1116.66 548.789 1162 549.514 1205.99 565.7C1249.99 581.889 1292.72 613.572 1334.07 664.78C1416.75 767.162 1434.39 873.875 1405.83 975.661C1377.25 1077.5 1302.39 1174.51 1199.86 1257.31C1097.33 1340.11 986.735 1392.87 881.16 1399.37C775.642 1405.86 675.034 1366.15 592.354 1263.76Z" stroke="#575757" stroke-width="2"/>
</g>
<circle cx="639.32" cy="874.408" r="14.142" transform="rotate(-25.39 639.32 874.408)" fill="#343434"/>
<circle cx="875.23" cy="546.898" r="10.8785" transform="rotate(-25.39 875.23 546.898)" fill="#343434"/>
<circle cx="748.186" cy="1272.49" r="7.07101" transform="rotate(-25.39 748.186 1272.49)" fill="#343434"/>
</svg>
