<svg width="715" height="1152" viewBox="0 0 715 1152" fill="none" xmlns="http://www.w3.org/2000/svg">
<g style="mix-blend-mode:hard-light">
<path d="M288.482 573.975C285.61 535.167 291.229 504.255 303.636 479.526C316.04 454.803 335.265 436.185 359.734 422.02C408.726 393.659 478.637 383.206 556.53 377.441C634.424 371.677 705.112 371.725 757.745 392.565C784.032 402.973 805.789 418.559 821.697 441.186C837.608 463.819 847.718 493.567 850.59 532.376C856.331 609.951 829.011 667.716 780.913 707.556C732.771 747.432 663.728 769.414 585.965 775.169C508.201 780.924 436.675 769.345 383.187 736.99C329.749 704.665 294.223 651.551 288.482 573.975Z" stroke="#575757" stroke-width="2"/>
<path d="M294.791 635.746C283.518 598.5 282.256 567.107 288.966 540.266C295.675 513.432 310.373 491.067 331.16 471.903C372.781 433.533 438.725 408.073 513.482 385.446C588.24 362.82 657.234 347.438 713.147 356.288C741.072 360.708 765.706 371.169 786.169 389.779C806.637 408.394 822.995 435.218 834.268 472.464C856.802 546.916 842.749 609.252 804.506 658.628C766.227 708.05 703.648 744.572 629.015 767.161C554.382 789.75 482.053 794.061 422.793 774.16C363.588 754.278 317.326 710.198 294.791 635.746Z" stroke="#575757" stroke-width="2"/>
<path d="M522.955 854.923C484.196 851.444 454.61 840.871 432.229 824.607C409.853 808.347 394.609 786.349 384.614 759.902C364.6 706.949 365.658 636.269 372.641 558.475C379.624 480.681 391.17 410.943 420.294 362.4C434.84 338.157 453.757 319.225 478.671 307.21C503.591 295.191 534.587 290.056 573.345 293.535C650.822 300.489 703.373 336.842 734.858 390.78C766.372 444.767 776.831 516.466 769.86 594.13C762.889 671.794 739.828 740.484 699.204 787.996C658.616 835.465 600.431 861.878 522.955 854.923Z" stroke="#575757" stroke-width="2"/>
<path d="M569.81 859.075C531.011 862.07 500.082 856.547 475.314 844.219C450.552 831.893 431.873 812.726 417.632 788.302C389.116 739.4 378.443 669.522 372.433 591.647C366.423 513.772 366.248 443.084 386.922 390.386C397.247 364.066 412.764 342.26 435.342 326.281C457.924 310.298 487.64 300.095 526.44 297.101C603.997 291.115 661.848 318.253 701.838 366.226C741.866 414.242 764.066 483.214 770.066 560.96C776.066 638.705 764.712 710.267 732.526 763.856C700.369 817.397 647.367 853.09 569.81 859.075Z" stroke="#575757" stroke-width="2"/>
<path d="M623.962 854.124C586.453 864.49 555.039 864.99 528.369 857.631C501.706 850.272 479.703 835.036 461.05 813.79C423.701 771.25 399.849 704.707 379.044 629.423C358.239 554.138 344.536 484.791 354.741 429.109C359.837 401.3 370.893 376.927 389.994 356.922C409.1 336.911 436.313 321.209 473.822 310.843C548.799 290.123 610.775 305.685 659.209 345.116C707.688 384.582 742.68 448.03 763.45 523.189C784.221 598.348 786.775 670.761 765.442 729.52C744.129 788.225 698.939 833.404 623.962 854.124Z" stroke="#575757" stroke-width="2"/>
<path d="M679.619 837.49C645.019 855.301 614.369 862.209 586.759 860.454C559.154 858.699 534.503 848.279 511.902 831.292C466.65 797.281 429.705 737.015 393.957 667.57C358.208 598.124 330.626 533.04 329.238 476.448C328.545 448.184 334.388 422.066 348.999 398.58C363.613 375.088 387.044 354.157 421.644 336.346C490.805 300.744 554.654 303.315 610.122 332.018C665.642 360.746 712.859 415.706 748.548 485.036C784.237 554.366 801.533 624.729 792.655 686.607C783.786 748.429 748.781 801.887 679.619 837.49Z" stroke="#575757" stroke-width="2"/>
<path d="M846.689 640.292C841.022 678.792 828.791 707.732 811.287 729.157C793.786 750.577 770.961 764.55 743.991 773.033C689.99 790.018 619.483 784.962 542.209 773.587C464.935 762.213 395.962 746.739 349.146 714.914C325.764 699.02 307.933 679.062 297.347 653.507C286.758 627.947 283.385 596.711 289.052 558.211C300.38 481.252 339.649 430.842 395.282 402.46C450.966 374.052 523.142 367.668 600.287 379.023C677.432 390.379 744.707 417.289 789.844 460.538C834.939 503.746 858.017 563.333 846.689 640.292Z" stroke="#575757" stroke-width="2"/>
</g>
<circle cx="581.891" cy="777.893" r="8.37301" transform="rotate(-158.093 581.891 777.893)" fill="#343434"/>
<path d="M401.002 766.5C402.33 763.199 406.081 761.6 409.381 762.927C412.681 764.254 414.281 768.005 412.954 771.306C411.627 774.606 407.875 776.205 404.575 774.878C401.275 773.551 399.675 769.8 401.002 766.5Z" fill="#343434"/>
</svg>
