<svg width="30" height="30" viewBox="0 0 30 30" fill="none" xmlns="http://www.w3.org/2000/svg">
<path d="M24.6023 10.2031H21.2303C20.6903 9.26712 19.9463 8.46312 19.0463 7.85112L21.0023 5.89512L19.3103 4.20312L16.7063 6.80712C16.1543 6.67512 15.5903 6.60312 15.0023 6.60312C14.4143 6.60312 13.8503 6.67512 13.3103 6.80712L10.6943 4.20312L9.00234 5.89512L10.9463 7.85112C10.0583 8.46312 9.31434 9.26712 8.77434 10.2031H5.40234V12.6031H7.91034C7.85034 12.9991 7.80234 13.3951 7.80234 13.8031V15.0031H5.40234V17.4031H7.80234V18.6031C7.80234 19.0111 7.85034 19.4071 7.91034 19.8031H5.40234V22.2031H8.77434C10.0223 24.3511 12.3383 25.8031 15.0023 25.8031C17.6663 25.8031 19.9823 24.3511 21.2303 22.2031H24.6023V19.8031H22.0943C22.1543 19.4071 22.2023 19.0111 22.2023 18.6031V17.4031H24.6023V15.0031H22.2023V13.8031C22.2023 13.3951 22.1543 12.9991 22.0943 12.6031H24.6023V10.2031ZM17.4023 19.8031H12.6023V17.4031H17.4023V19.8031ZM17.4023 15.0031H12.6023V12.6031H17.4023V15.0031Z" fill="white"/>
</svg>
