<svg width="26" height="26" viewBox="0 0 26 26" fill="none" xmlns="http://www.w3.org/2000/svg">
<path d="M21.0016 5H4.20156C3.04656 5 2.11206 5.945 2.11206 7.1L2.10156 19.7C2.10156 20.855 3.04656 21.8 4.20156 21.8H21.0016C22.1566 21.8 23.1016 20.855 23.1016 19.7V7.1C23.1016 5.945 22.1566 5 21.0016 5ZM4.20156 10.25H15.2266V13.925H4.20156V10.25ZM4.20156 16.025H15.2266V19.7H5.25156C4.67406 19.7 4.20156 19.2275 4.20156 18.65V16.025ZM19.9516 19.7H17.3266V10.25H21.0016V18.65C21.0016 19.2275 20.5291 19.7 19.9516 19.7Z" fill="white"/>
</svg>
