<svg width="30" height="30" viewBox="0 0 30 30" fill="none" xmlns="http://www.w3.org/2000/svg">
<path d="M23.9285 16.188L23.9165 16.212C23.9645 15.816 24.0125 15.408 24.0125 15C24.0125 14.592 23.9765 14.208 23.9285 13.812L23.9405 13.836L26.8685 11.532L23.9525 6.468L20.5085 7.86L20.5205 7.872C19.8965 7.392 19.2125 6.984 18.4685 6.672H18.4805L17.9285 3H12.0845L11.5565 6.684H11.5685C10.8245 6.996 10.1405 7.404 9.51653 7.884L9.52853 7.872L6.07253 6.468L3.14453 11.532L6.07253 13.836L6.08453 13.812C6.03653 14.208 6.00053 14.592 6.00053 15C6.00053 15.408 6.03653 15.816 6.09653 16.212L6.08453 16.188L3.56453 18.168L3.16853 18.48L6.08453 23.52L9.54053 22.14L9.51653 22.092C10.1525 22.584 10.8365 22.992 11.5925 23.304H11.5565L12.0965 27H17.9165C17.9165 27 17.9525 26.784 17.9885 26.496L18.4445 23.316H18.4325C19.1765 23.004 19.8725 22.596 20.5085 22.104L20.4845 22.152L23.9405 23.532L26.8565 18.492C26.8565 18.492 26.6885 18.348 26.4605 18.18L23.9285 16.188ZM15.0005 19.2C12.6845 19.2 10.8005 17.316 10.8005 15C10.8005 12.684 12.6845 10.8 15.0005 10.8C17.3165 10.8 19.2005 12.684 19.2005 15C19.2005 17.316 17.3165 19.2 15.0005 19.2Z" fill="white"/>
</svg>
