<svg width="30" height="30" viewBox="0 0 30 30" fill="none" xmlns="http://www.w3.org/2000/svg">
<path d="M9.00234 6.60078H21.0023V9.00078H23.4023V4.20078C23.4023 2.88078 22.3223 1.81278 21.0023 1.81278L9.00234 1.80078C7.68234 1.80078 6.60234 2.88078 6.60234 4.20078V9.00078H9.00234V6.60078ZM19.0943 20.5088L24.6023 15.0008L19.0943 9.49278L17.4023 11.1968L21.2063 15.0008L17.4023 18.8048L19.0943 20.5088ZM12.6023 18.8048L8.79834 15.0008L12.6023 11.1968L10.9103 9.49278L5.40234 15.0008L10.9103 20.5088L12.6023 18.8048ZM21.0023 23.4008H9.00234V21.0008H6.60234V25.8008C6.60234 27.1208 7.68234 28.2008 9.00234 28.2008H21.0023C22.3223 28.2008 23.4023 27.1208 23.4023 25.8008V21.0008H21.0023V23.4008Z" fill="white"/>
</svg>
