<svg width="155" height="44" viewBox="0 0 155 44" fill="none" xmlns="http://www.w3.org/2000/svg">
<path fill-rule="evenodd" clip-rule="evenodd" d="M2.86844 38.2969L0 44.0006H1.1907L1.74387 42.8253H3.61683L3.78636 44.0006H4.88889L3.86756 38.2969H2.86844ZM3.17801 39.7502L3.48028 41.8734H2.18618L3.17801 39.7502Z" fill="#231F20"/>
<path fill-rule="evenodd" clip-rule="evenodd" d="M10.6003 38.3828L9.97586 42.0328C9.88937 42.6437 9.63545 43.1265 9.21427 43.4815C8.7926 43.8363 8.2697 44.0086 7.64506 43.9985C7.25419 43.9908 6.91459 43.9053 6.62643 43.7419C6.33828 43.5784 6.12548 43.3478 5.98853 43.0499C5.85141 42.7521 5.80423 42.4142 5.84764 42.0366L6.46819 38.3828H7.58412L6.96341 42.0404C6.94555 42.1823 6.94441 42.3155 6.95948 42.4396C7.01026 42.8504 7.25533 43.0632 7.69469 43.0786C8.00939 43.0885 8.26708 43.0023 8.46775 42.82C8.66827 42.6373 8.79768 42.3763 8.85617 42.0366L9.4808 38.3828H10.6003Z" fill="#231F20"/>
<path fill-rule="evenodd" clip-rule="evenodd" d="M15.4146 39.3067H13.7695L12.9696 43.9187H11.8538L12.6536 39.3067H11.0273L11.1912 38.3828H15.5784L15.4146 39.3067Z" fill="#231F20"/>
<path fill-rule="evenodd" clip-rule="evenodd" d="M18.9806 41.0009L19.0111 40.6398C19.0363 40.1887 18.9762 39.8464 18.8302 39.6132C18.6841 39.3801 18.4626 39.2583 18.1656 39.2481C17.701 39.2329 17.3321 39.4383 17.0592 39.8641C16.7863 40.2899 16.6319 40.8856 16.5966 41.6511C16.571 42.0997 16.6308 42.4451 16.7755 42.6872C16.9201 42.9292 17.1449 43.0555 17.4496 43.0655C17.8481 43.0833 18.1782 42.9279 18.4397 42.5997C18.7011 42.2715 18.8725 41.807 18.9539 41.2063L18.9806 41.0009ZM17.4001 43.9969C17.0318 43.9893 16.7075 43.9025 16.427 43.7365C16.1464 43.5707 15.9244 43.3311 15.7606 43.0179C15.5968 42.7049 15.5021 42.3457 15.4769 41.9401C15.4488 41.5244 15.4934 41.0808 15.6102 40.6093C15.7268 40.1378 15.9147 39.7236 16.1737 39.3661C16.4327 39.0087 16.7368 38.7411 17.0859 38.5639C17.4348 38.3864 17.8126 38.3015 18.219 38.3091C18.592 38.3167 18.9184 38.4049 19.1977 38.5732C19.4768 38.7418 19.6965 38.984 19.8564 39.2995C20.0164 39.6151 20.1078 39.9731 20.1306 40.3735C20.156 40.8198 20.1078 41.2786 19.986 41.7499C19.8641 42.2214 19.6749 42.6296 19.4185 42.9742C19.162 43.319 18.8618 43.5775 18.5178 43.7499C18.1738 43.9223 17.8013 44.0047 17.4001 43.9969Z" fill="#231F20"/>
<path fill-rule="evenodd" clip-rule="evenodd" d="M22.833 38.3828L23.5148 42.3864L25.5827 38.3828H27.0679L26.1045 43.9187H24.9848L25.2588 42.3408L25.7998 39.8771L23.6746 43.9187H22.9092L22.1666 39.7363L21.8085 42.4625L21.5534 43.9187H20.4375L21.4011 38.3828H22.833Z" fill="#231F20"/>
<path fill-rule="evenodd" clip-rule="evenodd" d="M30.9103 41.0009L30.9408 40.6398C30.966 40.1887 30.9059 39.8464 30.7599 39.6132C30.6138 39.3801 30.3923 39.2583 30.0953 39.2481C29.6305 39.2329 29.2618 39.4383 28.9889 39.8641C28.716 40.2899 28.5616 40.8856 28.5262 41.6511C28.5007 42.0997 28.5605 42.4451 28.7051 42.6872C28.8498 42.9292 29.0745 43.0555 29.3793 43.0655C29.7778 43.0833 30.1079 42.9279 30.3694 42.5997C30.6308 42.2715 30.8022 41.807 30.8836 41.2063L30.9103 41.0009ZM29.3298 43.9969C28.9615 43.9893 28.6372 43.9025 28.3567 43.7365C28.0761 43.5707 27.8541 43.3311 27.6903 43.0179C27.5265 42.7049 27.4318 42.3457 27.4065 41.9401C27.3785 41.5244 27.4231 41.0808 27.5399 40.6093C27.6565 40.1378 27.8444 39.7236 28.1034 39.3661C28.3624 39.0087 28.6665 38.7411 29.0156 38.5639C29.3645 38.3864 29.7423 38.3015 30.1487 38.3091C30.5217 38.3167 30.848 38.4049 31.1274 38.5732C31.4065 38.7418 31.6262 38.984 31.7861 39.2995C31.9461 39.6151 32.0375 39.9731 32.0603 40.3735C32.0857 40.8198 32.0375 41.2786 31.9157 41.7499C31.7938 42.2214 31.6046 42.6296 31.3482 42.9742C31.0916 43.319 30.7915 43.5775 30.4475 43.7499C30.1035 43.9223 29.731 44.0047 29.3298 43.9969Z" fill="#231F20"/>
<path fill-rule="evenodd" clip-rule="evenodd" d="M36.895 39.3067H35.25L34.45 43.9187H33.3343L34.134 39.3067H32.5078L32.6716 38.3828H37.0589L36.895 39.3067Z" fill="#231F20"/>
<path fill-rule="evenodd" clip-rule="evenodd" d="M37.9478 43.9187H36.832L37.7918 38.3828H38.9074L37.9478 43.9187Z" fill="#231F20"/>
<path fill-rule="evenodd" clip-rule="evenodd" d="M41.2283 42.5348L43.0944 38.3828H44.3739L41.6357 43.9187H40.4705L39.4727 38.3828H40.6723L41.2283 42.5348Z" fill="#231F20"/>
<path fill-rule="evenodd" clip-rule="evenodd" d="M47.6481 41.5195H45.5231L45.2641 43.0023H47.7625L47.6024 43.9187H43.9883L44.9519 38.3828H48.5585L48.3947 39.3067H45.9076L45.6753 40.626H47.8082L47.6481 41.5195Z" fill="#231F20"/>
<path fill-rule="evenodd" clip-rule="evenodd" d="M51.3892 43.9187H50.2734L51.2333 38.3828H52.3489L51.3892 43.9187Z" fill="#231F20"/>
<path fill-rule="evenodd" clip-rule="evenodd" d="M56.8288 43.9187H55.7471L54.2049 40.2268L53.5611 43.9187H52.4453L53.4089 38.3828H54.4867L56.0328 42.0822L56.6764 38.3828H57.7884L56.8288 43.9187Z" fill="#231F20"/>
<path fill-rule="evenodd" clip-rule="evenodd" d="M60.0564 42.5348L61.9225 38.3828H63.2021L60.4638 43.9187H59.2986L58.3008 38.3828H59.5004L60.0564 42.5348Z" fill="#231F20"/>
<path fill-rule="evenodd" clip-rule="evenodd" d="M66.4724 41.5195H64.3473L64.0883 43.0023H66.5867L66.4267 43.9187H62.8125L63.7761 38.3828H67.3827L67.2189 39.3067H64.7318L64.4995 40.626H66.6324L66.4724 41.5195Z" fill="#231F20"/>
<path fill-rule="evenodd" clip-rule="evenodd" d="M71.4889 43.9187H70.4072L68.865 40.2268L68.2212 43.9187H67.1055L68.069 38.3828H69.1468L70.6929 42.0822L71.3366 38.3828H72.4486L71.4889 43.9187Z" fill="#231F20"/>
<path fill-rule="evenodd" clip-rule="evenodd" d="M77.231 39.3067H75.5859L74.786 43.9187H73.6702L74.47 39.3067H72.8438L73.0076 38.3828H77.3948L77.231 39.3067Z" fill="#231F20"/>
<path fill-rule="evenodd" clip-rule="evenodd" d="M80.7931 41.0009L80.8236 40.6398C80.8488 40.1887 80.7887 39.8464 80.6427 39.6132C80.4966 39.3801 80.2751 39.2583 79.9781 39.2481C79.5135 39.2329 79.1446 39.4383 78.8717 39.8641C78.5988 40.2899 78.4444 40.8856 78.4091 41.6511C78.3835 42.0997 78.4433 42.4451 78.5879 42.6872C78.7326 42.9292 78.9574 43.0555 79.2621 43.0655C79.6606 43.0833 79.9907 42.9279 80.2522 42.5997C80.5136 42.2715 80.685 41.807 80.7664 41.2063L80.7931 41.0009ZM79.2126 43.9969C78.8443 43.9893 78.52 43.9025 78.2395 43.7365C77.9589 43.5707 77.7369 43.3311 77.5731 43.0179C77.4093 42.7049 77.3146 42.3457 77.2894 41.9401C77.2613 41.5244 77.3059 41.0808 77.4227 40.6093C77.5394 40.1378 77.7272 39.7236 77.9862 39.3661C78.2452 39.0087 78.5493 38.7411 78.8984 38.5639C79.2473 38.3864 79.6251 38.3015 80.0315 38.3091C80.4047 38.3167 80.7309 38.4049 81.0102 38.5732C81.2893 38.7418 81.509 38.984 81.6689 39.2995C81.8289 39.6151 81.9203 39.9731 81.9431 40.3735C81.9685 40.8198 81.9203 41.2786 81.7985 41.7499C81.6766 42.2214 81.4874 42.6296 81.231 42.9742C80.9745 43.319 80.6743 43.5775 80.3303 43.7499C79.9863 43.9223 79.6138 44.0047 79.2126 43.9969Z" fill="#231F20"/>
<path fill-rule="evenodd" clip-rule="evenodd" d="M83.8802 40.9683L84.7104 40.9758C85.0048 40.9708 85.248 40.8916 85.4395 40.7382C85.6314 40.585 85.7462 40.3764 85.7842 40.1128C85.8198 39.867 85.7804 39.6743 85.6663 39.5348C85.5519 39.3955 85.3704 39.3208 85.1216 39.3104L84.1695 39.3067L83.8802 40.9683ZM84.6265 41.8922H83.7201L83.3659 43.9187H82.25L83.2137 38.3828L85.0493 38.3866C85.6636 38.3866 86.1366 38.5311 86.468 38.82C86.7994 39.109 86.946 39.5108 86.9077 40.0253C86.8544 40.7858 86.4482 41.3142 85.689 41.6107L86.4698 43.8579V43.9187H85.2816L84.6265 41.8922Z" fill="#231F20"/>
<path fill-rule="evenodd" clip-rule="evenodd" d="M89.2922 40.8695L90.8423 38.3828H92.1217L89.6996 41.972L89.3646 43.9187H88.2297L88.5916 41.8466L87.4414 38.3867L88.6181 38.3828L89.2922 40.8695Z" fill="#231F20"/>
<path fill-rule="evenodd" clip-rule="evenodd" d="M95.9658 38.3828L96.6476 42.3864L98.7155 38.3828H100.201L99.2373 43.9187H98.1176L98.3916 42.3408L98.9326 39.8771L96.8074 43.9187H96.042L95.2994 39.7363L94.9413 42.4625L94.6861 43.9187H93.5703L94.5339 38.3828H95.9658Z" fill="#231F20"/>
<path fill-rule="evenodd" clip-rule="evenodd" d="M103.898 41.5195H101.773L101.514 43.0023H104.012L103.852 43.9187H100.238L101.202 38.3828H104.808L104.645 39.3067H102.158L101.925 40.626H104.058L103.898 41.5195Z" fill="#231F20"/>
<path fill-rule="evenodd" clip-rule="evenodd" d="M106.157 40.9683L106.988 40.9758C107.282 40.9708 107.525 40.8916 107.717 40.7382C107.909 40.585 108.024 40.3764 108.062 40.1128C108.097 39.867 108.058 39.6743 107.944 39.5348C107.829 39.3955 107.648 39.3208 107.399 39.3104L106.447 39.3067L106.157 40.9683ZM106.904 41.8922H105.997L105.643 43.9187H104.527L105.491 38.3828L107.327 38.3866C107.941 38.3866 108.414 38.5311 108.745 38.82C109.077 39.109 109.223 39.5108 109.185 40.0253C109.132 40.7858 108.726 41.3142 107.966 41.6107L108.747 43.8579V43.9187H107.559L106.904 41.8922Z" fill="#231F20"/>
<path fill-rule="evenodd" clip-rule="evenodd" d="M113.915 42.0731C113.872 42.4558 113.741 42.7948 113.523 43.09C113.305 43.3856 113.02 43.6124 112.67 43.7707C112.32 43.9292 111.941 44.0046 111.535 43.9969C111.169 43.9894 110.851 43.9052 110.579 43.7441C110.307 43.5833 110.094 43.3499 109.937 43.0446C109.781 42.7391 109.693 42.3874 109.673 41.9894C109.655 41.6777 109.687 41.2899 109.77 40.8261C109.852 40.3621 110 39.9503 110.212 39.5905C110.424 39.2305 110.676 38.9453 110.968 38.735C111.379 38.4407 111.848 38.2991 112.377 38.3091C112.95 38.3192 113.405 38.496 113.742 38.8393C114.078 39.1829 114.263 39.6601 114.296 40.2708L113.184 40.2671C113.184 39.9174 113.114 39.6613 112.975 39.499C112.835 39.337 112.618 39.2508 112.323 39.2405C111.943 39.2279 111.63 39.3636 111.385 39.6474C111.14 39.9313 110.975 40.3457 110.891 40.8907C110.81 41.4204 110.775 41.8172 110.785 42.0806C110.797 42.4152 110.872 42.6619 111.009 42.8202C111.147 42.9787 111.338 43.0616 111.585 43.0693C111.925 43.0819 112.197 43.0014 112.401 42.8277C112.606 42.6542 112.741 42.4053 112.807 42.0806L113.915 42.0731Z" fill="#231F20"/>
<path fill-rule="evenodd" clip-rule="evenodd" d="M118.774 43.9187H117.658L118.07 41.5461H115.918L115.503 43.9187H114.387L115.35 38.3828H116.466L116.074 40.626H118.23L118.618 38.3828H119.734L118.774 43.9187Z" fill="#231F20"/>
<path fill-rule="evenodd" clip-rule="evenodd" d="M121.622 41.8541H122.959L122.646 39.7934L121.622 41.8541ZM123.099 42.778H121.165L120.593 43.9187H119.363L122.326 38.3828H123.358L124.413 43.9187H123.274L123.099 42.778Z" fill="#231F20"/>
<path fill-rule="evenodd" clip-rule="evenodd" d="M129.352 43.9187H128.271L126.728 40.2268L126.085 43.9187H124.969L125.932 38.3828H127.01L128.556 42.0822L129.2 38.3828H130.312L129.352 43.9187Z" fill="#231F20"/>
<path fill-rule="evenodd" clip-rule="evenodd" d="M132.271 39.3067L131.628 43.0023L132.092 43.0061C132.605 43.0061 133.017 42.8185 133.328 42.4433C133.639 42.0683 133.817 41.5018 133.863 40.7439L133.871 40.6223C133.878 40.2039 133.798 39.8833 133.631 39.6603C133.463 39.4374 133.213 39.3206 132.88 39.3104L132.271 39.3067ZM130.352 43.9187L131.315 38.3828L132.907 38.3866C133.28 38.3943 133.616 38.4785 133.914 38.6394C134.213 38.8003 134.455 39.0316 134.64 39.3333C134.825 39.6349 134.937 39.9746 134.975 40.3522C134.995 40.5729 134.993 40.7984 134.967 41.029L134.941 41.2306C134.829 42.0417 134.51 42.6924 133.983 43.1829C133.456 43.6734 132.817 43.9187 132.065 43.9187H130.352Z" fill="#231F20"/>
<path fill-rule="evenodd" clip-rule="evenodd" d="M136.495 43.9187H135.379L136.339 38.3828H137.454L136.495 43.9187Z" fill="#231F20"/>
<path fill-rule="evenodd" clip-rule="evenodd" d="M140.596 42.4417C140.649 42.1399 140.501 41.9093 140.15 41.7497L139.416 41.457C138.562 41.0767 138.157 40.5534 138.201 39.8868C138.218 39.5775 138.32 39.3039 138.505 39.0654C138.691 38.8273 138.951 38.6404 139.286 38.5046C139.621 38.3691 139.983 38.3038 140.371 38.3089C140.907 38.319 141.34 38.4781 141.67 38.7861C142 39.0939 142.163 39.5065 142.158 40.0237H141.046C141.058 39.7726 141.003 39.5775 140.88 39.438C140.757 39.2988 140.566 39.2265 140.307 39.2215C140.053 39.2164 139.832 39.2741 139.644 39.3943C139.456 39.5147 139.344 39.6802 139.309 39.8905C139.261 40.1669 139.446 40.3861 139.865 40.5483L140.368 40.7385L140.657 40.8715C141.406 41.2416 141.756 41.7612 141.708 42.4304C141.685 42.7573 141.581 43.0393 141.394 43.2763C141.207 43.5132 140.954 43.6953 140.632 43.8219C140.311 43.9484 139.958 44.0083 139.572 44.0004C139.178 43.9929 138.828 43.9107 138.521 43.7535C138.213 43.5963 137.98 43.3744 137.82 43.0882C137.67 42.8219 137.6 42.5177 137.61 42.1756L138.726 42.1794C138.691 42.7801 138.987 43.0856 139.614 43.0957C139.885 43.0957 140.109 43.0362 140.284 42.9171C140.459 42.7977 140.563 42.6394 140.596 42.4417Z" fill="#231F20"/>
<path fill-rule="evenodd" clip-rule="evenodd" d="M143.424 43.9187H142.309L143.268 38.3828H144.384L143.424 43.9187Z" fill="#231F20"/>
<path fill-rule="evenodd" clip-rule="evenodd" d="M148.864 43.9187H147.782L146.24 40.2268L145.596 43.9187H144.48L145.444 38.3828H146.522L148.068 42.0822L148.712 38.3828H149.824L148.864 43.9187Z" fill="#231F20"/>
<mask id="mask0_6805_47263" style="mask-type:alpha" maskUnits="userSpaceOnUse" x="150" y="38" width="5" height="6">
<path d="M150.176 38.3086H154.814V43.9937H150.176V38.3086Z" fill="white"/>
</mask>
<g mask="url(#mask0_6805_47263)">
<path fill-rule="evenodd" clip-rule="evenodd" d="M154.304 43.2213C154.106 43.4722 153.816 43.6655 153.434 43.8011C153.052 43.9367 152.621 44.0006 152.141 43.9931C151.763 43.9906 151.43 43.9076 151.143 43.744C150.856 43.5806 150.63 43.3454 150.465 43.0388C150.3 42.7322 150.206 42.3823 150.183 41.9893C150.158 41.6243 150.197 41.1953 150.299 40.7024C150.402 40.2094 150.579 39.7772 150.829 39.4059C151.079 39.0345 151.379 38.7572 151.729 38.5732C152.08 38.3895 152.468 38.3015 152.895 38.309C153.474 38.3192 153.927 38.4821 154.254 38.7976C154.582 39.1132 154.769 39.5651 154.814 40.153L153.74 40.1493C153.712 39.84 153.63 39.6118 153.493 39.4648C153.356 39.3178 153.151 39.2393 152.88 39.2292C152.41 39.2138 152.04 39.42 151.77 39.8469C151.499 40.274 151.345 40.8932 151.307 41.7043C151.281 42.1377 151.348 42.4736 151.507 42.7117C151.665 42.9502 151.907 43.0718 152.232 43.0767C152.61 43.0869 152.933 42.9969 153.2 42.8069L153.386 41.8524H152.373L152.522 41.0123H154.639L154.304 43.2213Z" fill="#231F20"/>
</g>
<mask id="mask1_6805_47263" style="mask-type:alpha" maskUnits="userSpaceOnUse" x="51" y="0" width="39" height="36">
<path d="M51.3555 0H89.9014V35.3255H51.3555V0Z" fill="white"/>
</mask>
<g mask="url(#mask1_6805_47263)">
<path fill-rule="evenodd" clip-rule="evenodd" d="M67.572 22.0235L72.3295 9.31675L75.3481 22.0235H67.572ZM67.1389 0L51.3555 35.3255H62.5262L64.6606 29.6667H77.082L78.4446 35.3255H89.9014L79.0734 0H67.1389Z" fill="#187ABF"/>
</g>
<path fill-rule="evenodd" clip-rule="evenodd" d="M93.8164 35.3255H104.782L107.258 0H96.2922L93.8164 35.3255Z" fill="#187ABF"/>
<path fill-rule="evenodd" clip-rule="evenodd" d="M140.43 0L133.415 21.6619L129.373 0H114.984L112.508 35.3255H121.469L123.357 8.54514L128.36 35.3255H136.47L145.262 8.54514L143.374 35.3255H152.335L154.81 0H140.43Z" fill="#187ABF"/>
<path fill-rule="evenodd" clip-rule="evenodd" d="M54.7909 0L41.2607 30.3882L39.9411 27.5005L51.7958 0H47.6697L37.5191 22.7516L36.9251 21.4741H33.4062L35.709 26.8074L35.6894 26.8519L39.3966 35.3255H43.3761H43.397L59.1475 0H54.7909Z" fill="#19212A"/>
<path fill-rule="evenodd" clip-rule="evenodd" d="M16.3661 0L0 35.3255H11.4358L14.4144 28.9026H28.6733L31.4171 35.3255H36.0879L30.2861 21.4741H25.5108L25.5186 21.4928L17.8695 21.4748L21.8694 12.8758L24.4215 18.8584H35.8364L27.8565 0H16.3661Z" fill="#19212A"/>
</svg>
