<svg width="191" height="48" viewBox="0 0 191 48" fill="none" xmlns="http://www.w3.org/2000/svg">
<path d="M31.3529 28.2725V45.0883C31.3529 45.5822 31.0466 46.0162 30.5909 46.1884L25.9137 47.9246C25.6522 48.0218 25.3609 48.0218 25.0994 47.9246L20.4222 46.1884C19.959 46.0162 19.6602 45.5747 19.6602 45.0883V28.2725C19.6602 27.7786 19.9665 27.3446 20.4222 27.1724L25.0994 25.4362C25.3609 25.339 25.6522 25.339 25.9137 25.4362L30.5909 27.1724C31.0466 27.3446 31.3529 27.7861 31.3529 28.2725Z" fill="#333333"/>
<path d="M31.3533 30.3217V31.9531C31.2935 31.9531 31.2337 31.9456 31.1814 31.9307L25.5106 30.6659L19.8398 31.9307C19.78 31.9456 19.7203 31.9531 19.668 31.9531V30.3217L25.5181 29.0195L31.3533 30.3217Z" fill="#00244C"/>
<path d="M31.3526 34.0278V35.6443C31.3302 35.6443 31.3152 35.6443 31.2928 35.6443L25.5025 35.2177L19.7121 35.6443C19.6897 35.6443 19.6748 35.6443 19.6523 35.6443V34.0278L25.5025 33.5938L31.3526 34.0278Z" fill="#00244C"/>
<path d="M31.3526 37.7227V39.3391L25.5025 39.7732L19.6523 39.3391V37.7227C19.6748 37.7227 19.6897 37.7227 19.7121 37.7227L25.5025 38.1492L31.2928 37.7227C31.3078 37.7227 31.3302 37.7227 31.3526 37.7227Z" fill="#00244C"/>
<path d="M31.3526 41.4141V43.0455L25.5025 44.3476L19.6523 43.0455V41.4141C19.7121 41.4141 19.7719 41.4215 19.8242 41.4365L25.495 42.7012L31.1658 41.4365C31.2331 41.4215 31.2928 41.4141 31.3526 41.4141Z" fill="#00244C"/>
<path d="M50.7405 29.9183L49.2836 32.0886C49.0594 32.4253 48.7083 32.6573 48.3123 32.7471L38.4052 34.8201C38.3006 34.8426 38.196 34.85 38.0914 34.85C38.054 34.85 38.0167 34.85 37.9793 34.8426C37.9943 34.9024 38.0017 34.9548 38.0092 35.0147L38.5471 39.8491C38.6144 40.4328 38.3379 41.0165 37.8374 41.3309L34.8562 43.2317C34.6097 43.3889 34.3183 43.4712 34.0194 43.4712C33.7953 43.4712 33.5786 43.4263 33.3769 43.329L28.8268 41.2485C28.3262 41.024 27.9825 40.5376 27.9302 39.9913L26.817 29.0802C26.7647 28.5788 26.9589 28.0848 27.34 27.7556L27.9153 27.2542C28.1992 27.0072 28.5578 26.8725 28.9389 26.8725C28.9837 26.8725 29.0211 26.8725 29.0659 26.88C28.9912 26.5282 29.036 26.1466 29.2153 25.8098L30.0521 24.2532C30.3211 23.7443 30.8441 23.4375 31.4194 23.4375H45.4059C45.8243 23.4375 46.2128 23.6021 46.5042 23.894L50.5537 27.9501C51.0693 28.4815 51.1514 29.3047 50.7405 29.9183Z" fill="#333333"/>
<path d="M29.8669 26.1746L30.7037 24.618C30.8457 24.356 31.1146 24.1914 31.4135 24.1914H45.4C45.6167 24.1914 45.8184 24.2737 45.9678 24.4309L50.0174 28.487C50.2863 28.7564 50.3312 29.1905 50.1145 29.5048L48.6576 31.675C48.538 31.8472 48.3587 31.9744 48.157 32.0118L38.2573 34.0922C38.0033 34.1446 37.7493 34.0773 37.555 33.9052L30.0387 27.1549C29.7623 26.908 29.6876 26.5038 29.8669 26.1746Z" fill="#FFA800"/>
<path d="M27.8248 28.3393L28.4001 27.8379C28.7064 27.5684 29.1622 27.5684 29.4685 27.8453L36.9997 34.603C37.1491 34.7378 37.2388 34.9174 37.2612 35.1119L37.7992 39.9464C37.8365 40.2532 37.6871 40.5525 37.4331 40.7172L34.452 42.618C34.2203 42.7677 33.9364 42.7827 33.6824 42.6704L29.1323 40.59C28.8708 40.4702 28.6915 40.2233 28.6691 39.9389L27.5558 29.0277C27.5259 28.7658 27.6305 28.5114 27.8248 28.3393Z" fill="#FFA800"/>
<path d="M29.8669 26.1746L30.7037 24.618C30.8457 24.356 31.1146 24.1914 31.4135 24.1914H45.4C45.6167 24.1914 45.8184 24.2737 45.9678 24.4309L50.0174 28.487C50.2863 28.7564 50.3312 29.1905 50.1145 29.5048L48.6576 31.675C48.538 31.8472 48.3587 31.9744 48.157 32.0118L38.2573 34.0922C38.0033 34.1446 37.7493 34.0773 37.555 33.9052L30.0387 27.1549C29.7623 26.908 29.6876 26.5038 29.8669 26.1746Z" fill="url(#paint0_linear_6805_47341)"/>
<path d="M27.8248 28.3393L28.4001 27.8379C28.7064 27.5684 29.1622 27.5684 29.4685 27.8453L36.9997 34.603C37.1491 34.7378 37.2388 34.9174 37.2612 35.1119L37.7992 39.9464C37.8365 40.2532 37.6871 40.5525 37.4331 40.7172L34.452 42.618C34.2203 42.7677 33.9364 42.7827 33.6824 42.6704L29.1323 40.59C28.8708 40.4702 28.6915 40.2233 28.6691 39.9389L27.5558 29.0277C27.5259 28.7658 27.6305 28.5114 27.8248 28.3393Z" fill="url(#paint1_linear_6805_47341)"/>
<path d="M24.1866 29.1026L23.0734 40.0137C23.0211 40.56 22.6699 41.039 22.1768 41.271L17.6267 43.3514C17.425 43.4412 17.2083 43.4936 16.9842 43.4936C16.6853 43.4936 16.4014 43.4113 16.1474 43.2542L13.1663 41.3533C12.6731 41.039 12.3892 40.4553 12.4565 39.8716L12.9944 35.0371C13.0019 34.9773 13.0094 34.9174 13.0243 34.865C12.9869 34.865 12.9496 34.8725 12.9122 34.8725C12.8076 34.8725 12.6956 34.8575 12.5984 34.8426L2.69131 32.7471C2.29532 32.6648 1.94416 32.4328 1.72002 32.0886L0.26309 29.9183C-0.147838 29.3047 -0.0731242 28.474 0.457348 27.9501L4.50686 23.894C4.79825 23.6021 5.18677 23.4375 5.60517 23.4375H19.5917C20.167 23.4375 20.69 23.7518 20.959 24.2532L21.7958 25.8098C21.9751 26.1466 22.0199 26.5282 21.9452 26.88C21.99 26.8725 22.0274 26.8725 22.0722 26.8725C22.4458 26.8725 22.8119 27.0072 23.0958 27.2542L23.6711 27.7556C24.0447 28.1073 24.2389 28.6012 24.1866 29.1026Z" fill="#333333"/>
<path d="M21.1389 26.1746L20.3021 24.618C20.1602 24.356 19.8912 24.1914 19.5923 24.1914H5.60581C5.38914 24.1914 5.18741 24.2737 5.03798 24.4309L0.988462 28.487C0.719491 28.7564 0.674662 29.1905 0.891334 29.5048L2.34826 31.675C2.46781 31.8472 2.64712 31.9744 2.84885 32.0118L12.7485 34.0848C13.0025 34.1371 13.2566 34.0698 13.4508 33.8977L20.9671 27.1549C21.2435 26.908 21.3182 26.5038 21.1389 26.1746Z" fill="#FFA800"/>
<path d="M23.1793 28.3393L22.604 27.8379C22.2976 27.5684 21.8419 27.5684 21.5356 27.8453L14.0044 34.603C13.8549 34.7378 13.7653 34.9174 13.7429 35.1119L13.2049 39.9464C13.1676 40.2532 13.317 40.5525 13.571 40.7172L16.5521 42.618C16.7837 42.7677 17.0676 42.7827 17.3217 42.6704L21.8718 40.59C22.1333 40.4702 22.3126 40.2233 22.335 39.9389L23.4482 29.0277C23.4781 28.7658 23.3735 28.5114 23.1793 28.3393Z" fill="#FFA800"/>
<path d="M21.1389 26.1746L20.3021 24.618C20.1602 24.356 19.8912 24.1914 19.5923 24.1914H5.60581C5.38914 24.1914 5.18741 24.2737 5.03798 24.4309L0.988462 28.487C0.719491 28.7564 0.674662 29.1905 0.891334 29.5048L2.34826 31.675C2.46781 31.8472 2.64712 31.9744 2.84885 32.0118L12.7485 34.0848C13.0025 34.1371 13.2566 34.0698 13.4508 33.8977L20.9671 27.1549C21.2435 26.908 21.3182 26.5038 21.1389 26.1746Z" fill="url(#paint2_linear_6805_47341)"/>
<path d="M23.1793 28.3393L22.604 27.8379C22.2976 27.5684 21.8419 27.5684 21.5356 27.8453L14.0044 34.603C13.8549 34.7378 13.7653 34.9174 13.7429 35.1119L13.2049 39.9464C13.1676 40.2532 13.317 40.5525 13.571 40.7172L16.5521 42.618C16.7837 42.7677 17.0676 42.7827 17.3217 42.6704L21.8718 40.59C22.1333 40.4702 22.3126 40.2233 22.335 39.9389L23.4482 29.0277C23.4781 28.7658 23.3735 28.5114 23.1793 28.3393Z" fill="url(#paint3_linear_6805_47341)"/>
<path d="M38.1342 0L29.938 16.2395H28.3317L25.5 9.75865L29.7662 0H38.1342Z" fill="url(#paint4_linear_6805_47341)"/>
<path d="M25.5014 9.75865L22.6697 16.2395H21.0633L12.8672 0H21.2352L25.5014 9.75865Z" fill="url(#paint5_linear_6805_47341)"/>
<path d="M29.7667 0L25.5006 9.75865L21.2344 0H29.7667Z" fill="url(#paint6_linear_6805_47341)"/>
<path d="M31.353 17.1749V22.3012C31.353 22.7951 31.0466 23.2291 30.5909 23.4013L25.9137 25.1375C25.6522 25.2348 25.3609 25.2348 25.0994 25.1375L20.4222 23.4013C19.959 23.2291 19.6602 22.7951 19.6602 22.3012V17.1749C19.6602 16.681 19.9665 16.2469 20.4222 16.0748L25.0994 14.3386C25.3609 14.2413 25.6522 14.2413 25.9137 14.3386L26.7804 14.6604L27.3781 14.8849L30.5161 16.0523L30.5834 16.0748C30.7403 16.1347 30.8748 16.2245 30.9943 16.3292C31.2185 16.5463 31.353 16.8456 31.353 17.1749Z" fill="#333333"/>
<path d="M30.5169 16.0467L30.3077 16.2188C30.1209 16.376 29.8594 16.4209 29.6278 16.3385L27.8645 15.6875C27.6329 15.6051 27.4686 15.4031 27.4237 15.1561L27.3789 14.8867L30.5169 16.0467Z" fill="#FFA800"/>
<path d="M20.4883 16.0467L20.6975 16.2188C20.8843 16.376 21.1458 16.4209 21.3774 16.3385L23.1406 15.6875C23.3723 15.6051 23.5366 15.4031 23.5815 15.1561L23.6263 14.8867L20.4883 16.0467Z" fill="#FFA800"/>
<path d="M66.6165 41.97H58V22.8855C58 21.2959 59.3099 20 60.9165 20H66.6165C71.6309 20 75.7038 24.0295 75.7038 28.9905V32.9896C75.7038 37.9405 71.6309 41.97 66.6165 41.97ZM62.0934 37.9202H66.6165C69.3693 37.9202 71.6104 35.703 71.6104 32.9795V28.9905C71.6104 26.267 69.3693 24.0498 66.6165 24.0498H62.0934V37.9202Z" fill="#333333"/>
<path d="M81.3199 41.9716H77.2266V32.9709C77.2266 28.8301 80.6241 25.4688 84.8095 25.4688H86.5083V29.5185H84.8095C82.8856 29.5185 81.3199 31.0676 81.3199 32.9709V41.9716Z" fill="#333333"/>
<path d="M129.523 41.9716H125.43V32.9709C125.43 28.8301 128.827 25.4688 133.013 25.4688H134.711V29.5185H133.013C131.089 29.5185 129.523 31.0676 129.523 32.9709V41.9716Z" fill="#333333"/>
<path d="M91.9645 25.4688H87.8711V41.9716H91.9645V25.4688Z" fill="#333333"/>
<path d="M107.803 25.4688L102.011 40.4326C101.693 41.2629 100.905 41.7994 100.005 41.7994C99.1042 41.7994 98.3162 41.2629 97.999 40.4326L93.7726 29.5185C93.0153 27.5645 94.4787 25.4688 96.5868 25.4688L99.9945 34.2871L102.665 27.3823C103.116 26.2281 104.231 25.4688 105.48 25.4688H107.803Z" fill="#333333"/>
<path d="M147.975 41.97H137.332V22.8855C137.332 21.2959 138.642 20 140.259 20H147.555C151.024 20 153.849 22.7943 153.849 26.2265C153.849 27.6844 153.337 29.0209 152.498 30.0839C153.931 31.3292 154.841 33.1516 154.841 35.1866C154.831 38.9225 151.761 41.97 147.975 41.97ZM141.425 37.9202H147.975C149.5 37.9202 150.738 36.6952 150.738 35.1866C150.738 33.6781 149.5 32.453 147.975 32.453H141.425V37.9202ZM141.425 28.4033H147.545C148.763 28.4033 149.745 27.4313 149.745 26.2265C149.745 25.0217 148.763 24.0498 147.555 24.0498H141.436V28.4033H141.425Z" fill="#FFA800"/>
<path d="M123.844 34.9818C123.905 34.5667 123.946 34.1516 123.946 33.7162C123.946 33.2809 123.915 32.8658 123.844 32.4507C123.23 28.5022 119.761 25.4648 115.606 25.4648C111.011 25.4648 107.266 29.1704 107.266 33.7162C107.266 38.2621 111.011 41.9677 115.606 41.9677C118.962 41.9677 121.869 39.9934 123.189 37.1484H118.052C117.356 37.6344 116.517 37.9179 115.606 37.9179C113.713 37.9179 112.096 36.6827 111.553 34.9818H123.844ZM111.543 32.4507C112.086 30.7498 113.692 29.5146 115.596 29.5146C117.489 29.5146 119.106 30.7498 119.648 32.4507H111.543Z" fill="#333333"/>
<path d="M172.586 34.9857C172.647 34.5706 172.688 34.1555 172.688 33.7202C172.688 33.2848 172.658 32.8697 172.586 32.4546C171.972 28.5061 168.503 25.4688 164.348 25.4688C159.753 25.4688 156.008 29.1743 156.008 33.7202C156.008 38.266 159.753 41.9716 164.348 41.9716C167.705 41.9716 170.611 39.9973 171.931 37.1523H166.784C166.088 37.6383 165.249 37.9218 164.338 37.9218C162.445 37.9218 160.828 36.6866 160.285 34.9857H172.586ZM160.296 32.4546C160.838 30.7537 162.445 29.5185 164.348 29.5185C166.251 29.5185 167.858 30.7537 168.4 32.4546H160.296Z" fill="#FFA800"/>
<path d="M190.25 34.9857C190.311 34.5706 190.352 34.1555 190.352 33.7202C190.352 33.2848 190.322 32.8697 190.25 32.4546C189.636 28.5061 186.167 25.4688 182.012 25.4688C177.417 25.4688 173.672 29.1743 173.672 33.7202C173.672 38.266 177.417 41.9716 182.012 41.9716C185.369 41.9716 188.275 39.9973 189.595 37.1523H184.458C183.762 37.6383 182.923 37.9218 182.012 37.9218C180.119 37.9218 178.502 36.6866 177.96 34.9857H190.25ZM177.96 32.4546C178.502 30.7537 180.109 29.5185 182.012 29.5185C183.916 29.5185 185.522 30.7537 186.065 32.4546H177.96Z" fill="#FFA800"/>
<path d="M87.8711 24.2334H91.9645V20.1836H91.2379C89.3754 20.1836 87.8711 21.6719 87.8711 23.5145V24.2334Z" fill="#333333"/>
<defs>
<linearGradient id="paint0_linear_6805_47341" x1="63.5929" y1="45.6777" x2="37.5799" y2="26.059" gradientUnits="userSpaceOnUse">
<stop stop-color="white"/>
<stop offset="1" stop-color="white" stop-opacity="0"/>
</linearGradient>
<linearGradient id="paint1_linear_6805_47341" x1="40.3502" y1="61.2426" x2="30.1845" y2="28.7011" gradientUnits="userSpaceOnUse">
<stop stop-color="white"/>
<stop offset="1" stop-color="white" stop-opacity="0"/>
</linearGradient>
<linearGradient id="paint2_linear_6805_47341" x1="-12.5876" y1="45.6777" x2="13.4254" y2="26.059" gradientUnits="userSpaceOnUse">
<stop stop-color="white"/>
<stop offset="1" stop-color="white" stop-opacity="0"/>
</linearGradient>
<linearGradient id="paint3_linear_6805_47341" x1="10.6534" y1="61.2426" x2="20.8191" y2="28.7011" gradientUnits="userSpaceOnUse">
<stop stop-color="white"/>
<stop offset="1" stop-color="white" stop-opacity="0"/>
</linearGradient>
<linearGradient id="paint4_linear_6805_47341" x1="31.8154" y1="0" x2="31.8154" y2="16.2402" gradientUnits="userSpaceOnUse">
<stop stop-color="#F7B000" stop-opacity="0"/>
<stop offset="1" stop-color="#F7B000" stop-opacity="0.7"/>
</linearGradient>
<linearGradient id="paint5_linear_6805_47341" x1="19.1856" y1="0" x2="19.1856" y2="16.2402" gradientUnits="userSpaceOnUse">
<stop stop-color="#F7B000" stop-opacity="0"/>
<stop offset="1" stop-color="#F7B000" stop-opacity="0.7"/>
</linearGradient>
<linearGradient id="paint6_linear_6805_47341" x1="25.5003" y1="0" x2="25.5003" y2="9.76094" gradientUnits="userSpaceOnUse">
<stop stop-color="#F7B000" stop-opacity="0"/>
<stop offset="1" stop-color="#F7B000" stop-opacity="0.7"/>
</linearGradient>
</defs>
</svg>
