<svg width="158" height="30" viewBox="0 0 158 30" fill="none" xmlns="http://www.w3.org/2000/svg">
<path d="M40.513 0H14.6859C13.3429 0 12.0548 0.526784 11.1051 1.46447C10.1554 2.40215 9.62183 3.67392 9.62183 5V12.5C9.62183 12.8978 9.46176 13.2794 9.17685 13.5607C8.89194 13.842 8.50552 14 8.10259 14H2.53206C1.86052 14 1.21648 14.2634 0.741623 14.7322C0.26677 15.2011 0 15.837 0 16.5L0 25C0 26.3261 0.53354 27.5979 1.48325 28.5355C2.43295 29.4732 3.72103 30 5.06412 30H30.8911C32.2342 30 33.5223 29.4732 34.472 28.5355C35.4217 27.5979 35.9552 26.3261 35.9552 25V17.5C35.9552 17.1022 36.1153 16.7206 36.4002 16.4393C36.6851 16.158 37.0716 16 37.4745 16H43.045C43.7166 16 44.3606 15.7366 44.8354 15.2678C45.3103 14.7989 45.5771 14.163 45.5771 13.5V5C45.5771 3.67392 45.0435 2.40215 44.0938 1.46447C43.1441 0.526784 41.856 0 40.513 0V0ZM28.8655 14C28.1939 14 27.5499 14.2634 27.075 14.7322C26.6002 15.2011 26.3334 15.837 26.3334 16.5V22C26.3334 22.3978 26.1734 22.7794 25.8884 23.0607C25.6035 23.342 25.2171 23.5 24.8142 23.5H11.1411C10.7381 23.5 10.3517 23.342 10.0668 23.0607C9.78189 22.7794 9.62183 22.3978 9.62183 22V17.5C9.62183 17.1022 9.78189 16.7206 10.0668 16.4393C10.3517 16.158 10.7381 16 11.1411 16H16.7116C17.3831 16 18.0272 15.7366 18.502 15.2678C18.9769 14.7989 19.2437 14.163 19.2437 13.5V8C19.2437 7.60218 19.4037 7.22064 19.6886 6.93934C19.9735 6.65804 20.36 6.5 20.7629 6.5H34.436C34.8389 6.5 35.2254 6.65804 35.5103 6.93934C35.7952 7.22064 35.9552 7.60218 35.9552 8V12.5C35.9552 12.8978 35.7952 13.2794 35.5103 13.5607C35.2254 13.842 34.8389 14 34.436 14H28.8655Z" fill="url(#paint0_linear_6805_47314)"/>
<path d="M82.6812 22.5683C82.6652 22.5001 82.6348 22.4359 82.5921 22.38C82.5494 22.324 82.4952 22.2776 82.4332 22.2437C82.3711 22.2097 82.3025 22.189 82.2318 22.1829C82.1611 22.1769 82.0899 22.1855 82.0228 22.2083C81.5832 22.373 81.1156 22.4528 80.6454 22.4433C80.4652 22.4447 80.2871 22.4053 80.1247 22.3282C79.9623 22.251 79.8199 22.1382 79.7085 21.9983C79.4494 21.6502 79.319 21.2249 79.3389 20.7933V13.2183H82.2963C82.4306 13.2183 82.5594 13.1656 82.6544 13.0719C82.7494 12.9781 82.8027 12.8509 82.8027 12.7183V9.21832C82.8027 9.08571 82.7494 8.95854 82.6544 8.86477C82.5594 8.771 82.4306 8.71832 82.2963 8.71832H79.3389V5.63832C79.3384 5.54671 79.3125 5.45698 79.264 5.37892C79.2154 5.30086 79.146 5.23748 79.0635 5.19569C78.9809 5.15389 78.8883 5.1353 78.7958 5.14194C78.7032 5.14858 78.6143 5.18019 78.5387 5.23332L74.533 8.02332C74.4676 8.06933 74.4141 8.13005 74.3772 8.20047C74.3402 8.2709 74.3207 8.349 74.3203 8.42832V21.9983C74.3203 23.5933 74.7609 24.8333 75.6319 25.6933C76.503 26.5533 77.774 26.9983 79.4098 26.9983C80.7419 27.0285 82.0515 26.6551 83.1623 25.9283C83.2399 25.8721 83.2997 25.7953 83.3347 25.7067C83.3697 25.6181 83.3784 25.5216 83.3598 25.4283L82.6812 22.5683Z" fill="#131313"/>
<path d="M67.6115 16.8506C66.8042 16.4913 65.9715 16.1905 65.12 15.9506C64.3034 15.7157 63.473 15.5304 62.6335 15.3956C62.005 15.3129 61.3933 15.1341 60.8205 14.8656C60.2078 14.5606 60.2078 14.2506 60.2078 14.1456C60.2147 13.9386 60.2768 13.7372 60.388 13.5615C60.4992 13.3859 60.6554 13.2424 60.8408 13.1456C61.394 12.827 62.0292 12.6741 62.6689 12.7056C63.6314 12.7027 64.5849 12.8879 65.4744 13.2506L65.8593 13.4356C66.0237 13.518 66.2077 13.5546 66.3915 13.5414C66.5753 13.5282 66.752 13.4657 66.9025 13.3606L68.6294 12.1556C68.7699 12.0575 68.8827 11.9256 68.9573 11.7725C69.0319 11.6193 69.0657 11.45 69.0555 11.2804C69.0454 11.1107 68.9917 10.9465 68.8994 10.803C68.8071 10.6596 68.6793 10.5418 68.5281 10.4606C66.7307 9.42965 64.7054 8.84778 62.6284 8.76562C60.4002 8.76562 58.6075 9.31062 57.3111 10.3856C56.692 10.863 56.1917 11.4739 55.8485 12.1715C55.5053 12.8692 55.3283 13.6351 55.331 14.4106C55.2909 15.3508 55.536 16.2813 56.035 17.083C56.5339 17.8847 57.2639 18.5211 58.1315 18.9106C58.9389 19.2632 59.7738 19.5508 60.6281 19.7706C61.445 19.9936 62.2733 20.1739 63.1095 20.3106C63.739 20.3989 64.3496 20.5881 64.9174 20.8706C65.3428 21.1006 65.5504 21.3706 65.5504 21.7006C65.5565 21.9279 65.5027 22.1529 65.3945 22.3536C65.2862 22.5543 65.127 22.7238 64.9326 22.8456C64.3179 23.1919 63.6129 23.3503 62.9069 23.3006C61.819 23.2736 60.7477 23.0304 59.7571 22.5856C59.4194 22.4456 59.1055 22.3006 58.8151 22.1506C58.6546 22.074 58.4763 22.0405 58.2985 22.0537C58.1207 22.0669 57.9495 22.1262 57.8023 22.2256L55.4829 23.8406C54.9765 24.1956 54.9765 24.6006 55.2449 24.8056C56.1962 25.5093 57.2364 26.0875 58.3391 26.5256C59.7395 27.0327 61.2231 27.2786 62.7145 27.2506C65.0845 27.2506 66.9734 26.7156 68.3306 25.6556C68.9816 25.1725 69.5076 24.5443 69.8658 23.8222C70.224 23.1001 70.4042 22.3046 70.3917 21.5006C70.4229 20.4751 70.1481 19.4632 69.6017 18.5906C69.12 17.8351 68.4294 17.2313 67.6115 16.8506Z" fill="#131313"/>
<path d="M97.4768 9.33683C97.4772 9.26628 97.4625 9.19643 97.4337 9.13188C97.4048 9.06733 97.3624 9.00955 97.3094 8.96232C97.2563 8.91509 97.1936 8.87949 97.1256 8.85787C97.0576 8.83624 96.9857 8.82907 96.9147 8.83683C96.0007 8.92725 95.1132 9.19216 94.3016 9.61683C93.51 10.0113 92.7884 10.5297 92.1645 11.1518V7.22183C92.1644 7.13062 92.139 7.04118 92.091 6.96321C92.0431 6.88523 91.9745 6.82169 91.8926 6.77947C91.8107 6.73724 91.7187 6.71793 91.6264 6.72364C91.5342 6.72934 91.4454 6.75984 91.3695 6.81183L87.3182 9.64684C87.252 9.69333 87.1982 9.75485 87.1612 9.82621C87.1241 9.89757 87.105 9.97666 87.1055 10.0568V26.2518C87.1055 26.3844 87.1588 26.5116 87.2538 26.6054C87.3488 26.6992 87.4776 26.7518 87.6119 26.7518H91.6632C91.7975 26.7518 91.9263 26.6992 92.0213 26.6054C92.1162 26.5116 92.1696 26.3844 92.1696 26.2518V15.3318C92.6128 14.7821 93.1968 14.3591 93.861 14.1068C94.5996 13.7679 95.4015 13.584 96.2158 13.5668C96.464 13.5668 96.6868 13.5668 96.8843 13.5668C96.9541 13.5724 97.0244 13.5635 97.0906 13.5409C97.1567 13.5183 97.2175 13.4823 97.2689 13.4353C97.3203 13.3883 97.3612 13.3313 97.3892 13.2679C97.4171 13.2045 97.4314 13.136 97.4312 13.0668L97.4768 9.33683Z" fill="#131313"/>
<path d="M132.618 6.60988V10.9999C131.973 10.291 131.181 9.72817 130.296 9.35014C129.41 8.9721 128.452 8.7878 127.488 8.80988C126.4 8.78334 125.32 8.99615 124.326 9.43288C123.331 9.86961 122.448 10.5193 121.74 11.3349C120.261 12.9999 119.512 15.2749 119.512 18.0599C119.512 20.8449 120.261 23.1499 121.74 24.7799C122.457 25.5816 123.343 26.2184 124.336 26.6451C125.329 27.0719 126.405 27.2783 127.488 27.2499C128.452 27.2632 129.408 27.0739 130.292 26.6946C131.177 26.3153 131.969 25.7547 132.618 25.0499V26.3249C132.618 26.4575 132.671 26.5847 132.766 26.6784C132.861 26.7722 132.99 26.8249 133.124 26.8249H137.236C137.37 26.8249 137.499 26.7722 137.594 26.6784C137.689 26.5847 137.743 26.4575 137.743 26.3249V3.74488C137.743 3.65285 137.718 3.56247 137.67 3.48369C137.621 3.40491 137.552 3.34079 137.469 3.2984C137.387 3.256 137.294 3.23697 137.201 3.24341C137.108 3.24985 137.018 3.2815 136.942 3.33488L132.835 6.19988C132.768 6.24583 132.714 6.30711 132.676 6.3785C132.638 6.44989 132.618 6.52927 132.618 6.60988ZM132.618 20.9899C132.212 21.5274 131.678 21.957 131.063 22.2399C130.392 22.5799 129.65 22.7597 128.896 22.7649C128.331 22.7839 127.769 22.6775 127.252 22.4533C126.735 22.2291 126.276 21.8931 125.908 21.4699C125.104 20.5153 124.689 19.2999 124.743 18.0599C124.686 16.8087 125.101 15.5811 125.908 14.6149C126.275 14.1909 126.734 13.8542 127.252 13.63C127.769 13.4057 128.331 13.2997 128.896 13.3199C129.647 13.3194 130.389 13.4905 131.063 13.8199C131.68 14.1028 132.214 14.5344 132.618 15.0749V20.9899Z" fill="#131313"/>
<path d="M114.236 10.3251C112.595 9.17232 110.6 8.61584 108.59 8.75014C104.453 8.94514 101.976 10.5601 101.095 11.2501C100.993 11.3292 100.926 11.4438 100.907 11.5702C100.889 11.6967 100.919 11.8255 100.994 11.9301L102.705 14.3251C102.745 14.3813 102.797 14.4288 102.856 14.4645C102.916 14.5002 102.982 14.5235 103.051 14.5329C103.119 14.5423 103.19 14.5376 103.257 14.519C103.324 14.5005 103.386 14.4685 103.44 14.4251C104.679 13.4547 106.213 12.9261 107.795 12.9251C108.73 12.8804 109.655 13.1385 110.428 13.6601C110.732 13.8744 110.978 14.1595 111.143 14.4902C111.308 14.8208 111.388 15.1867 111.375 15.5551V17.2501C110.135 16.1051 108.337 15.5251 106.093 15.5251C104.503 15.499 102.95 16.0047 101.688 16.9601C100.411 17.9301 99.7632 19.3901 99.7632 21.3101C99.7258 22.1373 99.8828 22.9618 100.222 23.7191C100.561 24.4763 101.073 25.1458 101.718 25.6751C102.942 26.6935 104.493 27.2483 106.093 27.2401C108.327 27.2401 110.099 26.6251 111.375 25.4151V26.3151C111.375 26.4477 111.429 26.5749 111.524 26.6687C111.619 26.7625 111.747 26.8151 111.882 26.8151H115.968C116.103 26.8151 116.232 26.7625 116.326 26.6687C116.421 26.5749 116.475 26.4477 116.475 26.3151V15.5001C116.475 13.1251 115.72 11.3851 114.236 10.3251ZM111.375 22.3751C110.676 23.2551 109.522 23.7001 107.937 23.7001C107.154 23.7285 106.382 23.5096 105.734 23.0751C105.465 22.8918 105.248 22.6445 105.102 22.356C104.955 22.0676 104.886 21.7474 104.898 21.4251C104.885 21.0953 104.955 20.7674 105.102 20.4708C105.249 20.1742 105.468 19.918 105.739 19.7251C106.381 19.2791 107.152 19.0526 107.937 19.0801C109.522 19.0801 110.676 19.5301 111.375 20.4101V22.3751Z" fill="#131313"/>
<path d="M155.76 10.3251C154.118 9.17232 152.123 8.61584 150.113 8.75014C145.976 8.94514 143.5 10.5601 142.619 11.2501C142.517 11.3292 142.45 11.4438 142.431 11.5702C142.412 11.6967 142.443 11.8255 142.517 11.9301L144.229 14.3251C144.269 14.3813 144.32 14.4288 144.38 14.4645C144.439 14.5002 144.505 14.5235 144.574 14.5329C144.643 14.5423 144.713 14.5376 144.78 14.519C144.847 14.5005 144.909 14.4685 144.963 14.4251C146.202 13.4547 147.737 12.9261 149.318 12.9251C150.254 12.8804 151.178 13.1385 151.952 13.6601C152.256 13.8744 152.501 14.1595 152.666 14.4902C152.832 14.8208 152.911 15.1867 152.899 15.5551V17.2501C151.658 16.1051 149.86 15.5251 147.617 15.5251C146.026 15.499 144.474 16.0047 143.211 16.9601C141.935 17.9301 141.287 19.3901 141.287 21.3101C141.249 22.1373 141.406 22.9618 141.745 23.7191C142.084 24.4763 142.597 25.1458 143.241 25.6751C144.465 26.6935 146.016 27.2483 147.617 27.2401C149.85 27.2401 151.623 26.6251 152.899 25.4151V26.3151C152.899 26.4477 152.952 26.5749 153.047 26.6687C153.142 26.7625 153.271 26.8151 153.405 26.8151H157.492C157.626 26.8151 157.755 26.7625 157.85 26.6687C157.945 26.5749 157.998 26.4477 157.998 26.3151V15.5001C157.998 13.1251 157.244 11.3851 155.76 10.3251ZM152.899 22.3751C152.2 23.2551 151.045 23.7001 149.46 23.7001C148.677 23.7285 147.905 23.5096 147.257 23.0751C146.989 22.8918 146.771 22.6445 146.625 22.356C146.479 22.0676 146.409 21.7474 146.422 21.4251C146.409 21.0953 146.479 20.7674 146.626 20.4708C146.772 20.1742 146.991 19.918 147.262 19.7251C147.904 19.2791 148.676 19.0526 149.46 19.0801C151.045 19.0801 152.2 19.5301 152.899 20.4101V22.3751Z" fill="#131313"/>
<defs>
<linearGradient id="paint0_linear_6805_47314" x1="0" y1="15" x2="45.5771" y2="15" gradientUnits="userSpaceOnUse">
<stop stop-color="#00A4AB"/>
<stop offset="1" stop-color="#00CFA1"/>
</linearGradient>
</defs>
</svg>
