<svg width="201" height="30" viewBox="0 0 201 30" fill="none" xmlns="http://www.w3.org/2000/svg">
<path d="M5.5628 0C1.34316 0 -1.32188 4.54835 0.676899 8.01376L12.2254 27.2901C14.2242 30.7555 19.5542 30.9721 21.7751 27.5067L33.9898 8.23035C36.2107 4.54835 33.5457 0 29.326 0H5.5628V0Z" fill="url(#paint0_linear_6805_47323)"/>
<path d="M11.1133 12.7793C11.1133 9.53049 14.0004 6.71484 17.3317 6.71484C20.663 6.71484 23.5501 9.53049 23.5501 12.7793C23.5501 15.1618 22.6618 15.8115 17.998 22.5258C17.7759 22.959 17.1096 22.959 16.6654 22.5258C12.0016 15.8115 11.1133 15.1618 11.1133 12.7793ZM19.9967 12.7793C19.9967 11.4798 18.8863 10.1803 17.3317 10.1803C15.7771 10.1803 14.6667 11.2632 14.6667 12.7793C14.6667 14.0788 15.7771 15.3784 17.3317 15.3784C18.8863 15.3784 19.9967 14.0788 19.9967 12.7793Z" fill="white"/>
<path fill-rule="evenodd" clip-rule="evenodd" d="M51.9793 26.8573H46.8713V6.49799H40.875V2.38281H57.9756V6.49799H51.9793V26.8573ZM62.8614 9.96443V12.5635C63.3055 11.264 63.7497 10.8308 64.416 10.3976C65.0822 9.96443 66.1926 9.53125 67.3031 9.53125H67.9693V14.2962H66.8589C65.5264 14.2962 64.416 14.946 63.7497 15.8123C63.0834 16.6787 63.0834 17.3284 63.0834 18.8445V27.0749H58.1975V9.96443H62.8614ZM88.1791 9.96617H83.2932V12.1321C81.5165 10.1828 79.9619 9.31641 77.519 9.31641C72.6331 9.31641 68.8576 13.215 68.8576 18.6297C68.8576 23.8278 72.411 27.5098 77.2969 27.5098C79.7398 27.5098 81.7386 26.4269 83.2932 24.4776V26.86H88.1791V9.96617ZM78.6294 23.8278C75.9644 23.8278 73.9656 21.6619 73.9656 18.6297C73.9656 15.3809 75.9644 13.215 78.6294 13.215C81.5165 13.215 83.5153 15.3809 83.5153 18.4131C83.5153 21.4453 81.2945 23.8278 78.6294 23.8278ZM107.057 24.9108C105.058 26.6435 103.06 27.5098 100.395 27.5098C95.0646 27.5098 91.2891 23.6112 91.2891 18.4131C91.2891 12.9984 95.0646 9.31641 100.617 9.31641C103.282 9.31641 105.281 10.1828 107.501 12.1321L104.392 14.9477C103.282 13.8648 102.171 13.4316 100.839 13.4316C98.1738 13.4316 96.175 15.5975 96.175 18.4131C96.175 21.2288 98.1738 23.3946 101.061 23.3946C102.393 23.3946 103.282 22.9615 104.392 21.8785L107.057 24.9108ZM109.057 26.8573H113.943V19.9265L118.829 26.8573H124.381L118.385 17.9772L124.381 9.9634H118.829L113.943 16.461V2.38281H109.057V26.8573ZM131.709 26.8573H126.602V2.38281H131.709V12.779H141.259V2.38281H146.367V26.8573H141.259V16.8942H131.709V26.8573ZM159.47 23.3946C157.027 23.3946 155.251 21.8785 154.806 19.496H168.576V18.6297C168.576 13.215 164.578 9.31641 159.026 9.31641C153.696 9.31641 149.921 12.9984 149.921 18.4131C149.921 23.6112 153.918 27.5098 159.47 27.5098C163.024 27.5098 166.133 25.5605 167.91 22.3117L163.468 21.2288C162.802 22.5283 161.247 23.3946 159.47 23.3946ZM159.248 13.215C161.691 13.215 163.246 14.7311 163.69 16.897H155.029C155.473 14.5145 157.027 13.215 159.248 13.215ZM176.126 9.96443V12.5635C176.571 11.264 177.015 10.8308 177.681 10.3976C178.347 9.96443 179.458 9.53125 180.568 9.53125H181.234V14.2962H180.124C178.791 14.2962 177.681 14.946 177.015 15.8123C176.348 16.6787 176.348 17.3284 176.348 18.8445V27.0749H171.463V9.96443H176.126ZM191.45 27.5098C196.781 27.5098 201 23.6112 201 18.6297C201 13.215 197.003 9.31641 191.45 9.31641C185.676 9.31641 181.901 12.9984 181.901 18.4131C181.901 23.8278 185.898 27.5098 191.45 27.5098ZM191.45 23.3946C188.563 23.3946 186.787 21.4453 186.787 18.4131C186.787 15.3809 188.785 13.4316 191.45 13.6482C194.338 13.6482 196.114 15.5975 196.114 18.6297C196.114 21.4453 194.115 23.3946 191.45 23.3946Z" fill="#2F323A"/>
<defs>
<linearGradient id="paint0_linear_6805_47323" x1="7.09208" y1="19.0634" x2="27.888" y2="-2.26035" gradientUnits="userSpaceOnUse">
<stop stop-color="#FF00C8"/>
<stop offset="0.33" stop-color="#D600FF"/>
<stop offset="0.66" stop-color="#601CFF"/>
<stop offset="1" stop-color="#00D3FF"/>
</linearGradient>
</defs>
</svg>
