<svg width="191" height="48" viewBox="0 0 191 48" fill="none" xmlns="http://www.w3.org/2000/svg">
<path d="M32.5572 27.3738C32.5572 27.3738 32.0881 26.6927 28.9842 22.0435L27.9134 20.4741C17.5551 5.92249 31.4625 0 31.4625 0C11.0645 7.72885 20.4545 19.9825 20.4545 19.9825C20.4545 19.9825 20.9236 20.6636 24.0335 25.3127L25.0983 26.8703C35.4627 41.4101 21.5372 47.38 21.5372 47.38C41.9532 39.6274 32.5572 27.3738 32.5572 27.3738Z" fill="#00C7D0"/>
<path d="M51.6051 3.28516H33.8481L28.1484 14.4995C28.3204 14.7563 28.4924 15.0131 28.6763 15.2758L29.9989 17.2523V17.2941C30.4674 18.0167 30.8885 18.6616 31.2681 19.2348L36.8669 8.25935H48.8533C49.0016 7.99064 49.1558 7.71595 49.304 7.4353L50.4427 5.33336H50.4901L51.6051 3.28516Z" fill="#002C46"/>
<path d="M21.6104 27.1804L17.4751 35.2172L11.43 23.457H0C0.33915 24.0471 2.6061 28.0892 2.7608 28.3605H8.40735L14.7083 40.6046L17.4632 45.9743H17.5049L20.23 40.6046L24.395 32.5855C23.698 30.6756 22.7625 28.8597 21.6104 27.1804Z" fill="#002C46"/>
<path fill-rule="evenodd" clip-rule="evenodd" d="M47.6376 42.5404L47.6851 43.4416H48.3204V34.7148H47.5841V39.2812C47.1457 38.6415 46.415 38.2685 45.6425 38.2903C44.2456 38.3843 43.1602 39.551 43.1602 40.9585C43.1602 42.3661 44.2456 43.5327 45.6425 43.6267C46.4538 43.6528 47.2161 43.2376 47.6376 42.5404ZM45.8901 42.6497C44.8845 42.7142 44.0109 41.9613 43.9207 40.9524C43.8797 40.435 44.0526 39.9235 44.3987 39.5384C44.7447 39.1532 45.2333 38.9284 45.7494 38.9169C46.757 38.9048 47.5906 39.7021 47.6288 40.7144C47.6669 41.7267 46.8956 42.5851 45.8901 42.6497Z" fill="#002B46"/>
<path d="M50.9907 40.6696V43.625H50.1992V38.654H50.9013L50.946 39.5466C51.4131 38.9046 52.1792 38.5039 53.0139 38.4648V39.2746C52.5426 39.1892 52.0542 39.292 51.669 39.5576C51.2838 39.8232 51.0375 40.2269 50.9907 40.6696Z" fill="#002B46"/>
<path fill-rule="evenodd" clip-rule="evenodd" d="M53.9496 35.6523V36.5326H54.7873V35.6523H53.9496ZM53.9492 38.2157V43.158H54.7869V38.2157H53.9492Z" fill="#002B46"/>
<path d="M58.9414 43.625H58.3665L56.2969 38.4648H57.0385L58.6597 42.6337L60.2751 38.4648H60.988L58.9414 43.625Z" fill="#002B46"/>
<path fill-rule="evenodd" clip-rule="evenodd" d="M61.9258 35.6523V36.5326H62.7634V35.6523H61.9258ZM61.9259 38.2157V43.158H62.7635V38.2157H61.9259Z" fill="#002B46"/>
<path d="M68.6648 43.1266V40.273C68.6648 39.084 68.1544 38.662 67.3059 38.662C66.3509 38.7098 65.5803 39.4344 65.5045 40.3563V43.1266H64.7422V38.1863H65.4123L65.4614 39.1137C65.9048 38.4277 66.6785 38.0066 67.515 37.9961C68.8184 37.9961 69.4332 38.8105 69.4332 40.1838V43.1563L68.6648 43.1266Z" fill="#002B46"/>
<path fill-rule="evenodd" clip-rule="evenodd" d="M71.3094 45.8482C71.9193 46.2217 72.6183 46.426 73.3341 46.4397C74.5216 46.4397 76 45.9488 76 43.6302V38.6558H75.3588L75.3173 39.5489C74.9018 38.8509 74.1361 38.4355 73.3222 38.4665C71.9253 38.5597 70.8398 39.7157 70.8398 41.1104C70.8398 42.5052 71.9253 43.6613 73.3222 43.7544C74.0921 43.7786 74.8215 43.4108 75.2579 42.7784V43.6716C75.2579 45.2982 74.3078 45.8009 73.4054 45.8009C72.6587 45.8048 71.9283 45.5842 71.3094 45.1681V45.8482ZM71.6008 41.1134C71.6008 40.0632 72.4031 39.1855 73.4528 39.0875C73.9749 39.0871 74.473 39.3055 74.8254 39.6892C75.1778 40.0729 75.352 40.5865 75.3053 41.1045C75.3499 41.6238 75.1755 42.138 74.8241 42.524C74.4726 42.91 73.9759 43.1329 73.4528 43.1393C72.4031 43.0413 71.6008 42.1636 71.6008 41.1134Z" fill="#002B46"/>
<path fill-rule="evenodd" clip-rule="evenodd" d="M80.2234 45.8482C80.8336 46.2208 81.5325 46.425 82.2481 46.4396C83.4356 46.4396 84.9141 45.9488 84.9141 43.6301V38.6558H84.2787L84.2312 39.5489C83.8168 38.85 83.0505 38.4343 82.2363 38.4666C80.8392 38.5597 79.7539 39.7157 79.7539 41.1104C79.7539 42.5053 80.8392 43.6612 82.2363 43.7544C83.0075 43.7773 83.7381 43.41 84.1778 42.7784V43.6716C84.1778 45.2981 83.2219 45.8009 82.3253 45.8009C81.5767 45.8056 80.844 45.585 80.2234 45.168V45.8482ZM80.5149 41.1133C80.5149 40.0632 81.3172 39.1856 82.3669 39.0876C82.8889 39.0872 83.3871 39.3054 83.7395 39.6892C84.092 40.0729 84.266 40.5866 84.2193 41.1045C84.2639 41.6237 84.0897 42.138 83.7382 42.524C83.3868 42.9099 82.8899 43.1328 82.3669 43.1392C81.3172 43.0412 80.5149 42.1636 80.5149 41.1133Z" fill="#002B46"/>
<path d="M87.5804 40.6696V43.625H86.7891V38.654H87.4911L87.5357 39.5466C88.0014 38.9032 88.7683 38.502 89.6037 38.4648V39.2746C89.1323 39.1892 88.6441 39.292 88.2588 39.5576C87.8736 39.8232 87.6273 40.2269 87.5804 40.6696Z" fill="#002B46"/>
<path fill-rule="evenodd" clip-rule="evenodd" d="M90.8886 42.335C91.3496 43.1333 92.2013 43.625 93.1231 43.625C94.0448 43.625 94.8966 43.1333 95.3576 42.335C95.8184 41.5368 95.8184 40.5532 95.3576 39.7549C94.8966 38.9566 94.0448 38.4648 93.1231 38.4648C92.2013 38.4648 91.3496 38.9566 90.8886 39.7549C90.4278 40.5532 90.4278 41.5368 90.8886 42.335ZM91.7606 39.6542C92.1161 39.2835 92.6095 39.077 93.1231 39.0842C93.6367 39.0752 94.1307 39.2813 94.4857 39.6526C94.8407 40.0238 95.0243 40.5266 94.9922 41.0394C95.0306 41.7329 94.6825 42.3908 94.0874 42.7491C93.4924 43.1075 92.748 43.1075 92.153 42.7491C91.558 42.3908 91.2098 41.7329 91.2482 41.0394C91.2195 40.5265 91.4051 40.0249 91.7606 39.6542Z" fill="#002B46"/>
<path d="M102.675 43.625H102.109L100.643 39.6349L99.1469 43.625H98.5811L96.6406 38.4648H97.3949L98.8914 42.5166L100.364 38.4648H100.923L102.437 42.5166L103.891 38.4648H104.615L102.675 43.625Z" fill="#002B46"/>
<path d="M106.85 38.8301V43.1574H106.132V38.8301H105.086V38.2406H106.132V36.5898H106.85V38.2406H107.901V38.8301H106.85Z" fill="#002B46"/>
<path d="M113.23 43.5976V40.6812C113.23 39.4661 112.72 39.0347 111.865 39.0347C110.913 39.0865 110.147 39.8264 110.071 40.7663V43.5976H109.309V34.7148H110.071V39.4661C110.504 38.7799 111.262 38.3604 112.081 38.3542C113.384 38.3542 113.999 39.1866 113.999 40.5901V43.6279L113.23 43.5976Z" fill="#002B46"/>
<path d="M123.32 43.625H122.754L121.288 39.6349L119.791 43.625H119.226L117.285 38.4648H118.045L119.542 42.5166L121.008 38.4648H121.568L123.082 42.5166L124.536 38.4648H125.26L123.32 43.625Z" fill="#002B46"/>
<path fill-rule="evenodd" clip-rule="evenodd" d="M126.664 35.6523V36.5326H127.501V35.6523H126.664ZM126.664 38.2157V43.158H127.501V38.2157H126.664Z" fill="#002B46"/>
<path d="M130.318 38.8301V43.1574H129.594V38.8301H128.543V38.2406H129.594V36.5898H130.307V38.2406H131.358V38.8301H130.318Z" fill="#002B46"/>
<path d="M136.699 43.5674V40.661C136.699 39.45 136.188 39.0201 135.332 39.0201C134.378 39.0691 133.608 39.8078 133.535 40.7457V43.5674H132.766V34.7148H133.535V39.45C133.966 38.7653 134.724 38.3467 135.541 38.3418C136.84 38.3418 137.456 39.1714 137.456 40.6004V43.6279L136.699 43.5674Z" fill="#002B46"/>
<path fill-rule="evenodd" clip-rule="evenodd" d="M141.207 43.6279H142.051L143.07 41.0431H147.228L148.29 43.6279H149.182L145.541 34.7148H144.879L141.207 43.6279ZM143.398 40.3113L145.17 35.9341L146.961 40.3113H143.398Z" fill="#002B46"/>
<path d="M151.064 34.7148V43.6279H150.125V34.7148H151.064Z" fill="#002B46"/>
<path d="M38 14.0703H41.114L46.4321 29.2314L51.7857 14.0703H54.8879L48.1694 31.4273H44.5767L38 14.0703Z" fill="#002C46"/>
<path fill-rule="evenodd" clip-rule="evenodd" d="M61.3253 17.3594C55.8246 17.3594 54.418 20.707 54.418 24.3693C54.418 28.0137 55.7947 31.4088 61.3313 31.4325C65.6707 31.4325 67.2928 29.373 67.5322 27.0462H64.5395C64.2701 28.1442 63.5399 29.2424 61.2475 29.2424C58.7634 29.2424 57.5783 27.895 57.4167 25.5208H67.5023C67.8555 21.2174 66.4249 17.3594 61.3253 17.3594ZM64.5395 23.2177V23.2474L57.4647 23.2711C57.5784 21.2649 58.4403 19.6088 61.056 19.6088C63.6716 19.6088 64.5395 21.348 64.5395 23.2177Z" fill="#002C46"/>
<path d="M69.4297 24.399C69.4297 20.7604 70.9254 17.3594 76.3109 17.3594C80.5323 17.3594 82.5647 19.5851 82.5647 23.01H79.5976C79.4107 20.891 78.5362 19.692 76.2264 19.692C73.2111 19.692 72.3968 21.722 72.3968 24.3693C72.3968 27.0165 73.2111 28.9753 76.2807 28.9753C78.5904 28.9753 79.4107 27.8475 79.5976 25.871H82.5647C82.5647 29.2424 80.6349 31.4325 76.3651 31.4325C70.8711 31.4385 69.4297 28.0433 69.4297 24.399Z" fill="#002C46"/>
<path d="M84.5448 27.3254V19.8269H82.5703V18.1029L84.5448 17.5063V14.0703H87.4134V17.5123H91.0143V19.8269H87.4674V27.3254C87.4674 28.6199 88.0076 29.2104 91.0143 29.0732V31.3878C86.4652 31.6563 84.5448 30.5825 84.5448 27.3254Z" fill="#002C46"/>
<path fill-rule="evenodd" clip-rule="evenodd" d="M98.7572 17.3594C93.3656 17.3594 91.9492 20.7842 91.9492 24.399C91.9492 28.0433 93.3477 31.4325 98.7156 31.4325C104.084 31.4325 105.554 28.0077 105.554 24.399C105.554 20.7901 104.149 17.3594 98.7572 17.3594ZM98.7691 19.6919C102.018 19.6919 102.661 21.8584 102.661 24.3989H102.649C102.649 27.0521 101.911 29.1058 98.7453 29.1058C95.5793 29.1058 94.883 26.969 94.883 24.3989C94.883 21.8288 95.5198 19.6919 98.7691 19.6919Z" fill="#002C46"/>
<path d="M107.434 17.5518H108.954L109.615 19.4763C110.041 18.5562 111.348 17.3594 114.015 17.3594H114.47V19.9394C114.198 19.9394 113.932 19.8853 113.696 19.8853C110.845 19.8853 110.283 21.4851 110.283 23.7344V31.4325H107.434V17.5518Z" fill="#002C46"/>
<path d="M116.348 25.1687H119.294C119.393 27.6611 120.941 28.9073 123.94 28.9073C126.681 28.9073 128.031 28.0831 128.031 26.464C128.031 25.0627 127.105 24.5034 123.492 23.7615C118.576 22.7253 116.872 21.4771 116.872 18.9041C116.872 15.6659 119.294 14.0703 123.651 14.0703C128.22 14.0703 130.636 16.1192 130.666 20.0464H127.766C127.636 17.6029 126.333 16.5137 123.545 16.5137C120.91 16.5137 119.742 17.232 119.742 18.7981C119.742 20.0994 120.727 20.6528 124.458 21.4771C129.322 22.5133 130.89 23.7085 130.89 26.3344C130.89 29.5197 128.314 31.4273 124.01 31.4273C118.894 31.4273 116.401 29.3843 116.348 25.1687Z" fill="#002C46"/>
<path d="M132.766 24.399C132.766 20.7605 134.263 17.3594 139.65 17.3594C143.874 17.3594 145.901 19.5851 145.901 23.01H142.939C142.752 20.891 141.877 19.692 139.566 19.692C136.549 19.692 135.734 21.722 135.734 24.3693C135.734 27.0165 136.549 28.9753 139.62 28.9753C141.931 28.9753 142.752 27.8476 142.939 25.871H145.901C145.901 29.2424 143.97 31.4325 139.704 31.4325C134.209 31.4385 132.766 28.0433 132.766 24.399Z" fill="#002C46"/>
<path fill-rule="evenodd" clip-rule="evenodd" d="M149.458 12.1953C148.154 12.1953 147.309 12.5447 147.309 13.9303C147.309 15.3041 148.209 15.6417 149.458 15.6417C150.709 15.6417 151.53 15.316 151.53 13.9303C151.53 12.5447 150.763 12.1953 149.458 12.1953ZM150.872 17.7499H147.991V31.4288H150.872V17.7499Z" fill="#002C46"/>
<path fill-rule="evenodd" clip-rule="evenodd" d="M159.843 17.3594C154.338 17.3594 152.938 20.707 152.938 24.3693C152.938 28.0137 154.314 31.4088 159.867 31.4326C164.212 31.4326 165.828 29.373 166.073 27.0462H163.051C162.782 28.1443 162.052 29.2424 159.76 29.2424C157.282 29.2424 156.091 27.895 155.93 25.5208H166.019C166.372 21.2174 164.942 17.3594 159.843 17.3594ZM163.051 23.2325C163.044 23.24 163.036 23.2474 163.051 23.2474L155.983 23.2711C156.091 21.2649 156.959 19.6089 159.574 19.6089C162.189 19.6089 163.081 21.348 163.051 23.2177C163.066 23.2177 163.059 23.2251 163.051 23.2325Z" fill="#002C46"/>
<path d="M168.418 17.5518H169.984L170.63 19.5004C171.084 18.5562 172.543 17.3594 175.669 17.3594C180.193 17.3594 181.084 20.0176 181.084 23.975V31.4326H178.226V23.7043C178.226 21.2385 177.796 19.777 174.856 19.777C171.915 19.777 171.311 21.2084 171.311 23.7043V31.4326H168.43L168.418 17.5518Z" fill="#002C46"/>
<path d="M183.532 27.3254V19.8269H181.559V18.1029L183.532 17.5064V14.0703H186.401V17.5123H190.002V19.8269H186.455V27.3254C186.455 28.62 187.001 29.2105 190.002 29.0732V31.3879C185.477 31.6563 183.532 30.5825 183.532 27.3254Z" fill="#002C46"/>
</svg>
