<svg width="162" height="257" viewBox="0 0 162 257" fill="none" xmlns="http://www.w3.org/2000/svg">
<path d="M68.15 159.052L67.5257 157.151L68.15 159.052ZM1.25653 238.27C0.370688 238.93 0.187461 240.183 0.847278 241.069L11.5996 255.504C12.2595 256.39 13.5125 256.573 14.3983 255.914C15.2841 255.254 15.4674 254.001 14.8075 253.115L5.2499 240.283L18.0816 230.726C18.9674 230.066 19.1506 228.813 18.4908 227.927C17.831 227.041 16.578 226.858 15.6921 227.518L1.25653 238.27ZM92.053 1.20784C95.3791 24.9556 98.0756 61.3102 95.3783 93.1757C94.0289 109.118 91.3386 123.813 86.7738 135.215C82.1936 146.655 75.8843 154.405 67.5257 157.151L68.7743 160.952C78.7826 157.663 85.7269 148.591 90.4872 136.702C95.2628 124.774 97.9996 109.633 99.3641 93.5131C102.095 61.2548 99.3661 24.5835 96.0143 0.653012L92.053 1.20784ZM67.5257 157.151C62.192 158.904 58.2475 158.376 55.3893 156.593C52.4784 154.776 50.317 151.423 49.0814 146.787C46.6013 137.484 48.1119 123.893 53.5729 111.135C59.0217 98.405 68.2428 86.8794 80.7757 81.4025C93.2059 75.9705 109.284 76.3194 128.912 88.0676L130.967 84.6354C110.473 72.3688 93.0267 71.6835 79.1739 77.7372C65.4238 83.7461 55.6033 96.2261 49.8956 109.561C44.1999 122.867 42.4392 137.4 45.2164 147.818C46.6094 153.043 49.209 157.45 53.2715 159.986C57.387 162.554 62.6287 162.971 68.7743 160.952L67.5257 157.151ZM128.912 88.0676C148.434 99.752 156.949 115.75 157.328 132.906C157.71 150.184 149.84 168.929 135.953 185.883C108.173 219.8 56.9075 245.816 2.74062 237.895L2.16185 241.853C57.8982 250.003 110.499 223.273 139.048 188.418C153.326 170.986 161.737 151.34 161.327 132.818C160.915 114.174 151.568 96.9659 130.967 84.6354L128.912 88.0676Z" fill="#BBBBBB"/>
</svg>
