<svg width="109" height="60" viewBox="0 0 109 60" fill="none" xmlns="http://www.w3.org/2000/svg">
<path fill-rule="evenodd" clip-rule="evenodd" d="M40.857 59.3836H36.5556C36.5394 59.3659 36.5274 59.3536 36.5182 59.3441L36.5182 59.3441C36.5046 59.33 36.4971 59.3223 36.4911 59.313L36.4908 59.3126C36.4808 59.2971 36.4682 59.2776 36.471 59.2623L39.3751 44.8797L39.3789 44.861L39.3819 44.8462C42.3992 29.9027 45.4172 14.9562 48.4376 0H52.7691C52.9003 0.24555 52.8262 0.483425 52.7548 0.713059C52.7293 0.794735 52.7042 0.875368 52.6888 0.954933C52.2403 3.24914 51.7729 5.53944 51.3057 7.82908L51.3053 7.83083C51.2111 8.29271 51.1168 8.75458 51.0227 9.21644C50.8007 10.3072 50.5771 11.3973 50.3536 12.4875C50.0602 13.918 49.7668 15.3484 49.4771 16.7797C49.2604 17.8493 49.048 18.92 48.8356 19.9908L48.8356 19.9909L48.8356 19.991L48.8355 19.9912C48.6264 21.0456 48.4173 22.1001 48.2039 23.1539C47.9869 24.2262 47.7659 25.2978 47.5449 26.3691L47.5449 26.3695L47.5448 26.3696C47.3278 27.422 47.1108 28.4742 46.8977 29.5267C46.699 30.5057 46.5046 31.4852 46.3104 32.4646C46.1542 33.2519 45.998 34.0391 45.8395 34.8261C45.6703 35.6637 45.4983 36.5009 45.3262 37.3384L45.3261 37.3386L45.3261 37.3387L45.3261 37.3387C45.1731 38.0835 45.02 38.8284 44.8688 39.574C44.6737 40.5363 44.4807 41.4995 44.2877 42.4625L44.2877 42.4625L44.2877 42.4626L44.2876 42.4629L44.2876 42.4631L44.2873 42.4645C44.1302 43.2484 43.9732 44.0322 43.815 44.8155C43.6932 45.4188 43.5703 46.0221 43.4474 46.6254L43.4472 46.6267C43.3243 47.2304 43.2013 47.8341 43.0794 48.4378C42.9195 49.2307 42.76 50.0236 42.6004 50.8165C42.441 51.609 42.2815 52.4016 42.1216 53.1941C41.7914 54.8288 41.4588 56.4622 41.126 58.0967L41.0363 58.5372C41.0076 58.6752 40.9782 58.8128 40.9477 58.9558L40.9476 58.9564L40.9475 58.9568L40.9474 58.9569C40.9184 59.0927 40.8884 59.2333 40.857 59.3836ZM83.7177 59.3322C83.7559 59.126 83.7925 58.9245 83.8285 58.7262C83.9001 58.3313 83.9694 57.9492 84.0445 57.5677C84.3468 56.0218 84.6529 54.4771 84.9592 52.9314L84.9594 52.9302L84.9595 52.93L84.9604 52.9253L85.0161 52.6441C85.1459 51.9905 85.2762 51.3368 85.4065 50.683L85.4091 50.6701L85.4091 50.67L85.4092 50.6698L85.4092 50.6697L85.4092 50.6695L85.4093 50.6694C85.6804 49.309 85.9516 47.9483 86.2189 46.5871C86.3883 45.723 86.5542 44.8583 86.7201 43.9936C86.9005 43.0529 87.081 42.1122 87.2661 41.1722C87.3513 40.7383 87.4358 40.3042 87.5203 39.8701L87.5206 39.8687L87.5206 39.8686L87.5206 39.8685L87.5206 39.8683L87.5207 39.8682L87.5207 39.8681C87.8362 38.2466 88.1518 36.625 88.5074 35.0121C88.8341 33.5285 89.479 32.1903 90.6318 31.1288C91.5949 30.2424 92.7448 29.7709 94.0147 29.5309C94.9035 29.363 95.8024 29.3855 96.6955 29.4321C97.7328 29.4858 98.713 29.7695 99.599 30.4019C100.267 30.025 100.984 29.73 101.759 29.5944C103.414 29.3037 105.063 29.243 106.659 29.8739C108.104 30.4456 108.802 31.5622 108.963 33.0669C109.086 34.2111 108.872 35.3138 108.657 36.4188C108.634 36.538 108.61 36.6572 108.588 36.7766C108.351 38.0212 108.104 39.2628 107.857 40.5048L107.857 40.5049L107.857 40.5051L107.856 40.5052L107.716 41.2118C107.56 41.997 107.403 42.7823 107.246 43.5677L107.245 43.5703L107.245 43.573L107.244 43.5757L107.244 43.5784L107.243 43.5811C107.001 44.7917 106.759 46.0025 106.522 47.2138C106.34 48.1382 106.166 49.0639 105.991 49.9895L105.99 49.9901L105.99 49.9907L105.99 49.9913L105.99 49.9919L105.99 49.9925C105.851 50.728 105.712 51.4635 105.57 52.1981C105.425 52.9462 105.274 53.6937 105.124 54.441C105.042 54.8471 104.96 55.2532 104.879 55.6593C104.772 56.1979 104.666 56.7366 104.56 57.2753L104.558 57.281C104.452 57.8217 104.345 58.3624 104.237 58.9031C104.219 58.9963 104.192 59.0871 104.159 59.1944C104.142 59.2513 104.124 59.3127 104.105 59.3816C103.669 59.3808 103.235 59.3816 102.8 59.3824H102.799C101.794 59.3843 100.784 59.3862 99.7402 59.3675C99.7854 59.1274 99.828 58.8971 99.8694 58.6734L99.8698 58.6711L99.8698 58.6708L99.87 58.6701L99.8705 58.6673L99.8707 58.6662C99.9477 58.2496 100.021 57.8554 100.098 57.4619C100.419 55.8218 100.744 54.1832 101.069 52.5446L101.069 52.5437L101.069 52.5429L101.069 52.5421L101.07 52.5413L101.07 52.5405L101.07 52.5397C101.184 51.9645 101.299 51.3896 101.414 50.8147L101.414 50.814L101.414 50.8134L101.414 50.8128L101.415 50.8122L101.415 50.8116C101.584 49.9639 101.754 49.1163 101.92 48.2682C102.069 47.5081 102.216 46.7474 102.363 45.9867L102.363 45.9864C102.53 45.1225 102.696 44.2586 102.866 43.3955C103.078 42.313 103.294 41.2317 103.51 40.1504C103.618 39.6103 103.726 39.0701 103.834 38.5298C103.881 38.2913 103.929 38.0529 103.977 37.8145L103.977 37.8137C104.128 37.0603 104.279 36.307 104.414 35.5513C104.457 35.3161 104.448 35.0702 104.439 34.8276V34.8275C104.438 34.792 104.437 34.7566 104.436 34.7213C104.42 34.2597 104.15 33.9506 103.735 33.8108C102.568 33.417 101.261 33.8405 100.884 35.2549C100.78 35.6467 100.706 36.0456 100.631 36.4445L100.631 36.4446L100.631 36.4448L100.631 36.4449L100.631 36.445L100.631 36.4451L100.631 36.4452L100.631 36.4454L100.631 36.4455L100.631 36.4457L100.631 36.4459C100.601 36.6071 100.571 36.7683 100.539 36.929C100.174 38.7669 99.8087 40.6062 99.4477 42.4455C99.2828 43.2898 99.1201 44.1347 98.9573 44.9796L98.9573 44.9799L98.9572 44.9803L98.9571 44.9806L98.9571 44.9809L98.957 44.9812C98.7721 45.9411 98.5872 46.9011 98.3991 47.8603C98.2102 48.8208 98.0177 49.7805 97.8252 50.7403L97.8251 50.7409L97.8249 50.7421L97.8246 50.7433C97.6524 51.6021 97.4802 52.4609 97.3105 53.3203C97.1099 54.3368 96.913 55.3537 96.7161 56.3705L96.716 56.3708L96.7159 56.3711L96.7159 56.3714L96.7158 56.3717L96.7158 56.372C96.5669 57.141 96.418 57.91 96.2675 58.6786C96.2406 58.8184 96.2057 58.957 96.1689 59.1034C96.1493 59.1817 96.129 59.2622 96.1091 59.3463H91.7433C91.7579 59.2454 91.7709 59.1483 91.7835 59.054L91.7835 59.0539L91.7835 59.0537C91.8115 58.8446 91.8376 58.6491 91.8759 58.4556C92.0198 57.7366 92.1659 57.0184 92.312 56.3003C92.492 55.4155 92.6719 54.5309 92.8476 53.645C93.2151 51.7934 93.5778 49.9403 93.9405 48.0874L93.9408 48.0857L94.1884 46.8213L94.3143 46.1791C94.5747 44.8536 94.8354 43.5278 95.0961 42.202C95.3569 40.8762 95.6176 39.5503 95.878 38.2248C95.9135 38.0448 95.9491 37.8648 95.9848 37.6848L95.9853 37.6822L95.9858 37.6796L95.986 37.6785L95.9861 37.6781C96.1391 36.905 96.2921 36.1322 96.433 35.3565C96.4715 35.142 96.4758 34.909 96.4344 34.6959C96.306 34.0183 95.8637 33.6753 95.0476 33.6725C93.8106 33.6669 93.0773 34.2498 92.8019 35.485C92.601 36.3929 92.4261 37.3062 92.2512 38.2193C92.1703 38.642 92.0893 39.0647 92.0058 39.4868C91.8952 40.0459 91.7841 40.6049 91.673 41.1638L91.6724 41.1664L91.6695 41.181L91.6694 41.1815L91.6693 41.1819L91.6692 41.1824L91.6692 41.1828L91.6691 41.1833C91.4519 42.2759 91.2347 43.3682 91.0213 44.4612C90.8615 45.282 90.7057 46.1038 90.5498 46.9255C90.3939 47.7475 90.238 48.5695 90.0782 49.3904C89.9578 50.0067 89.832 50.6222 89.7062 51.2378L89.7061 51.2383C89.589 51.8111 89.4719 52.384 89.3591 52.9575C89.1589 53.9779 88.9634 54.9997 88.768 56.0214C88.6836 56.4625 88.5993 56.9037 88.5145 57.3447C88.4706 57.5728 88.4257 57.8006 88.3808 58.0284L88.3808 58.0289L88.3807 58.0294L88.3806 58.0298L88.3805 58.0303L88.3804 58.0307C88.3118 58.379 88.2433 58.7273 88.1778 59.0767C88.1421 59.2687 88.0423 59.3731 87.8411 59.376C87.7669 59.3774 87.6913 59.3788 87.6171 59.3788L86.7623 59.379H86.7621H86.762H86.7619H86.7617H86.7616C85.9058 59.3792 85.0504 59.3795 84.1943 59.3774C84.091 59.3815 83.9869 59.3675 83.8631 59.3509H83.863C83.8176 59.3447 83.7695 59.3383 83.7177 59.3322ZM83.2737 30.0024H83.2745C84.3141 29.9996 85.3473 29.9969 86.4116 30.017C86.3807 30.1876 86.3518 30.3514 86.3236 30.5106L86.3236 30.5107L86.3236 30.5109L86.3234 30.5117C86.2641 30.847 86.2085 31.1615 86.1462 31.4754C85.984 32.291 85.8196 33.1061 85.6551 33.9211L85.655 33.9214L85.655 33.9218L85.6549 33.9221L85.6548 33.9225L85.6548 33.9228C85.5284 34.5491 85.4021 35.1752 85.2768 35.8013L85.0093 37.1385C84.6979 38.6943 84.3866 40.2497 84.0788 41.8059C83.9184 42.6161 83.7609 43.427 83.6034 44.238L83.6033 44.2386L83.6026 44.2423C83.4447 45.0549 83.2869 45.8676 83.1262 46.6796C82.9983 47.3268 82.8668 47.9728 82.7352 48.619C82.6175 49.1976 82.4997 49.7763 82.3844 50.356C82.2955 50.8033 82.2095 51.2511 82.1234 51.6989C81.9734 52.4794 81.8235 53.2598 81.6585 54.0367C81.3457 55.5022 80.7776 56.8533 79.713 57.963C78.7934 58.9217 77.6499 59.4906 76.3544 59.7617C75.5481 59.9311 74.726 60.0399 73.8981 59.9862C72.8852 59.9198 71.8867 59.7914 70.9713 59.3057C69.8767 58.7254 69.3315 57.7964 69.0991 56.6246C68.8939 55.5827 69.0603 54.5675 69.2497 53.5538C69.4773 52.3323 69.7243 51.1145 69.9713 49.8967L69.9715 49.8957L69.9717 49.8947L69.9719 49.8937L69.9721 49.8927L69.9723 49.8917C70.0612 49.4531 70.1502 49.0145 70.2382 48.5757C70.3643 47.9478 70.4918 47.3201 70.6194 46.6924L70.6194 46.6924L70.6194 46.6923L70.6194 46.6923L70.6194 46.6922L70.6194 46.6922C70.8214 45.6982 71.0235 44.7041 71.2195 43.709C71.3738 42.9261 71.5238 42.1421 71.6737 41.3581C71.8347 40.5164 71.9958 39.6746 72.1621 38.8339C72.2834 38.2206 72.4107 37.6087 72.538 36.9967L72.538 36.9964L72.5381 36.9961C72.6654 36.3842 72.7927 35.7722 72.9139 35.1589C73.1369 34.027 73.3539 32.8938 73.5708 31.7611C73.6721 31.2323 73.7734 30.7035 73.8752 30.1751C73.8795 30.1549 73.8909 30.1361 73.9095 30.1057C73.9221 30.0852 73.9379 30.0593 73.957 30.024C74.8273 29.9952 75.7097 29.9988 76.6025 30.0024C77.1548 30.0046 77.7112 30.0068 78.2711 30.0014C78.3383 30.3068 78.2684 30.5888 78.2003 30.8631L78.2003 30.8631C78.1768 30.9578 78.1536 31.0515 78.1363 31.145C77.9784 31.9992 77.8022 32.8501 77.6259 33.7011C77.5187 34.2188 77.4115 34.7364 77.3084 35.2549C77.1382 36.111 76.9716 36.9678 76.805 37.8246L76.8049 37.8255L76.8047 37.8263L76.8045 37.8272L76.8044 37.8281L76.8042 37.8289C76.6551 38.5957 76.506 39.3625 76.3544 40.1286C76.2331 40.7421 76.1083 41.3545 75.9835 41.967L75.9832 41.9683L75.9831 41.9687L75.983 41.969L75.983 41.9694L75.9829 41.9698C75.8583 42.5812 75.7336 43.1926 75.6126 43.805C75.4403 44.6758 75.2708 45.5473 75.1013 46.4188L75.1012 46.4196L75.1011 46.4203L75.1009 46.421L75.1008 46.4218L75.1006 46.4225C74.9544 47.1748 74.8081 47.9271 74.66 48.6787C74.5722 49.1241 74.4817 49.5689 74.3912 50.0136L74.3911 50.0143C74.2361 50.7763 74.081 51.5382 73.9398 52.3029C73.906 52.4859 73.8667 52.668 73.8274 52.8501C73.7115 53.3877 73.5955 53.9253 73.6212 54.4842C73.6542 55.1859 74.0144 55.5897 74.7217 55.6349C75.0373 55.6547 75.3687 55.6603 75.6729 55.5911C76.4031 55.4259 76.9196 54.9855 77.1191 54.264C77.2955 53.6273 77.4318 52.9778 77.5638 52.3298C77.934 50.5099 78.2984 48.6886 78.6571 46.8673C78.8378 45.9468 79.015 45.0256 79.1922 44.1044C79.3694 43.1831 79.5466 42.2619 79.7273 41.3414C79.8829 40.5486 80.0434 39.7564 80.2039 38.964C80.3173 38.4045 80.4306 37.8449 80.5423 37.2851C80.711 36.4391 80.8785 35.5927 81.0461 34.7461L81.047 34.7415L81.0479 34.7369C81.2047 33.9449 81.3615 33.1528 81.5193 32.3606C81.6183 31.871 81.7178 31.3826 81.8194 30.8841L81.8196 30.883L81.969 30.1493L81.9985 30.0043C82.4253 30.0047 82.8485 30.0035 83.2707 30.0024H83.2714H83.2722H83.273H83.2737ZM36.9595 30.0171L36.9592 30.0171C36.2222 30.0086 35.4843 30 34.7437 30C34.7083 30.0773 34.6957 30.1623 34.6845 30.2373C34.6812 30.2596 34.678 30.281 34.6744 30.3011C34.2926 32.213 33.9124 34.1234 33.5378 36.0367C33.3838 36.8231 33.2324 37.6095 33.0811 38.3957L33.0811 38.3958L33.0809 38.3967C32.8812 39.4342 32.6816 40.4715 32.4759 41.5083C32.2711 42.5417 32.0616 43.5743 31.8522 44.6069L31.852 44.6077C31.6594 45.5573 31.4667 46.5069 31.2777 47.4572C31.1222 48.2386 30.9703 49.0207 30.8183 49.8028L30.8183 49.8029L30.8183 49.8029L30.8183 49.803L30.8183 49.8031C30.5564 51.1509 30.2945 52.4986 30.0149 53.8424C29.8412 54.6769 29.4165 55.3787 28.488 55.5721C28.0934 55.654 27.6615 55.6611 27.2625 55.6004C26.7043 55.5157 26.3628 55.0681 26.3398 54.5018C26.3298 54.283 26.3513 54.0585 26.3929 53.8438C26.5775 52.8958 26.7655 51.9482 26.9536 51.0009L26.9538 50.9999C27.0844 50.3419 27.2149 49.6839 27.3443 49.026C27.4893 48.2876 27.6327 47.549 27.776 46.8105L27.7762 46.8096L27.7764 46.8087L27.7765 46.8079L27.7767 46.807C27.9835 45.7417 28.1902 44.6765 28.4019 43.6123C28.6513 42.3622 28.9043 41.1134 29.1573 39.8646L29.1574 39.8641L29.1575 39.8635L29.1576 39.8629L29.1577 39.8623C29.3792 38.7689 29.6007 37.6757 29.8197 36.5818C30.2344 34.5075 30.6405 32.4318 31.0466 30.3561C31.0667 30.2587 31.0688 30.162 31.0688 30C30.5642 30.0029 30.0603 30.0015 29.5586 30.0002C28.5921 29.9976 27.6342 29.995 26.6971 30.0229C26.6761 30.0964 26.6556 30.1628 26.6366 30.2247C26.5986 30.3484 26.5661 30.4541 26.545 30.5623C26.4081 31.2686 26.2726 31.9751 26.1371 32.6815L26.1371 32.6818L26.1367 32.6835L26.1367 32.6837L26.1366 32.684L26.1366 32.6842C25.9188 33.8199 25.7011 34.9552 25.4774 36.089C25.275 37.1138 25.0669 38.1374 24.8588 39.1611C24.664 40.1192 24.4692 41.0773 24.2791 42.0364C24.0054 43.4205 23.7377 44.806 23.4701 46.1914L23.4687 46.1989L23.4684 46.2003C23.3495 46.8161 23.2305 47.4318 23.111 48.0474C22.9599 48.8252 22.808 49.6028 22.6562 50.3803L22.6559 50.3815C22.3954 51.7153 22.1349 53.049 21.8784 54.3832C21.7162 55.2262 21.7076 56.0777 21.9128 56.9107C22.2127 58.1322 22.9216 59.033 24.1457 59.5046C24.7269 59.7292 25.3267 59.828 25.9409 59.9184C27.1736 60.0991 28.3761 59.9664 29.5571 59.6515C30.8328 59.3112 31.9263 58.6631 32.7715 57.6252C33.6885 56.4984 34.175 55.1994 34.4591 53.8099C34.609 53.0783 34.7512 52.3457 34.8934 51.6133L34.8934 51.6132L34.8935 51.6131L34.8935 51.613L34.8935 51.6129C34.9895 51.1185 35.0855 50.6241 35.1838 50.1302C35.3168 49.4617 35.4525 48.7931 35.5881 48.1246C35.7011 47.5675 35.8141 47.0104 35.9257 46.4533C36.1466 45.3473 36.3663 44.2413 36.586 43.1354C36.6959 42.5822 36.8058 42.029 36.9158 41.4759C37.0105 41.0023 37.1054 40.5289 37.2004 40.0557L37.2005 40.0554C37.3733 39.1938 37.5462 38.3326 37.7166 37.4713C38.0524 35.7755 38.3867 34.0797 38.7182 32.3838C38.8196 31.8659 38.9171 31.3474 39.0168 30.8171L39.0169 30.8167L39.0169 30.8166C39.0654 30.559 39.1143 30.2986 39.1645 30.0342C38.4295 30.0342 37.6954 30.0257 36.9603 30.0171H36.9601H36.9599H36.9597H36.9595ZM55.9652 39.6741H60.3248C60.34 39.6055 60.3549 39.5396 60.3693 39.4756C60.4074 39.3067 60.4424 39.1512 60.4745 38.9949C60.5349 38.6963 60.597 38.398 60.659 38.0996L60.659 38.0995L60.6591 38.0995C60.8151 37.3493 60.9712 36.599 61.1017 35.8443C61.2685 34.8829 61.4268 33.9272 61.2785 32.929C61.0133 31.1382 59.9698 30.0861 58.356 29.6664C56.8149 29.2651 55.2495 29.3077 53.7098 29.6877C52.5123 29.9826 51.4488 30.5554 50.6191 31.4898C49.8421 32.3647 49.2947 33.3771 49.0081 34.5043C48.713 35.6656 48.4707 36.8425 48.2369 38.018C48.0025 39.1964 47.7783 40.3763 47.5541 41.5559C47.3923 42.4074 47.2305 43.2587 47.065 44.1093C46.8701 45.1088 46.6694 46.1071 46.4687 47.1054L46.4686 47.1055C46.3419 47.7359 46.2151 48.3663 46.0899 48.9969C46.0238 49.3283 45.9574 49.6597 45.8909 49.991L45.8909 49.9912C45.6635 51.1257 45.436 52.2602 45.2231 53.3981C45.0192 54.4899 44.8481 55.5846 45.0734 56.7019C45.3157 57.9043 45.9288 58.8061 47.0507 59.3676C47.9403 59.8128 48.8955 59.9206 49.8621 59.9858C50.6661 60.0397 51.4645 59.9348 52.2457 59.7632C53.4675 59.4938 54.5695 58.9791 55.4705 58.0858C56.5069 57.0578 57.1057 55.7916 57.4322 54.402C57.6843 53.3346 57.8955 52.2578 58.1068 51.1809C58.1798 50.8087 58.2528 50.4364 58.3275 50.0646C58.3412 49.9961 58.3306 49.9229 58.3203 49.8523C58.3157 49.8207 58.3111 49.7896 58.3089 49.7598C57.5605 49.6648 54.3827 49.6889 53.9722 49.7924L53.944 49.9229C53.9042 50.1075 53.8634 50.2966 53.8253 50.4857C53.7547 50.8422 53.6884 51.1997 53.6221 51.5572L53.6221 51.5572C53.4729 52.3616 53.3237 53.166 53.1253 53.9582C52.759 55.4158 51.7225 55.776 50.4409 55.5888C50.0103 55.5264 49.738 55.2443 49.5727 54.8161C49.4231 54.4263 49.5017 54.06 49.5793 53.6988L49.5793 53.6987C49.5971 53.6158 49.6148 53.5332 49.6297 53.4506C49.7909 52.5592 49.9719 51.6716 50.1529 50.784L50.1529 50.7839L50.1529 50.7838C50.2632 50.2428 50.3736 49.7018 50.4794 49.16C50.6754 48.154 50.8671 47.1476 51.0589 46.1413C51.2506 45.1349 51.4424 44.1285 51.6384 43.1225C52.0747 40.8765 52.518 38.6305 52.9685 36.3873C53.0669 35.8996 53.171 35.4076 53.3378 34.9411C53.7555 33.7656 55.1797 33.465 56.1405 33.8876C56.4855 34.0393 56.7208 34.3073 56.7393 34.6943C56.7564 35.0446 56.7707 35.4061 56.7079 35.7479C56.5827 36.4376 56.4409 37.1249 56.2991 37.8125L56.299 37.8127L56.299 37.813C56.2245 38.1741 56.15 38.5353 56.0778 38.8971C56.0445 39.0649 56.0226 39.2354 55.9992 39.4178C55.9886 39.5005 55.9776 39.5856 55.9652 39.6741ZM12.9995 30.0518C14.3888 29.9592 23.7655 29.9999 24.2443 30.1023C24.1856 30.4033 24.1266 30.7045 24.0675 31.0059C23.9944 31.3792 23.9212 31.7527 23.8484 32.1262C23.7155 32.8069 23.5811 33.4876 23.4425 34.1866C23.1323 34.2722 22.8215 34.262 22.5129 34.252C22.3763 34.2475 22.2401 34.2431 22.1046 34.2469C21.7924 34.2557 21.4796 34.2536 21.1665 34.2516H21.1664L21.1648 34.2515C21.0283 34.2506 20.8918 34.2497 20.7553 34.2497H19.3502H18.0009H16.5972C16.1398 36.5058 15.6998 38.7467 15.2558 41.0083L15.2557 41.0084L14.9677 42.4744C15.0131 42.4786 15.0576 42.4836 15.1014 42.4885L15.1015 42.4885C15.2039 42.4999 15.3027 42.5109 15.4008 42.5109C16.3452 42.5126 17.2897 42.5128 18.2341 42.5129C18.8634 42.513 19.4927 42.5132 20.122 42.5137C20.2552 42.5137 20.3878 42.5192 20.5264 42.525H20.5264C20.5975 42.528 20.6701 42.531 20.7453 42.5334C20.7487 42.5861 20.7544 42.6337 20.7597 42.6774C20.7699 42.7616 20.7784 42.8318 20.7653 42.8983C20.5672 43.897 20.3648 44.894 20.1574 45.9154L19.9748 46.8155H14.0958C13.5918 49.3627 13.092 51.8907 12.5944 54.4071L12.5917 54.421L11.6344 59.262C11.2114 59.3996 7.92952 59.429 7.28059 59.3055C7.27792 59.2811 7.27304 59.2554 7.26805 59.2292C7.25701 59.1711 7.24546 59.1104 7.25629 59.0543C9.16736 49.3924 11.0813 39.7319 12.9995 30.0518ZM71.5996 30.9837C71.7007 30.4674 71.8028 29.9462 71.906 29.4189C70.9912 29.3214 70.1779 29.4358 69.3789 29.6378C68.2369 29.9302 67.2093 30.4585 66.3888 31.3061C65.4112 32.3175 64.8152 33.5492 64.505 34.9024C64.322 35.7034 64.1679 36.5114 64.0137 37.3195C63.9403 37.7044 63.8669 38.0893 63.7904 38.4734C63.6166 39.3464 63.442 40.2188 63.2674 41.0911C63.0414 42.2204 62.8154 43.3496 62.5912 44.4796C62.4283 45.2978 62.2676 46.1164 62.1069 46.935C61.9771 47.596 61.8474 48.2571 61.7165 48.9179C61.6167 49.4252 61.515 49.9322 61.4133 50.4392C61.2833 51.087 61.1534 51.7347 61.0275 52.3829C60.886 53.1146 60.7477 53.8467 60.6095 54.5787C60.4712 55.3108 60.3329 56.0428 60.1914 56.7745C60.08 57.3498 59.9623 57.9236 59.8408 58.5162C59.7878 58.7748 59.734 59.037 59.6797 59.3044C60.0395 59.3968 60.386 59.3872 60.7254 59.3778C60.8686 59.3738 61.0106 59.3699 61.1519 59.3737C61.477 59.3825 61.8028 59.3804 62.1288 59.3783C62.2715 59.3774 62.4142 59.3765 62.5569 59.3765H64.0119C64.0335 59.3305 64.0554 59.2893 64.0758 59.2509C64.1162 59.175 64.1506 59.1102 64.1649 59.0417C64.3264 58.2493 64.4807 57.4554 64.6337 56.6601C64.7426 56.0961 64.8509 55.5317 64.9592 54.9673C65.1663 53.8877 65.3735 52.8077 65.5856 51.7289C65.7609 50.8366 65.9394 49.9446 66.1179 49.0525C66.3003 48.1411 66.4827 47.2296 66.6618 46.3174C66.8313 45.4537 66.9975 44.5892 67.1638 43.7247C67.3102 42.9633 67.4566 42.2019 67.6052 41.4412C67.891 39.9778 68.1769 38.5158 68.4728 37.0552C68.4869 36.9856 68.5009 36.916 68.5149 36.8464C68.6317 36.267 68.7487 35.6862 68.9159 35.12C69.1431 34.3572 69.6391 33.8402 70.4809 33.7201C70.5999 33.7027 70.7165 33.6739 70.8522 33.6403C70.9252 33.6223 71.0038 33.6029 71.0912 33.5831C71.2578 32.7278 71.4273 31.863 71.5996 30.9837Z" fill="#1C1C1C"/>
<path fill-rule="evenodd" clip-rule="evenodd" d="M34.3712 0H31.3603C31.2847 0.362445 31.2081 0.720561 31.1321 1.07596L31.132 1.07617C30.9707 1.8307 30.812 2.57301 30.67 3.31857C30.4638 4.42522 30.2462 5.52907 29.9983 6.66107C29.9353 6.63325 29.8796 6.60946 29.8288 6.58779C29.7357 6.54804 29.6593 6.51539 29.5847 6.47803C28.7343 6.0472 27.822 6.07817 26.9341 6.24994C25.6182 6.50338 24.8327 7.40588 24.298 8.54492C23.9213 9.3477 23.7553 10.2052 23.5895 11.0616C23.5599 11.2145 23.5303 11.3674 23.4995 11.5199C23.1709 13.1513 22.8545 14.7851 22.5381 16.4188L22.538 16.4189C22.4325 16.9636 22.327 17.5083 22.2211 18.0529C22.1154 18.5968 22.0045 19.1399 21.8935 19.683L21.8935 19.6834C21.6336 20.9553 21.3738 22.2272 21.1819 23.5087C20.9499 25.0617 21.6028 26.4162 23.4145 26.809C24.0732 26.9512 24.7318 26.9245 25.3862 26.8921C26.7842 26.8231 27.9834 26.3261 28.8482 25.1941C29.2705 24.6407 29.5746 24.0297 29.7475 23.3665C29.9209 22.7013 30.0556 22.0256 30.1901 21.3508L30.1901 21.3507L30.2059 21.2715C30.3673 20.4619 30.5251 19.6519 30.683 18.8419C30.8408 18.032 30.9986 17.2221 31.16 16.4126C31.3464 15.4796 31.536 14.5469 31.7256 13.6141L31.7259 13.6126C31.938 12.5695 32.15 11.5263 32.3577 10.4823C32.5455 9.53964 32.7282 8.59587 32.9109 7.65215L32.9109 7.65178L32.911 7.65137L32.9115 7.64877L32.9115 7.64867C33.0806 6.77518 33.2497 5.90172 33.4228 5.02924C33.6014 4.132 33.7844 3.2352 33.9674 2.3386L33.9677 2.33715C34.1111 1.63452 34.2545 0.932009 34.3957 0.229498C34.4044 0.186041 34.3956 0.139415 34.3854 0.0853657L34.3853 0.085317C34.3803 0.0588278 34.375 0.0305556 34.3712 0ZM29.2849 10.1605C29.2826 10.1729 29.2849 10.1757 29.2849 10.1641L29.2849 10.1605ZM29.2856 10.0486C29.2853 10.086 29.2849 10.1233 29.2849 10.1605C29.2391 10.406 29.2016 10.653 29.1641 10.9003C29.1189 11.1978 29.0737 11.4957 29.0139 11.7917C28.6853 13.4446 28.3552 15.0962 28.0209 16.7477C27.7965 17.8522 27.5705 18.9561 27.3446 20.0598L27.3445 20.0601L27.3444 20.0605C27.2032 20.7505 27.062 21.4404 26.9212 22.1303C26.9025 22.2221 26.8865 22.3147 26.8704 22.4073C26.8395 22.5861 26.8086 22.7651 26.7583 22.9385C26.4931 23.8607 25.5 24.1296 24.8904 23.8931C24.4854 23.7368 24.3052 23.5439 24.3239 23.1103C24.3359 22.8079 24.3968 22.5067 24.4571 22.2089L24.4571 22.2088L24.4724 22.1332C24.623 21.3808 24.7762 20.6288 24.9294 19.8768L24.9295 19.8765L24.9299 19.8746L24.93 19.874C25.102 19.0296 25.274 18.1852 25.4424 17.3405C25.6498 16.3021 25.8538 15.2629 26.0579 14.2238L26.0579 14.2236L26.0583 14.2217C26.2071 13.4636 26.3559 12.7055 26.5061 11.948C26.6012 11.4622 26.6992 10.9779 26.8073 10.4949C26.844 10.3343 26.8971 10.1775 26.9501 10.0213C26.9616 9.98723 26.9732 9.95316 26.9846 9.91909C27.1964 9.28973 28.0627 8.91803 28.828 9.20385C29.086 9.301 29.2705 9.48403 29.2834 9.77829C29.2875 9.86799 29.2866 9.95837 29.2856 10.0485V10.0485V10.0486ZM35.9764 18.042H41.3824C41.4015 17.9769 41.4202 17.9172 41.4378 17.8611L41.4378 17.8611C41.4764 17.7378 41.5096 17.6317 41.5301 17.5237C41.5802 17.2663 41.6256 17.0076 41.671 16.7488L41.671 16.7486C41.7079 16.5386 41.7448 16.3285 41.7842 16.119C41.8865 15.5801 41.9885 15.0412 42.0905 14.5024L42.0907 14.5014L42.0909 14.5004L42.091 14.4999L42.0911 14.4994C42.4038 12.848 42.7164 11.1968 43.0363 9.54635C43.1343 9.04066 43.0335 8.56025 42.9029 8.08546C42.6232 7.07126 41.8793 6.53747 40.8884 6.32115C39.9543 6.11606 39.0073 6.12309 38.0704 6.31272C36.5812 6.61333 35.532 7.46177 34.9131 8.83557C34.6093 9.50983 34.4559 10.2234 34.3182 10.9454C34.0374 12.4112 33.7435 13.874 33.4496 15.3371L33.4495 15.3377L33.4493 15.3382C33.3436 15.8643 33.2379 16.3905 33.1328 16.9168C33.0382 17.3925 32.9415 17.8679 32.8448 18.3433C32.65 19.3013 32.4551 20.2595 32.2768 21.2208C32.2477 21.3776 32.2173 21.534 32.187 21.6904L32.1869 21.6909L32.1868 21.6914C32.0294 22.5035 31.8721 23.3148 31.8864 24.1567C31.9062 25.3366 32.5422 26.4407 34.0002 26.761C35.0266 26.9872 36.0701 26.9773 37.0894 26.7203C37.8702 26.5222 38.5701 26.15 39.1365 25.5516C39.8052 24.845 40.1956 24.0036 40.4128 23.0807C40.546 22.5152 40.6528 21.9436 40.7596 21.3721L40.7598 21.3714L40.7599 21.3708C40.7976 21.169 40.8353 20.9672 40.8742 20.7657C40.9091 20.5866 40.9399 20.4063 40.9711 20.2233L40.9711 20.2232L40.9712 20.2228L40.9714 20.2216C40.9883 20.1225 41.0053 20.0225 41.0233 19.9215H38.0434C38.03 19.9685 38.016 20.0132 38.0025 20.0564C37.9762 20.1409 37.9515 20.2199 37.9355 20.3008C37.8768 20.5976 37.8199 20.8947 37.763 21.192L37.7628 21.1928L37.7628 21.1929C37.6684 21.6859 37.574 22.179 37.4713 22.6705C37.3123 23.4304 36.8935 23.8224 36.1354 23.953C35.4852 24.064 35.0309 23.7044 35.0423 23.061C35.0465 22.7885 35.0934 22.516 35.1416 22.2463C35.2978 21.3824 35.4582 20.5185 35.6272 19.6574C35.6976 19.2985 35.777 18.942 35.8577 18.5801L35.8578 18.5796L35.8579 18.5787C35.8974 18.4015 35.9372 18.2229 35.9764 18.042ZM39.0143 14.8137L39.0143 14.8138C38.9989 14.863 38.9811 14.9197 38.9641 15.0242L37.7723 15.0244L36.557 15.0247C36.5919 14.8441 36.6263 14.6646 36.6606 14.486L36.6606 14.4859L36.6606 14.4859C36.7606 13.9655 36.8591 13.4521 36.9616 12.9387C37.1448 12.0242 37.3293 11.1098 37.5181 10.1953C37.68 9.40869 38.4906 8.98447 39.2089 9.14882C39.8577 9.29631 40.0068 9.73318 39.9159 10.2571C39.8212 10.8004 39.7133 11.3407 39.6054 11.8813L39.6053 11.8815L39.6052 11.8821L39.6051 11.8827C39.5627 12.0951 39.5203 12.3075 39.4787 12.5201C39.3339 13.2562 39.1891 13.9908 39.0386 14.7255C39.0317 14.7579 39.0234 14.7845 39.0143 14.8137ZM14.1387 27.1233C13.9904 27.1062 13.8415 27.0929 13.6928 27.0796C13.3611 27.0499 13.0305 27.0204 12.7094 26.949C11.4077 26.6627 10.6831 25.7627 10.5796 24.3865C10.5289 23.7025 10.6601 23.0401 10.7913 22.3776C10.8107 22.2796 10.8302 22.1815 10.849 22.0834C11.0052 21.2755 11.1637 20.468 11.3221 19.6608L11.3222 19.6606L11.3223 19.66C11.4442 19.0386 11.5662 18.4174 11.687 17.7961C11.8178 17.1244 11.948 16.4527 12.0782 15.781C12.2952 14.6613 12.5123 13.5415 12.7321 12.4218C12.8966 11.5899 13.0667 10.7579 13.2482 9.93022C13.3844 9.31086 13.6325 8.73545 13.9742 8.19971C14.5032 7.37202 15.2249 6.79802 16.1594 6.4848C17.3165 6.09646 18.5005 6.07662 19.6675 6.34165C20.9437 6.6322 21.6612 7.5265 21.7505 8.94804C21.7916 9.60536 21.6675 10.243 21.5435 10.8802C21.5263 10.9684 21.5092 11.0566 21.4925 11.1448C21.2735 12.3018 21.0447 13.4567 20.816 14.6115L20.816 14.6115C20.7189 15.1018 20.6217 15.5922 20.5254 16.0826C20.4276 16.5799 20.3305 17.0772 20.2334 17.5745L20.2327 17.5778C20.1358 18.0743 20.0388 18.5709 19.9412 19.0674L19.8504 19.5304C19.6327 20.6417 19.415 21.7529 19.1896 22.8629C18.9925 23.8338 18.6636 24.7451 18.0127 25.5232C17.3803 26.2786 16.5734 26.7406 15.6262 26.9461C15.2943 27.0183 14.9522 27.0482 14.6075 27.0783L14.6074 27.0783C14.4515 27.092 14.2951 27.1056 14.1387 27.1233ZM18.6097 10.2349C18.6097 9.50503 18.3459 9.21165 17.7546 9.14362C17.0371 9.06142 16.3692 9.54471 16.192 10.2789C16.148 10.4574 16.1126 10.6389 16.0771 10.8203C15.9363 11.5567 15.7962 12.2933 15.6562 13.0299C15.376 14.5033 15.0959 15.9768 14.8094 17.4489C14.6315 18.3651 14.4479 19.2798 14.2643 20.1946L14.2643 20.1947C14.0924 21.0515 13.9204 21.9084 13.753 22.7666C13.7228 22.9195 13.7241 23.0788 13.7253 23.2374V23.2375C13.7258 23.3023 13.7263 23.3671 13.7247 23.4313C13.719 23.6835 13.8566 23.8777 14.0622 23.967C14.3273 24.0818 14.6038 24.164 14.9201 24.113C15.5993 24.0038 15.9609 23.5886 16.1282 22.9678C16.1925 22.7289 16.2361 22.4843 16.2798 22.2396C16.2978 22.1388 16.3158 22.0379 16.3352 21.9374C16.4634 21.2795 16.5914 20.6216 16.7193 19.9637C16.9752 18.6488 17.231 17.3338 17.488 16.0189C17.6096 15.3988 17.7319 14.7788 17.8542 14.1587C18.0173 13.3317 18.1804 12.5047 18.3417 11.6777C18.4153 11.3049 18.4831 10.9306 18.5422 10.6048C18.5662 10.4724 18.5888 10.348 18.6097 10.2349ZM8.9108 21.3405C8.99633 20.8775 9.08236 20.4119 9.19009 19.9467C8.10535 19.8425 6.49818 19.8791 6.12236 20.003C6.1041 20.0917 6.0853 20.1805 6.06647 20.2694C6.03246 20.43 5.99835 20.591 5.9672 20.7532C5.92632 20.9662 5.88869 21.1799 5.85108 21.3935C5.77734 21.8121 5.70365 22.2306 5.60562 22.6435C5.43052 23.3866 5.17429 23.8089 4.24756 23.9708C3.53153 24.096 3.00909 23.5612 3.14432 22.856C3.23805 22.3672 3.33159 21.8784 3.42514 21.3895C3.68961 20.0072 3.95416 18.6246 4.22336 17.2428C4.58779 15.3736 4.96076 13.5044 5.33372 11.6352C5.34168 11.5951 5.34961 11.555 5.35755 11.5149C5.44906 11.0522 5.54085 10.588 5.66398 10.1334C5.8163 9.57042 6.20778 9.16224 6.95798 9.10312C7.56583 9.05526 8.24628 9.40855 8.02136 10.3037C7.86699 10.9165 7.75481 11.5406 7.64268 12.1643C7.61213 12.3343 7.58157 12.5043 7.55017 12.674C7.53979 12.7289 7.52573 12.7776 7.5122 12.8245C7.48863 12.9062 7.46665 12.9824 7.46846 13.0763C8.39661 13.172 10.1097 13.1976 10.4997 13.0808C10.506 13.0681 10.5132 13.0552 10.5207 13.0419C10.5389 13.0097 10.5582 12.9755 10.5652 12.9386C10.6092 12.721 10.6549 12.5037 10.7006 12.2864C10.8133 11.7501 10.9261 11.2138 11.0122 10.6739C11.023 10.6069 11.034 10.54 11.045 10.4732C11.1431 9.8767 11.2409 9.28259 11.1603 8.66116C10.9539 7.06362 10.0684 6.57662 9.02781 6.29512C8.42118 6.13154 7.80311 6.1577 7.19042 6.18365C7.15468 6.18516 7.11895 6.18667 7.08325 6.18815C5.47465 6.25149 4.18066 6.8905 3.31942 8.28535C2.96496 8.85821 2.73577 9.47752 2.6048 10.1278C2.36586 11.3091 2.13553 12.4919 1.90521 13.6747C1.76092 14.4157 1.61664 15.1567 1.47024 15.8972C1.32341 16.6375 1.17339 17.3772 1.02338 18.1168C0.703605 19.6935 0.383856 21.27 0.0951047 22.8518C-0.0187784 23.4753 -0.0358608 24.1509 0.0737516 24.773C0.267353 25.8751 1.0261 26.5156 2.1151 26.7928C2.67898 26.9362 3.25164 26.9233 3.82247 26.9104C3.90158 26.9086 3.98065 26.9068 4.05966 26.9054C5.8704 26.8731 7.54448 25.8822 8.24059 24.0439C8.57293 23.1695 8.7409 22.2603 8.9108 21.3405Z" fill="#1C1C1C"/>
<path d="M62.0926 26.8102C61.6567 26.9296 51.4533 26.9577 50.6953 26.8495C51.5053 22.7263 52.3153 18.6058 53.1449 14.3828C56.1641 18.5763 59.1213 22.6855 62.0926 26.8102Z" fill="#FF5B53"/>
</svg>
