<svg width="109" height="60" viewBox="0 0 109 60" fill="none" xmlns="http://www.w3.org/2000/svg">
<path fill-rule="evenodd" clip-rule="evenodd" d="M40.8579 59.3836H36.5564C36.5403 59.3659 36.5283 59.3536 36.5191 59.3441L36.519 59.3441C36.5054 59.33 36.4979 59.3223 36.4919 59.313L36.4916 59.3126C36.4816 59.2971 36.469 59.2776 36.4718 59.2623L39.3751 44.8841C42.395 29.9279 45.4155 14.9688 48.4384 0H52.77C52.9011 0.24555 52.8271 0.483426 52.7556 0.71306C52.7302 0.794735 52.7051 0.875368 52.6897 0.954933C52.2412 3.24901 51.7738 5.53918 51.3066 7.82869L51.3066 7.82876L51.3066 7.82881L51.3066 7.82904C51.2122 8.29153 51.1178 8.75398 51.0236 9.21644C50.8017 10.3069 50.5781 11.3969 50.3546 12.4867L50.3545 12.4871L50.3544 12.4874C50.061 13.9179 49.7676 15.3484 49.4779 16.7797C49.2612 17.8494 49.0488 18.9202 48.8364 19.9912C48.6273 21.0456 48.4181 22.1001 48.2047 23.1539C47.9877 24.2263 47.7667 25.2979 47.5458 26.3693L47.5457 26.3695C47.3287 27.4219 47.1117 28.4741 46.8985 29.5267C46.6998 30.5057 46.5055 31.4852 46.3112 32.4646C46.155 33.2519 45.9988 34.0391 45.8404 34.8261C45.6711 35.6638 45.4991 36.5011 45.327 37.3386L45.327 37.3388L45.3268 37.3397L45.3267 37.3398C45.1738 38.0842 45.0208 38.8288 44.8697 39.574C44.6745 40.5363 44.4815 41.4995 44.2886 42.4626L44.2886 42.4626L44.2885 42.4629L44.2885 42.463C44.1313 43.2474 43.9741 44.0318 43.8158 44.8155C43.694 45.4193 43.571 46.023 43.4481 46.6267C43.3251 47.2304 43.2022 47.8341 43.0803 48.4378C42.9204 49.2308 42.7608 50.0237 42.6012 50.8167C42.4418 51.6092 42.2823 52.4017 42.1225 53.1941C41.7924 54.8283 41.4598 56.4613 41.1271 58.0954L41.1271 58.0954L41.1269 58.0964L41.0371 58.5372C41.0084 58.6754 40.979 58.8133 40.9484 58.9564L40.9483 58.9569C40.9193 59.0927 40.8893 59.2333 40.8579 59.3836ZM83.7186 59.3322C83.7568 59.126 83.7933 58.9244 83.8293 58.7261C83.901 58.3313 83.9703 57.9492 84.0453 57.5677C84.3477 56.0213 84.6539 54.4761 84.9604 52.9298L84.9611 52.926L85.017 52.6441C85.147 51.9894 85.2775 51.3346 85.408 50.6798L85.4099 50.6701L85.41 50.67L85.41 50.6698L85.41 50.6697L85.4101 50.6695L85.4101 50.6694C85.6812 49.3089 85.9524 47.9483 86.2197 46.587C86.3892 45.723 86.5551 44.8583 86.7209 43.9935C86.9014 43.0529 87.0818 42.1122 87.2669 41.1722C87.3522 40.7383 87.4367 40.3042 87.5212 39.8701L87.5214 39.8688C87.837 38.2471 88.1526 36.6252 88.5082 35.0121C88.835 33.5285 89.4799 32.1903 90.6327 31.1288C91.5957 30.2424 92.7457 29.7709 94.0155 29.5309C94.9044 29.363 95.8032 29.3855 96.6964 29.4321C97.7336 29.4858 98.7138 29.7695 99.5998 30.4019C100.268 30.025 100.985 29.73 101.76 29.5944C103.415 29.3037 105.064 29.243 106.659 29.8739C108.105 30.4456 108.802 31.5622 108.964 33.0669C109.087 34.2111 108.873 35.3138 108.658 36.4187C108.634 36.538 108.611 36.6572 108.588 36.7766C108.352 38.0214 108.105 39.2632 107.857 40.5054L107.717 41.2117C107.56 42.0001 107.403 42.7885 107.245 43.577L107.244 43.5811L107.243 43.5851L107.243 43.5862L107.243 43.5874L107.243 43.5886L107.242 43.5897C107.001 44.7974 106.759 46.0053 106.522 47.2138C106.341 48.1389 106.166 49.0653 105.991 49.9916L105.991 49.9925C105.852 50.728 105.713 51.4635 105.571 52.1981C105.426 52.9461 105.275 53.6936 105.125 54.4409C105.043 54.8471 104.961 55.2532 104.88 55.6593C104.773 56.1979 104.667 56.7366 104.56 57.2753L104.559 57.281C104.453 57.8217 104.346 58.3624 104.238 58.9031C104.22 58.9963 104.192 59.0871 104.16 59.1944C104.143 59.2512 104.125 59.3127 104.106 59.3816C103.67 59.3807 103.236 59.3816 102.801 59.3824H102.8C101.795 59.3843 100.785 59.3862 99.7411 59.3675C99.7863 59.1273 99.8288 58.8971 99.8702 58.6734L99.8706 58.6711L99.8707 58.6708L99.8708 58.6701L99.8713 58.6673L99.8715 58.6662C99.9486 58.2495 100.021 57.8554 100.099 57.4618C100.42 55.8202 100.746 54.1799 101.071 52.5397C101.185 51.9645 101.3 51.3895 101.415 50.8146L101.416 50.8115C101.585 49.9638 101.755 49.1163 101.921 48.2682C102.07 47.5081 102.217 46.7474 102.364 45.9867L102.364 45.9864C102.53 45.1225 102.697 44.2586 102.867 43.3955C103.079 42.3144 103.295 41.2346 103.51 40.1548L103.51 40.1542L103.511 40.1505C103.619 39.6103 103.727 39.0701 103.834 38.5297C103.882 38.2913 103.93 38.0529 103.977 37.8145L103.978 37.8137C104.129 37.0603 104.28 36.307 104.415 35.5513C104.457 35.3161 104.449 35.0702 104.44 34.8276V34.8275C104.439 34.792 104.438 34.7566 104.437 34.7213C104.421 34.2597 104.151 33.9506 103.736 33.8108C102.569 33.417 101.262 33.8405 100.885 35.2549C100.781 35.6467 100.707 36.0456 100.632 36.4445L100.632 36.4446L100.632 36.4448L100.632 36.4449L100.632 36.445L100.632 36.4451L100.632 36.4452L100.632 36.4454L100.632 36.4455L100.632 36.4457C100.602 36.607 100.572 36.7682 100.54 36.929C100.175 38.7669 99.8096 40.6062 99.4486 42.4455C99.2837 43.2898 99.1209 44.1347 98.9582 44.9796L98.9581 44.9799L98.9581 44.9803L98.958 44.9806L98.9579 44.9809L98.9579 44.9812L98.9574 44.9835C98.7727 45.9426 98.5879 46.9019 98.3999 47.8603C98.211 48.8208 98.0186 49.7805 97.8261 50.7403L97.826 50.7409L97.8257 50.7421L97.8255 50.7433C97.6533 51.602 97.481 52.4608 97.3113 53.3203C97.111 54.3352 96.9144 55.3507 96.7178 56.366L96.7175 56.3675L96.7166 56.372L96.7166 56.3724L96.7165 56.3727L96.7164 56.3731L96.7163 56.3734L96.7163 56.3738C96.5675 57.1422 96.4187 57.9105 96.2684 58.6786C96.2414 58.8184 96.2066 58.957 96.1698 59.1034C96.1501 59.1817 96.1299 59.2622 96.11 59.3463H91.7441C91.7587 59.2454 91.7717 59.1483 91.7843 59.054L91.7844 59.0539L91.7844 59.0536C91.8123 58.8446 91.8385 58.6491 91.8768 58.4556C92.0203 57.7383 92.166 57.0219 92.3117 56.3056L92.312 56.3045L92.3122 56.3034L92.3124 56.3024L92.3126 56.3013L92.3128 56.3003L92.3129 56.3L92.3129 56.2997L92.313 56.2995L92.3131 56.2992L92.3131 56.2989C92.493 55.4146 92.6729 54.5304 92.8484 53.6449C93.2159 51.7933 93.5787 49.9402 93.9414 48.0872L93.9417 48.0855L93.9419 48.0847L93.942 48.084C94.0663 47.449 94.1906 46.814 94.3151 46.1791C94.5755 44.8536 94.8363 43.5278 95.097 42.202C95.3577 40.8761 95.6185 39.5503 95.8789 38.2248C95.9147 38.0431 95.9507 37.8613 95.9866 37.6796L95.9869 37.6784L95.9869 37.6781C96.14 36.905 96.293 36.1322 96.4339 35.3565C96.4724 35.142 96.4767 34.909 96.4353 34.6959C96.3069 34.0183 95.8646 33.6753 95.0485 33.6725C93.8115 33.6669 93.0781 34.2498 92.8028 35.485C92.6019 36.3929 92.427 37.3062 92.2521 38.2193C92.1711 38.642 92.0902 39.0647 92.0066 39.4868C91.8956 40.0482 91.784 40.6094 91.6725 41.1706L91.6719 41.1732L91.6714 41.1758L91.6709 41.1785L91.6704 41.1811L91.6695 41.1855L91.6693 41.1866L91.6691 41.1877L91.6688 41.1888L91.6686 41.1899C91.4519 42.2802 91.2352 43.3704 91.0222 44.4612C90.8624 45.282 90.7065 46.1038 90.5507 46.9256C90.3948 47.7476 90.2389 48.5695 90.0791 49.3904C89.9586 50.0067 89.8329 50.6222 89.7071 51.2377L89.7069 51.2383C89.5899 51.8111 89.4728 52.384 89.36 52.9575C89.1597 53.9779 88.9643 54.9997 88.7689 56.0214L88.7679 56.0266L88.7669 56.0318C88.6832 56.4695 88.5994 56.9071 88.5154 57.3447C88.4713 57.573 88.4264 57.8012 88.3815 58.0293L88.3814 58.0298L88.3813 58.0303L88.3812 58.0307C88.3127 58.379 88.2441 58.7273 88.1786 59.0767C88.143 59.2687 88.0431 59.3731 87.8419 59.376C87.7677 59.3774 87.6921 59.3788 87.6179 59.3788L86.762 59.379C85.9064 59.3792 85.0511 59.3795 84.1951 59.3774C84.0918 59.3815 83.9877 59.3675 83.8639 59.3508H83.8639C83.8331 59.3467 83.8011 59.3424 83.7676 59.3382L83.7186 59.3322ZM83.2746 30.0024H83.2754C84.315 29.9996 85.3482 29.9969 86.4125 30.017C86.3816 30.1876 86.3526 30.3514 86.3245 30.5106L86.3244 30.5107L86.3244 30.5109L86.3243 30.5117C86.265 30.847 86.2093 31.1615 86.1471 31.4754C85.9849 32.291 85.8204 33.1061 85.656 33.9211L85.6559 33.9214L85.6558 33.9218L85.6558 33.9221L85.6557 33.9225L85.6556 33.9228C85.5293 34.5491 85.4029 35.1752 85.2776 35.8013L85.0101 37.1385C84.6987 38.6943 84.3875 40.2497 84.0797 41.8059C83.9193 42.6161 83.7618 43.427 83.6043 44.238L83.6041 44.2386L83.6034 44.2423C83.4456 45.0549 83.2877 45.8676 83.127 46.6796C82.9991 47.3268 82.8676 47.9728 82.7361 48.619C82.6183 49.1976 82.5005 49.7763 82.3853 50.356C82.2964 50.8033 82.2103 51.2511 82.1243 51.6989C81.9743 52.4794 81.8243 53.2598 81.6593 54.0367C81.3465 55.5022 80.7784 56.8533 79.7139 57.963C78.7942 58.9217 77.6508 59.4906 76.3552 59.7617C75.5489 59.9311 74.7268 60.0399 73.899 59.9862C72.8861 59.9198 71.8875 59.7914 70.9722 59.3057C69.8775 58.7254 69.3323 57.7964 69.0999 56.6246C68.8947 55.5827 69.0612 54.5675 69.2506 53.5538C69.4782 52.3323 69.7251 51.1145 69.9721 49.8967L69.9723 49.8957L69.9725 49.8947L69.9727 49.8937L69.9729 49.8927L69.9731 49.8917C70.0621 49.4531 70.151 49.0145 70.2391 48.5757C70.3651 47.9478 70.4927 47.3201 70.6202 46.6924L70.6203 46.6924L70.6203 46.6923L70.6203 46.6923L70.6203 46.6922L70.6203 46.6922C70.8223 45.6982 71.0243 44.7041 71.2204 43.709C71.3747 42.9261 71.5246 42.1421 71.6746 41.3581C71.8356 40.5164 71.9966 39.6746 72.163 38.8339C72.2842 38.2206 72.4115 37.6087 72.5388 36.9967L72.5389 36.9964L72.539 36.9961C72.6663 36.3842 72.7936 35.7722 72.9148 35.1589C73.1378 34.027 73.3548 32.8938 73.5717 31.7611C73.673 31.2323 73.7742 30.7035 73.876 30.1751C73.8803 30.1549 73.8918 30.1361 73.9104 30.1057C73.9229 30.0852 73.9387 30.0593 73.9578 30.024C74.8282 29.9952 75.7106 29.9988 76.6033 30.0024C77.1557 30.0046 77.7121 30.0068 78.272 30.0014C78.3392 30.3068 78.2692 30.5888 78.2012 30.8631L78.2012 30.8631C78.1777 30.9578 78.1544 31.0515 78.1371 31.145C77.9792 31.9992 77.803 32.8501 77.6268 33.7011C77.5196 34.2188 77.4124 34.7364 77.3093 35.2549C77.1391 36.111 76.9725 36.9678 76.8059 37.8246L76.8057 37.8255L76.8056 37.8263L76.8054 37.8272L76.8052 37.8281L76.805 37.8289C76.6559 38.5957 76.5069 39.3625 76.3552 40.1286C76.234 40.7421 76.1091 41.3545 75.9843 41.967L75.984 41.9683L75.984 41.9687L75.9839 41.969L75.9838 41.9694L75.9837 41.9698C75.8591 42.5812 75.7345 43.1926 75.6135 43.805C75.4411 44.6758 75.2717 45.5473 75.1022 46.4188L75.1021 46.4196L75.1019 46.4203L75.1018 46.421L75.1016 46.4218L75.1015 46.4225C74.9552 47.1748 74.8089 47.9271 74.6608 48.6787C74.5731 49.1241 74.4826 49.5689 74.3921 50.0136L74.3919 50.0143C74.2369 50.7763 74.0819 51.5382 73.9406 52.3029C73.9068 52.4859 73.8676 52.668 73.8283 52.8501C73.7123 53.3877 73.5964 53.9253 73.6221 54.4842C73.6551 55.1859 74.0152 55.5897 74.7225 55.6349C75.0382 55.6547 75.3696 55.6603 75.6737 55.5911C76.404 55.4259 76.9205 54.9855 77.1199 54.264C77.2964 53.6273 77.4327 52.9778 77.5647 52.3298C77.9348 50.5099 78.2992 48.6886 78.6579 46.8673C78.8387 45.9468 79.0159 45.0256 79.1931 44.1044C79.3702 43.1831 79.5474 42.2619 79.7282 41.3414C79.8838 40.5486 80.0443 39.7564 80.2048 38.964C80.3181 38.4045 80.4315 37.8449 80.5431 37.2851C80.7118 36.4391 80.8794 35.5927 81.0469 34.7461L81.0479 34.7415L81.0488 34.7369C81.2055 33.9449 81.3623 33.1528 81.5202 32.3606C81.6191 31.871 81.7187 31.3826 81.8202 30.8841L81.8204 30.883L81.9698 30.1493L81.9993 30.0043C82.4261 30.0047 82.8494 30.0035 83.2715 30.0024H83.2723H83.273H83.2738H83.2746ZM36.9604 30.0171L36.9601 30.0171C36.2231 30.0086 35.4852 30 34.7446 30C34.7092 30.0773 34.6965 30.1623 34.6853 30.2373C34.682 30.2596 34.6788 30.281 34.6752 30.3011C34.2935 32.2129 33.9132 34.1234 33.5387 36.0367C33.3846 36.8234 33.2332 37.6101 33.0818 38.3966L33.0818 38.3967C32.8821 39.4342 32.6825 40.4715 32.4768 41.5083C32.272 42.5417 32.0625 43.5743 31.853 44.6069L31.853 44.6071L31.8529 44.6073L31.8529 44.6075L31.8529 44.6077C31.6602 45.5573 31.4676 46.5069 31.2785 47.4572C31.1231 48.2383 30.9712 49.0202 30.8193 49.802L30.8193 49.8022L30.8192 49.8024L30.8192 49.8027L30.8192 49.8029C30.5573 51.1507 30.2954 52.4985 30.0157 53.8424C29.8421 54.6769 29.4173 55.3787 28.4889 55.5721C28.0942 55.654 27.6623 55.6611 27.2634 55.6004C26.7052 55.5157 26.3636 55.0681 26.3407 54.5018C26.3306 54.283 26.3521 54.0584 26.3938 53.8438C26.5783 52.8957 26.7664 51.9481 26.9544 51.0008L26.9546 50.9998C27.0852 50.3418 27.2158 49.6839 27.3452 49.026C27.4902 48.2876 27.6336 47.549 27.7769 46.8104L27.7771 46.8095L27.7772 46.8087L27.7774 46.8078L27.7776 46.8069C27.9843 45.7416 28.191 44.6765 28.4028 43.6123C28.6522 42.3619 28.9052 41.1128 29.1583 39.8638L29.1585 39.8625C29.3801 38.7691 29.6016 37.6757 29.8206 36.5818C30.2353 34.5075 30.6414 32.4318 31.0475 30.3561C31.0676 30.2587 31.0697 30.1619 31.0697 30C30.5651 30.0029 30.0611 30.0015 29.5594 30.0002H29.5594H29.5594H29.5594H29.5594C28.5929 29.9976 27.6351 29.995 26.698 30.0229C26.6769 30.0964 26.6565 30.1628 26.6374 30.2247C26.5994 30.3484 26.5669 30.4541 26.5459 30.5623C26.409 31.2679 26.2737 31.9737 26.1384 32.6794L26.1379 32.6819L26.1378 32.6825C25.9199 33.8187 25.7021 34.9547 25.4782 36.089C25.2759 37.1137 25.0678 38.1372 24.8597 39.1608L24.8597 39.1609L24.8597 39.1609L24.8597 39.161L24.8596 39.1611L24.8594 39.1624L24.8594 39.1625L24.8593 39.1627L24.8593 39.1629C24.6646 40.1204 24.47 41.0779 24.28 42.0364C24.0062 43.4205 23.7386 44.8059 23.471 46.1912C23.3515 46.81 23.232 47.4288 23.1119 48.0474C22.9611 48.8235 22.8096 49.5994 22.658 50.3752L22.657 50.3802C22.3964 51.7144 22.1358 53.0485 21.8792 54.3832C21.7171 55.2262 21.7085 56.0776 21.9137 56.9107C22.2136 58.1322 22.9225 59.033 24.1465 59.5046C24.7277 59.7292 25.3276 59.828 25.9417 59.9184C27.1744 60.0991 28.3769 59.9664 29.558 59.6515C30.8337 59.3112 31.9272 58.6631 32.7724 57.6252C33.6894 56.4984 34.1758 55.1994 34.46 53.8099C34.6099 53.0782 34.7521 52.3455 34.8943 51.613L34.8944 51.6129L34.8944 51.6128L34.8944 51.6127L34.8944 51.6126L34.8944 51.6125C34.9904 51.1182 35.0864 50.624 35.1846 50.1302C35.3177 49.4617 35.4533 48.7933 35.5889 48.1248C35.7019 47.5676 35.815 47.0104 35.9265 46.4533C36.1476 45.347 36.3673 44.2407 36.5871 43.1345C36.6969 42.5816 36.8067 42.0287 36.9167 41.4759C37.011 41.004 37.1056 40.5324 37.2002 40.0608L37.2004 40.0601L37.2012 40.0559C37.3741 39.1941 37.547 38.3327 37.7174 37.4713C38.0532 35.7755 38.3876 34.0797 38.7191 32.3838C38.8205 31.866 38.918 31.3475 39.0177 30.8171L39.0178 30.8167L39.0178 30.8166L39.0178 30.8163C39.0662 30.5588 39.1152 30.2985 39.1654 30.0342C38.4304 30.0342 37.6962 30.0257 36.9612 30.0171H36.961H36.9608H36.9606H36.9604ZM55.966 39.6741H60.3256L60.3458 39.584L60.3702 39.4756C60.4082 39.3067 60.4433 39.1512 60.4753 38.9949C60.5357 38.6966 60.5977 38.3985 60.6597 38.1004L60.6599 38.0996L60.6599 38.0995L60.6599 38.0995C60.816 37.3493 60.972 36.599 61.1026 35.8443C61.2694 34.8829 61.4276 33.9272 61.2794 32.929C61.0142 31.1382 59.9706 30.0861 58.3568 29.6664C56.8157 29.2651 55.2504 29.3077 53.7107 29.6877C52.5132 29.9826 51.4497 30.5554 50.6199 31.4898C49.843 32.3647 49.2955 33.3771 49.009 34.5043C48.7139 35.6656 48.4715 36.8425 48.2377 38.018C48.0034 39.1963 47.7792 40.3761 47.555 41.5557L47.555 41.5559L47.5549 41.5562C47.3932 42.4076 47.2314 43.2588 47.0659 44.1093C46.871 45.1088 46.6703 46.1071 46.4695 47.1054C46.3428 47.7358 46.216 48.3663 46.0907 48.9969C46.0247 49.328 45.9584 49.6589 45.892 49.9899L45.892 49.99L45.8918 49.991L45.8918 49.9911C45.6644 51.1256 45.4369 52.2602 45.2239 53.3982C45.0201 54.49 44.849 55.5846 45.0742 56.7019C45.3166 57.9043 45.9296 58.8061 47.0516 59.3676C47.9412 59.8128 48.8964 59.9206 49.8629 59.9858C50.667 60.0397 51.4653 59.9348 52.2466 59.7632C53.4683 59.4938 54.5704 58.9791 55.4714 58.0858C56.5078 57.0578 57.1065 55.7916 57.433 54.402C57.6852 53.3346 57.8964 52.2578 58.1076 51.1808C58.1806 50.8086 58.2536 50.4364 58.3283 50.0646C58.3421 49.9961 58.3314 49.9229 58.3211 49.8523C58.3165 49.8207 58.312 49.7896 58.3098 49.7598C57.5613 49.6648 54.3836 49.6889 53.973 49.7924L53.9449 49.9229L53.9448 49.9231C53.905 50.1076 53.8642 50.2967 53.8262 50.4857C53.7556 50.8422 53.6893 51.1997 53.6229 51.5572C53.4738 52.3616 53.3246 53.166 53.1262 53.9582C52.7598 55.4159 51.7234 55.776 50.4417 55.5888C50.0112 55.5265 49.7389 55.2443 49.5735 54.8161C49.424 54.4263 49.5026 54.06 49.5801 53.6988L49.5801 53.6987C49.5979 53.6158 49.6157 53.5332 49.6306 53.4506C49.7918 52.5591 49.9728 51.6715 50.1538 50.7839C50.2641 50.2428 50.3744 49.7018 50.4802 49.16C50.6763 48.154 50.868 47.1476 51.0597 46.1412C51.2515 45.1349 51.4432 44.1285 51.6393 43.1225C52.0755 40.8765 52.5189 38.6305 52.9694 36.3873C53.0677 35.8996 53.1718 35.4076 53.3386 34.9411C53.7563 33.7656 55.1805 33.465 56.1414 33.8876C56.4864 34.0393 56.7216 34.3073 56.7402 34.6944C56.7573 35.0446 56.7715 35.4061 56.7088 35.7479C56.5836 36.4376 56.4418 37.1249 56.2999 37.8126C56.2254 38.1738 56.1508 38.5352 56.0787 38.8971C56.0453 39.0649 56.0234 39.2354 56 39.4178C55.9894 39.5005 55.9785 39.5856 55.966 39.6741ZM13.0004 30.0518C14.3897 29.9592 23.7664 29.9999 24.2452 30.1023C24.1865 30.4033 24.1274 30.7045 24.0684 31.0059C23.9952 31.3792 23.922 31.7527 23.8493 32.1262C23.7163 32.8069 23.582 33.4876 23.4433 34.1866C23.1332 34.2722 22.8224 34.262 22.5137 34.252C22.3771 34.2475 22.2409 34.2431 22.1054 34.2469C21.7933 34.2557 21.4804 34.2536 21.1674 34.2516H21.1673L21.1657 34.2515C21.0292 34.2506 20.8926 34.2497 20.7561 34.2497H19.351H18.0017H16.5981C16.1407 36.5057 15.7007 38.7464 15.2567 41.0079L14.9686 42.4744C15.014 42.4786 15.0585 42.4836 15.1023 42.4885L15.1024 42.4885C15.2048 42.4999 15.3036 42.5109 15.4017 42.5109C16.3461 42.5126 17.2905 42.5128 18.2349 42.5129C18.8643 42.513 19.4936 42.5132 20.1229 42.5137C20.2561 42.5137 20.3887 42.5192 20.5272 42.525H20.5273L20.5282 42.525C20.599 42.528 20.6713 42.531 20.7461 42.5334C20.7495 42.5861 20.7553 42.6337 20.7606 42.6774C20.7708 42.7616 20.7793 42.8318 20.7661 42.8983C20.568 43.8969 20.3656 44.8939 20.1583 45.9152L19.9757 46.8155H14.0967C13.5919 49.3664 13.0914 51.898 12.5931 54.418L12.5905 54.4313L11.6353 59.262C11.2122 59.3996 7.93038 59.429 7.28144 59.3055C7.27877 59.2811 7.27389 59.2554 7.2689 59.2292C7.25786 59.1711 7.24631 59.1104 7.25714 59.0543C9.16821 49.3924 11.0821 39.7319 13.0004 30.0518ZM71.6004 30.9839C71.7015 30.4676 71.8037 29.9462 71.9068 29.4189C70.9921 29.3214 70.1788 29.4358 69.3798 29.6378C68.2378 29.9302 67.2101 30.4585 66.3897 31.3061C65.4121 32.3175 64.816 33.5492 64.5059 34.9024C64.3229 35.7033 64.1688 36.5113 64.0146 37.3195C63.9412 37.7043 63.8678 38.0892 63.7912 38.4734C63.6174 39.3464 63.4428 40.2188 63.2682 41.0912C63.0422 42.2204 62.8162 43.3496 62.592 44.4796C62.4291 45.2978 62.2684 46.1164 62.1078 46.935C61.978 47.5961 61.8482 48.2571 61.7173 48.9179C61.6175 49.4251 61.5159 49.932 61.4142 50.4389C61.2842 51.0868 61.1543 51.7346 61.0284 52.3829C60.8869 53.1146 60.7486 53.8466 60.6103 54.5786C60.472 55.3107 60.3337 56.0428 60.1922 56.7745C60.0808 57.3498 59.9631 57.9238 59.8416 58.5163C59.7886 58.7749 59.7348 59.0371 59.6806 59.3044C60.0404 59.3968 60.3868 59.3872 60.7263 59.3778C60.8695 59.3738 61.0115 59.3699 61.1527 59.3736C61.4778 59.3825 61.8036 59.3804 62.1297 59.3783C62.2723 59.3774 62.415 59.3765 62.5577 59.3765H64.0128C64.0344 59.3305 64.0563 59.2893 64.0767 59.2509C64.117 59.175 64.1515 59.1102 64.1657 59.0417C64.3272 58.2492 64.4816 57.4554 64.6345 56.6601C64.7434 56.0963 64.8516 55.5322 64.9599 54.968C65.167 53.8881 65.3743 52.8079 65.5864 51.7289C65.7618 50.8366 65.9403 49.9446 66.1188 49.0525C66.3012 48.1411 66.4836 47.2296 66.6627 46.3173C66.8322 45.4537 66.9984 44.5892 67.1646 43.7249C67.311 42.9634 67.4574 42.202 67.606 41.4412C67.8919 39.9778 68.1778 38.5158 68.4736 37.0552C68.4877 36.9856 68.5017 36.916 68.5158 36.8464C68.6325 36.267 68.7495 35.6862 68.9167 35.12C69.144 34.3572 69.6399 33.8402 70.4818 33.7201C70.6008 33.7027 70.7173 33.6739 70.8531 33.6403C70.9261 33.6223 71.0046 33.6029 71.0921 33.5831C71.2587 32.7279 71.4281 31.8632 71.6004 30.9839Z" fill="white"/>
<path fill-rule="evenodd" clip-rule="evenodd" d="M34.3712 0H31.3603C31.2847 0.362444 31.2081 0.720557 31.1321 1.07596C30.9708 1.83056 30.812 2.57294 30.67 3.31857C30.4639 4.42522 30.2462 5.52907 29.9983 6.66107C29.9353 6.63325 29.8796 6.60946 29.8288 6.58779C29.7357 6.54804 29.6593 6.51539 29.5847 6.47803C28.7343 6.0472 27.822 6.07817 26.9341 6.24994C25.6182 6.50338 24.8327 7.40588 24.298 8.54492C23.9214 9.34769 23.7553 10.2052 23.5895 11.0615L23.5895 11.0617L23.5895 11.0619C23.5599 11.2147 23.5303 11.3675 23.4995 11.5199C23.1709 13.1514 22.8545 14.7851 22.538 16.4189L22.538 16.419C22.4325 16.9636 22.327 17.5083 22.2211 18.0529C22.1154 18.5968 22.0045 19.1399 21.8935 19.683L21.8935 19.6834C21.6336 20.9553 21.3738 22.2272 21.1819 23.5087C20.9499 25.0617 21.6028 26.4162 23.4145 26.809C24.0732 26.9512 24.7318 26.9245 25.3862 26.8921C26.7842 26.8231 27.9834 26.3261 28.8482 25.1941C29.2705 24.6407 29.5746 24.0297 29.7475 23.3665C29.9209 22.7013 30.0555 22.0257 30.19 21.3509L30.1901 21.3508L30.2059 21.2715C30.3673 20.462 30.5251 19.6521 30.6829 18.8422C30.8407 18.0322 30.9986 17.2222 31.16 16.4126C31.3464 15.4796 31.536 14.5469 31.7256 13.6141L31.7259 13.6126C31.938 12.5695 32.1501 11.5263 32.3577 10.4823C32.5455 9.53964 32.7282 8.59587 32.9109 7.65215L32.9109 7.65178L32.911 7.65137L32.9115 7.64877L32.9115 7.64867C33.0806 6.77518 33.2497 5.90172 33.4228 5.02924C33.6014 4.13193 33.7844 3.23505 33.9675 2.33838C34.111 1.63534 34.2544 0.932418 34.3957 0.229498C34.4044 0.186041 34.3956 0.139415 34.3854 0.0853657L34.3854 0.085317C34.3803 0.0588278 34.375 0.0305556 34.3712 0ZM29.2849 10.1641C29.2849 10.1757 29.2826 10.1729 29.2849 10.1605C29.2391 10.4059 29.2016 10.6529 29.1641 10.9002L29.1641 10.9004C29.1189 11.1978 29.0737 11.4957 29.0139 11.7917C28.6853 13.4446 28.3552 15.0962 28.0209 16.7477C27.7965 17.8522 27.5705 18.9561 27.3446 20.0598L27.3445 20.0601L27.3444 20.0605C27.2032 20.7505 27.062 21.4404 26.9212 22.1303C26.9025 22.2221 26.8865 22.3147 26.8704 22.4073C26.8395 22.5861 26.8086 22.7651 26.7583 22.9385C26.4931 23.8607 25.5 24.1296 24.8904 23.8931C24.4854 23.7368 24.3052 23.5439 24.3239 23.1103C24.3359 22.8079 24.3968 22.5067 24.4571 22.2089L24.4571 22.2088L24.4724 22.1332C24.623 21.3808 24.7762 20.6288 24.9294 19.8768L24.9295 19.8765L24.9299 19.8746L24.93 19.874C25.102 19.0296 25.274 18.1852 25.4424 17.3405C25.6499 16.3015 25.8541 15.2616 26.0582 14.2219C26.2071 13.4637 26.3559 12.7056 26.5061 11.948C26.6012 11.4622 26.6992 10.9779 26.8073 10.4949C26.844 10.3343 26.8971 10.1775 26.9501 10.0213L26.9504 10.0206C26.9618 9.98671 26.9733 9.9529 26.9846 9.91909C27.1964 9.28973 28.0627 8.91803 28.828 9.20385C29.086 9.301 29.2705 9.48403 29.2834 9.77829C29.2875 9.868 29.2866 9.95839 29.2857 10.0485V10.0486V10.0486C29.2853 10.0872 29.2849 10.1257 29.2849 10.1641ZM35.9764 18.042H41.3824C41.4015 17.9771 41.4201 17.9175 41.4377 17.8614L41.4378 17.8612L41.4378 17.8611C41.4764 17.7379 41.5096 17.6318 41.5301 17.5237C41.5802 17.2663 41.6256 17.0076 41.671 16.7488L41.671 16.7486C41.7079 16.5386 41.7448 16.3285 41.7842 16.119C41.8865 15.58 41.9885 15.0411 42.0906 14.5021L42.0908 14.5011L42.0909 14.5006L42.091 14.5001C42.4037 12.8485 42.7164 11.197 43.0363 9.54635C43.1343 9.04066 43.0335 8.56025 42.9029 8.08546C42.6232 7.07126 41.8793 6.53747 40.8884 6.32115C39.9543 6.11606 39.0073 6.12309 38.0704 6.31272C36.5812 6.61333 35.532 7.46177 34.9131 8.83557C34.6093 9.50983 34.4559 10.2234 34.3182 10.9454C34.0374 12.4112 33.7435 13.874 33.4496 15.3371L33.4495 15.3377L33.4493 15.3382C33.3436 15.8643 33.2379 16.3905 33.1328 16.9168C33.0382 17.3925 32.9415 17.8679 32.8448 18.3433C32.65 19.3013 32.4551 20.2595 32.2768 21.2208C32.2477 21.3776 32.2173 21.534 32.187 21.6904L32.1869 21.6909L32.1868 21.6914C32.0294 22.5035 31.8721 23.3148 31.8864 24.1567C31.9062 25.3366 32.5422 26.4407 34.0002 26.761C35.0266 26.9872 36.0701 26.9773 37.0894 26.7203C37.8702 26.5222 38.5701 26.15 39.1365 25.5516C39.8052 24.845 40.1956 24.0036 40.4128 23.0807C40.546 22.5152 40.6528 21.9436 40.7596 21.3721L40.7598 21.3714L40.7599 21.3708C40.7976 21.169 40.8353 20.9672 40.8742 20.7657C40.9091 20.5864 40.9399 20.4059 40.9712 20.2226L40.9714 20.2214C40.9883 20.1223 41.0053 20.0224 41.0233 19.9215H38.0434C38.0299 19.9686 38.016 20.0132 38.0025 20.0564L38.0025 20.0564L38.0025 20.0565C37.9761 20.1409 37.9515 20.2199 37.9355 20.3008C37.8768 20.5975 37.8199 20.8947 37.763 21.1919L37.763 21.1922L37.7629 21.1924C37.6685 21.6856 37.574 22.1789 37.4713 22.6705C37.3123 23.4304 36.8935 23.8224 36.1354 23.953C35.4852 24.064 35.0309 23.7044 35.0423 23.061C35.0465 22.7885 35.0934 22.516 35.1416 22.2463C35.2978 21.3824 35.4582 20.5185 35.6272 19.6574C35.6976 19.2985 35.777 18.9421 35.8576 18.5802L35.8577 18.5797L35.8579 18.5789C35.8974 18.4016 35.9372 18.2229 35.9764 18.042ZM39.0143 14.8137C38.9989 14.863 38.9812 14.9197 38.9641 15.0242L37.7723 15.0244L36.557 15.0247C36.5916 14.8454 36.6258 14.6671 36.6599 14.4897L36.6608 14.4849C36.7607 13.9649 36.8592 13.4518 36.9616 12.9387C37.1448 12.0242 37.3293 11.1098 37.5181 10.1953C37.68 9.40869 38.4906 8.98447 39.2089 9.14882C39.8577 9.29631 40.0068 9.73318 39.9159 10.2571C39.8212 10.8005 39.7133 11.3409 39.6053 11.8816C39.5628 12.0943 39.5204 12.3071 39.4787 12.5201C39.3339 13.2562 39.1891 13.9908 39.0386 14.7255C39.0317 14.7579 39.0234 14.7845 39.0143 14.8137ZM14.1387 27.1233C13.9904 27.1062 13.8415 27.0929 13.6928 27.0796C13.3611 27.0499 13.0305 27.0204 12.7094 26.949C11.4077 26.6627 10.6831 25.7627 10.5796 24.3865C10.5289 23.7025 10.6601 23.0401 10.7913 22.3776C10.8107 22.2796 10.8302 22.1815 10.849 22.0834C11.0052 21.2755 11.1637 20.468 11.3221 19.6608L11.3222 19.6606L11.3223 19.66C11.4442 19.0386 11.5662 18.4174 11.687 17.7961C11.8178 17.1244 11.948 16.4527 12.0782 15.781C12.2952 14.6613 12.5123 13.5415 12.7321 12.4218C12.8966 11.5899 13.0667 10.7579 13.2482 9.93022C13.3844 9.31086 13.6325 8.73545 13.9742 8.19971C14.5032 7.37202 15.2249 6.79802 16.1594 6.4848C17.3165 6.09646 18.5005 6.07662 19.6675 6.34165C20.9437 6.6322 21.6612 7.5265 21.7505 8.94804C21.7916 9.60536 21.6675 10.243 21.5435 10.8802C21.5263 10.9684 21.5092 11.0566 21.4925 11.1448C21.2735 12.3018 21.0447 13.4567 20.816 14.6115L20.816 14.6115C20.7189 15.1018 20.6217 15.5922 20.5254 16.0826C20.4276 16.5799 20.3305 17.0772 20.2334 17.5745L20.2327 17.5778C20.1358 18.0743 20.0388 18.5709 19.9412 19.0674L19.8504 19.5304C19.6327 20.6417 19.415 21.7529 19.1896 22.8629C18.9925 23.8338 18.6636 24.7451 18.0127 25.5232C17.3803 26.2786 16.5734 26.7406 15.6262 26.9461C15.2943 27.0183 14.9522 27.0482 14.6075 27.0783L14.6074 27.0783C14.4515 27.092 14.2951 27.1056 14.1387 27.1233ZM18.6097 10.2349C18.6097 9.50503 18.3459 9.21165 17.7546 9.14362C17.0371 9.06142 16.3692 9.54471 16.192 10.2789C16.148 10.4574 16.1126 10.6389 16.0771 10.8203C15.9363 11.5567 15.7962 12.2933 15.6562 13.0299C15.376 14.5033 15.0959 15.9768 14.8094 17.4489C14.6315 18.3651 14.4479 19.2798 14.2643 20.1946L14.2643 20.1947C14.0924 21.0515 13.9204 21.9084 13.753 22.7666C13.7228 22.9195 13.7241 23.0788 13.7253 23.2374V23.2375C13.7258 23.3023 13.7263 23.3671 13.7247 23.4313C13.719 23.6835 13.8566 23.8777 14.0622 23.967C14.3273 24.0818 14.6038 24.164 14.9201 24.113C15.5993 24.0038 15.9609 23.5886 16.1282 22.9678C16.1925 22.7289 16.2361 22.4843 16.2798 22.2396C16.2978 22.1388 16.3158 22.0379 16.3352 21.9374C16.4634 21.2795 16.5914 20.6216 16.7193 19.9637C16.9752 18.6488 17.231 17.3338 17.488 16.0189C17.6096 15.3988 17.7319 14.7788 17.8542 14.1587C18.0173 13.3317 18.1804 12.5047 18.3417 11.6777C18.4153 11.3049 18.4831 10.9306 18.5422 10.6048C18.5662 10.4724 18.5888 10.348 18.6097 10.2349ZM8.9108 21.3405C8.99633 20.8775 9.08236 20.4119 9.19009 19.9467C8.10535 19.8425 6.49818 19.8791 6.12236 20.003C6.1041 20.0917 6.0853 20.1805 6.06647 20.2694C6.03246 20.43 5.99835 20.591 5.9672 20.7532C5.92632 20.9662 5.88869 21.1799 5.85108 21.3935C5.77734 21.8121 5.70365 22.2306 5.60562 22.6435C5.43052 23.3866 5.17429 23.8089 4.24756 23.9708C3.53153 24.096 3.00909 23.5612 3.14432 22.856C3.23805 22.3672 3.33159 21.8784 3.42514 21.3895C3.68961 20.0072 3.95416 18.6246 4.22336 17.2428C4.58779 15.3736 4.96076 13.5044 5.33372 11.6352C5.34168 11.5951 5.34961 11.555 5.35755 11.5149C5.44906 11.0522 5.54085 10.588 5.66398 10.1334C5.8163 9.57042 6.20778 9.16224 6.95798 9.10312C7.56583 9.05526 8.24628 9.40855 8.02136 10.3037C7.86699 10.9165 7.75481 11.5406 7.64268 12.1643C7.61213 12.3343 7.58157 12.5043 7.55017 12.674C7.53979 12.7289 7.52573 12.7776 7.5122 12.8245C7.48863 12.9062 7.46665 12.9824 7.46846 13.0763C8.39661 13.172 10.1097 13.1976 10.4997 13.0808C10.506 13.0681 10.5132 13.0552 10.5207 13.0419C10.5389 13.0097 10.5582 12.9755 10.5652 12.9386C10.6092 12.721 10.6549 12.5037 10.7006 12.2864C10.8133 11.7501 10.9261 11.2138 11.0122 10.6739C11.023 10.6069 11.034 10.54 11.045 10.4732C11.1431 9.8767 11.2409 9.28259 11.1603 8.66116C10.9539 7.06362 10.0684 6.57662 9.02781 6.29512C8.42118 6.13154 7.80311 6.1577 7.19042 6.18365C7.15468 6.18516 7.11895 6.18667 7.08325 6.18815C5.47465 6.25149 4.18066 6.8905 3.31942 8.28535C2.96496 8.85821 2.73577 9.47752 2.6048 10.1278C2.36586 11.3091 2.13553 12.4919 1.90521 13.6747C1.76092 14.4157 1.61664 15.1567 1.47024 15.8972C1.32341 16.6375 1.17339 17.3772 1.02338 18.1168C0.703605 19.6935 0.383856 21.27 0.0951047 22.8518C-0.0187784 23.4753 -0.0358608 24.1509 0.0737516 24.773C0.267353 25.8751 1.0261 26.5156 2.1151 26.7928C2.67898 26.9362 3.25164 26.9233 3.82247 26.9104C3.90158 26.9086 3.98065 26.9068 4.05966 26.9054C5.8704 26.8731 7.54448 25.8822 8.24059 24.0439C8.57293 23.1695 8.7409 22.2603 8.9108 21.3405Z" fill="white"/>
<path d="M62.0918 26.8109C61.6559 26.9303 51.4524 26.9584 50.6945 26.8502C51.5044 22.727 52.3144 18.6066 53.1441 14.3835C56.1632 18.5771 59.1205 22.6862 62.0918 26.8109Z" fill="#FF5B53"/>
</svg>
