<svg width="16" height="16" viewBox="0 0 16 16" fill="none" xmlns="http://www.w3.org/2000/svg">
<path d="M0 2C0 0.895431 0.895431 0 2 0H14C15.1046 0 16 0.895431 16 2V14C16 15.1046 15.1046 16 14 16H2C0.895431 16 0 15.1046 0 14V2Z" fill="white"/>
<path d="M8.63203 2.32008C9.16546 2.28414 12.7656 2.29993 12.9494 2.33968C12.8989 2.60106 12.8479 2.86298 12.7974 3.12489C12.7463 3.38899 12.6948 3.65309 12.6415 3.92426C12.4698 3.97218 12.2974 3.94278 12.1279 3.94768C11.9555 3.95258 11.7827 3.94877 11.6098 3.94877C11.4298 3.94877 11.2503 3.94877 11.0703 3.94877C10.8975 3.94877 10.7251 3.94877 10.5523 3.94877C10.3805 3.94877 10.2087 3.94877 10.0133 3.94877C9.79986 5.01278 9.59626 6.06808 9.38772 7.13971C9.44589 7.14516 9.50022 7.15387 9.554 7.15387C10.1582 7.15496 10.7624 7.15441 11.3667 7.15496C11.4441 7.15496 11.5209 7.15986 11.6059 7.16258C11.6098 7.22248 11.6213 7.26495 11.6136 7.30416C11.5154 7.80458 11.4144 8.30392 11.3101 8.82394C10.5534 8.82394 9.8081 8.82394 9.05295 8.82394C8.73465 10.4494 8.42074 12.0546 8.10793 13.6528C7.94548 13.7062 6.68545 13.7176 6.4363 13.6697C6.433 13.6392 6.42093 13.6038 6.42697 13.5722C7.16071 9.8237 7.89554 6.0757 8.63203 2.32008Z" fill="#050505"/>
<path d="M6.01963 9.87069C5.84391 10.6338 5.77393 11.3992 5.50101 12.1214C5.1208 13.1311 4.20642 13.6754 3.21739 13.6932C2.86283 13.6994 2.50594 13.721 2.15527 13.6313C1.56046 13.479 1.14603 13.1272 1.04028 12.5219C0.980413 12.1801 0.989743 11.809 1.05195 11.4665C1.28365 10.19 1.5519 8.9197 1.80305 7.6463C2.01065 6.59017 2.21048 5.53248 2.42274 4.47712C2.49428 4.11992 2.61946 3.77973 2.81307 3.46505C3.28348 2.69885 3.99026 2.34783 4.86888 2.31304C5.22266 2.29835 5.58032 2.2767 5.93099 2.3718C6.49937 2.52643 6.983 2.79395 7.09574 3.67149C7.14473 4.05111 7.0732 4.41217 7.01488 4.77711C6.94879 5.19384 6.85393 5.60671 6.77073 6.02112C6.76529 6.04973 6.74663 6.07524 6.73497 6.09921C6.52192 6.16338 5.58623 6.14931 5.07928 6.09673C5.07772 6.01555 5.10836 5.95849 5.12391 5.87577C5.204 5.44048 5.27397 5.0021 5.38127 4.57376C5.50413 4.08203 5.13246 3.88797 4.80045 3.91426C4.39069 3.94673 4.17687 4.17095 4.09367 4.48021C4.02058 4.75159 3.96771 5.02916 3.91328 5.30517C3.70957 6.33193 3.50585 7.35869 3.3068 8.38544C3.10776 9.41298 2.91337 10.4413 2.71743 11.4688C2.64357 11.8562 2.92892 12.15 3.32002 12.0812C3.8262 11.9922 3.96616 11.7603 4.06179 11.3521C4.14266 11.0096 4.1932 10.6601 4.25929 10.3137C4.28572 10.1753 4.31605 10.0385 4.34404 9.90161C4.54931 9.83357 5.42715 9.81347 6.01963 9.87069Z" fill="#050505"/>
<path d="M15 13.665C14.8585 13.7041 11.5461 13.7133 11.3 13.6779C11.5629 12.3291 11.8259 10.9813 12.0952 9.59998C13.0754 10.9717 14.0354 12.3158 15 13.665Z" fill="#EE2E25"/>
</svg>
