<svg width="24" height="24" viewBox="0 0 17 18" fill="none" xmlns="http://www.w3.org/2000/svg">
<path fill-rule="evenodd" clip-rule="evenodd" d="M2.76367 7.88318C2.76367 4.52958 5.5094 1.82031 8.88483 1.82031C12.2603 1.82031 15.006 4.52958 15.006 7.88318C15.006 9.96894 13.7897 12.0275 12.5006 13.526C11.8482 14.2843 11.1558 14.9245 10.5451 15.3798C10.2402 15.6071 9.94716 15.7946 9.68266 15.9278C9.4347 16.0527 9.15154 16.1613 8.88483 16.1613C8.61813 16.1613 8.33497 16.0527 8.08701 15.9278C7.82251 15.7946 7.52947 15.6071 7.2246 15.3798C6.61386 14.9245 5.92146 14.2843 5.26911 13.526C3.98001 12.0275 2.76367 9.96894 2.76367 7.88318ZM9.18454 9.59202C8.02547 9.59202 7.08586 8.6524 7.08586 7.49333C7.08586 6.33426 8.02547 5.39465 9.18454 5.39465C10.3436 5.39465 11.2832 6.33426 11.2832 7.49333C11.2832 8.6524 10.3436 9.59202 9.18454 9.59202Z" fill="url(#paint0_linear_4980_153310)"/>
<defs>
<linearGradient id="paint0_linear_4980_153310" x1="2.49441" y1="8.51278" x2="26.5417" y2="8.38781" gradientUnits="userSpaceOnUse">
<stop stop-color="#2F2F2F"/>
<stop offset="1" stop-color="#2F2F2F"/>
</linearGradient>
</defs>
</svg>
