<svg width="32" height="32" viewBox="0 0 32 32" fill="none" xmlns="http://www.w3.org/2000/svg">
<path d="M7.00008 5.33325H25.0001C26.1069 5.33318 27.1719 5.75666 27.9764 6.51681C28.7809 7.27697 29.2641 8.31618 29.3267 9.42125L29.3334 9.66659V22.3333C29.3335 23.4401 28.91 24.505 28.1499 25.3096C27.3897 26.1141 26.3505 26.5973 25.2454 26.6599L25.0001 26.6666H7.00008C5.89323 26.6667 4.82831 26.2432 4.02377 25.483C3.21924 24.7229 2.73608 23.6837 2.67341 22.5786L2.66675 22.3333V9.66659C2.66668 8.55973 3.09015 7.49481 3.85031 6.69028C4.61047 5.88574 5.64967 5.40258 6.75475 5.33992L7.00008 5.33325H25.0001H7.00008ZM27.3334 12.4973L16.4667 18.2173C16.344 18.2821 16.2092 18.3206 16.0708 18.3305C15.9324 18.3404 15.7934 18.3213 15.6627 18.2746L15.5347 18.2186L4.66675 12.4986V22.3333C4.66677 22.9188 4.88698 23.483 5.28365 23.9138C5.68033 24.3445 6.22448 24.6104 6.80808 24.6586L7.00008 24.6666H25.0001C25.5859 24.6665 26.1502 24.4461 26.581 24.0492C27.0118 23.6522 27.2775 23.1078 27.3254 22.5239L27.3334 22.3333V12.4973ZM25.0001 7.33325H7.00008C6.41449 7.33327 5.85032 7.55348 5.41956 7.95016C4.9888 8.34684 4.72293 8.89098 4.67475 9.47458L4.66675 9.66659V10.2386L16.0001 16.2026L27.3334 10.2373V9.66659C27.3334 9.08079 27.113 8.51644 26.716 8.08564C26.3191 7.65484 25.7746 7.38912 25.1907 7.34125L25.0001 7.33325Z" fill="#121212"/>
</svg>
