<svg width="155" height="44" viewBox="0 0 155 44" fill="none" xmlns="http://www.w3.org/2000/svg">
<g opacity="0.5">
<path fill-rule="evenodd" clip-rule="evenodd" d="M2.86834 38.293L0 43.9965H1.19066L1.74381 42.8212H3.6167L3.78623 43.9965H4.88872L3.86742 38.293H2.86834ZM3.17789 39.7463L3.48016 41.8693H2.1861L3.17789 39.7463Z" fill="#494949"/>
<path fill-rule="evenodd" clip-rule="evenodd" d="M10.6002 38.3789L9.97572 42.0288C9.88922 42.6396 9.63531 43.1224 9.21415 43.4774C8.7925 43.8322 8.26961 44.0045 7.64499 43.9944C7.25414 43.9867 6.91455 43.9012 6.62641 43.7378C6.33826 43.5743 6.12547 43.3437 5.98852 43.0459C5.85141 42.7481 5.80423 42.4102 5.84764 42.0326L6.46816 38.3789H7.58405L6.96337 42.0363C6.94551 42.1783 6.94437 42.3114 6.95944 42.4355C7.01022 42.8463 7.25528 43.0591 7.69463 43.0745C8.00931 43.0845 8.26699 42.9983 8.46766 42.8159C8.66817 42.6333 8.79758 42.3722 8.85606 42.0326L9.48067 38.3789H10.6002Z" fill="#494949"/>
<path fill-rule="evenodd" clip-rule="evenodd" d="M15.4144 39.3027H13.7694L12.9695 43.9146H11.8538L12.6535 39.3027H11.0273L11.1912 38.3789H15.5782L15.4144 39.3027Z" fill="#494949"/>
<path fill-rule="evenodd" clip-rule="evenodd" d="M18.9805 40.9949L19.011 40.6338C19.0362 40.1828 18.9761 39.8405 18.8301 39.6073C18.684 39.3742 18.4625 39.2524 18.1655 39.2422C17.7009 39.227 17.332 39.4324 17.0591 39.8581C16.7862 40.284 16.6319 40.8796 16.5965 41.6451C16.571 42.0937 16.6308 42.4391 16.7754 42.6812C16.92 42.9232 17.1448 43.0495 17.4495 43.0594C17.848 43.0773 18.1781 42.9219 18.4396 42.5937C18.701 42.2655 18.8724 41.801 18.9538 41.2003L18.9805 40.9949ZM17.4 43.9908C17.0318 43.9833 16.7074 43.8964 16.427 43.7305C16.1464 43.5646 15.9244 43.325 15.7606 43.0119C15.5968 42.6988 15.5021 42.3397 15.4769 41.9341C15.4488 41.5184 15.4934 41.0749 15.6102 40.6034C15.7268 40.1319 15.9147 39.7177 16.1737 39.3602C16.4327 39.0028 16.7367 38.7353 17.0858 38.558C17.4347 38.3805 17.8125 38.2957 18.2189 38.3032C18.5919 38.3109 18.9182 38.399 19.1975 38.5673C19.4767 38.7359 19.6963 38.9781 19.8562 39.2936C20.0163 39.6092 20.1077 39.9672 20.1304 40.3676C20.1558 40.8139 20.1077 41.2726 19.9858 41.7439C19.8639 42.2154 19.6747 42.6236 19.4184 42.9682C19.1618 43.3129 18.8617 43.5715 18.5177 43.7439C18.1737 43.9162 17.8012 43.9987 17.4 43.9908Z" fill="#494949"/>
<path fill-rule="evenodd" clip-rule="evenodd" d="M22.829 38.3789L23.5108 42.3824L25.5786 38.3789H27.0637L26.1004 43.9146H24.9807L25.2548 42.3368L25.7957 39.8732L23.6705 43.9146H22.9052L22.1626 39.7324L21.8045 42.4584L21.5495 43.9146H20.4336L21.3971 38.3789H22.829Z" fill="#494949"/>
<path fill-rule="evenodd" clip-rule="evenodd" d="M30.9063 40.9949L30.9367 40.6338C30.962 40.1828 30.9018 39.8405 30.7559 39.6073C30.6098 39.3742 30.3883 39.2524 30.0913 39.2422C29.6266 39.227 29.2578 39.4324 28.9849 39.8581C28.712 40.284 28.5577 40.8796 28.5223 41.6451C28.4967 42.0937 28.5565 42.4391 28.7012 42.6812C28.8458 42.9232 29.0706 43.0495 29.3753 43.0594C29.7738 43.0773 30.1039 42.9219 30.3654 42.5937C30.6268 42.2655 30.7981 41.801 30.8796 41.2003L30.9063 40.9949ZM29.3258 43.9908C28.9576 43.9833 28.6332 43.8964 28.3528 43.7305C28.0721 43.5646 27.8502 43.325 27.6864 43.0119C27.5226 42.6988 27.4279 42.3397 27.4026 41.9341C27.3746 41.5184 27.4192 41.0749 27.536 40.6034C27.6526 40.1319 27.8405 39.7177 28.0995 39.3602C28.3585 39.0028 28.6625 38.7353 29.0116 38.558C29.3605 38.3805 29.7383 38.2957 30.1447 38.3032C30.5177 38.3109 30.844 38.399 31.1233 38.5673C31.4025 38.7359 31.6221 38.9781 31.782 39.2936C31.9421 39.6092 32.0335 39.9672 32.0562 40.3676C32.0816 40.8139 32.0335 41.2726 31.9116 41.7439C31.7897 42.2154 31.6005 42.6236 31.3441 42.9682C31.0876 43.3129 30.7875 43.5715 30.4435 43.7439C30.0995 43.9162 29.727 43.9987 29.3258 43.9908Z" fill="#494949"/>
<path fill-rule="evenodd" clip-rule="evenodd" d="M36.8949 39.3027H35.2499L34.45 43.9146H33.3342L34.134 39.3027H32.5078L32.6716 38.3789H37.0587L36.8949 39.3027Z" fill="#494949"/>
<path fill-rule="evenodd" clip-rule="evenodd" d="M37.9438 43.9146H36.8281L37.7879 38.3789H38.9035L37.9438 43.9146Z" fill="#494949"/>
<path fill-rule="evenodd" clip-rule="evenodd" d="M41.2282 42.5307L43.0942 38.3789H44.3738L41.6356 43.9146H40.4704L39.4727 38.3789H40.6723L41.2282 42.5307Z" fill="#494949"/>
<path fill-rule="evenodd" clip-rule="evenodd" d="M47.6441 41.5155H45.5191L45.2601 42.9983H47.7585L47.5984 43.9146H43.9844L44.9479 38.3789H48.5544L48.3906 39.3027H45.9036L45.6713 40.622H47.8042L47.6441 41.5155Z" fill="#494949"/>
<path fill-rule="evenodd" clip-rule="evenodd" d="M51.3892 43.9146H50.2734L51.2332 38.3789H52.3488L51.3892 43.9146Z" fill="#494949"/>
<path fill-rule="evenodd" clip-rule="evenodd" d="M56.8286 43.9146H55.747L54.2048 40.2228L53.561 43.9146H52.4453L53.4089 38.3789H54.4866L56.0326 42.0782L56.6763 38.3789H57.7882L56.8286 43.9146Z" fill="#494949"/>
<path fill-rule="evenodd" clip-rule="evenodd" d="M60.0525 42.5307L61.9184 38.3789H63.198L60.4599 43.9146H59.2947L58.2969 38.3789H59.4965L60.0525 42.5307Z" fill="#494949"/>
<path fill-rule="evenodd" clip-rule="evenodd" d="M66.4683 41.5155H64.3434L64.0844 42.9983H66.5827L66.4226 43.9146H62.8086L63.7721 38.3789H67.3786L67.2148 39.3027H64.7278L64.4955 40.622H66.6284L66.4683 41.5155Z" fill="#494949"/>
<path fill-rule="evenodd" clip-rule="evenodd" d="M71.4849 43.9146H70.4032L68.8611 40.2228L68.2173 43.9146H67.1016L68.0651 38.3789H69.1428L70.6889 42.0782L71.3325 38.3789H72.4445L71.4849 43.9146Z" fill="#494949"/>
<path fill-rule="evenodd" clip-rule="evenodd" d="M77.2269 39.3027H75.5819L74.782 43.9146H73.6663L74.466 39.3027H72.8398L73.0037 38.3789H77.3907L77.2269 39.3027Z" fill="#494949"/>
<path fill-rule="evenodd" clip-rule="evenodd" d="M80.793 40.9949L80.8235 40.6338C80.8487 40.1828 80.7886 39.8405 80.6426 39.6073C80.4965 39.3742 80.275 39.2524 79.978 39.2422C79.5134 39.227 79.1445 39.4324 78.8716 39.8581C78.5987 40.284 78.4444 40.8796 78.409 41.6451C78.3835 42.0937 78.4433 42.4391 78.5879 42.6812C78.7325 42.9232 78.9573 43.0495 79.262 43.0594C79.6605 43.0773 79.9906 42.9219 80.2521 42.5937C80.5135 42.2655 80.6849 41.801 80.7663 41.2003L80.793 40.9949ZM79.2125 43.9908C78.8443 43.9833 78.5199 43.8964 78.2395 43.7305C77.9589 43.5646 77.7369 43.325 77.5731 43.0119C77.4093 42.6988 77.3146 42.3397 77.2894 41.9341C77.2613 41.5184 77.3059 41.0749 77.4227 40.6034C77.5393 40.1319 77.7272 39.7177 77.9862 39.3602C78.2452 39.0028 78.5492 38.7353 78.8983 38.558C79.2472 38.3805 79.625 38.2957 80.0314 38.3032C80.4046 38.3109 80.7307 38.399 81.01 38.5673C81.2892 38.7359 81.5088 38.9781 81.6687 39.2936C81.8288 39.6092 81.9202 39.9672 81.9429 40.3676C81.9683 40.8139 81.9202 41.2726 81.7983 41.7439C81.6764 42.2154 81.4872 42.6236 81.2309 42.9682C80.9743 43.3129 80.6742 43.5715 80.3302 43.7439C79.9862 43.9162 79.6137 43.9987 79.2125 43.9908Z" fill="#494949"/>
<path fill-rule="evenodd" clip-rule="evenodd" d="M83.8762 40.9643L84.7064 40.9718C85.0008 40.9668 85.244 40.8876 85.4355 40.7342C85.6273 40.581 85.7422 40.3725 85.7802 40.1088C85.8157 39.863 85.7764 39.6704 85.6622 39.5309C85.5479 39.3916 85.3664 39.3168 85.1176 39.3065L84.1655 39.3027L83.8762 40.9643ZM84.6225 41.8882H83.7161L83.362 43.9146H82.2461L83.2098 38.3789L85.0453 38.3827C85.6596 38.3827 86.1325 38.5272 86.4639 38.8161C86.7953 39.105 86.9419 39.5068 86.9036 40.0213C86.8504 40.7818 86.4441 41.3102 85.685 41.6067L86.4657 43.8538V43.9146H85.2776L84.6225 41.8882Z" fill="#494949"/>
<path fill-rule="evenodd" clip-rule="evenodd" d="M89.2883 40.8655L90.8382 38.3789H92.1176L89.6957 41.968L89.3607 43.9146H88.2258L88.5876 41.8425L87.4375 38.3828L88.6142 38.3789L89.2883 40.8655Z" fill="#494949"/>
<path fill-rule="evenodd" clip-rule="evenodd" d="M95.9618 38.3789L96.6436 42.3824L98.7114 38.3789H100.197L99.2332 43.9146H98.1135L98.3876 42.3368L98.9285 39.8732L96.8033 43.9146H96.038L95.2954 39.7324L94.9373 42.4584L94.6821 43.9146H93.5664L94.5299 38.3789H95.9618Z" fill="#494949"/>
<path fill-rule="evenodd" clip-rule="evenodd" d="M103.894 41.5155H101.769L101.51 42.9983H104.008L103.848 43.9146H100.234L101.198 38.3789H104.804L104.641 39.3027H102.154L101.921 40.622H104.054L103.894 41.5155Z" fill="#494949"/>
<path fill-rule="evenodd" clip-rule="evenodd" d="M106.154 40.9643L106.984 40.9718C107.278 40.9668 107.521 40.8876 107.713 40.7342C107.905 40.581 108.02 40.3725 108.058 40.1088C108.093 39.863 108.054 39.6704 107.94 39.5309C107.825 39.3916 107.644 39.3168 107.395 39.3065L106.443 39.3027L106.154 40.9643ZM106.9 41.8882H105.993L105.639 43.9146H104.523L105.487 38.3789L107.323 38.3827C107.937 38.3827 108.41 38.5272 108.741 38.8161C109.073 39.105 109.219 39.5068 109.181 40.0213C109.128 40.7818 108.721 41.3102 107.962 41.6067L108.743 43.8538V43.9146H107.555L106.9 41.8882Z" fill="#494949"/>
<path fill-rule="evenodd" clip-rule="evenodd" d="M113.911 42.0671C113.868 42.4498 113.737 42.7888 113.519 43.084C113.301 43.3795 113.016 43.6064 112.666 43.7647C112.316 43.9231 111.937 43.9985 111.531 43.9908C111.166 43.9833 110.847 43.8991 110.575 43.738C110.304 43.5772 110.09 43.3439 109.933 43.0385C109.777 42.7331 109.689 42.3814 109.669 41.9834C109.651 41.6717 109.683 41.2839 109.766 40.8201C109.848 40.3562 109.996 39.9444 110.208 39.5846C110.42 39.2246 110.672 38.9394 110.964 38.7291C111.375 38.4349 111.845 38.2933 112.373 38.3032C112.946 38.3134 113.401 38.4902 113.738 38.8334C114.074 39.177 114.259 39.6542 114.292 40.2649L113.18 40.2611C113.18 39.9115 113.11 39.6554 112.971 39.4931C112.831 39.3311 112.614 39.2449 112.319 39.2346C111.939 39.222 111.626 39.3577 111.381 39.6415C111.136 39.9254 110.971 40.3398 110.888 40.8847C110.806 41.4144 110.771 41.8112 110.781 42.0746C110.794 42.4092 110.868 42.6559 111.005 42.8142C111.143 42.9726 111.334 43.0556 111.581 43.0632C111.921 43.0758 112.193 42.9954 112.397 42.8217C112.602 42.6482 112.737 42.3993 112.803 42.0746L113.911 42.0671Z" fill="#494949"/>
<path fill-rule="evenodd" clip-rule="evenodd" d="M118.766 43.9146H117.65L118.062 41.5421H115.91L115.495 43.9146H114.379L115.343 38.3789H116.458L116.066 40.622H118.222L118.61 38.3789H119.726L118.766 43.9146Z" fill="#494949"/>
<path fill-rule="evenodd" clip-rule="evenodd" d="M121.618 41.8501H122.955L122.642 39.7894L121.618 41.8501ZM123.095 42.7739H121.161L120.589 43.9146H119.359L122.322 38.3789H123.354L124.409 43.9146H123.27L123.095 42.7739Z" fill="#494949"/>
<path fill-rule="evenodd" clip-rule="evenodd" d="M129.348 43.9146H128.266L126.724 40.2228L126.081 43.9146H124.965L125.928 38.3789H127.006L128.552 42.0782L129.196 38.3789H130.308L129.348 43.9146Z" fill="#494949"/>
<path fill-rule="evenodd" clip-rule="evenodd" d="M132.263 39.3027L131.62 42.9983L132.084 43.002C132.597 43.002 133.009 42.8145 133.32 42.4393C133.631 42.0643 133.809 41.4978 133.855 40.7399L133.863 40.6183C133.87 40.1999 133.79 39.8794 133.623 39.6563C133.455 39.4334 133.205 39.3166 132.873 39.3065L132.263 39.3027ZM130.344 43.9146L131.307 38.3789L132.899 38.3827C133.272 38.3904 133.608 38.4746 133.907 38.6355C134.205 38.7964 134.447 39.0277 134.632 39.3294C134.817 39.631 134.929 39.9706 134.967 40.3483C134.987 40.5689 134.985 40.7944 134.959 41.025L134.933 41.2266C134.821 42.0376 134.502 42.6884 133.975 43.1788C133.448 43.6693 132.809 43.9146 132.058 43.9146H130.344Z" fill="#494949"/>
<path fill-rule="evenodd" clip-rule="evenodd" d="M136.487 43.9146H135.371L136.331 38.3789H137.446L136.487 43.9146Z" fill="#494949"/>
<path fill-rule="evenodd" clip-rule="evenodd" d="M140.592 42.4396C140.645 42.1379 140.497 41.9073 140.146 41.7476L139.412 41.4549C138.558 41.0747 138.154 40.5513 138.197 39.8848C138.214 39.5755 138.316 39.3019 138.501 39.0635C138.687 38.8253 138.947 38.6384 139.282 38.5027C139.617 38.3671 139.979 38.3018 140.367 38.3069C140.903 38.3171 141.336 38.4762 141.666 38.7841C141.996 39.0919 142.159 39.5045 142.154 40.0216H141.042C141.054 39.7706 140.999 39.5755 140.876 39.436C140.753 39.2968 140.562 39.2245 140.303 39.2195C140.049 39.2144 139.828 39.2721 139.64 39.3923C139.452 39.5127 139.34 39.6782 139.305 39.8885C139.257 40.1649 139.442 40.384 139.861 40.5463L140.364 40.7365L140.653 40.8694C141.402 41.2395 141.752 41.7591 141.704 42.4283C141.681 42.7552 141.577 43.0372 141.39 43.2741C141.203 43.5111 140.949 43.6931 140.628 43.8197C140.307 43.9463 139.954 44.0061 139.568 43.9983C139.174 43.9908 138.824 43.9085 138.517 43.7513C138.209 43.5942 137.976 43.3723 137.816 43.0861C137.666 42.8198 137.596 42.5156 137.606 42.1735L138.722 42.1773C138.687 42.778 138.983 43.0834 139.61 43.0936C139.881 43.0936 140.105 43.0341 140.28 42.915C140.455 42.7956 140.559 42.6373 140.592 42.4396Z" fill="#494949"/>
<path fill-rule="evenodd" clip-rule="evenodd" d="M143.417 43.9146H142.301L143.261 38.3789H144.376L143.417 43.9146Z" fill="#494949"/>
<path fill-rule="evenodd" clip-rule="evenodd" d="M148.856 43.9146H147.774L146.232 40.2228L145.588 43.9146H144.473L145.436 38.3789H146.514L148.06 42.0782L148.704 38.3789H149.816L148.856 43.9146Z" fill="#494949"/>
<path fill-rule="evenodd" clip-rule="evenodd" d="M154.3 43.2153C154.102 43.4662 153.812 43.6595 153.43 43.795C153.048 43.9306 152.617 43.9946 152.137 43.987C151.759 43.9846 151.426 43.9015 151.139 43.738C150.852 43.5746 150.626 43.3394 150.461 43.0328C150.296 42.7261 150.202 42.3763 150.179 41.9833C150.154 41.6183 150.193 41.1893 150.296 40.6964C150.398 40.2035 150.575 39.7713 150.825 39.4C151.075 39.0286 151.375 38.7513 151.725 38.5673C152.076 38.3836 152.464 38.2957 152.891 38.3032C153.47 38.3133 153.923 38.4762 154.25 38.7917C154.578 39.1073 154.765 39.5592 154.81 40.1471L153.736 40.1433C153.708 39.8341 153.626 39.6059 153.489 39.4589C153.352 39.3119 153.147 39.2334 152.876 39.2233C152.406 39.2079 152.036 39.4141 151.766 39.841C151.495 40.2681 151.341 40.8873 151.303 41.6983C151.277 42.1317 151.344 42.4676 151.503 42.7057C151.661 42.9441 151.903 43.0658 152.228 43.0707C152.606 43.0809 152.929 42.9909 153.196 42.8009L153.382 41.8464H152.369L152.518 41.0063H154.635L154.3 43.2153Z" fill="#494949"/>
</g>
<g opacity="0.7">
<path fill-rule="evenodd" clip-rule="evenodd" d="M67.5714 22.0227L72.3287 9.31642L75.3473 22.0227H67.5714ZM67.1383 0L51.3555 35.3243H62.5258L64.6602 29.6656H77.0811L78.4437 35.3243H89.9001L79.0724 0H67.1383Z" fill="#494949"/>
<path fill-rule="evenodd" clip-rule="evenodd" d="M93.8125 35.3243H104.777L107.253 0H96.2882L93.8125 35.3243Z" fill="#494949"/>
<path fill-rule="evenodd" clip-rule="evenodd" d="M140.425 0L133.41 21.6611L129.368 0H114.98L112.504 35.3243H121.464L123.353 8.54483L128.355 35.3243H136.465L145.257 8.54483L143.369 35.3243H152.329L154.805 0H140.425Z" fill="#494949"/>
</g>
<path fill-rule="evenodd" clip-rule="evenodd" d="M54.7902 0L41.2604 30.3872L39.9409 27.4995L51.7952 0H47.6692L37.5189 22.7508L36.9249 21.4734H33.4062L35.709 26.8064L35.6893 26.8509L39.3964 35.3243H43.3757H43.3967L59.1466 0H54.7902Z" fill="#494949"/>
<path fill-rule="evenodd" clip-rule="evenodd" d="M16.3655 0L0 35.3243H11.4354L14.4139 28.9016H28.6723L31.416 35.3243H36.0866L30.285 21.4734H25.5099L25.5177 21.492L17.8688 21.474L21.8686 12.8754L24.4207 18.8577H35.8351L27.8555 0H16.3655Z" fill="#494949"/>
</svg>
