<svg width="556" height="495" viewBox="0 0 556 495" fill="none" xmlns="http://www.w3.org/2000/svg">
<g style="mix-blend-mode:hard-light">
<path d="M271.113 -95.681C254.232 -40.2013 252.736 6.48088 263.531 46.309C274.325 86.1324 297.43 119.187 329.897 147.377C394.877 203.799 497.257 240.655 613.091 273.155C728.926 305.654 835.865 327.525 922.258 313.574C965.424 306.603 1003.43 290.693 1034.85 262.715C1066.28 234.733 1091.19 194.621 1108.07 139.141C1141.82 28.2238 1119.16 -64.2206 1059.23 -137.065C999.256 -209.954 901.908 -263.29 786.196 -295.755C670.484 -328.22 558.544 -333.602 467.141 -303.183C375.794 -272.783 304.862 -206.598 271.113 -95.681Z" stroke="#575757" stroke-width="2"/>
<path d="M300.629 -183.461C271.545 -132.857 259.474 -87.6144 260.956 -46.4843C262.438 -5.3589 277.473 31.7414 302.75 66.0568C353.34 134.737 444.874 192.162 550.529 248.155C656.185 304.148 755.574 347.904 843.056 352.396C886.765 354.64 927.469 347.079 964.495 326.361C1001.53 305.641 1034.95 271.717 1064.04 221.113C1122.18 119.944 1121.08 24.9788 1079.15 -58.6702C1037.19 -142.371 954.313 -214.824 848.769 -270.758C743.226 -326.691 635.208 -355.405 539.094 -344.876C443.039 -334.353 358.775 -284.63 300.629 -183.461Z" stroke="#575757" stroke-width="2"/>
<path d="M791.177 -422.039C733.537 -438.726 684.925 -440.563 643.348 -430.535C601.779 -420.51 567.162 -398.606 537.534 -367.678C478.232 -305.775 438.98 -207.797 404.146 -96.8495C369.312 14.0983 345.626 116.583 359.413 199.645C366.301 241.144 382.541 277.772 411.413 308.19C440.289 338.614 481.857 362.884 539.497 379.571C654.74 412.934 751.214 391.952 827.578 335.031C903.987 278.076 960.355 185.068 995.149 74.2478C1029.94 -36.5728 1036.5 -144 1005.61 -232.018C974.739 -319.985 906.419 -388.676 791.177 -422.039Z" stroke="#575757" stroke-width="2"/>
<path d="M860.82 -401.785C806.858 -427.417 759.235 -436.966 716.503 -433.696C673.778 -430.427 635.858 -414.336 601.301 -388.553C532.133 -336.947 476.509 -246.574 423.004 -142.706C369.498 -38.8386 328.447 58.457 327.704 142.564C327.332 184.585 337.024 223.291 360.245 257.885C383.47 292.484 420.273 323.036 474.235 348.668C582.124 399.915 680.885 394.58 766.02 350.603C851.203 306.6 922.848 223.852 976.292 120.104C1029.74 16.3556 1054.75 -88.5401 1039.48 -180.258C1024.22 -271.922 968.708 -350.538 860.82 -401.785Z" stroke="#575757" stroke-width="2"/>
<path d="M935.679 -364.943C887.824 -400.019 842.986 -418.146 800.392 -422.791C757.806 -427.435 717.38 -418.611 678.322 -399.657C600.146 -361.718 527.535 -283.24 454.313 -191.127C381.092 -99.0152 321.405 -11.0637 303.909 71.3523C295.169 112.529 296.966 152.3 312.861 190.522C328.759 228.75 358.791 265.502 406.646 300.578C502.323 370.707 600.321 383.625 692.648 356.108C785.029 328.576 871.844 260.527 944.981 168.52C1018.12 76.5137 1063.58 -21.8446 1066.88 -114.673C1070.17 -207.448 1031.36 -294.814 935.679 -364.943Z" stroke="#575757" stroke-width="2"/>
<path d="M1005.95 -311.179C966.572 -354.903 926.538 -381.443 885.832 -394.347C845.133 -407.248 803.682 -406.543 761.414 -395.651C676.813 -373.85 589.034 -311.272 497.758 -235.468C406.482 -159.665 329.338 -85.2785 294.675 -8.03216C277.357 30.5615 270.653 69.847 278.081 110.38C285.509 150.92 307.087 192.787 346.468 236.512C425.203 323.931 518.383 355.803 614.618 346.981C710.909 338.155 810.374 288.573 901.546 212.856C992.719 137.139 1058.15 49.7741 1081.13 -40.4509C1104.1 -130.623 1084.69 -223.76 1005.95 -311.179Z" stroke="#575757" stroke-width="2"/>
<path d="M1137.02 -18.7646C1140.89 -76.4459 1131.74 -122.318 1112.15 -158.924C1092.57 -195.526 1062.5 -222.942 1024.41 -243.648C948.179 -285.091 839.892 -299.603 719.463 -307.043C599.034 -314.483 489.704 -313.416 408.566 -281.695C368.027 -265.847 334.555 -242.357 310.247 -208.466C285.935 -174.572 270.739 -130.204 266.875 -72.5228C259.148 42.7971 302.279 128.264 377.322 186.792C452.411 245.355 559.533 277.004 679.834 284.436C800.134 291.868 910.596 273.662 992.882 224.821C1075.12 176.011 1129.3 96.5553 1137.02 -18.7646Z" stroke="#575757" stroke-width="2"/>
</g>
</svg>
