<svg width="143" height="143" viewBox="0 0 143 143" fill="none" xmlns="http://www.w3.org/2000/svg">
<g filter="url(#filter0_d_5215_147364)">
<circle cx="71.5" cy="56.5" r="41.5" fill="#FABB5A"/>
<path d="M79.267 56.613C80.8237 54.6963 81.5575 52.2408 81.3076 49.7843C81.0577 47.3277 79.8445 45.0703 77.9337 43.5063C76.8389 42.629 75.5627 42.0063 74.1974 41.6834C72.8321 41.3606 71.4121 41.3456 70.0404 41.6397C68.5002 41.9803 67.0714 42.7058 65.8876 43.7483C64.7038 44.7908 63.8035 46.1164 63.2709 47.6012C62.7382 49.0859 62.5906 50.6815 62.8417 52.2388C63.0929 53.7961 63.7346 55.2643 64.707 56.5063C65.5933 57.5845 66.0994 58.9248 66.147 60.3197V60.7063C65.6397 61.1965 65.3472 61.8677 65.3337 62.573V65.2397C65.3337 65.9469 65.6146 66.6252 66.1147 67.1253C66.6148 67.6254 67.2931 67.9063 68.0004 67.9063V69.2397C68.0004 69.5933 68.1408 69.9324 68.3909 70.1825C68.6409 70.4325 68.9801 70.573 69.3337 70.573C69.6873 70.573 70.0264 70.4325 70.2765 70.1825C70.5265 69.9324 70.667 69.5933 70.667 69.2397V67.9063H73.3337V69.2397C73.3337 69.5933 73.4742 69.9324 73.7242 70.1825C73.9743 70.4325 74.3134 70.573 74.667 70.573C75.0206 70.573 75.3598 70.4325 75.6098 70.1825C75.8599 69.9324 76.0004 69.5933 76.0004 69.2397V67.9063C76.7076 67.9063 77.3859 67.6254 77.886 67.1253C78.3861 66.6252 78.667 65.9469 78.667 65.2397V62.573C78.6676 61.8753 78.3948 61.2052 77.907 60.7063V60.133C77.946 58.839 78.4258 57.5971 79.267 56.613ZM68.0004 65.2397V62.573H76.0004V65.2397H68.0004ZM77.187 54.9463C76.0067 56.3385 75.322 58.0831 75.2404 59.9063H68.747C68.6212 58.0591 67.9221 56.2972 66.747 54.8663C66.0412 53.9805 65.5726 52.9295 65.3857 51.8123C65.1987 50.6952 65.2994 49.5489 65.6783 48.4815C66.0573 47.4141 66.7019 46.4608 67.5514 45.7117C68.4009 44.9625 69.4273 44.4422 70.5337 44.1997C71.5139 43.9786 72.5315 43.9819 73.5103 44.2095C74.4891 44.437 75.4038 44.8829 76.1859 45.5138C76.9681 46.1447 77.5976 46.9442 78.0272 47.8526C78.4568 48.761 78.6756 49.7548 78.667 50.7597C78.6754 52.2849 78.152 53.7653 77.187 54.9463Z" fill="white"/>
<path d="M75.9495 51.3307C75.8693 51.2394 75.8251 51.1221 75.8251 51.0007C75.8251 50.8792 75.8693 50.7619 75.9495 50.6707L76.5895 49.9507C76.66 49.872 76.7038 49.773 76.7146 49.6679C76.7253 49.5628 76.7025 49.457 76.6495 49.3657L75.6495 47.6357C75.5969 47.5444 75.5169 47.4721 75.4208 47.429C75.3248 47.3859 75.2175 47.3743 75.1145 47.3957L74.1745 47.5857C74.0549 47.6104 73.9303 47.5905 73.8244 47.5297C73.7185 47.4689 73.6385 47.3714 73.5995 47.2557L73.2945 46.3407C73.2609 46.2414 73.197 46.1551 73.1118 46.0941C73.0265 46.0331 72.9243 46.0004 72.8195 46.0007H70.8195C70.7104 45.995 70.6025 46.0251 70.5122 46.0865C70.422 46.1479 70.3542 46.2372 70.3195 46.3407L70.0395 47.2557C70.0005 47.3714 69.9204 47.4689 69.8145 47.5297C69.7086 47.5905 69.5841 47.6104 69.4645 47.5857L68.4995 47.3957C68.4017 47.3819 68.3021 47.3973 68.2131 47.44C68.1242 47.4827 68.0498 47.5508 67.9995 47.6357L66.9995 49.3657C66.945 49.456 66.9206 49.5612 66.9296 49.6663C66.9385 49.7714 66.9805 49.8709 67.0495 49.9507L67.6845 50.6707C67.7646 50.7619 67.8088 50.8792 67.8088 51.0007C67.8088 51.1221 67.7646 51.2394 67.6845 51.3307L67.0495 52.0507C66.9805 52.1305 66.9385 52.23 66.9296 52.3351C66.9206 52.4401 66.945 52.5454 66.9995 52.6357L67.9995 54.3657C68.052 54.4569 68.132 54.5292 68.2281 54.5723C68.3242 54.6154 68.4314 54.6271 68.5345 54.6057L69.4745 54.4157C69.5941 54.391 69.7186 54.4109 69.8245 54.4717C69.9304 54.5325 70.0105 54.6299 70.0495 54.7457L70.3545 55.6607C70.3892 55.7642 70.457 55.8534 70.5472 55.9148C70.6375 55.9762 70.7454 56.0064 70.8545 56.0007H72.8545C72.9593 56.001 73.0615 55.9683 73.1468 55.9073C73.232 55.8462 73.2959 55.76 73.3295 55.6607L73.6345 54.7457C73.6735 54.6299 73.7535 54.5325 73.8594 54.4717C73.9653 54.4109 74.0899 54.391 74.2095 54.4157L75.1495 54.6057C75.2525 54.6271 75.3598 54.6154 75.4558 54.5723C75.5519 54.5292 75.6319 54.4569 75.6845 54.3657L76.6845 52.6357C76.7375 52.5443 76.7603 52.4385 76.7496 52.3334C76.7388 52.2283 76.695 52.1293 76.6245 52.0507L75.9495 51.3307ZM75.2045 52.0007L75.6045 52.4507L74.9645 53.5607L74.3745 53.4407C74.0143 53.3671 73.6397 53.4282 73.3218 53.6126C73.0038 53.7969 72.7645 54.0916 72.6495 54.4407L72.4595 55.0007H71.1795L70.9995 54.4307C70.8844 54.0816 70.6452 53.7869 70.3272 53.6026C70.0092 53.4182 69.6346 53.3571 69.2745 53.4307L68.6845 53.5507L68.0345 52.4457L68.4345 51.9957C68.6804 51.7207 68.8164 51.3646 68.8164 50.9957C68.8164 50.6267 68.6804 50.2707 68.4345 49.9957L68.0345 49.5457L68.6745 48.4457L69.2645 48.5657C69.6246 48.6393 69.9992 48.5781 70.3172 48.3938C70.6352 48.2094 70.8744 47.9148 70.9895 47.5657L71.1795 47.0007H72.4595L72.6495 47.5707C72.7645 47.9198 73.0038 48.2144 73.3218 48.3988C73.6397 48.5831 74.0143 48.6443 74.3745 48.5707L74.9645 48.4507L75.6045 49.5607L75.2045 50.0107C74.9612 50.2851 74.8269 50.639 74.8269 51.0057C74.8269 51.3723 74.9612 51.7263 75.2045 52.0007V52.0007ZM71.8195 49.0007C71.4239 49.0007 71.0372 49.118 70.7083 49.3377C70.3794 49.5575 70.1231 49.8699 69.9717 50.2353C69.8203 50.6008 69.7807 51.0029 69.8579 51.3909C69.9351 51.7788 70.1255 52.1352 70.4052 52.4149C70.685 52.6946 71.0413 52.8851 71.4293 52.9623C71.8172 53.0394 72.2194 52.9998 72.5848 52.8484C72.9503 52.6971 73.2626 52.4407 73.4824 52.1118C73.7022 51.7829 73.8195 51.3962 73.8195 51.0007C73.8195 50.4702 73.6087 49.9615 73.2337 49.5865C72.8586 49.2114 72.3499 49.0007 71.8195 49.0007V49.0007ZM71.8195 52.0007C71.6217 52.0007 71.4283 51.942 71.2639 51.8321C71.0994 51.7223 70.9713 51.5661 70.8956 51.3834C70.8199 51.2006 70.8001 50.9996 70.8387 50.8056C70.8773 50.6116 70.9725 50.4334 71.1124 50.2936C71.2522 50.1537 71.4304 50.0585 71.6244 50.0199C71.8184 49.9813 72.0194 50.0011 72.2021 50.0768C72.3849 50.1525 72.541 50.2807 72.6509 50.4451C72.7608 50.6096 72.8195 50.8029 72.8195 51.0007C72.8195 51.2659 72.7141 51.5203 72.5266 51.7078C72.339 51.8953 72.0847 52.0007 71.8195 52.0007Z" fill="#FCFCFC"/>
</g>
<path d="M63 36L66 41" stroke="white" stroke-width="2"/>
<path d="M82 37L79 42" stroke="white" stroke-width="2"/>
<path d="M72.6426 34L72.5459 39.8302" stroke="white" stroke-width="2"/>
<defs>
<filter id="filter0_d_5215_147364" x="0" y="0" width="143" height="143" filterUnits="userSpaceOnUse" color-interpolation-filters="sRGB">
<feFlood flood-opacity="0" result="BackgroundImageFix"/>
<feColorMatrix in="SourceAlpha" type="matrix" values="0 0 0 0 0 0 0 0 0 0 0 0 0 0 0 0 0 0 127 0" result="hardAlpha"/>
<feOffset dy="15"/>
<feGaussianBlur stdDeviation="15"/>
<feComposite in2="hardAlpha" operator="out"/>
<feColorMatrix type="matrix" values="0 0 0 0 0.980392 0 0 0 0 0.733333 0 0 0 0 0.352941 0 0 0 0.26 0"/>
<feBlend mode="normal" in2="BackgroundImageFix" result="effect1_dropShadow_5215_147364"/>
<feBlend mode="normal" in="SourceGraphic" in2="effect1_dropShadow_5215_147364" result="shape"/>
</filter>
</defs>
</svg>
