<svg width="143" height="143" viewBox="0 0 143 143" fill="none" xmlns="http://www.w3.org/2000/svg">
<g filter="url(#filter0_d_6688_150045)">
<circle cx="71.5" cy="56.5" r="41.5" fill="#FABB5A"/>
<path d="M83.9993 64.3746V55.6279C84.3599 55.4274 84.6691 55.1458 84.9024 54.8055C85.1358 54.4652 85.2869 54.0754 85.3441 53.6667C85.4012 53.2581 85.3627 52.8417 85.2316 52.4505C85.1006 52.0592 84.8805 51.7037 84.5887 51.4119C84.2969 51.1201 83.9414 50.9 83.5502 50.769C83.1589 50.6379 82.7425 50.5994 82.3339 50.6565C81.9252 50.7137 81.5354 50.8649 81.1951 51.0982C80.8548 51.3315 80.5732 51.6407 80.3727 52.0013H75.9993V47.6279C76.3599 47.4274 76.6691 47.1458 76.9024 46.8055C77.1358 46.4652 77.2869 46.0754 77.3441 45.6667C77.4012 45.2581 77.3627 44.8417 77.2316 44.4505C77.1006 44.0592 76.8805 43.7037 76.5887 43.4119C76.2969 43.1201 75.9414 42.9 75.5501 42.769C75.1589 42.6379 74.7425 42.5994 74.3339 42.6565C73.9252 42.7137 73.5354 42.8649 73.1951 43.0982C72.8548 43.3315 72.5732 43.6407 72.3727 44.0013H63.626C63.4254 43.6407 63.1439 43.3315 62.8036 43.0982C62.4633 42.8649 62.0734 42.7137 61.6648 42.6565C61.2561 42.5994 60.8398 42.6379 60.4485 42.769C60.0572 42.9 59.7017 43.1201 59.41 43.4119C59.1182 43.7037 58.8981 44.0592 58.767 44.4505C58.6359 44.8417 58.5975 45.2581 58.6546 45.6667C58.7117 46.0754 58.8629 46.4652 59.0962 46.8055C59.3296 47.1458 59.6387 47.4274 59.9993 47.6279V56.3746C59.6387 56.5752 59.3296 56.8567 59.0962 57.197C58.8629 57.5374 58.7117 57.9272 58.6546 58.3358C58.5975 58.7445 58.6359 59.1608 58.767 59.5521C58.8981 59.9434 59.1182 60.2989 59.41 60.5906C59.7017 60.8824 60.0572 61.1025 60.4485 61.2336C60.8398 61.3647 61.2561 61.4031 61.6648 61.346C62.0734 61.2889 62.4633 61.1377 62.8036 60.9044C63.1439 60.671 63.4254 60.3619 63.626 60.0013H67.9993V64.3746C67.6387 64.5752 67.3296 64.8567 67.0962 65.197C66.8629 65.5374 66.7117 65.9272 66.6546 66.3358C66.5975 66.7445 66.6359 67.1608 66.767 67.5521C66.8981 67.9434 67.1182 68.2989 67.41 68.5906C67.7017 68.8824 68.0572 69.1025 68.4485 69.2336C68.8398 69.3647 69.2561 69.4031 69.6648 69.346C70.0734 69.2889 70.4633 69.1377 70.8036 68.9044C71.1439 68.671 71.4254 68.3619 71.626 68.0013H80.3727C80.5732 68.3619 80.8548 68.671 81.1951 68.9044C81.5354 69.1377 81.9252 69.2889 82.3339 69.346C82.7425 69.4031 83.1589 69.3647 83.5502 69.2336C83.9414 69.1025 84.2969 68.8824 84.5887 68.5906C84.8805 68.2989 85.1006 67.9434 85.2316 67.5521C85.3627 67.1608 85.4012 66.7445 85.3441 66.3358C85.2869 65.9272 85.1358 65.5374 84.9024 65.197C84.6691 64.8567 84.3599 64.5752 83.9993 64.3746ZM66.666 53.3346C66.6688 53.8 66.7933 54.2565 67.0273 54.6588C67.2612 55.0612 67.5963 55.3953 67.9993 55.6279V57.3346H63.626C63.3988 56.9336 63.067 56.6018 62.666 56.3746V47.6279C63.067 47.4007 63.3988 47.0689 63.626 46.6679H72.3727C72.5999 47.0689 72.9317 47.4007 73.3327 47.6279V52.0013H71.626C71.3291 51.5007 70.8765 51.1111 70.3374 50.8918C69.7983 50.6724 69.2023 50.6355 68.6403 50.7866C68.0782 50.9377 67.581 51.2685 67.2246 51.7285C66.8681 52.1886 66.6719 52.7526 66.666 53.3346ZM73.3327 54.6679V56.3746C72.9317 56.6018 72.5999 56.9336 72.3727 57.3346H70.666V55.6279C71.067 55.4007 71.3988 55.0689 71.626 54.6679H73.3327ZM81.3327 64.3746C80.9317 64.6018 80.5999 64.9336 80.3727 65.3346H71.626C71.3988 64.9336 71.067 64.6018 70.666 64.3746V60.0013H72.3727C72.5732 60.3619 72.8548 60.671 73.1951 60.9044C73.5354 61.1377 73.9252 61.2889 74.3339 61.346C74.7425 61.4031 75.1589 61.3647 75.5501 61.2336C75.9414 61.1025 76.2969 60.8824 76.5887 60.5906C76.8805 60.2989 77.1006 59.9434 77.2316 59.5521C77.3627 59.1608 77.4012 58.7445 77.3441 58.3358C77.2869 57.9272 77.1358 57.5374 76.9024 57.197C76.6691 56.8567 76.3599 56.5752 75.9993 56.3746V54.6679H80.3727C80.5999 55.0689 80.9317 55.4007 81.3327 55.6279V64.3746Z" fill="white"/>
</g>
<defs>
<filter id="filter0_d_6688_150045" x="0" y="0" width="143" height="143" filterUnits="userSpaceOnUse" color-interpolation-filters="sRGB">
<feFlood flood-opacity="0" result="BackgroundImageFix"/>
<feColorMatrix in="SourceAlpha" type="matrix" values="0 0 0 0 0 0 0 0 0 0 0 0 0 0 0 0 0 0 127 0" result="hardAlpha"/>
<feOffset dy="15"/>
<feGaussianBlur stdDeviation="15"/>
<feComposite in2="hardAlpha" operator="out"/>
<feColorMatrix type="matrix" values="0 0 0 0 0.980392 0 0 0 0 0.733333 0 0 0 0 0.352941 0 0 0 0.26 0"/>
<feBlend mode="normal" in2="BackgroundImageFix" result="effect1_dropShadow_6688_150045"/>
<feBlend mode="normal" in="SourceGraphic" in2="effect1_dropShadow_6688_150045" result="shape"/>
</filter>
</defs>
</svg>
