<svg width="143" height="143" viewBox="0 0 143 143" fill="none" xmlns="http://www.w3.org/2000/svg">
<g filter="url(#filter0_d_5475_148505)">
<circle cx="71.5" cy="56.5" r="41.5" fill="#FABB5A"/>
<path d="M81.3327 42.668H62.666C61.6051 42.668 60.5877 43.0894 59.8376 43.8395C59.0874 44.5897 58.666 45.6071 58.666 46.668V60.0013C58.666 61.0622 59.0874 62.0796 59.8376 62.8297C60.5877 63.5799 61.6051 64.0013 62.666 64.0013H66.186L65.4127 65.3346C65.1786 65.74 65.0554 66.1999 65.0554 66.668C65.0554 67.1361 65.1786 67.5959 65.4127 68.0013C65.6487 68.4102 65.9892 68.7491 66.3991 68.9834C66.8091 69.2176 67.2739 69.3389 67.746 69.3346H76.3593C76.827 69.3342 77.2863 69.2107 77.6911 68.9767C78.096 68.7427 78.4322 68.4063 78.666 68.0013C78.9001 67.5959 79.0233 67.1361 79.0233 66.668C79.0233 66.1999 78.9001 65.74 78.666 65.3346L77.8793 64.0013H81.3327C82.3935 64.0013 83.411 63.5799 84.1611 62.8297C84.9113 62.0796 85.3327 61.0622 85.3327 60.0013V46.668C85.3327 45.6071 84.9113 44.5897 84.1611 43.8395C83.411 43.0894 82.3935 42.668 81.3327 42.668ZM67.6927 66.668L69.3327 64.0013H74.666L76.266 66.668H67.6927ZM82.666 60.0013C82.666 60.3549 82.5255 60.6941 82.2755 60.9441C82.0254 61.1942 81.6863 61.3346 81.3327 61.3346H62.666C62.3124 61.3346 61.9733 61.1942 61.7232 60.9441C61.4732 60.6941 61.3327 60.3549 61.3327 60.0013V58.668H82.666V60.0013ZM82.666 56.0013H61.3327V46.668C61.3327 46.3143 61.4732 45.9752 61.7232 45.7252C61.9733 45.4751 62.3124 45.3346 62.666 45.3346H81.3327C81.6863 45.3346 82.0254 45.4751 82.2755 45.7252C82.5255 45.9752 82.666 46.3143 82.666 46.668V56.0013Z" fill="white"/>
</g>
<defs>
<filter id="filter0_d_5475_148505" x="0" y="0" width="143" height="143" filterUnits="userSpaceOnUse" color-interpolation-filters="sRGB">
<feFlood flood-opacity="0" result="BackgroundImageFix"/>
<feColorMatrix in="SourceAlpha" type="matrix" values="0 0 0 0 0 0 0 0 0 0 0 0 0 0 0 0 0 0 127 0" result="hardAlpha"/>
<feOffset dy="15"/>
<feGaussianBlur stdDeviation="15"/>
<feComposite in2="hardAlpha" operator="out"/>
<feColorMatrix type="matrix" values="0 0 0 0 0.980392 0 0 0 0 0.733333 0 0 0 0 0.352941 0 0 0 0.26 0"/>
<feBlend mode="normal" in2="BackgroundImageFix" result="effect1_dropShadow_5475_148505"/>
<feBlend mode="normal" in="SourceGraphic" in2="effect1_dropShadow_5475_148505" result="shape"/>
</filter>
</defs>
</svg>
