<svg width="202" height="30" viewBox="0 0 202 30" fill="none" xmlns="http://www.w3.org/2000/svg">
<path opacity="0.5" d="M5.56746 0C1.34428 0 -1.32298 4.54835 0.677467 8.01376L12.2356 27.2901C14.2361 30.7555 19.5706 30.9721 21.7933 27.5067L34.0183 8.23035C36.241 4.54835 33.5738 0 29.3506 0H5.56746V0Z" fill="#494949" fill-opacity="0.6"/>
<path d="M11.125 12.7774C11.125 9.52854 14.0145 6.71289 17.3486 6.71289C20.6827 6.71289 23.5723 9.52854 23.5723 12.7774C23.5723 15.1598 22.6832 15.8096 18.0154 22.5238C17.7932 22.957 17.1264 22.957 16.6818 22.5238C12.0141 15.8096 11.125 15.1598 11.125 12.7774ZM20.0159 12.7774C20.0159 11.4778 18.9045 10.1783 17.3486 10.1783C15.7927 10.1783 14.6814 11.2612 14.6814 12.7774C14.6814 14.0769 15.7927 15.3764 17.3486 15.3764C18.9045 15.3764 20.0159 14.0769 20.0159 12.7774Z" fill="#494949"/>
<path fill-rule="evenodd" clip-rule="evenodd" d="M52.0238 26.8553H46.9115V6.49603H40.9102V2.38086H58.0251V6.49603H52.0238V26.8553ZM62.9159 9.95941V12.5585C63.3605 11.2589 63.805 10.8258 64.4718 10.3926C65.1386 9.95941 66.25 9.52624 67.3614 9.52624H68.0282V14.2912H66.9168C65.5832 14.2912 64.4718 14.9409 63.805 15.8073C63.1382 16.6736 63.1382 17.3234 63.1382 18.8395V27.0699H58.2482V9.95941H62.9159ZM88.2553 9.96195H83.3653V12.1278C81.5871 10.1785 80.0312 9.31219 77.5863 9.31219C72.6963 9.31219 68.9176 13.2108 68.9176 18.6255C68.9176 23.8236 72.474 27.5056 77.364 27.5056C79.809 27.5056 81.8094 26.4227 83.3653 24.4734V26.8558H88.2553V9.96195ZM78.6976 23.8236C76.0303 23.8236 74.0299 21.6577 74.0299 18.6255C74.0299 15.3767 76.0303 13.2108 78.6976 13.2108C81.5872 13.2108 83.5876 15.3767 83.5876 18.4089C83.5876 21.4411 81.3649 23.8236 78.6976 23.8236ZM107.147 24.9065C105.147 26.6392 103.146 27.5056 100.479 27.5056C95.1443 27.5056 91.3656 23.607 91.3656 18.4089C91.3656 12.9942 95.1443 9.31219 100.701 9.31219C103.368 9.31219 105.369 10.1785 107.592 12.1278L104.48 14.9435C103.368 13.8605 102.257 13.4274 100.923 13.4274C98.2561 13.4274 96.2556 15.5932 96.2556 18.4089C96.2556 21.2245 98.2561 23.3904 101.146 23.3904C102.479 23.3904 103.368 22.9572 104.48 21.8743L107.147 24.9065ZM109.147 26.8553H114.037V19.9245L118.927 26.8553H124.484L118.483 17.9752L124.484 9.96144H118.927L114.037 16.4591V2.38086H109.147V26.8553ZM131.82 26.8553H126.707V2.38086H131.82V12.7771H141.377V2.38086H146.489V26.8553H141.377V16.8923H131.82V26.8553ZM159.604 23.3904C157.159 23.3904 155.381 21.8743 154.936 19.4918H168.717V18.6255C168.717 13.2108 164.716 9.31219 159.16 9.31219C153.825 9.31219 150.046 12.9942 150.046 18.4089C150.046 23.607 154.047 27.5056 159.604 27.5056C163.161 27.5056 166.272 25.5563 168.051 22.3075L163.605 21.2245C162.938 22.5241 161.382 23.3904 159.604 23.3904ZM159.382 13.2108C161.827 13.2108 163.383 14.7269 163.827 16.8928H155.159C155.603 14.5103 157.159 13.2108 159.382 13.2108ZM176.275 9.95941V12.5585C176.719 11.2589 177.164 10.8258 177.831 10.3926C178.498 9.95941 179.609 9.52624 180.72 9.52624H181.387V14.2912H180.276C178.942 14.2912 177.831 14.9409 177.164 15.8073C176.497 16.6736 176.497 17.3234 176.497 18.8395V27.0699H171.607V9.95941H176.275ZM191.61 27.5056C196.945 27.5056 201.168 23.607 201.168 18.6255C201.168 13.2108 197.167 9.31219 191.61 9.31219C185.831 9.31219 182.053 12.9942 182.053 18.4089C182.053 23.8236 186.054 27.5056 191.61 27.5056ZM191.61 23.3904C188.721 23.3904 186.943 21.4411 186.943 18.4089C186.943 15.3767 188.943 13.4274 191.61 13.644C194.5 13.644 196.278 15.5932 196.278 18.6255C196.278 21.4411 194.278 23.3904 191.61 23.3904Z" fill="#494949" fill-opacity="0.6"/>
</svg>
