<svg width="190" height="48" viewBox="0 0 190 48" fill="none" xmlns="http://www.w3.org/2000/svg">
<path d="M32.5581 27.3754C32.5581 27.3754 32.0889 26.6943 28.9848 22.0448L27.914 20.4753C17.5551 5.92284 31.4633 0 31.4633 0C11.0641 7.72931 20.4546 19.9837 20.4546 19.9837C20.4546 19.9837 20.9238 20.6648 24.0339 25.3142L25.0987 26.8719C35.4637 41.4125 21.5374 47.3828 21.5374 47.3828C41.9546 39.6297 32.5581 27.3754 32.5581 27.3754Z" fill="#494949"/>
<g opacity="0.7">
<path fill-rule="evenodd" clip-rule="evenodd" d="M47.6379 42.5408L47.6854 43.4421H48.3207V34.7148H47.5844V39.2814C47.146 38.6417 46.4152 38.2687 45.6427 38.2905C44.2457 38.3845 43.1602 39.5512 43.1602 40.9588C43.1602 42.3665 44.2457 43.5332 45.6427 43.6272C46.454 43.6533 47.2164 43.2381 47.6379 42.5408ZM45.8903 42.6501C44.8846 42.7146 44.011 41.9617 43.9208 40.9527C43.8798 40.4353 44.0527 39.9238 44.3988 39.5386C44.7448 39.1534 45.2335 38.9286 45.7496 38.9171C46.7573 38.905 47.5909 39.7024 47.6291 40.7147C47.6672 41.7271 46.8959 42.5855 45.8903 42.6501Z" fill="#494949"/>
<path d="M50.9868 40.6736V43.6292H50.1953V38.6579H50.8974L50.9421 39.5505C51.4092 38.9085 52.1754 38.5078 53.0101 38.4688V39.2785C52.5388 39.1931 52.0504 39.296 51.6652 39.5616C51.2799 39.8272 51.0336 40.2309 50.9868 40.6736Z" fill="#494949"/>
<path fill-rule="evenodd" clip-rule="evenodd" d="M53.9535 35.6562V36.5365H54.7912V35.6562H53.9535ZM53.9531 38.2197V43.1623H54.7908V38.2197H53.9531Z" fill="#494949"/>
<path d="M58.9416 43.6292H58.3666L56.2969 38.4688H57.0386L58.6599 42.6378L60.2754 38.4688H60.9883L58.9416 43.6292Z" fill="#494949"/>
<path fill-rule="evenodd" clip-rule="evenodd" d="M61.9258 35.6562V36.5365H62.7635V35.6562H61.9258ZM61.9259 38.2197V43.1623H62.7636V38.2197H61.9259Z" fill="#494949"/>
<path d="M68.665 43.1308V40.277C68.665 39.088 68.1546 38.6659 67.3061 38.6659C66.351 38.7137 65.5804 39.4384 65.5046 40.3603V43.1308H64.7422V38.1902H65.4124L65.4615 39.1177C65.9049 38.4316 66.6786 38.0105 67.5152 38C68.8187 38 69.4335 38.8145 69.4335 40.1878V43.1605L68.665 43.1308Z" fill="#494949"/>
<path fill-rule="evenodd" clip-rule="evenodd" d="M71.3094 45.8526C71.9193 46.2261 72.6184 46.4304 73.3342 46.4441C74.5218 46.4441 76.0003 45.9532 76.0003 43.6344V38.6597H75.359L75.3175 39.5529C74.902 38.8549 74.1363 38.4394 73.3223 38.4704C71.9253 38.5636 70.8398 39.7197 70.8398 41.1145C70.8398 42.5094 71.9253 43.6655 73.3223 43.7586C74.0923 43.7828 74.8217 43.415 75.2581 42.7826V43.6758C75.2581 45.3025 74.308 45.8053 73.4055 45.8053C72.6588 45.8092 71.9283 45.5886 71.3094 45.1724V45.8526ZM71.6008 41.1175C71.6008 40.0672 72.4032 39.1895 73.4529 39.0915C73.975 39.0911 74.4732 39.3095 74.8256 39.6932C75.178 40.0769 75.3522 40.5906 75.3055 41.1086C75.3501 41.6279 75.1757 42.1422 74.8243 42.5282C74.4728 42.9142 73.976 43.1371 73.4529 43.1435C72.4032 43.0455 71.6008 42.1678 71.6008 41.1175Z" fill="#494949"/>
<path fill-rule="evenodd" clip-rule="evenodd" d="M80.2234 45.8525C80.8337 46.2252 81.5326 46.4294 82.2482 46.444C83.4358 46.444 84.9144 45.9531 84.9144 43.6343V38.6597H84.279L84.2315 39.5529C83.817 38.8539 83.0507 38.4382 82.2364 38.4705C80.8393 38.5636 79.7539 39.7197 79.7539 41.1145C79.7539 42.5094 80.8393 43.6654 82.2364 43.7586C83.0077 43.7815 83.7383 43.4142 84.1781 42.7826V43.6758C84.1781 45.3024 83.2221 45.8052 82.3254 45.8052C81.5768 45.8099 80.8441 45.5893 80.2234 45.1723V45.8525ZM80.5149 41.1174C80.5149 40.0672 81.3173 39.1895 82.367 39.0915C82.8891 39.0911 83.3873 39.3094 83.7397 39.6932C84.0922 40.0769 84.2663 40.5906 84.2196 41.1086C84.2642 41.6278 84.0899 42.1421 83.7384 42.5281C83.387 42.9141 82.8901 43.137 82.367 43.1434C81.3173 43.0454 80.5149 42.1677 80.5149 41.1174Z" fill="#494949"/>
<path d="M87.5805 40.6736V43.6292H86.7891V38.6579H87.4912L87.5358 39.5505C88.0015 38.9071 88.7685 38.506 89.6039 38.4688V39.2785C89.1325 39.1931 88.6442 39.296 88.2589 39.5616C87.8737 39.8272 87.6274 40.2309 87.5805 40.6736Z" fill="#494949"/>
<path fill-rule="evenodd" clip-rule="evenodd" d="M90.8886 42.3391C91.3496 43.1374 92.2014 43.6292 93.1232 43.6292C94.045 43.6292 94.8968 43.1374 95.3578 42.3391C95.8187 41.5408 95.8187 40.5573 95.3578 39.7589C94.8968 38.9606 94.045 38.4688 93.1232 38.4688C92.2014 38.4688 91.3496 38.9606 90.8886 39.7589C90.4277 40.5573 90.4277 41.5408 90.8886 42.3391ZM91.7606 39.6581C92.1161 39.2874 92.6096 39.081 93.1232 39.0882C93.6368 39.0792 94.1309 39.2852 94.4859 39.6565C94.8409 40.0278 95.0245 40.5306 94.9924 41.0434C95.0308 41.7369 94.6827 42.395 94.0876 42.7533C93.4925 43.1116 92.7481 43.1116 92.1531 42.7533C91.558 42.395 91.2098 41.7369 91.2482 41.0434C91.2195 40.5305 91.4051 40.0288 91.7606 39.6581Z" fill="#494949"/>
<path d="M102.676 43.6292H102.11L100.644 39.6388L99.147 43.6292H98.5812L96.6406 38.4688H97.3949L98.8915 42.5207L100.364 38.4688H100.924L102.438 42.5207L103.892 38.4688H104.616L102.676 43.6292Z" fill="#494949"/>
<path d="M106.85 38.8342V43.1617H106.132V38.8342H105.086V38.2447H106.132V36.5938H106.85V38.2447H107.901V38.8342H106.85Z" fill="#494949"/>
<path d="M113.231 43.5981V40.6815C113.231 39.4663 112.721 39.0349 111.866 39.0349C110.914 39.0867 110.147 39.8267 110.071 40.7666V43.5981H109.309V34.7148H110.071V39.4663C110.504 38.7801 111.263 38.3606 112.082 38.3544C113.385 38.3544 114 39.1868 114 40.5904V43.6284L113.231 43.5981Z" fill="#494949"/>
<path d="M123.316 43.6292H122.75L121.284 39.6388L119.787 43.6292H119.222L117.281 38.4688H118.041L119.538 42.5207L121.004 38.4688H121.564L123.078 42.5207L124.532 38.4688H125.256L123.316 43.6292Z" fill="#494949"/>
<path fill-rule="evenodd" clip-rule="evenodd" d="M126.668 35.6562V36.5365H127.505V35.6562H126.668ZM126.668 38.2197V43.1623H127.505V38.2197H126.668Z" fill="#494949"/>
<path d="M130.318 38.8342V43.1617H129.594V38.8342H128.543V38.2447H129.594V36.5938H130.307V38.2447H131.358V38.8342H130.318Z" fill="#494949"/>
<path d="M136.7 43.5679V40.6613C136.7 39.4502 136.189 39.0203 135.333 39.0203C134.378 39.0693 133.608 39.8081 133.535 40.746V43.5679H132.766V34.7148H133.535V39.4502C133.966 38.7655 134.724 38.3469 135.542 38.342C136.841 38.342 137.457 39.1716 137.457 40.6007V43.6284L136.7 43.5679Z" fill="#494949"/>
<path fill-rule="evenodd" clip-rule="evenodd" d="M141.211 43.6284H142.055L143.074 41.0434H147.232L148.294 43.6284H149.186L145.545 34.7148H144.883L141.211 43.6284ZM143.402 40.3116L145.174 35.9341L146.965 40.3116H143.402Z" fill="#494949"/>
<path d="M151.064 34.7148V43.6284H150.125V34.7148H151.064Z" fill="#494949"/>
</g>
<g opacity="0.7">
<path d="M51.6052 3.28516H33.8481L28.1484 14.5002C28.3204 14.757 28.4924 15.0138 28.6763 15.2765L29.9989 17.2532V17.295C30.4674 18.0176 30.8885 18.6625 31.2681 19.2358L36.8669 8.25965H48.8533C49.0016 7.99092 49.1558 7.71622 49.304 7.43555L50.4428 5.33348H50.4902L51.6052 3.28516Z" fill="#494949"/>
<path d="M21.6105 27.1806L17.4752 35.2179L11.43 23.457H0C0.339151 24.0471 2.60611 28.0894 2.76081 28.3608H8.40738L14.7084 40.6056L17.4633 45.9756H17.505L20.2301 40.6056L24.3951 32.586C23.6981 30.676 22.7626 28.86 21.6105 27.1806Z" fill="#494949"/>
<path d="M38 14.0742H41.1142L46.4326 29.2362L51.7865 14.0742H54.8889L48.17 31.4322H44.5771L38 14.0742Z" fill="#494949"/>
<path fill-rule="evenodd" clip-rule="evenodd" d="M61.3296 17.3594C55.8286 17.3594 54.4219 20.7072 54.4219 24.3697C54.4219 28.0144 55.7987 31.4097 61.3356 31.4334C65.6753 31.4334 67.2975 29.3737 67.5369 27.0468H64.544C64.2746 28.1449 63.5444 29.2431 61.2518 29.2431C58.7676 29.2431 57.5824 27.8956 57.4208 25.5213H67.507C67.8602 21.2177 66.4295 17.3594 61.3296 17.3594ZM64.544 23.2181V23.2478L57.4688 23.2715C57.5825 21.2652 58.4445 19.609 61.0603 19.609C63.6761 19.609 64.544 21.3483 64.544 23.2181Z" fill="#494949"/>
<path d="M69.4297 24.3994C69.4297 20.7606 70.9255 17.3594 76.3113 17.3594C80.533 17.3594 82.5655 19.5853 82.5655 23.0104H79.5982C79.4113 20.8912 78.5367 19.6922 76.2268 19.6922C73.2113 19.6922 72.397 21.7223 72.397 24.3697C72.397 27.0171 73.2113 28.976 76.2811 28.976C78.591 28.976 79.4113 27.8481 79.5982 25.8715H82.5655C82.5655 29.2431 80.6356 31.4334 76.3655 31.4334C70.8712 31.4394 69.4297 28.044 69.4297 24.3994Z" fill="#494949"/>
<path d="M84.5449 27.3301V19.8311H82.5703V18.107L84.5449 17.5104V14.0742H87.4137V17.5164H91.0148V19.8311H87.4677V27.3301C87.4677 28.6246 88.0079 29.2152 91.0148 29.078V31.3927C86.4654 31.6612 84.5449 30.5874 84.5449 27.3301Z" fill="#494949"/>
<path fill-rule="evenodd" clip-rule="evenodd" d="M98.7615 17.3594C93.3696 17.3594 91.9531 20.7844 91.9531 24.3994C91.9531 28.044 93.3517 31.4334 98.7199 31.4334C104.089 31.4334 105.559 28.0084 105.559 24.3994C105.559 20.7903 104.154 17.3594 98.7615 17.3594ZM98.7734 19.6921C102.023 19.6921 102.666 21.8587 102.666 24.3993H102.654C102.654 27.0527 101.916 29.1065 98.7496 29.1065C95.5834 29.1065 94.8871 26.9696 94.8871 24.3993C94.8871 21.8291 95.5239 19.6921 98.7734 19.6921Z" fill="#494949"/>
<path d="M107.43 17.5518H108.95L109.612 19.4765C110.038 18.5563 111.345 17.3594 114.012 17.3594H114.467V19.9396C114.195 19.9396 113.929 19.8855 113.693 19.8855C110.842 19.8855 110.28 21.4854 110.28 23.7348V31.4334H107.43V17.5518Z" fill="#494949"/>
<path d="M116.344 25.1732H119.291C119.39 27.6658 120.938 28.9121 123.937 28.9121C126.678 28.9121 128.028 28.0878 128.028 26.4686C128.028 25.0672 127.102 24.5079 123.489 23.766C118.572 22.7297 116.868 21.4814 116.868 18.9083C116.868 15.6699 119.291 14.0742 123.648 14.0742C128.217 14.0742 130.633 16.1232 130.663 20.0506H127.763C127.633 17.607 126.33 16.5177 123.542 16.5177C120.907 16.5177 119.739 17.2361 119.739 18.8023C119.739 20.1036 120.724 20.6571 124.455 21.4814C129.319 22.5177 130.887 23.713 130.887 26.339C130.887 29.5245 128.311 31.4322 124.007 31.4322C118.89 31.4322 116.397 29.3891 116.344 25.1732Z" fill="#494949"/>
<path d="M132.766 24.3994C132.766 20.7607 134.263 17.3594 139.651 17.3594C143.875 17.3594 145.902 19.5853 145.902 23.0104H142.94C142.753 20.8912 141.878 19.6922 139.567 19.6922C136.55 19.6922 135.735 21.7223 135.735 24.3697C135.735 27.0171 136.55 28.976 139.621 28.976C141.932 28.976 142.753 27.8482 142.94 25.8715H145.902C145.902 29.2431 143.971 31.4334 139.705 31.4334C134.209 31.4394 132.766 28.044 132.766 24.3994Z" fill="#494949"/>
<path fill-rule="evenodd" clip-rule="evenodd" d="M149.459 12.1992C148.154 12.1992 147.309 12.5486 147.309 13.9343C147.309 15.3082 148.209 15.6458 149.459 15.6458C150.71 15.6458 151.531 15.3201 151.531 13.9343C151.531 12.5486 150.764 12.1992 149.459 12.1992ZM150.873 17.7541H147.991V31.4338H150.873V17.7541Z" fill="#494949"/>
<path fill-rule="evenodd" clip-rule="evenodd" d="M159.843 17.3594C154.338 17.3594 152.938 20.7072 152.938 24.3697C152.938 28.0144 154.314 31.4097 159.867 31.4335C164.212 31.4335 165.829 29.3737 166.074 27.0468H163.051C162.782 28.145 162.052 29.2431 159.76 29.2431C157.282 29.2431 156.091 27.8956 155.93 25.5213H166.02C166.373 21.2177 164.942 17.3594 159.843 17.3594ZM163.051 23.2329C163.044 23.2404 163.036 23.2478 163.051 23.2478L155.983 23.2715C156.091 21.2652 156.959 19.6091 159.574 19.6091C162.189 19.6091 163.081 21.3483 163.051 23.2181C163.066 23.2181 163.059 23.2255 163.051 23.2329Z" fill="#494949"/>
<path d="M168.422 17.5518H169.988L170.634 19.5006C171.088 18.5563 172.547 17.3594 175.673 17.3594C180.198 17.3594 181.089 20.0178 181.089 23.9754V31.4335H178.231V23.7047C178.231 21.2388 177.801 19.7772 174.86 19.7772C171.919 19.7772 171.315 21.2087 171.315 23.7047V31.4335H168.434L168.422 17.5518Z" fill="#494949"/>
<path d="M183.529 27.3301V19.8311H181.555V18.107L183.529 17.5105V14.0742H186.398V17.5164H189.999V19.8311H186.452V27.3301C186.452 28.6247 186.998 29.2153 189.999 29.078V31.3928C185.474 31.6612 183.529 30.5874 183.529 27.3301Z" fill="#494949"/>
</g>
</svg>
