<svg width="1440" height="1471" viewBox="0 0 1440 1471" fill="none" xmlns="http://www.w3.org/2000/svg">
<g style="mix-blend-mode:overlay">
<g style="mix-blend-mode:hard-light">
<path d="M961.55 477.471C999.601 507.706 1023.23 539.059 1035.42 571.42C1047.62 603.775 1048.42 637.217 1040.69 671.686C1025.22 740.686 975.602 813.692 914.959 890.01C854.316 966.328 794.41 1031.16 730.689 1061.82C698.858 1077.14 666.1 1083.91 631.826 1079.34C597.546 1074.77 561.665 1058.84 523.615 1028.61C447.546 968.163 417.654 894.136 421.831 816.219C426.011 738.245 464.319 656.268 524.881 580.052C585.442 503.836 656.644 447.996 731.657 426.307C806.616 404.633 885.482 417.026 961.55 477.471Z" stroke="#575757" stroke-width="2"/>
<path d="M899.513 430.952C943.245 452.153 973.145 477.594 992.112 506.512C1011.08 535.425 1019.16 567.886 1019.14 603.21C1019.1 673.924 986.609 756 944.085 843.714C901.562 931.428 857.25 1007.77 801.758 1051.6C774.037 1073.5 743.547 1087.26 709.102 1090.28C674.651 1093.3 636.158 1085.59 592.426 1064.38C504.999 1022 459.671 956.282 446.741 879.332C433.801 802.325 453.294 713.964 495.76 626.367C538.227 538.77 595.524 468.737 663.995 431.197C732.416 393.686 812.086 388.567 899.513 430.952Z" stroke="#575757" stroke-width="2"/>
<path d="M505.097 454.732C541.119 422.107 575.898 403.895 609.812 397.124C643.72 390.354 676.847 395.003 709.6 408.235C775.165 434.723 839.127 495.56 904.564 567.81C970.001 640.059 1024.23 709.714 1044.11 777.573C1054.05 811.472 1055.4 844.896 1045.32 877.97C1035.23 911.05 1013.68 943.862 977.656 976.487C905.643 1041.71 827.74 1059.16 751.54 1042.37C675.284 1025.56 600.63 974.425 535.281 902.273C469.931 830.12 426.418 750.783 417.219 673.241C408.027 595.755 433.085 519.955 505.097 454.732Z" stroke="#575757" stroke-width="2"/>
<path d="M461.601 494.223C491.716 456.078 522.995 432.353 555.317 420.053C587.634 407.755 621.073 406.848 655.566 414.468C724.615 429.721 797.777 479.112 874.286 539.514C950.794 599.916 1015.82 659.618 1046.68 723.242C1062.09 755.024 1068.97 787.761 1064.51 822.049C1060.05 856.344 1044.23 892.274 1014.12 930.42C953.911 1006.68 879.979 1036.8 802.049 1032.87C724.062 1028.94 641.965 990.888 565.558 930.567C489.152 870.246 433.088 799.221 411.162 724.276C389.252 649.386 401.397 570.482 461.601 494.223Z" stroke="#575757" stroke-width="2"/>
<path d="M420.279 548.118C442.535 504.913 468.694 475.64 498.064 457.38C527.429 439.124 560.077 431.833 595.39 432.709C666.082 434.463 747.346 468.937 834.002 513.577C920.657 558.217 995.906 604.369 1038.37 660.909C1059.59 689.153 1072.61 719.968 1074.79 754.476C1076.98 788.991 1068.33 827.284 1046.07 870.489C1001.58 956.862 934.779 1000.58 857.537 1011.64C780.239 1022.71 692.377 1001.08 605.837 956.495C519.297 911.915 450.674 852.934 414.808 783.572C378.968 714.261 375.785 634.49 420.279 548.118Z" stroke="#575757" stroke-width="2"/>
<path d="M388.411 613.289C401.371 566.448 420.997 532.448 446.017 508.572C471.032 484.702 501.501 470.894 536.249 464.536C605.807 451.809 692.401 468.952 786.349 494.945C880.298 520.938 963.388 550.742 1016.51 597.411C1043.05 620.725 1062.09 648.23 1071.28 681.564C1080.47 714.904 1079.83 754.157 1066.87 800.998C1040.96 894.639 984.505 951.085 911.152 977.692C837.746 1004.32 747.317 1001.1 653.494 975.138C559.671 949.18 480.445 905.464 431.164 844.894C381.919 784.367 362.504 706.93 388.411 613.289Z" stroke="#575757" stroke-width="2"/>
<path d="M427.907 933.657C397.373 895.846 381.159 860.093 376.318 825.85C371.477 791.613 377.993 758.802 393.058 726.851C423.215 662.89 487.574 602.474 563.411 541.231C639.248 479.987 711.86 429.791 780.736 413.776C815.142 405.776 848.59 406.314 881.04 418.254C913.496 430.196 945.035 453.574 975.57 491.384C1036.61 566.973 1049.63 645.739 1028.55 720.866C1007.45 796.048 952.174 867.689 876.438 928.85C800.703 990.011 719.031 1028.97 641.092 1033.76C563.21 1038.55 488.95 1009.25 427.907 933.657Z" stroke="#575757" stroke-width="2"/>
</g>
<circle cx="455.75" cy="636.44" r="10.4502" transform="rotate(-25.39 455.75 636.44)" fill="#343434"/>
<circle cx="630.068" cy="394.436" r="8.03865" transform="rotate(-25.39 630.068 394.436)" fill="#343434"/>
<circle cx="536.191" cy="930.589" r="5.22512" transform="rotate(-25.39 536.191 930.589)" fill="#343434"/>
</g>
</svg>
