<svg width="523" height="2297" viewBox="0 0 523 2297" fill="none" xmlns="http://www.w3.org/2000/svg">
<path d="M82.5 26.9971L82.2745 27.9713C82.3484 27.9884 82.4241 27.9971 82.5 27.9971V26.9971ZM477.5 390.997L476.599 390.564L477.5 390.997ZM351.243 2293.46C351.777 2293.61 352.324 2293.29 352.466 2292.75C352.608 2292.22 352.291 2291.67 351.757 2291.53L351.243 2293.46ZM4.5351 98.7344C4.39006 99.2673 4.70447 99.8169 5.23737 99.962C5.77026 100.107 6.31985 99.7926 6.4649 99.2597L4.5351 98.7344ZM7.791 94.6166C7.94942 94.0875 7.64894 93.5302 7.11986 93.3717C6.59079 93.2133 6.03346 93.5138 5.87504 94.0429L7.791 94.6166ZM8.91178 84.8196C8.72423 85.3391 8.99329 85.9122 9.51276 86.0998C10.0322 86.2873 10.6054 86.0182 10.7929 85.4988L8.91178 84.8196ZM14.3186 76.6111C14.539 76.1047 14.307 75.5155 13.8006 75.2952C13.2942 75.0749 12.705 75.3068 12.4847 75.8132L14.3186 76.6111ZM16.6906 67.0317C16.4332 67.5203 16.6207 68.1251 17.1093 68.3825C17.598 68.6399 18.2027 68.4524 18.4601 67.9638L16.6906 67.0317ZM23.2699 59.6987C23.5686 59.2342 23.4342 58.6155 22.9697 58.3167C22.5052 58.018 21.8865 58.1524 21.5877 58.6169L23.2699 59.6987ZM27.2555 50.6909C26.9114 51.1229 26.9827 51.752 27.4147 52.0961C27.8467 52.4402 28.4758 52.3689 28.8199 51.9369L27.2555 50.6909ZM35.1853 44.8246C35.5778 44.436 35.5809 43.8028 35.1923 43.4104C34.8038 43.0179 34.1706 43.0148 33.7781 43.4033L35.1853 44.8246ZM41.1599 37.0023C40.7187 37.3345 40.6303 37.9615 40.9625 38.4027C41.2947 38.8439 41.9217 38.9323 42.3629 38.6001L41.1599 37.0023ZM50.3495 33.4756C50.8361 33.2144 51.0188 32.6082 50.7576 32.1216C50.4964 31.635 49.8901 31.4523 49.4035 31.7135L50.3495 33.4756ZM58.412 27.8066C57.8883 27.9819 57.6059 28.5486 57.7812 29.0723C57.9566 29.596 58.5233 29.8785 59.047 29.7031L58.412 27.8066ZM68.2412 27.5392C68.7884 27.4645 69.1714 26.9604 69.0967 26.4132C69.022 25.866 68.5179 25.4829 67.9707 25.5576L68.2412 27.5392ZM77.8307 25.2669C77.2804 25.2199 76.7963 25.6279 76.7493 26.1782C76.7024 26.7285 77.1104 27.2127 77.6607 27.2596L77.8307 25.2669ZM87.2409 28.2672C87.79 28.3258 88.2827 27.9282 88.3414 27.379C88.4 26.8298 88.0024 26.3371 87.4532 26.2785L87.2409 28.2672ZM97.5501 28.1019C97.0133 27.9721 96.4729 28.3021 96.3431 28.8389C96.2133 29.3757 96.5432 29.9161 97.08 30.0459L97.5501 28.1019ZM106.722 32.7975C107.248 32.9676 107.812 32.6795 107.982 32.154C108.152 31.6286 107.864 31.0647 107.338 30.8947L106.722 32.7975ZM116.942 34.2917C116.426 34.0951 115.848 34.354 115.652 34.8701C115.455 35.3862 115.714 35.964 116.23 36.1606L116.942 34.2917ZM125.68 39.9776C126.188 40.1936 126.775 39.9568 126.991 39.4485C127.207 38.9402 126.971 38.3531 126.462 38.137L125.68 39.9776ZM135.692 42.2264C135.191 41.9956 134.597 42.2152 134.366 42.717C134.135 43.2187 134.355 43.8126 134.857 44.0434L135.692 42.2264ZM143.936 48.3554C144.432 48.5981 145.031 48.3926 145.274 47.8965C145.516 47.4004 145.311 46.8015 144.815 46.5588L143.936 48.3554ZM154.003 51.1737C153.512 50.9209 152.909 51.1141 152.657 51.6051C152.404 52.0961 152.597 52.6991 153.088 52.9519L154.003 51.1737ZM161.914 57.5944C162.401 57.8556 163.007 57.6729 163.268 57.1863C163.529 56.6997 163.347 56.0934 162.86 55.8322L161.914 57.5944ZM171.81 60.7285C171.328 60.4598 170.719 60.6331 170.45 61.1156C170.181 61.598 170.355 62.207 170.837 62.4758L171.81 60.7285ZM179.595 67.4349C180.074 67.7103 180.685 67.5454 180.96 67.0667C181.236 66.588 181.071 65.9767 180.592 65.7013L179.595 67.4349ZM189.365 70.8234C188.89 70.542 188.276 70.699 187.995 71.1742C187.713 71.6494 187.87 72.2628 188.346 72.5442L189.365 70.8234ZM197.002 77.7405C197.473 78.0275 198.089 77.8776 198.376 77.4058C198.663 76.9339 198.513 76.3187 198.041 76.0317L197.002 77.7405ZM206.68 81.3518C206.211 81.0597 205.595 81.2028 205.303 81.6715C205.01 82.1402 205.154 82.757 205.622 83.0491L206.68 81.3518ZM214.164 88.4349C214.63 88.7318 215.248 88.595 215.545 88.1294C215.842 87.6637 215.705 87.0455 215.239 86.7485L214.164 88.4349ZM223.772 92.2494C223.309 91.9479 222.69 92.0786 222.388 92.5413C222.087 93.0041 222.218 93.6236 222.68 93.9251L223.772 92.2494ZM231.106 99.4721C231.566 99.778 232.187 99.6531 232.493 99.1932C232.798 98.7333 232.674 98.1126 232.214 97.8068L231.106 99.4721ZM240.653 103.475C240.196 103.165 239.574 103.284 239.264 103.741C238.954 104.198 239.073 104.82 239.53 105.13L240.653 103.475ZM247.844 110.823C248.299 111.137 248.922 111.023 249.236 110.569C249.55 110.115 249.436 109.492 248.982 109.178L247.844 110.823ZM257.329 115.001C256.877 114.683 256.253 114.792 255.936 115.243C255.618 115.695 255.726 116.319 256.177 116.637L257.329 115.001ZM264.386 122.468C264.835 122.79 265.46 122.687 265.781 122.238C266.103 121.789 266 121.164 265.551 120.843L264.386 122.468ZM273.787 126.799C273.341 126.473 272.715 126.571 272.389 127.017C272.064 127.463 272.162 128.089 272.608 128.414L273.787 126.799ZM280.731 134.394C281.175 134.723 281.801 134.631 282.13 134.187C282.46 133.744 282.367 133.118 281.924 132.788L280.731 134.394ZM290.038 138.866C289.597 138.533 288.97 138.621 288.637 139.061C288.304 139.502 288.392 140.129 288.832 140.462L290.038 138.866ZM296.875 146.592C297.313 146.928 297.94 146.846 298.277 146.408C298.614 145.971 298.532 145.343 298.094 145.006L296.875 146.592ZM306.095 151.212C305.66 150.872 305.032 150.948 304.692 151.383C304.351 151.818 304.428 152.447 304.863 152.787L306.095 151.212ZM312.805 159.056C313.237 159.4 313.867 159.329 314.211 158.897C314.555 158.465 314.483 157.836 314.051 157.492L312.805 159.056ZM321.947 163.835C321.518 163.487 320.888 163.553 320.54 163.982C320.192 164.411 320.258 165.041 320.687 165.389L321.947 163.835ZM328.508 171.787C328.934 172.139 329.565 172.078 329.916 171.652C330.268 171.227 330.208 170.596 329.782 170.245L328.508 171.787ZM337.575 176.738C337.152 176.383 336.521 176.437 336.166 176.86C335.81 177.283 335.865 177.914 336.288 178.269L337.575 176.738ZM343.981 184.802C344.401 185.162 345.032 185.113 345.391 184.694C345.751 184.274 345.702 183.643 345.283 183.284L343.981 184.802ZM352.958 189.929C352.543 189.565 351.911 189.608 351.547 190.023C351.184 190.439 351.226 191.071 351.642 191.435L352.958 189.929ZM359.209 198.12C359.621 198.487 360.254 198.451 360.621 198.039C360.989 197.627 360.953 196.995 360.541 196.628L359.209 198.12ZM368.071 203.42C367.663 203.048 367.031 203.077 366.658 203.485C366.286 203.893 366.315 204.526 366.724 204.898L368.071 203.42ZM374.158 211.752C374.562 212.129 375.195 212.107 375.571 211.703C375.948 211.299 375.926 210.666 375.522 210.29L374.158 211.752ZM382.881 217.232C382.482 216.851 381.849 216.866 381.467 217.265C381.086 217.665 381.101 218.298 381.5 218.679L382.881 217.232ZM388.787 225.723C389.182 226.109 389.815 226.102 390.202 225.708C390.588 225.313 390.581 224.68 390.186 224.294L388.787 225.723ZM397.349 231.397C396.959 231.005 396.326 231.004 395.935 231.393C395.543 231.783 395.541 232.416 395.931 232.808L397.349 231.397ZM403.047 240.062C403.431 240.459 404.064 240.47 404.461 240.086C404.858 239.702 404.869 239.069 404.485 238.672L403.047 240.062ZM411.423 245.957C411.045 245.554 410.412 245.534 410.009 245.912C409.606 246.289 409.586 246.922 409.964 247.325L411.423 245.957ZM416.87 254.813C417.241 255.222 417.873 255.253 418.283 254.883C418.692 254.512 418.723 253.879 418.352 253.47L416.87 254.813ZM425.032 260.972C424.669 260.556 424.037 260.513 423.621 260.877C423.205 261.24 423.163 261.872 423.526 262.288L425.032 260.972ZM430.162 270.033C430.517 270.456 431.148 270.512 431.571 270.157C431.994 269.802 432.049 269.171 431.694 268.748L430.162 270.033ZM438.072 276.52C437.727 276.089 437.097 276.02 436.667 276.365C436.236 276.711 436.167 277.34 436.512 277.771L438.072 276.52ZM442.785 285.794C443.119 286.233 443.747 286.318 444.186 285.984C444.625 285.649 444.71 285.022 444.376 284.582L442.785 285.794ZM450.38 292.7C450.058 292.252 449.433 292.149 448.984 292.471C448.536 292.793 448.433 293.417 448.755 293.866L450.38 292.7ZM454.52 302.18C454.827 302.639 455.448 302.762 455.908 302.455C456.367 302.148 456.49 301.527 456.183 301.068L454.52 302.18ZM461.684 309.632C461.395 309.162 460.779 309.015 460.309 309.304C459.838 309.594 459.691 310.21 459.981 310.68L461.684 309.632ZM465.016 319.278C465.284 319.761 465.893 319.935 466.376 319.667C466.859 319.399 467.033 318.79 466.765 318.307L465.016 319.278ZM471.521 327.435C471.279 326.938 470.681 326.73 470.184 326.972C469.687 327.213 469.48 327.811 469.721 328.308L471.521 327.435ZM473.814 337.474C474.021 337.986 474.604 338.232 475.116 338.025C475.628 337.817 475.875 337.234 475.667 336.722L473.814 337.474ZM479.086 346.22C478.922 345.693 478.361 345.399 477.834 345.563C477.307 345.728 477.013 346.289 477.177 346.816L479.086 346.22ZM479.678 356.563C479.785 357.105 480.311 357.457 480.853 357.35C481.394 357.243 481.747 356.717 481.64 356.176L479.678 356.563ZM482.957 366.371C482.926 365.82 482.454 365.398 481.902 365.429C481.351 365.46 480.929 365.932 480.96 366.483L482.957 366.371ZM480.672 376.393C480.606 376.942 480.996 377.44 481.545 377.507C482.093 377.573 482.591 377.183 482.658 376.634L480.672 376.393ZM480.37 386.648C480.55 386.126 480.274 385.556 479.752 385.376C479.23 385.195 478.66 385.471 478.48 385.993L480.37 386.648ZM474.35 394.965C474.087 395.451 474.268 396.058 474.753 396.32C475.239 396.583 475.846 396.403 476.109 395.917L474.35 394.965ZM470.83 404.705C471.134 404.244 471.007 403.623 470.546 403.319C470.085 403.015 469.465 403.142 469.161 403.603L470.83 404.705ZM463.324 411.762C462.987 412.2 463.069 412.828 463.506 413.165C463.944 413.502 464.571 413.42 464.909 412.983L463.324 411.762ZM458.467 420.818C458.83 420.402 458.788 419.77 458.372 419.407C457.956 419.043 457.324 419.086 456.961 419.502L458.467 420.818ZM450.1 426.941C449.716 427.337 449.725 427.97 450.121 428.355C450.518 428.739 451.151 428.73 451.535 428.333L450.1 426.941ZM444.297 435.459C444.699 435.08 444.718 434.447 444.339 434.046C443.96 433.644 443.327 433.625 442.925 434.004L444.297 435.459ZM435.476 440.761C435.06 441.125 435.017 441.757 435.381 442.172C435.744 442.588 436.376 442.631 436.792 442.267L435.476 440.761ZM428.964 448.881C429.392 448.532 429.455 447.902 429.105 447.474C428.755 447.047 428.125 446.984 427.698 447.333L428.964 448.881ZM419.859 453.562C419.421 453.899 419.341 454.527 419.679 454.964C420.016 455.401 420.644 455.482 421.081 455.144L419.859 453.562ZM412.94 461.274C413.385 460.947 413.481 460.321 413.154 459.876C412.827 459.431 412.201 459.335 411.756 459.662L412.94 461.274ZM403.566 465.543C403.114 465.86 403.005 466.484 403.323 466.936C403.64 467.388 404.264 467.497 404.716 467.179L403.566 465.543ZM396.355 472.936C396.813 472.627 396.933 472.006 396.624 471.548C396.315 471.09 395.693 470.97 395.235 471.279L396.355 472.936ZM386.802 476.874C386.34 477.176 386.209 477.796 386.511 478.258C386.813 478.721 387.432 478.851 387.895 478.55L386.802 476.874ZM379.373 484.022C379.84 483.727 379.979 483.109 379.683 482.642C379.388 482.175 378.77 482.036 378.304 482.332L379.373 484.022ZM369.703 487.697C369.232 487.986 369.086 488.602 369.375 489.072C369.665 489.543 370.281 489.689 370.751 489.4L369.703 487.697ZM362.106 494.657C362.579 494.372 362.732 493.758 362.448 493.285C362.163 492.811 361.549 492.658 361.076 492.943L362.106 494.657ZM352.36 498.125C351.884 498.406 351.725 499.019 352.005 499.495C352.285 499.97 352.898 500.129 353.374 499.849L352.36 498.125ZM344.634 504.946C345.113 504.67 345.276 504.058 345 503.58C344.723 503.102 344.112 502.938 343.633 503.215L344.634 504.946ZM334.84 508.259C334.36 508.532 334.192 509.142 334.466 509.622C334.739 510.102 335.349 510.27 335.829 509.997L334.84 508.259ZM327.019 514.979C327.501 514.709 327.672 514.099 327.401 513.618C327.13 513.136 326.521 512.965 326.039 513.236L327.019 514.979ZM317.196 518.18C316.713 518.449 316.539 519.058 316.808 519.54C317.076 520.023 317.685 520.196 318.168 519.928L317.196 518.18ZM309.309 524.836C309.792 524.569 309.968 523.961 309.701 523.477C309.434 522.994 308.826 522.818 308.342 523.085L309.309 524.836ZM299.471 527.966C298.987 528.232 298.809 528.84 299.075 529.324C299.341 529.808 299.949 529.985 300.433 529.719L299.471 527.966ZM291.545 534.587C292.03 534.322 292.208 533.715 291.943 533.23C291.678 532.746 291.07 532.568 290.585 532.833L291.545 534.587ZM281.704 537.686C281.22 537.951 281.041 538.559 281.306 539.043C281.571 539.528 282.179 539.706 282.663 539.442L281.704 537.686ZM273.767 544.304C274.251 544.039 274.429 543.431 274.164 542.947C273.899 542.462 273.292 542.284 272.807 542.549L273.767 544.304ZM263.935 547.41C263.451 547.676 263.274 548.284 263.539 548.768C263.805 549.252 264.413 549.429 264.897 549.163L263.935 547.41ZM256.012 554.055C256.495 553.788 256.671 553.179 256.404 552.696C256.137 552.212 255.528 552.037 255.045 552.304L256.012 554.055ZM246.202 557.208C245.72 557.477 245.546 558.086 245.815 558.568C246.084 559.051 246.693 559.224 247.175 558.955L246.202 557.208ZM238.321 563.914C238.803 563.643 238.973 563.033 238.702 562.552C238.431 562.071 237.821 561.9 237.34 562.172L238.321 563.914ZM228.552 567.156C228.072 567.43 227.906 568.041 228.18 568.521C228.454 569 229.064 569.167 229.544 568.893L228.552 567.156ZM220.743 573.964C221.22 573.686 221.382 573.074 221.105 572.596C220.827 572.119 220.215 571.957 219.738 572.234L220.743 573.964ZM211.039 577.341C210.564 577.623 210.408 578.236 210.69 578.711C210.971 579.186 211.585 579.343 212.06 579.061L211.039 577.341ZM203.337 584.298C203.809 584.011 203.959 583.396 203.672 582.924C203.385 582.452 202.77 582.302 202.298 582.589L203.337 584.298ZM193.729 587.869C193.261 588.162 193.119 588.779 193.412 589.247C193.704 589.716 194.321 589.858 194.79 589.565L193.729 587.869ZM186.188 595.03C186.652 594.731 186.785 594.111 186.485 593.648C186.186 593.184 185.567 593.051 185.103 593.351L186.188 595.03ZM176.665 598.906C176.206 599.214 176.084 599.835 176.392 600.294C176.7 600.752 177.321 600.874 177.78 600.567L176.665 598.906ZM169.423 606.301C169.875 605.983 169.985 605.36 169.667 604.908C169.35 604.456 168.726 604.346 168.274 604.664L169.423 606.301ZM160.025 610.604C159.581 610.932 159.487 611.558 159.816 612.002C160.144 612.447 160.77 612.54 161.214 612.212L160.025 610.604ZM153.242 618.284C153.676 617.942 153.752 617.314 153.411 616.88C153.069 616.445 152.441 616.37 152.007 616.711L153.242 618.284ZM144.056 623.181C143.635 623.538 143.582 624.169 143.938 624.59C144.294 625.012 144.925 625.065 145.347 624.709L144.056 623.181ZM137.797 631.36C138.204 630.986 138.23 630.353 137.855 629.947C137.481 629.54 136.849 629.514 136.442 629.889L137.797 631.36ZM129.184 636.918C128.798 637.313 128.805 637.946 129.2 638.333C129.594 638.719 130.228 638.712 130.614 638.317L129.184 636.918ZM123.756 645.786C124.115 645.367 124.067 644.735 123.648 644.376C123.228 644.016 122.597 644.065 122.237 644.484L123.756 645.786ZM115.899 652.498C115.575 652.945 115.675 653.57 116.122 653.894C116.57 654.218 117.195 654.118 117.519 653.67L115.899 652.498ZM112.069 662.042C112.345 661.563 112.181 660.952 111.703 660.676C111.224 660.4 110.613 660.564 110.337 661.042L112.069 662.042ZM105.793 670.186C105.581 670.696 105.822 671.282 106.332 671.494C106.842 671.706 107.427 671.464 107.639 670.954L105.793 670.186ZM104.537 680.397C104.666 679.86 104.336 679.32 103.799 679.191C103.262 679.062 102.722 679.392 102.593 679.929L104.537 680.397ZM101.088 690.122C101.058 690.674 101.481 691.145 102.032 691.175C102.584 691.205 103.055 690.782 103.085 690.231L101.088 690.122ZM103.485 700.142C103.411 699.595 102.908 699.211 102.36 699.285C101.813 699.359 101.43 699.863 101.504 700.41L103.485 700.142ZM103.779 710.4C103.947 710.926 104.51 711.216 105.036 711.047C105.562 710.879 105.852 710.316 105.683 709.79L103.779 710.4ZM109.419 718.952C109.174 718.457 108.575 718.254 108.08 718.499C107.585 718.745 107.382 719.344 107.627 719.839L109.419 718.952ZM112.708 728.738C113.003 729.205 113.62 729.344 114.087 729.049C114.554 728.754 114.693 728.136 114.398 727.67L112.708 728.738ZM120.04 735.952C119.715 735.506 119.089 735.408 118.643 735.734C118.197 736.059 118.099 736.685 118.425 737.131L120.04 735.952ZM124.57 745.075C124.92 745.503 125.55 745.566 125.978 745.217C126.405 744.867 126.469 744.237 126.119 743.81L124.57 745.075ZM132.597 751.364C132.228 750.953 131.596 750.918 131.185 751.287C130.773 751.656 130.739 752.288 131.108 752.699L132.597 751.364ZM138.032 760.108C138.417 760.504 139.05 760.514 139.446 760.129C139.842 759.744 139.852 759.111 139.467 758.715L138.032 760.108ZM146.513 765.726C146.115 765.343 145.482 765.355 145.099 765.753C144.716 766.15 144.728 766.783 145.126 767.167L146.513 765.726ZM152.474 774.038C152.882 774.41 153.515 774.38 153.886 773.971C154.258 773.563 154.228 772.93 153.819 772.559L152.474 774.038ZM161.339 779.222C160.921 778.86 160.289 778.906 159.928 779.324C159.567 779.742 159.613 780.373 160.031 780.735L161.339 779.222ZM167.666 787.19C168.091 787.542 168.722 787.482 169.074 787.057C169.426 786.631 169.366 786.001 168.941 785.649L167.666 787.19ZM176.778 792.007C176.346 791.663 175.717 791.734 175.373 792.166C175.029 792.598 175.101 793.228 175.533 793.571L176.778 792.007ZM183.386 799.714C183.824 800.051 184.452 799.969 184.789 799.531C185.125 799.093 185.044 798.466 184.606 798.129L183.386 799.714ZM192.631 804.207C192.188 803.876 191.561 803.967 191.231 804.41C190.901 804.853 190.992 805.479 191.435 805.81L192.631 804.207ZM199.488 811.737C199.935 812.061 200.56 811.962 200.885 811.515C201.21 811.069 201.11 810.443 200.664 810.119L199.488 811.737ZM208.831 815.979C208.38 815.659 207.756 815.766 207.436 816.216C207.117 816.667 207.223 817.291 207.674 817.61L208.831 815.979ZM215.871 823.361C216.325 823.676 216.948 823.564 217.263 823.11C217.578 822.656 217.466 822.033 217.012 821.718L215.871 823.361ZM225.289 827.41C224.833 827.099 224.21 827.217 223.9 827.673C223.589 828.13 223.706 828.752 224.163 829.063L225.289 827.41ZM232.464 834.672C232.923 834.979 233.544 834.857 233.852 834.398C234.159 833.939 234.037 833.318 233.578 833.011L232.464 834.672ZM241.94 838.574C241.479 838.269 240.858 838.396 240.554 838.857C240.25 839.318 240.376 839.938 240.837 840.242L241.94 838.574ZM249.214 845.741C249.677 846.043 250.296 845.913 250.598 845.45C250.9 844.988 250.769 844.368 250.307 844.066L249.214 845.741ZM258.731 849.533C258.267 849.233 257.648 849.366 257.349 849.83C257.049 850.294 257.183 850.913 257.647 851.213L258.731 849.533ZM266.077 856.63C266.543 856.928 267.161 856.792 267.459 856.327C267.756 855.862 267.621 855.243 267.155 854.946L266.077 856.63ZM275.622 860.343C275.156 860.047 274.538 860.185 274.242 860.651C273.946 861.117 274.084 861.735 274.55 862.031L275.622 860.343ZM283.018 867.395C283.485 867.69 284.103 867.55 284.398 867.083C284.693 866.616 284.553 865.999 284.086 865.704L283.018 867.395ZM292.576 871.055C292.109 870.761 291.491 870.901 291.197 871.369C290.903 871.836 291.044 872.454 291.511 872.748L292.576 871.055ZM300.004 878.083C300.472 878.377 301.089 878.236 301.383 877.768C301.676 877.3 301.535 876.683 301.067 876.389L300.004 878.083ZM309.562 881.717C309.094 881.424 308.477 881.565 308.183 882.033C307.89 882.501 308.031 883.118 308.499 883.412L309.562 881.717ZM317.004 888.745C317.472 889.039 318.089 888.897 318.383 888.43C318.676 887.962 318.535 887.344 318.067 887.051L317.004 888.745ZM326.548 892.377C326.081 892.083 325.463 892.224 325.169 892.691C324.875 893.159 325.016 893.776 325.483 894.07L326.548 892.377ZM333.988 899.427C334.455 899.722 335.073 899.582 335.368 899.115C335.662 898.648 335.523 898.031 335.056 897.736L333.988 899.427ZM343.511 903.086C343.045 902.79 342.427 902.929 342.131 903.395C341.835 903.861 341.973 904.479 342.439 904.775L343.511 903.086ZM350.924 910.179C351.39 910.476 352.008 910.34 352.306 909.875C352.603 909.409 352.467 908.791 352.002 908.494L350.924 910.179ZM360.415 913.896C359.951 913.596 359.332 913.73 359.033 914.194C358.734 914.658 358.867 915.277 359.331 915.576L360.415 913.896ZM367.778 921.053C368.24 921.355 368.86 921.225 369.162 920.762C369.463 920.299 369.333 919.68 368.87 919.378L367.778 921.053ZM377.222 924.859C376.761 924.555 376.141 924.682 375.836 925.143C375.532 925.603 375.659 926.224 376.119 926.528L377.222 924.859ZM384.507 932.111C384.965 932.419 385.587 932.297 385.894 931.838C386.202 931.379 386.08 930.758 385.621 930.45L384.507 932.111ZM393.882 936.041C393.426 935.73 392.804 935.847 392.492 936.303C392.181 936.759 392.298 937.381 392.754 937.693L393.882 936.041ZM401.06 943.422C401.513 943.737 402.136 943.626 402.452 943.173C402.768 942.72 402.656 942.097 402.203 941.781L401.06 943.422ZM410.359 947.532C409.91 947.211 409.285 947.316 408.965 947.765C408.644 948.215 408.748 948.839 409.198 949.16L410.359 947.532ZM417.367 955.067C417.812 955.394 418.438 955.298 418.764 954.852C419.091 954.407 418.995 953.781 418.549 953.454L417.367 955.067ZM426.577 959.43C426.136 959.097 425.509 959.184 425.176 959.625C424.843 960.065 424.93 960.692 425.37 961.025L426.577 959.43ZM433.327 967.148C433.762 967.489 434.391 967.413 434.731 966.978C435.072 966.544 434.996 965.915 434.561 965.574L433.327 967.148ZM442.416 971.855C441.988 971.505 441.358 971.569 441.009 971.997C440.66 972.425 440.723 973.055 441.151 973.404L442.416 971.855ZM448.791 979.788C449.211 980.147 449.842 980.098 450.201 979.678C450.56 979.259 450.511 978.628 450.092 978.268L448.791 979.788ZM457.696 984.958C457.287 984.587 456.654 984.619 456.284 985.028C455.913 985.438 455.944 986.07 456.354 986.441L457.696 984.958ZM463.62 993.231C464.017 993.615 464.65 993.604 465.034 993.207C465.418 992.81 465.407 992.177 465.01 991.793L463.62 993.231ZM472.119 998.93C471.737 998.531 471.104 998.517 470.705 998.899C470.306 999.28 470.292 999.913 470.674 1000.31L472.119 998.93ZM477.438 1007.72C477.8 1008.14 478.432 1008.18 478.849 1007.82C479.265 1007.46 479.31 1006.83 478.948 1006.41L477.438 1007.72ZM485.326 1014.18C484.989 1013.75 484.361 1013.66 483.924 1014C483.486 1014.34 483.405 1014.97 483.742 1015.4L485.326 1014.18ZM489.496 1023.43C489.801 1023.89 490.422 1024.02 490.882 1023.71C491.343 1023.41 491.469 1022.79 491.164 1022.33L489.496 1023.43ZM496.396 1031.05C496.135 1030.56 495.528 1030.38 495.042 1030.64C494.555 1030.9 494.372 1031.51 494.633 1032L496.396 1031.05ZM498.83 1040.99C499.033 1041.51 499.613 1041.76 500.127 1041.56C500.641 1041.35 500.893 1040.77 500.69 1040.26L498.83 1040.99ZM503.751 1049.94C503.625 1049.41 503.086 1049.07 502.549 1049.2C502.011 1049.33 501.678 1049.87 501.805 1050.4L503.751 1049.94ZM503.247 1060.12C503.28 1060.67 503.754 1061.09 504.305 1061.05C504.856 1061.02 505.277 1060.55 505.244 1060L503.247 1060.12ZM504.889 1070.16C504.961 1069.61 504.575 1069.11 504.028 1069.04C503.48 1068.97 502.978 1069.35 502.906 1069.9L504.889 1070.16ZM500.7 1079.4C500.522 1079.92 500.802 1080.49 501.324 1080.67C501.847 1080.85 502.415 1080.57 502.594 1080.05L500.7 1079.4ZM498.474 1089.37C498.736 1088.88 498.555 1088.28 498.069 1088.01C497.583 1087.75 496.977 1087.93 496.714 1088.42L498.474 1089.37ZM491.419 1096.88C491.1 1097.33 491.206 1097.95 491.656 1098.27C492.107 1098.59 492.731 1098.48 493.05 1098.03L491.419 1096.88ZM486.793 1106.03C487.151 1105.61 487.101 1104.98 486.681 1104.62C486.261 1104.26 485.63 1104.31 485.271 1104.73L486.793 1106.03ZM478.604 1112.02C478.219 1112.41 478.227 1113.05 478.622 1113.43C479.018 1113.82 479.651 1113.81 480.036 1113.42L478.604 1112.02ZM472.757 1120.49C473.163 1120.11 473.188 1119.48 472.813 1119.07C472.439 1118.67 471.806 1118.64 471.4 1119.02L472.757 1120.49ZM463.88 1125.67C463.459 1126.03 463.408 1126.66 463.766 1127.08C464.123 1127.5 464.755 1127.55 465.175 1127.2L463.88 1125.67ZM457.443 1133.55C457.875 1133.2 457.947 1132.57 457.603 1132.14C457.26 1131.71 456.63 1131.64 456.198 1131.98L457.443 1133.55ZM448.146 1138.2C447.704 1138.53 447.615 1139.16 447.947 1139.6C448.279 1140.04 448.906 1140.13 449.347 1139.8L448.146 1138.2ZM441.344 1145.67C441.793 1145.35 441.896 1144.72 441.574 1144.27C441.252 1143.82 440.627 1143.72 440.178 1144.04L441.344 1145.67ZM431.882 1149.87C431.427 1150.18 431.312 1150.8 431.626 1151.26C431.939 1151.71 432.561 1151.83 433.016 1151.52L431.882 1149.87ZM424.761 1157.1C425.221 1156.8 425.345 1156.18 425.039 1155.72C424.733 1155.26 424.112 1155.13 423.653 1155.44L424.761 1157.1ZM415.183 1160.99C414.719 1161.29 414.586 1161.91 414.886 1162.37C415.185 1162.84 415.805 1162.97 416.268 1162.67L415.183 1160.99ZM407.857 1168.04C408.324 1167.74 408.464 1167.12 408.17 1166.66C407.876 1166.19 407.258 1166.05 406.791 1166.34L407.857 1168.04ZM398.19 1171.7C397.72 1171.99 397.574 1172.61 397.863 1173.08C398.153 1173.55 398.769 1173.7 399.239 1173.41L398.19 1171.7ZM390.729 1178.6C391.202 1178.32 391.353 1177.7 391.067 1177.23C390.781 1176.76 390.166 1176.61 389.694 1176.89L390.729 1178.6ZM381.019 1182.1C380.544 1182.38 380.389 1183 380.671 1183.47C380.954 1183.94 381.568 1184.1 382.042 1183.82L381.019 1182.1ZM373.442 1188.91C373.918 1188.63 374.078 1188.01 373.798 1187.54C373.518 1187.06 372.905 1186.9 372.429 1187.18L373.442 1188.91ZM363.728 1192.27C363.251 1192.54 363.089 1193.16 363.367 1193.63C363.644 1194.11 364.256 1194.27 364.734 1194L363.728 1192.27ZM356.046 1199.02C356.525 1198.75 356.689 1198.14 356.413 1197.66C356.138 1197.18 355.526 1197.02 355.048 1197.29L356.046 1199.02ZM346.334 1202.29C345.855 1202.57 345.689 1203.18 345.963 1203.66C346.237 1204.14 346.848 1204.3 347.327 1204.03L346.334 1202.29ZM338.583 1209.02C339.063 1208.75 339.231 1208.14 338.958 1207.66C338.684 1207.18 338.074 1207.01 337.594 1207.28L338.583 1209.02ZM328.872 1212.24C328.392 1212.51 328.223 1213.12 328.496 1213.6C328.768 1214.08 329.379 1214.25 329.859 1213.98L328.872 1212.24ZM321.093 1218.95C321.574 1218.68 321.743 1218.06 321.47 1217.58C321.198 1217.1 320.588 1216.93 320.107 1217.21L321.093 1218.95ZM311.378 1222.15C310.898 1222.42 310.729 1223.03 311.001 1223.51C311.273 1223.99 311.883 1224.16 312.364 1223.89L311.378 1222.15ZM303.617 1228.85C304.097 1228.58 304.266 1227.97 303.993 1227.49C303.721 1227.01 303.11 1226.84 302.63 1227.11L303.617 1228.85ZM293.888 1232.08C293.408 1232.35 293.24 1232.96 293.514 1233.44C293.787 1233.92 294.397 1234.09 294.877 1233.82L293.888 1232.08ZM286.153 1238.79C286.632 1238.52 286.798 1237.91 286.524 1237.43C286.25 1236.95 285.639 1236.78 285.16 1237.06L286.153 1238.79ZM276.438 1242.06C275.959 1242.34 275.794 1242.95 276.07 1243.43C276.345 1243.91 276.957 1244.07 277.435 1243.8L276.438 1242.06ZM268.731 1248.83C269.209 1248.55 269.371 1247.94 269.094 1247.46C268.817 1246.98 268.205 1246.82 267.727 1247.1L268.731 1248.83ZM259.063 1252.15C258.587 1252.43 258.427 1253.04 258.706 1253.52C258.985 1253.99 259.598 1254.15 260.074 1253.87L259.063 1252.15ZM251.391 1258.99C251.866 1258.71 252.023 1258.1 251.741 1257.62C251.459 1257.15 250.846 1256.99 250.371 1257.27L251.391 1258.99ZM241.763 1262.41C241.29 1262.69 241.136 1263.31 241.421 1263.78C241.705 1264.25 242.32 1264.41 242.793 1264.12L241.763 1262.41ZM234.174 1269.34C234.645 1269.05 234.794 1268.44 234.506 1267.97C234.219 1267.5 233.603 1267.35 233.132 1267.64L234.174 1269.34ZM224.58 1272.9C224.111 1273.19 223.967 1273.81 224.259 1274.28C224.55 1274.75 225.167 1274.89 225.636 1274.6L224.58 1272.9ZM217.125 1279.94C217.591 1279.64 217.73 1279.03 217.434 1278.56C217.138 1278.09 216.52 1277.95 216.054 1278.25L217.125 1279.94ZM207.575 1283.68C207.111 1283.98 206.979 1284.6 207.279 1285.07C207.58 1285.53 208.199 1285.66 208.663 1285.36L207.575 1283.68ZM200.296 1290.85C200.756 1290.55 200.881 1289.93 200.575 1289.47C200.269 1289.01 199.648 1288.88 199.188 1289.19L200.296 1290.85ZM190.809 1294.84C190.353 1295.15 190.236 1295.77 190.548 1296.23C190.86 1296.69 191.482 1296.8 191.938 1296.49L190.809 1294.84ZM183.752 1302.18C184.203 1301.86 184.311 1301.24 183.992 1300.79C183.673 1300.34 183.049 1300.23 182.598 1300.55L183.752 1302.18ZM174.365 1306.47C173.919 1306.8 173.823 1307.42 174.149 1307.87C174.476 1308.31 175.102 1308.41 175.547 1308.08L174.365 1306.47ZM167.584 1314.04C168.023 1313.7 168.107 1313.07 167.772 1312.64C167.437 1312.2 166.81 1312.11 166.371 1312.45L167.584 1314.04ZM158.36 1318.71C157.929 1319.05 157.859 1319.68 158.204 1320.11C158.55 1320.54 159.179 1320.61 159.61 1320.27L158.36 1318.71ZM151.928 1326.58C152.35 1326.22 152.403 1325.59 152.047 1325.17C151.691 1324.75 151.06 1324.69 150.638 1325.05L151.928 1326.58ZM142.975 1331.72C142.564 1332.09 142.531 1332.72 142.9 1333.13C143.269 1333.54 143.901 1333.58 144.312 1333.21L142.975 1331.72ZM137.012 1340C137.409 1339.62 137.42 1338.98 137.036 1338.59C136.652 1338.19 136.019 1338.18 135.622 1338.56L137.012 1340ZM128.507 1345.73C128.127 1346.13 128.143 1346.76 128.543 1347.14C128.944 1347.52 129.577 1347.51 129.957 1347.11L128.507 1345.73ZM123.232 1354.55C123.591 1354.13 123.542 1353.5 123.122 1353.14C122.702 1352.78 122.071 1352.83 121.712 1353.25L123.232 1354.55ZM115.457 1361.02C115.125 1361.46 115.213 1362.09 115.654 1362.42C116.095 1362.75 116.722 1362.67 117.054 1362.23L115.457 1361.02ZM111.289 1370.5C111.587 1370.04 111.45 1369.42 110.985 1369.12C110.519 1368.82 109.901 1368.96 109.604 1369.43L111.289 1370.5ZM104.546 1378.21C104.295 1378.7 104.489 1379.31 104.981 1379.56C105.472 1379.81 106.075 1379.61 106.327 1379.12L104.546 1378.21ZM102.334 1388.13C102.527 1387.61 102.264 1387.04 101.747 1386.85C101.23 1386.65 100.654 1386.92 100.46 1387.43L102.334 1388.13ZM97.5602 1397.2C97.4418 1397.74 97.7831 1398.27 98.3225 1398.39C98.8619 1398.51 99.3952 1398.17 99.5137 1397.63L97.5602 1397.2ZM98.1711 1407.41C98.2006 1406.86 97.7775 1406.39 97.226 1406.36C96.6745 1406.33 96.2035 1406.75 96.1739 1407.3L98.1711 1407.41ZM96.5076 1417.46C96.5737 1418.01 97.0717 1418.4 97.6201 1418.33C98.1684 1418.26 98.5593 1417.77 98.4932 1417.22L96.5076 1417.46ZM100.507 1426.85C100.349 1426.32 99.7915 1426.02 99.2623 1426.18C98.7332 1426.34 98.4323 1426.89 98.5904 1427.42L100.507 1426.85ZM102.309 1437.02C102.547 1437.52 103.143 1437.73 103.642 1437.49C104.14 1437.25 104.352 1436.66 104.114 1436.16L102.309 1437.02ZM108.878 1444.65C108.579 1444.19 107.96 1444.06 107.496 1444.35C107.032 1444.65 106.898 1445.27 107.198 1445.74L108.878 1444.65ZM113.178 1454.07C113.514 1454.51 114.142 1454.59 114.58 1454.25C115.018 1453.91 115.1 1453.29 114.764 1452.85L113.178 1454.07ZM121.086 1460.72C120.731 1460.29 120.1 1460.24 119.677 1460.59C119.254 1460.95 119.198 1461.58 119.553 1462L121.086 1460.72ZM126.146 1469.57C126.516 1469.98 127.148 1470.01 127.558 1469.64C127.968 1469.27 128.001 1468.64 127.63 1468.23L126.146 1469.57ZM134.523 1475.61C134.14 1475.22 133.507 1475.2 133.109 1475.59C132.711 1475.97 132.699 1476.6 133.082 1477L134.523 1475.61ZM140.164 1484.15C140.558 1484.53 141.191 1484.53 141.578 1484.13C141.965 1483.74 141.959 1483.11 141.565 1482.72L140.164 1484.15ZM148.836 1489.68C148.432 1489.3 147.799 1489.32 147.422 1489.73C147.045 1490.13 147.067 1490.76 147.47 1491.14L148.836 1489.68ZM154.925 1497.96C155.337 1498.32 155.969 1498.29 156.337 1497.88C156.706 1497.47 156.671 1496.83 156.259 1496.47L154.925 1497.96ZM163.809 1503.09C163.39 1502.73 162.759 1502.78 162.399 1503.2C162.038 1503.61 162.085 1504.25 162.504 1504.61L163.809 1503.09ZM170.228 1511.14C170.652 1511.49 171.283 1511.44 171.636 1511.01C171.989 1510.59 171.932 1509.96 171.507 1509.6L170.228 1511.14ZM179.271 1515.96C178.841 1515.62 178.211 1515.68 177.865 1516.11C177.518 1516.54 177.585 1517.17 178.015 1517.52L179.271 1515.96ZM185.933 1523.82C186.367 1524.16 186.996 1524.09 187.337 1523.65C187.678 1523.22 187.602 1522.59 187.168 1522.25L185.933 1523.82ZM195.1 1528.4C194.662 1528.06 194.034 1528.15 193.698 1528.59C193.362 1529.02 193.445 1529.65 193.884 1529.99L195.1 1528.4ZM201.942 1536.1C202.384 1536.43 203.011 1536.34 203.342 1535.9C203.674 1535.45 203.584 1534.83 203.142 1534.5L201.942 1536.1ZM211.209 1540.49C210.764 1540.16 210.138 1540.25 209.811 1540.7C209.483 1541.14 209.579 1541.77 210.024 1542.1L211.209 1540.49ZM218.185 1548.05C218.632 1548.37 219.257 1548.27 219.581 1547.82C219.905 1547.38 219.804 1546.75 219.357 1546.43L218.185 1548.05ZM227.529 1552.29C227.079 1551.97 226.455 1552.08 226.134 1552.53C225.814 1552.98 225.919 1553.6 226.368 1553.92L227.529 1552.29ZM234.604 1559.75C235.056 1560.07 235.679 1559.96 235.997 1559.51C236.315 1559.06 236.206 1558.43 235.754 1558.11L234.604 1559.75ZM244.007 1563.88C243.553 1563.57 242.93 1563.68 242.615 1564.13C242.299 1564.59 242.411 1565.21 242.865 1565.53L244.007 1563.88ZM251.153 1571.26C251.608 1571.58 252.231 1571.46 252.544 1571.01C252.858 1570.55 252.743 1569.93 252.288 1569.62L251.153 1571.26ZM260.596 1575.32C260.14 1575.01 259.518 1575.13 259.206 1575.58C258.894 1576.04 259.011 1576.66 259.467 1576.97L260.596 1575.32ZM267.793 1582.65C268.25 1582.96 268.872 1582.84 269.182 1582.38C269.493 1581.93 269.374 1581.3 268.918 1580.99L267.793 1582.65ZM277.258 1586.65C276.801 1586.34 276.179 1586.46 275.869 1586.92C275.56 1587.38 275.68 1588 276.137 1588.31L277.258 1586.65ZM284.486 1593.95C284.943 1594.26 285.565 1594.14 285.874 1593.68C286.183 1593.23 286.062 1592.6 285.605 1592.3L284.486 1593.95ZM293.956 1597.93C293.498 1597.62 292.876 1597.74 292.567 1598.2C292.259 1598.66 292.379 1599.28 292.837 1599.59L293.956 1597.93ZM301.195 1605.23C301.653 1605.54 302.275 1605.42 302.584 1604.96C302.893 1604.5 302.772 1603.88 302.314 1603.57L301.195 1605.23ZM310.654 1609.21C310.197 1608.9 309.575 1609.02 309.265 1609.48C308.956 1609.93 309.076 1610.56 309.533 1610.86L310.654 1609.21ZM317.886 1616.53C318.343 1616.84 318.965 1616.72 319.275 1616.26C319.586 1615.81 319.467 1615.19 319.01 1614.88L317.886 1616.53ZM327.318 1620.54C326.862 1620.23 326.24 1620.34 325.928 1620.8C325.616 1621.25 325.733 1621.88 326.189 1622.19L327.318 1620.54ZM334.519 1627.91C334.974 1628.22 335.597 1628.11 335.91 1627.65C336.224 1627.2 336.109 1626.57 335.655 1626.26L334.519 1627.91ZM343.91 1631.98C343.457 1631.66 342.833 1631.77 342.518 1632.23C342.202 1632.68 342.314 1633.3 342.767 1633.62L343.91 1631.98ZM351.052 1639.42C351.504 1639.74 352.127 1639.63 352.446 1639.18C352.764 1638.73 352.656 1638.11 352.204 1637.79L351.052 1639.42ZM360.387 1643.6C359.938 1643.28 359.313 1643.38 358.992 1643.83C358.67 1644.28 358.774 1644.9 359.223 1645.23L360.387 1643.6ZM367.431 1651.15C367.878 1651.47 368.503 1651.37 368.828 1650.93C369.153 1650.48 369.055 1649.86 368.608 1649.53L367.431 1651.15ZM376.696 1655.48C376.253 1655.15 375.626 1655.24 375.297 1655.68C374.968 1656.13 375.06 1656.75 375.503 1657.08L376.696 1655.48ZM383.589 1663.16C384.029 1663.49 384.656 1663.41 384.99 1662.97C385.325 1662.53 385.24 1661.9 384.8 1661.57L383.589 1663.16ZM392.765 1667.71C392.33 1667.37 391.701 1667.45 391.361 1667.88C391.021 1668.32 391.098 1668.94 391.533 1669.28L392.765 1667.71ZM399.43 1675.56C399.86 1675.9 400.489 1675.84 400.836 1675.41C401.183 1674.98 401.116 1674.35 400.686 1674L399.43 1675.56ZM408.487 1680.41C408.063 1680.06 407.433 1680.11 407.078 1680.54C406.723 1680.96 406.779 1681.59 407.202 1681.95L408.487 1680.41ZM414.813 1688.46C415.229 1688.82 415.861 1688.78 416.224 1688.37C416.588 1687.95 416.546 1687.32 416.13 1686.95L414.813 1688.46ZM423.695 1693.74C423.289 1693.37 422.656 1693.39 422.282 1693.8C421.908 1694.2 421.934 1694.84 422.34 1695.21L423.695 1693.74ZM429.572 1702.07C429.967 1702.45 430.601 1702.44 430.987 1702.05C431.373 1701.65 431.365 1701.02 430.97 1700.64L429.572 1702.07ZM438.118 1707.87C437.737 1707.47 437.104 1707.46 436.704 1707.84C436.304 1708.22 436.288 1708.85 436.669 1709.25L438.118 1707.87ZM443.442 1716.68C443.805 1717.1 444.437 1717.14 444.853 1716.78C445.269 1716.41 445.313 1715.78 444.95 1715.37L443.442 1716.68ZM451.355 1723.11C451.015 1722.68 450.387 1722.6 449.952 1722.94C449.517 1723.28 449.439 1723.91 449.779 1724.35L451.355 1723.11ZM455.693 1732.44C456.003 1732.9 456.624 1733.02 457.082 1732.71C457.539 1732.4 457.658 1731.78 457.348 1731.32L455.693 1732.44ZM462.726 1739.99C462.456 1739.51 461.846 1739.34 461.365 1739.61C460.883 1739.88 460.712 1740.49 460.982 1740.97L462.726 1739.99ZM465.401 1749.89C465.619 1750.4 466.206 1750.64 466.714 1750.42C467.222 1750.2 467.457 1749.61 467.24 1749.11L465.401 1749.89ZM470.626 1758.7C470.479 1758.17 469.928 1757.86 469.396 1758C468.864 1758.15 468.551 1758.7 468.698 1759.23L470.626 1758.7ZM470.558 1768.93C470.616 1769.48 471.108 1769.87 471.658 1769.82C472.207 1769.76 472.605 1769.27 472.547 1768.72L470.558 1768.93ZM472.675 1778.94C472.721 1778.39 472.311 1777.91 471.761 1777.86C471.211 1777.81 470.727 1778.22 470.682 1778.77L472.675 1778.94ZM468.922 1788.47C468.772 1789 469.081 1789.56 469.612 1789.71C470.144 1789.86 470.696 1789.55 470.847 1789.02L468.922 1788.47ZM467.167 1798.61C467.409 1798.11 467.202 1797.51 466.706 1797.27C466.209 1797.03 465.611 1797.23 465.369 1797.73L467.167 1798.61ZM460.371 1806.26C460.058 1806.71 460.173 1807.33 460.628 1807.65C461.084 1807.96 461.706 1807.84 462.019 1807.39L460.371 1806.26ZM455.81 1815.32C456.175 1814.91 456.134 1814.28 455.72 1813.91C455.305 1813.55 454.673 1813.59 454.308 1814L455.81 1815.32ZM447.316 1821.32C446.927 1821.71 446.928 1822.34 447.32 1822.73C447.712 1823.12 448.345 1823.12 448.734 1822.73L447.316 1821.32ZM441.537 1829.85C441.933 1829.46 441.941 1828.83 441.555 1828.43C441.17 1828.04 440.537 1828.03 440.141 1828.42L441.537 1829.85ZM432.951 1835.33C432.551 1835.71 432.534 1836.34 432.914 1836.74C433.294 1837.14 433.927 1837.16 434.328 1836.78L432.951 1835.33ZM426.986 1843.66C427.391 1843.28 427.415 1842.65 427.04 1842.24C426.665 1841.84 426.032 1841.81 425.627 1842.19L426.986 1843.66ZM418.197 1849C417.788 1849.37 417.757 1850 418.128 1850.41C418.499 1850.82 419.132 1850.85 419.541 1850.48L418.197 1849ZM412.099 1857.17C412.511 1856.8 412.548 1856.17 412.18 1855.76C411.813 1855.34 411.181 1855.31 410.768 1855.67L412.099 1857.17ZM403.227 1862.34C402.812 1862.7 402.771 1863.33 403.135 1863.75C403.499 1864.17 404.131 1864.21 404.546 1863.84L403.227 1862.34ZM396.971 1870.44C397.389 1870.08 397.435 1869.44 397.074 1869.03C396.713 1868.61 396.081 1868.56 395.663 1868.92L396.971 1870.44ZM388.054 1875.46C387.634 1875.82 387.584 1876.45 387.943 1876.87C388.301 1877.29 388.933 1877.34 389.353 1876.98L388.054 1875.46ZM381.671 1883.51C382.093 1883.15 382.146 1882.52 381.789 1882.1C381.433 1881.68 380.802 1881.62 380.38 1881.98L381.671 1883.51ZM372.717 1888.42C372.293 1888.78 372.237 1889.41 372.592 1889.83C372.946 1890.26 373.577 1890.31 374.001 1889.96L372.717 1888.42ZM366.262 1896.41C366.687 1896.06 366.745 1895.43 366.392 1895C366.04 1894.58 365.409 1894.52 364.984 1894.87L366.262 1896.41ZM357.262 1901.26C356.836 1901.61 356.776 1902.24 357.127 1902.67C357.478 1903.09 358.109 1903.15 358.535 1902.8L357.262 1901.26ZM350.765 1909.19C351.192 1908.84 351.255 1908.21 350.905 1907.78C350.554 1907.35 349.924 1907.29 349.497 1907.64L350.765 1909.19ZM341.725 1914C341.297 1914.35 341.233 1914.98 341.582 1915.4C341.931 1915.83 342.561 1915.9 342.989 1915.55L341.725 1914ZM335.197 1921.89C335.626 1921.54 335.691 1920.91 335.343 1920.48C334.994 1920.06 334.365 1919.99 333.936 1920.34L335.197 1921.89ZM326.134 1926.67C325.705 1927.02 325.639 1927.65 325.987 1928.08C326.335 1928.51 326.964 1928.57 327.393 1928.22L326.134 1926.67ZM319.587 1934.54C320.016 1934.2 320.083 1933.57 319.735 1933.14C319.388 1932.71 318.758 1932.64 318.329 1932.99L319.587 1934.54ZM310.515 1939.31C310.086 1939.65 310.019 1940.28 310.366 1940.71C310.713 1941.14 311.343 1941.21 311.772 1940.86L310.515 1939.31ZM303.957 1947.18C304.387 1946.83 304.454 1946.2 304.107 1945.77C303.76 1945.34 303.13 1945.27 302.701 1945.62L303.957 1947.18ZM294.889 1951.93C294.46 1952.28 294.393 1952.91 294.74 1953.34C295.088 1953.77 295.717 1953.83 296.147 1953.49L294.889 1951.93ZM288.334 1959.81C288.763 1959.46 288.829 1958.83 288.482 1958.4C288.134 1957.97 287.504 1957.91 287.075 1958.25L288.334 1959.81ZM279.273 1964.58C278.844 1964.93 278.779 1965.56 279.127 1965.99C279.475 1966.42 280.105 1966.48 280.534 1966.13L279.273 1964.58ZM272.74 1972.47C273.168 1972.12 273.232 1971.49 272.884 1971.06C272.535 1970.64 271.905 1970.57 271.477 1970.92L272.74 1972.47ZM263.691 1977.28C263.264 1977.63 263.201 1978.26 263.551 1978.69C263.9 1979.11 264.53 1979.18 264.958 1978.83L263.691 1977.28ZM257.202 1985.19C257.629 1984.84 257.69 1984.21 257.339 1983.78C256.988 1983.36 256.358 1983.3 255.931 1983.65L257.202 1985.19ZM248.17 1990.06C247.745 1990.41 247.685 1991.04 248.038 1991.46C248.39 1991.89 249.021 1991.95 249.446 1991.6L248.17 1990.06ZM241.751 1998C242.175 1997.64 242.232 1997.01 241.878 1996.59C241.524 1996.16 240.893 1996.11 240.469 1996.46L241.751 1998ZM232.741 2002.94C232.319 2003.3 232.265 2003.93 232.621 2004.35C232.977 2004.77 233.608 2004.83 234.03 2004.47L232.741 2002.94ZM226.384 2010.95C226.804 2010.59 226.855 2009.96 226.497 2009.54C226.139 2009.12 225.507 2009.07 225.087 2009.43L226.384 2010.95ZM217.445 2015.97C217.027 2016.33 216.98 2016.97 217.34 2017.38C217.701 2017.8 218.332 2017.85 218.751 2017.49L217.445 2015.97ZM211.162 2024.07C211.578 2023.71 211.62 2023.08 211.257 2022.66C210.893 2022.25 210.262 2022.21 209.846 2022.57L211.162 2024.07ZM202.332 2029.19C201.919 2029.55 201.882 2030.19 202.249 2030.6C202.615 2031.01 203.247 2031.05 203.66 2030.68L202.332 2029.19ZM196.148 2037.41C196.558 2037.04 196.59 2036.41 196.22 2036C195.849 2035.59 195.217 2035.56 194.807 2035.93L196.148 2037.41ZM187.397 2042.7C186.991 2043.07 186.966 2043.7 187.341 2044.11C187.715 2044.51 188.348 2044.54 188.754 2044.17L187.397 2042.7ZM181.427 2051.01C181.829 2050.63 181.846 2049.99 181.467 2049.59C181.088 2049.19 180.455 2049.17 180.053 2049.55L181.427 2051.01ZM172.761 2056.54C172.365 2056.92 172.356 2057.55 172.741 2057.95C173.126 2058.35 173.759 2058.36 174.155 2057.97L172.761 2056.54ZM167.035 2065C167.425 2064.6 167.424 2063.97 167.033 2063.58C166.642 2063.19 166.009 2063.19 165.619 2063.58L167.035 2065ZM158.593 2070.76C158.21 2071.15 158.223 2071.79 158.621 2072.17C159.019 2072.55 159.652 2072.54 160.035 2072.14L158.593 2070.76ZM153.133 2079.48C153.507 2079.07 153.48 2078.44 153.074 2078.07C152.667 2077.69 152.035 2077.72 151.661 2078.13L153.133 2079.48ZM144.937 2085.63C144.575 2086.05 144.618 2086.68 145.034 2087.04C145.451 2087.41 146.082 2087.36 146.445 2086.95L144.937 2085.63ZM140.006 2094.57C140.355 2094.14 140.291 2093.51 139.863 2093.16C139.436 2092.81 138.806 2092.88 138.456 2093.31L140.006 2094.57ZM132.262 2101.2C131.93 2101.64 132.019 2102.27 132.46 2102.6C132.902 2102.93 133.529 2102.84 133.861 2102.4L132.262 2101.2ZM128.038 2110.55C128.347 2110.09 128.226 2109.47 127.769 2109.16C127.311 2108.85 126.689 2108.97 126.38 2109.43L128.038 2110.55ZM120.986 2118C120.709 2118.47 120.87 2119.09 121.348 2119.36C121.825 2119.64 122.437 2119.48 122.715 2119L120.986 2118ZM118.091 2127.8C118.325 2127.3 118.108 2126.7 117.607 2126.47C117.107 2126.24 116.512 2126.45 116.278 2126.95L118.091 2127.8ZM112.552 2136.4C112.385 2136.93 112.676 2137.49 113.203 2137.66C113.729 2137.82 114.291 2137.53 114.458 2137.01L112.552 2136.4ZM112.3 2146.66C112.366 2146.11 111.975 2145.61 111.427 2145.55C110.879 2145.48 110.381 2145.87 110.314 2146.42L112.3 2146.66ZM110.382 2156.8C110.46 2157.35 110.966 2157.73 111.513 2157.65C112.06 2157.57 112.44 2157.06 112.361 2156.52L110.382 2156.8ZM115.043 2166.22C114.835 2165.71 114.252 2165.46 113.74 2165.67C113.229 2165.88 112.983 2166.46 113.191 2166.98L115.043 2166.22ZM118.071 2176.3C118.368 2176.77 118.986 2176.9 119.452 2176.61C119.917 2176.31 120.054 2175.69 119.757 2175.23L118.071 2176.3ZM125.832 2183.44C125.477 2183.02 124.846 2182.97 124.423 2183.32C124 2183.68 123.945 2184.31 124.3 2184.73L125.832 2183.44ZM131.424 2192.4C131.818 2192.79 132.451 2192.78 132.838 2192.39C133.226 2191.99 133.22 2191.36 132.826 2190.97L131.424 2192.4ZM140.407 2197.88C139.986 2197.53 139.355 2197.58 138.997 2198C138.639 2198.42 138.69 2199.05 139.111 2199.41L140.407 2197.88ZM147.24 2205.92C147.68 2206.25 148.308 2206.17 148.641 2205.73C148.974 2205.29 148.888 2204.66 148.448 2204.33L147.24 2205.92ZM156.822 2210.36C156.367 2210.05 155.745 2210.16 155.432 2210.62C155.119 2211.07 155.234 2211.7 155.689 2212.01L156.822 2210.36ZM164.377 2217.74C164.843 2218.04 165.461 2217.9 165.757 2217.43C166.052 2216.96 165.914 2216.35 165.447 2216.05L164.377 2217.74ZM174.266 2221.44C173.79 2221.16 173.177 2221.32 172.896 2221.79C172.616 2222.27 172.774 2222.88 173.249 2223.16L174.266 2221.44ZM182.27 2228.32C182.753 2228.58 183.362 2228.41 183.629 2227.93C183.897 2227.44 183.722 2226.84 183.239 2226.57L182.27 2228.32ZM192.34 2231.47C191.85 2231.21 191.246 2231.4 190.99 2231.89C190.734 2232.38 190.923 2232.98 191.412 2233.24L192.34 2231.47ZM200.658 2237.95C201.152 2238.2 201.753 2237.99 201.998 2237.5C202.244 2237.01 202.042 2236.41 201.548 2236.16L200.658 2237.95ZM210.849 2240.67C210.349 2240.43 209.753 2240.65 209.517 2241.15C209.28 2241.65 209.493 2242.24 209.992 2242.48L210.849 2240.67ZM219.405 2246.84C219.908 2247.07 220.5 2246.84 220.728 2246.34C220.956 2245.84 220.733 2245.24 220.23 2245.02L219.405 2246.84ZM229.683 2249.21C229.177 2248.99 228.588 2249.22 228.368 2249.73C228.148 2250.23 228.38 2250.82 228.886 2251.04L229.683 2249.21ZM238.43 2255.11C238.939 2255.32 239.525 2255.08 239.738 2254.57C239.95 2254.06 239.71 2253.47 239.2 2253.26L238.43 2255.11ZM248.774 2257.18C248.262 2256.98 247.679 2257.23 247.473 2257.74C247.267 2258.25 247.516 2258.83 248.028 2259.04L248.774 2257.18ZM257.677 2262.85C258.192 2263.05 258.771 2262.79 258.971 2262.28C259.17 2261.76 258.915 2261.18 258.4 2260.98L257.677 2262.85ZM268.072 2264.66C267.555 2264.47 266.978 2264.73 266.785 2265.25C266.591 2265.77 266.854 2266.34 267.371 2266.54L268.072 2264.66ZM277.108 2270.12C277.627 2270.3 278.2 2270.03 278.388 2269.51C278.575 2268.99 278.306 2268.42 277.787 2268.23L277.108 2270.12ZM287.541 2271.69C287.02 2271.51 286.45 2271.79 286.268 2272.31C286.086 2272.83 286.362 2273.4 286.883 2273.58L287.541 2271.69ZM296.694 2276.94C297.218 2277.12 297.785 2276.84 297.961 2276.32C298.137 2275.79 297.856 2275.22 297.332 2275.05L296.694 2276.94ZM307.157 2278.3C306.632 2278.13 306.068 2278.41 305.897 2278.94C305.727 2279.46 306.014 2280.03 306.539 2280.2L307.157 2278.3ZM316.415 2283.35C316.942 2283.51 317.503 2283.22 317.668 2282.69C317.832 2282.16 317.539 2281.6 317.012 2281.44L316.415 2283.35ZM326.89 2284.47C326.361 2284.31 325.804 2284.61 325.645 2285.14C325.486 2285.67 325.786 2286.22 326.315 2286.38L326.89 2284.47ZM336.275 2289.31C336.806 2289.47 337.36 2289.16 337.512 2288.63C337.665 2288.1 337.359 2287.54 336.828 2287.39L336.275 2289.31ZM346.818 2290.2C346.286 2290.05 345.736 2290.37 345.59 2290.9C345.444 2291.43 345.758 2291.98 346.29 2292.13L346.818 2290.2ZM6.4649 99.2597C6.89501 97.6795 7.33724 96.132 7.791 94.6166L5.87504 94.0429C5.41639 95.5746 4.96955 97.1383 4.5351 98.7344L6.4649 99.2597ZM10.7929 85.4988C11.9182 82.3822 13.0957 79.4219 14.3186 76.6111L12.4847 75.8132C11.2442 78.6644 10.051 81.6643 8.91178 84.8196L10.7929 85.4988ZM18.4601 67.9638C20.0138 65.0143 21.6208 62.2631 23.2699 59.6987L21.5877 58.6169C19.9063 61.2315 18.2703 64.0328 16.6906 67.0317L18.4601 67.9638ZM28.8199 51.9369C30.9042 49.3201 33.0325 46.9561 35.1853 44.8246L33.7781 43.4033C31.5681 45.5915 29.3875 48.0142 27.2555 50.6909L28.8199 51.9369ZM42.3629 38.6001C45.0305 36.5916 47.7042 34.8956 50.3495 33.4756L49.4035 31.7135C46.6682 33.1818 43.9085 34.9328 41.1599 37.0023L42.3629 38.6001ZM59.047 29.7031C62.2395 28.6343 65.3271 27.937 68.2412 27.5392L67.9707 25.5576C64.934 25.9721 61.7243 26.6977 58.412 27.8066L59.047 29.7031ZM77.6607 27.2596C79.3315 27.4022 80.8769 27.6478 82.2745 27.9713L82.7255 26.0228C81.23 25.6766 79.5904 25.417 77.8307 25.2669L77.6607 27.2596ZM82.5 27.9971C83.9764 27.9971 85.5578 28.0875 87.2409 28.2672L87.4532 26.2785C85.71 26.0924 84.057 25.9971 82.5 25.9971V27.9971ZM97.08 30.0459C100.099 30.776 103.319 31.696 106.722 32.7975L107.338 30.8947C103.894 29.7801 100.626 28.8457 97.5501 28.1019L97.08 30.0459ZM116.23 36.1606C119.27 37.3191 122.423 38.5931 125.68 39.9776L126.462 38.137C123.184 36.7436 120.008 35.46 116.942 34.2917L116.23 36.1606ZM134.857 44.0434C137.814 45.4037 140.842 46.8421 143.936 48.3554L144.815 46.5588C141.708 45.039 138.665 43.5937 135.692 42.2264L134.857 44.0434ZM153.088 52.9519C155.983 54.4421 158.926 55.9904 161.914 57.5944L162.86 55.8322C159.862 54.223 156.909 52.6694 154.003 51.1737L153.088 52.9519ZM170.837 62.4758C173.722 64.0824 176.642 65.7361 179.595 67.4349L180.592 65.7013C177.631 63.9981 174.703 62.3398 171.81 60.7285L170.837 62.4758ZM188.346 72.5442C191.205 74.2381 194.092 75.9707 197.002 77.7405L198.041 76.0317C195.124 74.258 192.232 72.5213 189.365 70.8234L188.346 72.5442ZM205.622 83.0491C208.451 84.8123 211.299 86.6081 214.164 88.4349L215.239 86.7485C212.369 84.9181 209.515 83.1187 206.68 81.3518L205.622 83.0491ZM222.68 93.9251C225.476 95.747 228.286 97.5964 231.106 99.4721L232.214 97.8068C229.388 95.9277 226.574 94.0748 223.772 92.2494L222.68 93.9251ZM239.53 105.13C242.294 107.005 245.066 108.903 247.844 110.823L248.982 109.178C246.198 107.254 243.422 105.353 240.653 103.475L239.53 105.13ZM256.177 116.637C258.91 118.561 261.647 120.505 264.386 122.468L265.551 120.843C262.808 118.876 260.066 116.928 257.329 115.001L256.177 116.637ZM272.608 128.414C275.316 130.391 278.024 132.384 280.731 134.394L281.924 132.788C279.212 130.775 276.499 128.778 273.787 126.799L272.608 128.414ZM288.832 140.462C291.517 142.49 294.198 144.534 296.875 146.592L298.094 145.006C295.413 142.945 292.727 140.898 290.038 138.866L288.832 140.462ZM304.863 152.787C307.518 154.864 310.166 156.954 312.805 159.056L314.051 157.492C311.407 155.386 308.755 153.293 306.095 151.212L304.863 152.787ZM320.687 165.389C323.305 167.511 325.913 169.644 328.508 171.787L329.782 170.245C327.182 168.098 324.569 165.961 321.947 163.835L320.687 165.389ZM336.288 178.269C338.867 180.439 341.432 182.617 343.981 184.802L345.283 183.284C342.729 181.094 340.159 178.912 337.575 176.738L336.288 178.269ZM351.642 191.435C354.183 193.657 356.706 195.886 359.209 198.12L360.541 196.628C358.033 194.389 355.505 192.156 352.958 189.929L351.642 191.435ZM366.724 204.898C369.225 207.179 371.704 209.464 374.158 211.752L375.522 210.29C373.062 207.996 370.578 205.706 368.071 203.42L366.724 204.898ZM381.5 218.679C383.958 221.025 386.388 223.374 388.787 225.723L390.186 224.294C387.781 221.939 385.345 219.584 382.881 217.232L381.5 218.679ZM395.931 232.808C398.338 235.227 400.711 237.646 403.047 240.062L404.485 238.672C402.142 236.248 399.762 233.823 397.349 231.397L395.931 232.808ZM409.964 247.325C412.309 249.825 414.611 252.322 416.87 254.813L418.352 253.47C416.085 250.97 413.775 248.465 411.423 245.957L409.964 247.325ZM423.526 262.288C425.79 264.878 428.003 267.46 430.162 270.033L431.694 268.748C429.526 266.164 427.305 263.571 425.032 260.972L423.526 262.288ZM436.512 277.771C438.667 280.458 440.759 283.133 442.785 285.794L444.376 284.582C442.34 281.908 440.238 279.22 438.072 276.52L436.512 277.771ZM448.755 293.866C450.757 296.657 452.68 299.429 454.52 302.18L456.183 301.068C454.33 298.298 452.394 295.508 450.38 292.7L448.755 293.866ZM459.981 310.68C461.761 313.575 463.441 316.442 465.016 319.278L466.765 318.307C465.175 315.443 463.479 312.551 461.684 309.632L459.981 310.68ZM469.721 328.308C471.227 331.408 472.593 334.465 473.814 337.474L475.667 336.722C474.428 333.669 473.044 330.571 471.521 327.435L469.721 328.308ZM477.177 346.816C478.214 350.137 479.051 353.388 479.678 356.563L481.64 356.176C480.997 352.923 480.142 349.603 479.086 346.22L477.177 346.816ZM480.96 366.483C481.151 369.897 481.06 373.203 480.672 376.393L482.658 376.634C483.061 373.317 483.154 369.892 482.957 366.371L480.96 366.483ZM478.48 385.993C477.94 387.551 477.314 389.075 476.599 390.564L478.401 391.43C479.15 389.871 479.806 388.277 480.37 386.648L478.48 385.993ZM476.599 390.564C475.891 392.037 475.141 393.504 474.35 394.965L476.109 395.917C476.915 394.428 477.679 392.933 478.401 391.43L476.599 390.564ZM469.161 403.603C467.354 406.342 465.405 409.061 463.324 411.762L464.909 412.983C467.017 410.246 468.994 407.487 470.83 404.705L469.161 403.603ZM456.961 419.502C454.781 421.997 452.492 424.476 450.1 426.941L451.535 428.333C453.95 425.846 456.263 423.341 458.467 420.818L456.961 419.502ZM442.925 434.004C440.524 436.269 438.039 438.521 435.476 440.761L436.792 442.267C439.373 440.011 441.876 437.742 444.297 435.459L442.925 434.004ZM427.698 447.333C425.148 449.419 422.533 451.495 419.859 453.562L421.081 455.144C423.77 453.067 426.399 450.98 428.964 448.881L427.698 447.333ZM411.756 459.662C409.076 461.631 406.344 463.591 403.566 465.543L404.716 467.179C407.505 465.22 410.248 463.252 412.94 461.274L411.756 459.662ZM395.235 471.279C392.463 473.151 389.651 475.016 386.802 476.874L387.895 478.55C390.752 476.686 393.573 474.815 396.355 472.936L395.235 471.279ZM378.304 482.332C375.467 484.126 372.599 485.914 369.703 487.697L370.751 489.4C373.654 487.613 376.529 485.821 379.373 484.022L378.304 482.332ZM361.076 492.943C358.193 494.675 355.286 496.403 352.36 498.125L353.374 499.849C356.306 498.123 359.217 496.393 362.106 494.657L361.076 492.943ZM343.633 503.215C340.718 504.9 337.786 506.581 334.84 508.259L335.829 509.997C338.779 508.317 341.715 506.634 344.634 504.946L343.633 503.215ZM326.039 513.236C323.101 514.888 320.152 516.535 317.196 518.18L318.168 519.928C321.127 518.282 324.078 516.633 327.019 514.979L326.039 513.236ZM308.342 523.085C305.389 524.715 302.431 526.342 299.471 527.966L300.433 529.719C303.394 528.094 306.354 526.467 309.309 524.836L308.342 523.085ZM290.585 532.833C287.623 534.453 284.662 536.07 281.704 537.686L282.663 539.442C285.621 537.826 288.583 536.208 291.545 534.587L290.585 532.833ZM272.807 542.549C269.842 544.171 266.884 545.791 263.935 547.41L264.897 549.163C267.845 547.545 270.803 545.925 273.767 544.304L272.807 542.549ZM255.045 552.304C252.084 553.94 249.135 555.574 246.202 557.208L247.175 558.955C250.106 557.323 253.053 555.689 256.012 554.055L255.045 552.304ZM237.34 562.172C234.39 563.833 231.46 565.495 228.552 567.156L229.544 568.893C232.448 567.233 235.375 565.574 238.321 563.914L237.34 562.172ZM219.738 572.234C216.81 573.936 213.91 575.638 211.039 577.341L212.06 579.061C214.925 577.361 217.82 575.662 220.743 573.964L219.738 572.234ZM202.298 582.589C199.405 584.347 196.548 586.107 193.729 587.869L194.79 589.565C197.6 587.808 200.45 586.052 203.337 584.298L202.298 582.589ZM185.103 593.351C182.241 595.2 179.427 597.051 176.665 598.906L177.78 600.567C180.532 598.719 183.336 596.874 186.188 595.03L185.103 593.351ZM168.274 604.664C165.46 606.639 162.708 608.619 160.025 610.604L161.214 612.212C163.884 610.238 166.622 608.268 169.423 606.301L168.274 604.664ZM152.007 616.711C149.27 618.861 146.617 621.018 144.056 623.181L145.347 624.709C147.889 622.562 150.522 620.42 153.242 618.284L152.007 616.711ZM136.442 629.889C133.908 632.222 131.486 634.565 129.184 636.918L130.614 638.317C132.89 635.991 135.287 633.672 137.797 631.36L136.442 629.889ZM122.237 644.484C119.961 647.14 117.844 649.811 115.899 652.498L117.519 653.67C119.429 651.032 121.512 648.404 123.756 645.786L122.237 644.484ZM110.337 661.042C108.591 664.067 107.071 667.114 105.793 670.186L107.639 670.954C108.881 667.968 110.362 664.998 112.069 662.042L110.337 661.042ZM102.593 679.929C101.783 683.297 101.274 686.695 101.088 690.122L103.085 690.231C103.265 686.929 103.754 683.652 104.537 680.397L102.593 679.929ZM101.504 700.41C101.951 703.716 102.704 707.045 103.779 710.4L105.683 709.79C104.643 706.543 103.916 703.328 103.485 700.142L101.504 700.41ZM107.627 719.839C108.394 721.388 109.229 722.941 110.135 724.5L111.865 723.495C110.98 721.973 110.166 720.459 109.419 718.952L107.627 719.839ZM110.135 724.5C110.957 725.914 111.815 727.327 112.708 728.738L114.398 727.67C113.519 726.278 112.674 724.886 111.865 723.495L110.135 724.5ZM118.425 737.131C120.359 739.783 122.41 742.431 124.57 745.075L126.119 743.81C123.98 741.192 121.952 738.573 120.04 735.952L118.425 737.131ZM131.108 752.699C133.327 755.172 135.637 757.642 138.032 760.108L139.467 758.715C137.088 756.266 134.797 753.815 132.597 751.364L131.108 752.699ZM145.126 767.167C147.506 769.46 149.957 771.75 152.474 774.038L153.819 772.559C151.316 770.283 148.879 768.005 146.513 765.726L145.126 767.167ZM160.031 780.735C162.522 782.888 165.068 785.04 167.666 787.19L168.941 785.649C166.354 783.508 163.818 781.366 161.339 779.222L160.031 780.735ZM175.533 793.571C178.108 795.621 180.727 797.668 183.386 799.714L184.606 798.129C181.955 796.089 179.345 794.049 176.778 792.007L175.533 793.571ZM191.435 805.81C194.085 807.787 196.77 809.763 199.488 811.737L200.664 810.119C197.952 808.149 195.274 806.179 192.631 804.207L191.435 805.81ZM207.674 817.61C210.379 819.529 213.113 821.446 215.871 823.361L217.012 821.718C214.258 819.806 211.53 817.893 208.831 815.979L207.674 817.61ZM224.163 829.063C226.909 830.934 229.677 832.804 232.464 834.672L233.578 833.011C230.795 831.145 228.031 829.278 225.289 827.41L224.163 829.063ZM240.837 840.242C243.614 842.077 246.407 843.91 249.214 845.741L250.307 844.066C247.503 842.237 244.713 840.406 241.94 838.574L240.837 840.242ZM257.647 851.213C260.446 853.02 263.257 854.826 266.077 856.63L267.155 854.946C264.337 853.143 261.528 851.338 258.731 849.533L257.647 851.213ZM274.55 862.031C277.367 863.82 280.19 865.608 283.018 867.395L284.086 865.704C281.259 863.918 278.437 862.131 275.622 860.343L274.55 862.031ZM291.511 872.748C294.341 874.528 297.172 876.306 300.004 878.083L301.067 876.389C298.236 874.613 295.405 872.834 292.576 871.055L291.511 872.748ZM308.499 883.412C311.337 885.191 314.173 886.969 317.004 888.745L318.067 887.051C315.235 885.274 312.399 883.496 309.562 881.717L308.499 883.412ZM325.483 894.07C328.326 895.857 331.161 897.643 333.988 899.427L335.056 897.736C332.228 895.951 329.391 894.165 326.548 892.377L325.483 894.07ZM342.439 904.775C345.28 906.578 348.109 908.379 350.924 910.179L352.002 908.494C349.184 906.693 346.353 904.89 343.511 903.086L342.439 904.775ZM359.331 915.576C362.164 917.404 364.981 919.229 367.778 921.053L368.87 919.378C366.07 917.552 363.251 915.725 360.415 913.896L359.331 915.576ZM376.119 926.528C378.939 928.391 381.736 930.252 384.507 932.111L385.621 930.45C382.846 928.588 380.045 926.725 377.222 924.859L376.119 926.528ZM392.754 937.693C395.554 939.604 398.323 941.514 401.06 943.422L402.203 941.781C399.461 939.869 396.686 937.956 393.882 936.041L392.754 937.693ZM409.198 949.16C411.96 951.131 414.684 953.1 417.367 955.067L418.549 953.454C415.859 951.482 413.128 949.508 410.359 947.532L409.198 949.16ZM425.37 961.025C428.072 963.069 430.726 965.11 433.327 967.148L434.561 965.574C431.95 963.528 429.287 961.48 426.577 959.43L425.37 961.025ZM441.151 973.404C443.76 975.534 446.308 977.662 448.791 979.788L450.092 978.268C447.597 976.132 445.037 973.994 442.416 971.855L441.151 973.404ZM456.354 986.441C458.857 988.708 461.281 990.971 463.62 993.231L465.01 991.793C462.654 989.517 460.215 987.238 457.696 984.958L456.354 986.441ZM470.674 1000.31C473.04 1002.79 475.297 1005.26 477.438 1007.72L478.948 1006.41C476.784 1003.92 474.505 1001.42 472.119 998.93L470.674 1000.31ZM483.742 1015.4C485.81 1018.09 487.73 1020.76 489.496 1023.43L491.164 1022.33C489.37 1019.61 487.421 1016.9 485.326 1014.18L483.742 1015.4ZM494.633 1032C496.246 1035 497.649 1038 498.83 1040.99L500.69 1040.26C499.479 1037.19 498.042 1034.12 496.396 1031.05L494.633 1032ZM501.805 1050.4C502.57 1053.65 503.056 1056.89 503.247 1060.12L505.244 1060C505.045 1056.65 504.542 1053.3 503.751 1049.94L501.805 1050.4ZM502.906 1069.9C502.693 1071.52 502.4 1073.15 502.026 1074.77L503.974 1075.22C504.363 1073.54 504.668 1071.85 504.889 1070.16L502.906 1069.9ZM502.026 1074.77C501.671 1076.31 501.228 1077.85 500.7 1079.4L502.594 1080.05C503.142 1078.44 503.604 1076.83 503.974 1075.22L502.026 1074.77ZM496.714 1088.42C495.201 1091.22 493.431 1094.04 491.419 1096.88L493.05 1098.03C495.103 1095.14 496.917 1092.25 498.474 1089.37L496.714 1088.42ZM485.271 1104.73C483.207 1107.15 480.982 1109.58 478.604 1112.02L480.036 1113.42C482.442 1110.95 484.697 1108.49 486.793 1106.03L485.271 1104.73ZM471.4 1119.02C469.006 1121.23 466.497 1123.45 463.88 1125.67L465.175 1127.2C467.812 1124.95 470.342 1122.72 472.757 1120.49L471.4 1119.02ZM456.198 1131.98C453.599 1134.05 450.913 1136.12 448.146 1138.2L449.347 1139.8C452.127 1137.71 454.828 1135.63 457.443 1133.55L456.198 1131.98ZM440.178 1144.04C437.476 1145.98 434.709 1147.92 431.882 1149.87L433.016 1151.52C435.853 1149.56 438.631 1147.61 441.344 1145.67L440.178 1144.04ZM423.653 1155.44C420.878 1157.28 418.053 1159.14 415.183 1160.99L416.268 1162.67C419.146 1160.81 421.978 1158.95 424.761 1157.1L423.653 1155.44ZM406.791 1166.34C403.961 1168.13 401.093 1169.91 398.19 1171.7L399.239 1173.41C402.148 1171.61 405.022 1169.82 407.857 1168.04L406.791 1166.34ZM389.694 1176.89C386.831 1178.62 383.938 1180.36 381.019 1182.1L382.042 1183.82C384.965 1182.08 387.862 1180.34 390.729 1178.6L389.694 1176.89ZM372.429 1187.18C369.55 1188.87 366.649 1190.57 363.728 1192.27L364.734 1194C367.657 1192.3 370.561 1190.6 373.442 1188.91L372.429 1187.18ZM355.048 1197.29C352.158 1198.96 349.253 1200.62 346.334 1202.29L347.327 1204.03C350.248 1202.36 353.155 1200.69 356.046 1199.02L355.048 1197.29ZM337.594 1207.28C334.696 1208.93 331.788 1210.58 328.872 1212.24L329.859 1213.98C332.776 1212.32 335.685 1210.67 338.583 1209.02L337.594 1207.28ZM320.107 1217.21C317.201 1218.85 314.293 1220.5 311.378 1222.15L312.364 1223.89C315.276 1222.24 318.19 1220.59 321.093 1218.95L320.107 1217.21ZM302.63 1227.11C299.716 1228.76 296.801 1230.42 293.888 1232.08L294.877 1233.82C297.79 1232.16 300.704 1230.5 303.617 1228.85L302.63 1227.11ZM285.16 1237.06C282.247 1238.72 279.339 1240.39 276.438 1242.06L277.435 1243.8C280.335 1242.13 283.242 1240.46 286.153 1238.79L285.16 1237.06ZM267.727 1247.1C264.829 1248.78 261.941 1250.46 259.063 1252.15L260.074 1253.87C262.949 1252.19 265.836 1250.51 268.731 1248.83L267.727 1247.1ZM250.371 1257.27C247.487 1258.98 244.617 1260.69 241.763 1262.41L242.793 1264.12C245.643 1262.41 248.51 1260.7 251.391 1258.99L250.371 1257.27ZM233.132 1267.64C230.261 1269.39 227.409 1271.14 224.58 1272.9L225.636 1274.6C228.46 1272.84 231.307 1271.09 234.174 1269.34L233.132 1267.64ZM216.054 1278.25C213.2 1280.06 210.373 1281.87 207.575 1283.68L208.663 1285.36C211.454 1283.55 214.276 1281.74 217.125 1279.94L216.054 1278.25ZM199.188 1289.19C196.36 1291.07 193.565 1292.95 190.809 1294.84L191.938 1296.49C194.687 1294.61 197.474 1292.73 200.296 1290.85L199.188 1289.19ZM182.598 1300.55C179.808 1302.52 177.063 1304.49 174.365 1306.47L175.547 1308.08C178.235 1306.11 180.971 1304.15 183.752 1302.18L182.598 1300.55ZM166.371 1312.45C163.642 1314.53 160.971 1316.62 158.36 1318.71L159.61 1320.27C162.208 1318.19 164.867 1316.11 167.584 1314.04L166.371 1312.45ZM150.638 1325.05C148.009 1327.27 145.453 1329.49 142.975 1331.72L144.312 1333.21C146.774 1330.99 149.314 1328.78 151.928 1326.58L150.638 1325.05ZM135.622 1338.56C133.154 1340.95 130.78 1343.34 128.507 1345.73L129.957 1347.11C132.209 1344.74 134.563 1342.37 137.012 1340L135.622 1338.56ZM121.712 1353.25C119.501 1355.84 117.413 1358.43 115.457 1361.02L117.054 1362.23C118.984 1359.67 121.045 1357.11 123.232 1354.55L121.712 1353.25ZM109.604 1369.43C107.739 1372.35 106.05 1375.28 104.546 1378.21L106.327 1379.12C107.799 1376.25 109.456 1373.37 111.289 1370.5L109.604 1369.43ZM100.46 1387.43C99.249 1390.68 98.2772 1393.93 97.5602 1397.2L99.5137 1397.63C100.209 1394.46 101.153 1391.3 102.334 1388.13L100.46 1387.43ZM96.1739 1407.3C95.993 1410.68 96.099 1414.07 96.5076 1417.46L98.4932 1417.22C98.0987 1413.94 97.9962 1410.68 98.1711 1407.41L96.1739 1407.3ZM98.5904 1427.42C99.5456 1430.62 100.781 1433.82 102.309 1437.02L104.114 1436.16C102.629 1433.05 101.431 1429.95 100.507 1426.85L98.5904 1427.42ZM107.198 1445.74C108.134 1447.19 109.132 1448.64 110.193 1450.09L111.807 1448.91C110.768 1447.49 109.793 1446.07 108.878 1444.65L107.198 1445.74ZM110.193 1450.09C111.165 1451.42 112.16 1452.74 113.178 1454.07L114.764 1452.85C113.755 1451.54 112.769 1450.22 111.807 1448.91L110.193 1450.09ZM119.553 1462C121.674 1464.53 123.873 1467.05 126.146 1469.57L127.63 1468.23C125.372 1465.73 123.189 1463.22 121.086 1460.72L119.553 1462ZM133.082 1477C135.381 1479.39 137.743 1481.77 140.164 1484.15L141.565 1482.72C139.156 1480.35 136.808 1477.99 134.523 1475.61L133.082 1477ZM147.47 1491.14C149.905 1493.42 152.391 1495.69 154.925 1497.96L156.259 1496.47C153.735 1494.21 151.26 1491.95 148.836 1489.68L147.47 1491.14ZM162.504 1504.61C165.038 1506.79 167.614 1508.97 170.228 1511.14L171.507 1509.6C168.901 1507.44 166.334 1505.27 163.809 1503.09L162.504 1504.61ZM178.015 1517.52C180.622 1519.62 183.262 1521.72 185.933 1523.82L187.168 1522.25C184.504 1520.16 181.871 1518.06 179.271 1515.96L178.015 1517.52ZM193.884 1529.99C196.545 1532.03 199.232 1534.06 201.942 1536.1L203.142 1534.5C200.437 1532.47 197.755 1530.43 195.1 1528.4L193.884 1529.99ZM210.024 1542.1C212.725 1544.08 215.446 1546.07 218.185 1548.05L219.357 1546.43C216.622 1544.45 213.905 1542.47 211.209 1540.49L210.024 1542.1ZM226.368 1553.92C229.1 1555.87 231.846 1557.81 234.604 1559.75L235.754 1558.11C232.999 1556.18 230.257 1554.24 227.529 1552.29L226.368 1553.92ZM242.865 1565.53C245.619 1567.44 248.382 1569.35 251.153 1571.26L252.288 1569.62C249.519 1567.71 246.758 1565.8 244.007 1563.88L242.865 1565.53ZM259.467 1576.97C262.238 1578.87 265.014 1580.76 267.793 1582.65L268.918 1580.99C266.14 1579.11 263.366 1577.21 260.596 1575.32L259.467 1576.97ZM276.137 1588.31C278.92 1590.19 281.704 1592.07 284.486 1593.95L285.605 1592.3C282.823 1590.42 280.04 1588.54 277.258 1586.65L276.137 1588.31ZM292.837 1599.59C295.628 1601.47 298.415 1603.35 301.195 1605.23L302.314 1603.57C299.534 1601.69 296.747 1599.81 293.956 1597.93L292.837 1599.59ZM309.533 1610.86C312.327 1612.76 315.112 1614.64 317.886 1616.53L319.01 1614.88C316.235 1612.99 313.449 1611.1 310.654 1609.21L309.533 1610.86ZM326.189 1622.19C328.981 1624.1 331.759 1626 334.519 1627.91L335.655 1626.26C332.892 1624.36 330.112 1622.45 327.318 1620.54L326.189 1622.19ZM342.767 1633.62C345.55 1635.56 348.313 1637.49 351.052 1639.42L352.204 1637.79C349.462 1635.86 346.696 1633.92 343.91 1631.98L342.767 1633.62ZM359.223 1645.23C361.988 1647.2 364.725 1649.18 367.431 1651.15L368.608 1649.53C365.897 1647.56 363.155 1645.58 360.387 1643.6L359.223 1645.23ZM375.503 1657.08C378.235 1659.11 380.931 1661.14 383.589 1663.16L384.8 1661.57C382.136 1659.54 379.434 1657.51 376.696 1655.48L375.503 1657.08ZM391.533 1669.28C394.212 1671.38 396.845 1673.47 399.43 1675.56L400.686 1674C398.093 1671.91 395.451 1669.81 392.765 1667.71L391.533 1669.28ZM407.202 1681.95C409.798 1684.12 412.337 1686.29 414.813 1688.46L416.13 1686.95C413.642 1684.78 411.093 1682.6 408.487 1680.41L407.202 1681.95ZM422.34 1695.21C424.828 1697.5 427.24 1699.79 429.572 1702.07L430.97 1700.64C428.623 1698.34 426.196 1696.04 423.695 1693.74L422.34 1695.21ZM436.669 1709.25C439.031 1711.73 441.291 1714.21 443.442 1716.68L444.95 1715.37C442.779 1712.87 440.499 1710.37 438.118 1707.87L436.669 1709.25ZM449.779 1724.35C451.894 1727.05 453.868 1729.75 455.693 1732.44L457.348 1731.32C455.496 1728.59 453.496 1725.85 451.355 1723.11L449.779 1724.35ZM460.982 1740.97C462.658 1743.95 464.135 1746.93 465.401 1749.89L467.24 1749.11C465.943 1746.07 464.434 1743.03 462.726 1739.99L460.982 1740.97ZM468.698 1759.23C469.594 1762.48 470.219 1765.71 470.558 1768.93L472.547 1768.72C472.196 1765.38 471.55 1762.05 470.626 1758.7L468.698 1759.23ZM470.682 1778.77C470.414 1782.02 469.833 1785.25 468.922 1788.47L470.847 1789.02C471.793 1785.67 472.396 1782.31 472.675 1778.94L470.682 1778.77ZM465.369 1797.73C463.983 1800.58 462.321 1803.42 460.371 1806.26L462.019 1807.39C464.022 1804.47 465.734 1801.55 467.167 1798.61L465.369 1797.73ZM454.308 1814C453.195 1815.27 452.021 1816.53 450.785 1817.8L452.215 1819.2C453.474 1817.91 454.672 1816.62 455.81 1815.32L454.308 1814ZM450.785 1817.8C449.643 1818.97 448.486 1820.14 447.316 1821.32L448.734 1822.73C449.908 1821.55 451.069 1820.37 452.215 1819.2L450.785 1817.8ZM440.141 1828.42C437.792 1830.71 435.394 1833.01 432.951 1835.33L434.328 1836.78C436.776 1834.45 439.18 1832.14 441.537 1829.85L440.141 1828.42ZM425.627 1842.19C423.188 1844.45 420.711 1846.72 418.197 1849L419.541 1850.48C422.059 1848.19 424.542 1845.92 426.986 1843.66L425.627 1842.19ZM410.768 1855.67C408.285 1857.89 405.77 1860.11 403.227 1862.34L404.546 1863.84C407.093 1861.61 409.611 1859.38 412.099 1857.17L410.768 1855.67ZM395.663 1868.92C393.15 1871.1 390.613 1873.28 388.054 1875.46L389.353 1876.98C391.915 1874.79 394.455 1872.61 396.971 1870.44L395.663 1868.92ZM380.38 1881.98C377.844 1884.12 375.289 1886.27 372.717 1888.42L374.001 1889.96C376.575 1887.8 379.132 1885.65 381.671 1883.51L380.38 1881.98ZM364.984 1894.87C362.424 1897 359.849 1899.13 357.262 1901.26L358.535 1902.8C361.123 1900.67 363.7 1898.54 366.262 1896.41L364.984 1894.87ZM349.497 1907.64C346.916 1909.76 344.325 1911.88 341.725 1914L342.989 1915.55C345.59 1913.43 348.183 1911.31 350.765 1909.19L349.497 1907.64ZM333.936 1920.34C331.341 1922.45 328.74 1924.56 326.134 1926.67L327.393 1928.22C330 1926.11 332.602 1924 335.197 1921.89L333.936 1920.34ZM318.329 1932.99C315.726 1935.09 313.121 1937.2 310.515 1939.31L311.772 1940.86C314.378 1938.76 316.984 1936.65 319.587 1934.54L318.329 1932.99ZM302.701 1945.62C300.095 1947.72 297.491 1949.83 294.889 1951.93L296.147 1953.49C298.748 1951.38 301.352 1949.28 303.957 1947.18L302.701 1945.62ZM287.075 1958.25C284.469 1960.36 281.868 1962.47 279.273 1964.58L280.534 1966.13C283.128 1964.03 285.728 1961.92 288.334 1959.81L287.075 1958.25ZM271.477 1970.92C268.872 1973.04 266.276 1975.16 263.691 1977.28L264.958 1978.83C267.542 1976.71 270.137 1974.59 272.74 1972.47L271.477 1970.92ZM255.931 1983.65C253.331 1985.79 250.743 1987.92 248.17 1990.06L249.446 1991.6C252.017 1989.47 254.603 1987.33 257.202 1985.19L255.931 1983.65ZM240.469 1996.46C237.875 1998.63 235.298 2000.79 232.741 2002.94L234.03 2004.47C236.585 2002.32 239.159 2000.16 241.751 1998L240.469 1996.46ZM225.087 2009.43C222.516 2011.62 219.968 2013.8 217.445 2015.97L218.751 2017.49C221.271 2015.32 223.816 2013.14 226.384 2010.95L225.087 2009.43ZM209.846 2022.57C207.312 2024.78 204.807 2026.99 202.332 2029.19L203.66 2030.68C206.13 2028.49 208.632 2026.29 211.162 2024.07L209.846 2022.57ZM194.807 2035.93C192.3 2038.19 189.829 2040.45 187.397 2042.7L188.754 2044.17C191.18 2041.93 193.646 2039.67 196.148 2037.41L194.807 2035.93ZM180.053 2049.55C177.575 2051.89 175.143 2054.22 172.761 2056.54L174.155 2057.97C176.53 2055.66 178.955 2053.34 181.427 2051.01L180.053 2049.55ZM165.619 2063.58C163.216 2065.99 160.873 2068.38 158.593 2070.76L160.035 2072.14C162.306 2069.78 164.641 2067.4 167.035 2065L165.619 2063.58ZM151.661 2078.13C149.34 2080.65 147.097 2083.15 144.937 2085.63L146.445 2086.95C148.592 2084.48 150.823 2081.99 153.133 2079.48L151.661 2078.13ZM138.456 2093.31C136.283 2095.97 134.217 2098.6 132.262 2101.2L133.861 2102.4C135.798 2099.82 137.848 2097.21 140.006 2094.57L138.456 2093.31ZM126.38 2109.43C124.422 2112.33 122.62 2115.19 120.986 2118L122.715 2119C124.324 2116.24 126.102 2113.42 128.038 2110.55L126.38 2109.43ZM116.278 2126.95C114.779 2130.17 113.53 2133.32 112.552 2136.4L114.458 2137.01C115.407 2134.02 116.623 2130.95 118.091 2127.8L116.278 2126.95ZM110.314 2146.42C110.106 2148.14 110 2149.83 110 2151.5H112C112 2149.92 112.101 2148.3 112.3 2146.66L110.314 2146.42ZM110 2151.5C110 2153.27 110.129 2155.04 110.382 2156.8L112.361 2156.52C112.122 2154.85 112 2153.17 112 2151.5H110ZM113.191 2166.98C114.467 2170.11 116.105 2173.22 118.071 2176.3L119.757 2175.23C117.848 2172.23 116.268 2169.23 115.043 2166.22L113.191 2166.98ZM124.3 2184.73C126.465 2187.31 128.846 2189.87 131.424 2192.4L132.826 2190.97C130.289 2188.48 127.951 2185.97 125.832 2183.44L124.3 2184.73ZM139.111 2199.41C141.686 2201.6 144.401 2203.77 147.24 2205.92L148.448 2204.33C145.635 2202.2 142.951 2200.05 140.407 2197.88L139.111 2199.41ZM155.689 2212.01C158.494 2213.94 161.393 2215.85 164.377 2217.74L165.447 2216.05C162.483 2214.17 159.605 2212.28 156.822 2210.36L155.689 2212.01ZM173.249 2223.16C176.193 2224.9 179.202 2226.62 182.27 2228.32L183.239 2226.57C180.186 2224.88 177.193 2223.17 174.266 2221.44L173.249 2223.16ZM191.412 2233.24C194.451 2234.83 197.535 2236.4 200.658 2237.95L201.548 2236.16C198.437 2234.61 195.365 2233.05 192.34 2231.47L191.412 2233.24ZM209.992 2242.48C213.102 2243.95 216.242 2245.4 219.405 2246.84L220.23 2245.02C217.077 2243.59 213.948 2242.14 210.849 2240.67L209.992 2242.48ZM228.886 2251.04C232.053 2252.42 235.237 2253.77 238.43 2255.11L239.2 2253.26C236.016 2251.93 232.841 2250.58 229.683 2249.21L228.886 2251.04ZM248.028 2259.04C251.243 2260.33 254.462 2261.6 257.677 2262.85L258.4 2260.98C255.192 2259.74 251.981 2258.47 248.774 2257.18L248.028 2259.04ZM267.371 2266.54C270.629 2267.76 273.877 2268.95 277.108 2270.12L277.787 2268.23C274.563 2267.07 271.322 2265.88 268.072 2264.66L267.371 2266.54ZM286.883 2273.58C290.182 2274.73 293.455 2275.85 296.694 2276.94L297.332 2275.05C294.099 2273.96 290.833 2272.84 287.541 2271.69L286.883 2273.58ZM306.539 2280.2C309.88 2281.28 313.175 2282.33 316.415 2283.35L317.012 2281.44C313.778 2280.43 310.491 2279.38 307.157 2278.3L306.539 2280.2ZM326.315 2286.38C329.714 2287.4 333.038 2288.38 336.275 2289.31L336.828 2287.39C333.599 2286.46 330.283 2285.49 326.89 2284.47L326.315 2286.38ZM346.29 2292.13C347.972 2292.59 349.624 2293.03 351.243 2293.46L351.757 2291.53C350.143 2291.1 348.496 2290.66 346.818 2290.2L346.29 2292.13Z" fill="black"/>
<path d="M73.6268 14.2888C73.7397 11.9821 76.3073 10.6627 78.2484 11.9137L95.719 23.1734C97.6602 24.4245 97.5191 27.3078 95.465 28.3633L76.9786 37.8634C74.9246 38.919 72.4981 37.3552 72.611 35.0485L73.6268 14.2888Z" fill="#183266"/>
<path d="M488.991 341.595C491.278 341.273 493.055 343.548 492.19 345.689L484.405 364.961C483.539 367.102 480.681 367.504 479.259 365.684L466.462 349.306C465.041 347.486 466.122 344.809 468.409 344.488L488.991 341.595Z" fill="#183266"/>
<path d="M88.6167 683.948C87.3656 682.007 88.6851 679.439 90.9918 679.326L111.752 678.311C114.058 678.198 115.622 680.625 114.566 682.679L105.066 701.165C104.01 703.219 101.127 703.36 99.876 701.419L88.6167 683.948Z" fill="#183266"/>
<path d="M503.058 1024.66C505.184 1023.76 507.489 1025.49 507.206 1027.79L504.662 1048.41C504.38 1050.71 501.722 1051.83 499.878 1050.44L483.285 1037.93C481.442 1036.53 481.795 1033.67 483.921 1032.77L503.058 1024.66Z" fill="#183266"/>
<path d="M478.452 1751.18C480.713 1750.71 482.636 1752.86 481.914 1755.06L475.415 1774.8C474.692 1776.99 471.866 1777.58 470.328 1775.86L456.48 1760.36C454.942 1758.64 455.844 1755.89 458.105 1755.42L478.452 1751.18Z" fill="#183266"/>
<path d="M108.767 1347.45C108.758 1345.14 111.251 1343.69 113.256 1344.84L131.3 1355.15C133.305 1356.3 133.318 1359.19 131.323 1360.35L113.367 1370.82C111.372 1371.98 108.866 1370.55 108.856 1368.24L108.767 1347.45Z" fill="#183266"/>
<path d="M104.659 2123.74C104.13 2121.49 106.233 2119.52 108.444 2120.18L128.346 2126.18C130.557 2126.84 131.218 2129.65 129.535 2131.24L114.393 2145.47C112.711 2147.05 109.947 2146.22 109.418 2143.97L104.659 2123.74Z" fill="#183266"/>
<circle cx="6" cy="96.998" r="6" fill="#183266"/>
<circle cx="349" cy="2291" r="6" fill="#183266"/>
</svg>
