<svg width="375" height="20" viewBox="0 0 375 20" fill="none" xmlns="http://www.w3.org/2000/svg">
<path fill-rule="evenodd" clip-rule="evenodd" d="M16.9046 19.7764C11.5626 19.8061 5.97285 19.5307 1.85953 18.1383C1.57006 18.0403 1.28465 17.9279 1.0415 17.7924C0.920156 17.7248 0.765369 17.6275 0.615984 17.4915C0.478907 17.3666 0.243051 17.1164 0.122904 16.7219C-0.0197285 16.2534 0.0591312 15.7743 0.287575 15.3962C0.479288 15.079 0.732026 14.9021 0.874128 14.816C1.15818 14.6439 1.46965 14.559 1.67399 14.5112C2.51998 14.3134 4.00979 14.2285 5.57308 14.178C6.95368 14.1334 8.46779 14.1136 9.91927 14.0946C11.9627 14.0678 13.8819 14.0427 15.1297 13.9523C18.5229 13.7064 21.9188 13.4545 25.3161 13.2025C31.0039 12.7807 36.6956 12.3586 42.3847 11.9635C81.2259 9.2664 120.065 6.99588 158.924 5.33126C138.022 5.31652 117.121 5.19604 96.2169 4.91478C96.2273 4.91492 85.1115 4.83937 77.8491 4.73106C76.0255 4.70386 74.4302 4.67444 73.2978 4.64334C72.7339 4.62786 72.2732 4.61167 71.9535 4.59452C71.7991 4.58625 71.6515 4.57645 71.5351 4.56357C71.4921 4.55881 71.3837 4.54668 71.2679 4.51794L71.2658 4.51747C71.2409 4.51171 71.0175 4.46028 70.7895 4.30583C70.698 4.24383 70.2708 3.94786 70.1569 3.33093C70.0181 2.57845 70.4492 2.08301 70.6337 1.91769C70.8183 1.75226 70.9984 1.67616 71.0559 1.65242C71.1361 1.61936 71.2037 1.59985 71.2423 1.58953C71.3204 1.56868 71.3872 1.55747 71.4225 1.55197C71.4989 1.54006 71.576 1.53256 71.6373 1.52739C71.7667 1.51648 71.9368 1.50703 72.1399 1.4983C72.5512 1.4806 73.1616 1.4632 73.9934 1.44593C75.6603 1.41133 78.2512 1.37657 81.993 1.3422C179.1 0.450262 276.233 -0.164856 373.348 0.0996454C374.155 0.101843 374.807 0.77519 374.804 1.60361C374.802 2.43203 374.145 3.10181 373.338 3.09962C363.681 3.07331 354.024 3.05571 344.367 3.04622L344.324 5.75226L341.088 5.70072C339.325 5.67264 337.563 5.64476 335.801 5.61748C326.064 5.46968 316.327 5.36271 306.591 5.28717C305.57 5.28226 304.549 5.27829 303.528 5.27534C216.409 5.02346 129.514 8.91998 42.5794 14.9567C36.8952 15.3514 31.2173 15.7725 25.5355 16.1939C22.9399 16.3864 20.3435 16.579 17.7454 16.7691C20.0009 16.7431 22.2395 16.6672 24.3556 16.5955L24.6475 16.5856C27.1011 16.5026 29.3988 16.4279 31.3076 16.454C109.146 17.5182 187.308 16.5349 265.04 12.3938C273.327 11.9523 281.609 11.3619 289.878 10.6308C292.699 10.3813 295.506 10.1071 298.292 9.74724C297.943 9.73197 297.591 9.71777 297.238 9.70458C295.036 9.62229 292.822 9.58017 291.144 9.55806C290.144 9.5449 289.296 9.53877 288.773 9.53501C288.449 9.53267 288.25 9.53124 288.22 9.52959C287.414 9.48609 286.796 8.78018 286.839 7.9529C286.882 7.12562 287.57 6.49025 288.375 6.53375C288.353 6.53251 288.578 6.53361 289.127 6.53753C289.63 6.54111 290.338 6.54719 291.184 6.55833C292.874 6.58059 295.114 6.62312 297.347 6.70658C299.573 6.78975 301.824 6.91464 303.524 7.10516C304.363 7.19917 305.13 7.31566 305.707 7.46888C305.981 7.54167 306.315 7.64832 306.608 7.82039C306.779 7.92068 307.622 8.4432 307.51 9.51176C307.432 10.2521 307.045 10.799 306.582 11.1505C306.166 11.4667 305.696 11.6236 305.337 11.714C304.964 11.808 304.581 11.8606 304.272 11.8987C304.175 11.9107 304.087 11.9211 304.007 11.9306C303.802 11.9549 303.645 11.9735 303.499 11.9987C299.051 12.7668 294.568 13.227 290.126 13.6197C281.825 14.3536 273.51 14.9464 265.189 15.3898C187.38 19.5349 109.154 20.5186 31.2662 19.4537C29.4383 19.4287 27.2126 19.5004 24.7413 19.584L24.4377 19.5943C22.0634 19.6748 19.489 19.762 16.9046 19.7764Z" fill="#FFB000"/>
</svg>
