<svg width="1171" height="1926" viewBox="0 0 1171 1926" fill="none" xmlns="http://www.w3.org/2000/svg">
<g opacity="0.08">
<path d="M846.141 417.35C919.662 395.184 981.689 392.738 1034.76 406.066C1087.82 419.393 1132 448.511 1169.82 489.614C1245.48 571.868 1295.54 702.028 1339.96 849.336C1384.37 996.644 1414.59 1132.79 1397 1243.16C1388.21 1298.31 1367.48 1347 1330.63 1387.43C1293.77 1427.87 1240.73 1460.12 1167.2 1482.28C1020.2 1526.6 897.108 1498.74 799.664 1423.09C702.174 1347.42 630.276 1223.86 585.902 1076.67C541.528 929.49 533.148 786.779 572.563 669.828C611.96 552.931 699.138 461.669 846.141 417.35Z" stroke="#575757" stroke-width="2"/>
<path d="M757.3 444.261C826.129 410.214 886.893 397.518 941.436 401.865C995.972 406.211 1044.37 427.602 1088.48 461.868C1176.73 530.44 1247.68 650.5 1315.89 788.408C1384.11 926.315 1436.49 1055.56 1437.43 1167.32C1437.91 1223.17 1425.54 1274.62 1395.9 1320.6C1366.25 1366.59 1319.29 1407.19 1250.46 1441.23C1112.84 1509.31 986.829 1502.23 878.194 1443.79C769.508 1385.33 678.121 1275.39 609.962 1137.6C541.803 999.812 509.881 860.465 529.362 738.598C548.835 616.788 619.678 512.336 757.3 444.261Z" stroke="#575757" stroke-width="2"/>
<path d="M661.809 493.206C722.849 446.613 780.058 422.522 834.425 416.348C888.785 410.174 940.386 421.905 990.231 447.095C1089.98 497.506 1182.6 601.766 1275.95 724.066C1369.3 846.365 1445.45 963.198 1467.77 1072.71C1478.93 1127.43 1476.63 1180.3 1456.35 1231.11C1436.05 1281.92 1397.73 1330.75 1336.69 1377.35C1214.64 1470.51 1089.61 1487.68 971.794 1451.12C853.927 1414.53 743.187 1324.13 649.912 1201.93C556.638 1079.73 498.633 949.074 494.427 825.732C490.224 702.446 539.763 586.366 661.809 493.206Z" stroke="#575757" stroke-width="2"/>
<path d="M572.171 564.653C622.404 506.572 673.484 471.299 725.442 454.147C777.394 436.997 830.303 437.937 884.244 452.412C992.187 481.379 1104.15 564.516 1220.53 665.161C1336.9 765.807 1435.31 864.617 1479.54 967.256C1501.64 1018.55 1510.19 1070.77 1500.71 1124.65C1491.23 1178.54 1463.69 1234.17 1413.46 1292.25C1313.02 1408.38 1194.13 1450.74 1071.34 1439.02C948.481 1427.29 821.605 1361.42 705.331 1260.86C589.058 1160.3 505.58 1044.24 476.262 924.363C446.957 804.537 471.734 680.784 572.171 564.653Z" stroke="#575757" stroke-width="2"/>
<path d="M1257.76 489.238C1326.06 524.337 1372.4 565.645 1401.33 612.084C1430.26 658.518 1441.84 710.153 1440.51 765.987C1437.85 877.718 1383.5 1006.15 1313.18 1142.99C1242.85 1279.84 1170.07 1398.79 1080.78 1466.01C1036.15 1499.59 987.43 1520.24 932.833 1523.75C878.23 1527.26 817.668 1513.63 749.369 1478.53C612.808 1408.35 543.575 1302.83 525.973 1180.73C508.362 1058.58 542.418 919.74 612.682 783.011C682.947 646.282 776.009 537.763 885.579 480.97C995.098 424.202 1121.2 419.06 1257.76 489.238Z" stroke="#575757" stroke-width="2"/>
<path d="M1175.14 446.922C1248.32 470.213 1300.86 503.268 1337.09 544.268C1373.32 585.263 1393.3 634.265 1401.24 689.546C1417.14 800.172 1384.83 935.835 1338.17 1082.44C1291.5 1229.05 1239.45 1358.43 1162.53 1439.51C1124.09 1480.03 1079.47 1508.47 1026.21 1520.98C972.941 1533.49 910.958 1530.1 837.785 1506.81C691.48 1460.24 605.712 1367.65 568.112 1250.16C530.496 1132.62 541.064 990.054 587.69 843.569C634.316 697.083 708.1 574.639 806.739 500.467C905.332 426.33 1028.84 400.353 1175.14 446.922Z" stroke="#575757" stroke-width="2"/>
<path d="M1072.44 415.837C1148.71 424.69 1206.61 447.077 1250.02 480.383C1293.43 513.686 1322.42 557.957 1340.8 610.695C1377.58 716.233 1371.83 855.571 1354.09 1008.4C1336.35 1161.23 1310.03 1298.18 1250.05 1392.49C1220.08 1439.62 1181.72 1476.07 1131.84 1498.55C1081.96 1521.02 1020.47 1529.55 944.195 1520.7C791.68 1503 689.775 1428.54 630.382 1320.42C570.962 1212.25 554.045 1070.3 571.769 917.597C589.493 764.896 638.475 630.592 721.092 538.91C803.671 447.271 919.922 398.134 1072.44 415.837Z" stroke="#575757" stroke-width="2"/>
<path d="M958.324 405.014C1034.8 398.095 1096.05 408.18 1145.35 431.914C1194.65 455.646 1232.07 493.06 1260.84 540.931C1318.4 636.727 1341.25 774.299 1355.11 927.531C1368.97 1080.76 1371.18 1220.2 1331.74 1324.77C1312.03 1377.03 1281.93 1420.55 1237.7 1452.74C1193.46 1484.94 1135.01 1505.85 1058.53 1512.77C905.618 1526.6 790.649 1474.54 710.419 1380.83C630.151 1287.09 584.587 1151.59 570.738 998.485C556.888 845.383 577.396 703.905 639.538 597.277C701.652 490.699 805.411 418.846 958.324 405.014Z" stroke="#575757" stroke-width="2"/>
<path d="M1496.13 798.469C1524.7 869.746 1532.62 931.314 1524.03 985.352C1515.44 1039.38 1490.34 1085.97 1452.74 1127.26C1377.49 1209.9 1252.26 1271.26 1109.45 1328.51C966.64 1385.76 833.699 1427.89 722.207 1420.11C666.494 1416.23 616.164 1399.88 572.632 1366.75C529.095 1333.6 492.29 1283.62 463.717 1212.34C406.587 1069.83 423.473 944.752 490.211 841.008C556.981 737.215 673.709 654.684 816.397 597.484C959.086 540.283 1100.5 519.331 1220.47 548.262C1340.39 577.179 1439 655.956 1496.13 798.469Z" stroke="#575757" stroke-width="2"/>
<path d="M1461.48 712.356C1501.47 777.909 1519.48 837.314 1519.97 892.028C1520.46 946.735 1503.43 996.837 1473.19 1043.79C1412.68 1137.76 1299.36 1219.03 1168.01 1299.16C1036.67 1379.3 912.554 1442.88 801.316 1453.7C745.729 1459.1 693.386 1451.33 644.963 1425.86C596.535 1400.4 551.952 1357.2 511.959 1291.65C431.994 1160.58 427.912 1034.44 476.528 921.063C525.167 807.638 626.599 706.898 757.831 626.835C889.063 546.771 1025.05 502.666 1148.16 511.307C1271.21 519.945 1381.51 581.285 1461.48 712.356Z" stroke="#575757" stroke-width="2"/>
<path d="M1404.29 621.557C1456.09 678.243 1485.14 733.101 1496.09 786.71C1507.04 840.312 1499.92 892.748 1479.23 944.623C1437.82 1048.43 1342.15 1149.9 1228.58 1253.69C1115 1357.48 1005.35 1443.65 898.238 1475.56C844.714 1491.5 791.85 1493.89 739.448 1478.16C687.041 1462.44 635.015 1428.58 583.213 1371.89C479.637 1258.55 451.485 1135.52 477.501 1014.94C503.53 894.302 583.802 776.009 697.282 672.306C810.762 568.603 935.789 499.284 1058.28 484.201C1180.71 469.124 1300.71 508.217 1404.29 621.557Z" stroke="#575757" stroke-width="2"/>
<path d="M1325.21 538.581C1387.5 583.487 1427.14 631.253 1448.82 681.492C1470.49 731.726 1474.23 784.512 1464.57 839.52C1445.25 949.6 1372.33 1068.47 1282.36 1193.28C1192.38 1318.09 1102.65 1424.84 1004.32 1477.96C955.183 1504.5 903.921 1517.64 849.413 1512.96C794.898 1508.27 737.051 1485.75 674.76 1440.85C550.212 1351.06 497.516 1236.38 498.346 1113.03C499.177 989.614 553.587 857.416 643.484 732.714C733.382 608.013 841.607 514.611 958.43 474.819C1075.2 435.045 1200.66 448.794 1325.21 538.581Z" stroke="#575757" stroke-width="2"/>
<path d="M1461.22 1214.16C1432.39 1285.33 1395.4 1335.18 1351.74 1368.16C1308.09 1401.14 1257.7 1417.3 1201.97 1420.99C1090.45 1428.36 957.668 1385.74 815.068 1327.97C672.468 1270.2 547.463 1208.38 472.515 1125.48C435.063 1084.05 410.131 1037.37 401.74 983.307C393.348 929.239 401.487 867.699 430.32 796.528C487.969 654.223 586.861 575.806 706.885 547.325C826.964 518.831 968.301 540.299 1110.78 598.019C1253.26 655.739 1369.69 738.694 1436.08 842.729C1502.44 946.716 1518.87 1071.85 1461.22 1214.16Z" stroke="#575757" stroke-width="2"/>
<path d="M1495.96 1128.07C1479.33 1203.04 1451.12 1258.33 1413.53 1298.1C1375.95 1337.86 1328.94 1362.15 1274.59 1375.02C1165.84 1400.77 1027.82 1380.76 877.621 1347.43C727.417 1314.1 593.893 1273.86 506.238 1204.52C462.436 1169.87 430.111 1127.98 412.874 1076.05C395.635 1024.13 393.46 962.088 410.095 887.121C443.356 737.229 527.88 643.503 641.522 595.52C755.216 547.514 898.156 545.254 1048.23 578.555C1198.31 611.857 1326.88 674.364 1409.6 765.953C1492.28 857.501 1529.22 978.181 1495.96 1128.07Z" stroke="#575757" stroke-width="2"/>
<path d="M1517.71 1022.99C1515.73 1099.76 1498.62 1159.43 1469.34 1205.65C1440.07 1251.87 1398.58 1284.71 1347.7 1307.75C1245.88 1353.84 1106.59 1360.62 952.786 1356.66C798.98 1352.69 660.222 1338.75 560.916 1287.48C511.292 1261.86 471.545 1226.92 444.687 1179.26C417.827 1131.59 403.817 1071.11 405.795 994.349C409.749 840.862 474.769 732.69 577.125 663.841C679.528 594.96 819.392 565.381 973.068 569.34C1126.74 573.298 1264.9 610.039 1363.62 684.102C1462.3 758.13 1521.66 869.506 1517.71 1022.99Z" stroke="#575757" stroke-width="2"/>
<path d="M1518.26 908.372C1532.01 983.921 1527.46 1045.83 1508.24 1097.06C1489.02 1148.28 1455.12 1188.91 1410.02 1221.85C1319.77 1287.78 1184.8 1322.87 1033.43 1350.42C882.058 1377.97 743.379 1392.67 635.692 1362.77C581.879 1347.82 535.832 1321.75 499.803 1280.58C463.77 1239.4 437.7 1183.07 423.951 1107.52C396.462 956.46 438.009 837.285 524.138 748.975C610.307 660.624 741.177 603.092 892.42 575.568C1043.66 548.045 1186.41 555.783 1298.18 608.112C1409.9 660.418 1490.77 757.315 1518.26 908.372Z" stroke="#575757" stroke-width="2"/>
<path d="M1345.75 1368.96C1294.39 1426.04 1242.62 1460.3 1190.34 1476.43C1138.06 1492.55 1085.18 1490.57 1031.53 1475.03C924.179 1443.94 813.874 1358.62 699.508 1255.7C585.142 1152.78 488.698 1052.05 446.502 948.555C425.416 896.84 417.889 844.46 428.43 790.776C438.972 737.085 467.602 682.007 518.969 624.927C621.676 510.798 741.376 470.789 863.92 484.93C986.52 499.077 1112.07 567.438 1226.34 670.271C1340.61 773.104 1421.79 890.779 1448.74 1011.21C1475.67 1131.59 1448.46 1254.84 1345.75 1368.96Z" stroke="#575757" stroke-width="2"/>
<path d="M1407.76 1299.89C1366.57 1364.69 1321.2 1407.06 1272.31 1431.63C1223.42 1456.2 1170.95 1463.01 1115.47 1456.58C1004.45 1443.72 881.523 1377.86 751.678 1295.32C621.833 1212.78 510.024 1129.44 451.256 1034.37C421.889 986.867 405.783 936.46 407.278 881.771C408.774 827.076 427.877 768.013 469.071 703.207C551.437 573.631 662.848 514.333 786.041 507.963C909.29 501.59 1044.44 548.192 1174.17 630.659C1303.91 713.126 1403.47 815.716 1450.01 930.018C1496.53 1044.27 1490.13 1170.31 1407.76 1299.89Z" stroke="#575757" stroke-width="2"/>
<path d="M1464.03 1208.51C1436 1280.01 1399.58 1330.27 1356.29 1363.75C1313.02 1397.22 1262.81 1413.95 1207.13 1418.26C1095.7 1426.88 962.444 1385.77 819.201 1329.61C675.958 1273.46 550.263 1213.05 474.385 1131C436.468 1089.99 411.01 1043.6 402.01 989.635C393.008 935.665 400.453 874.037 428.48 802.545C484.52 659.599 582.52 580.071 702.216 550.238C821.966 520.391 963.536 540.262 1106.66 596.37C1249.78 652.479 1367.13 734.115 1434.7 837.394C1502.22 940.626 1520.07 1065.57 1464.03 1208.51Z" stroke="#575757" stroke-width="2"/>
<path d="M1503.62 1100.94C1490.79 1176.65 1465.41 1233.3 1429.88 1274.91C1394.35 1316.52 1348.62 1343.15 1295 1358.75C1187.68 1389.96 1048.83 1376.94 897.138 1351.24C745.443 1325.53 610.058 1292.08 519.015 1227.26C473.519 1194.87 439.12 1154.66 419.284 1103.67C399.445 1052.68 394.141 990.829 406.97 915.118C432.621 763.738 512.305 665.864 623.379 612.204C734.505 558.52 877.148 549.046 1028.71 574.729C1180.28 600.411 1311.84 656.347 1399.08 743.644C1486.27 830.9 1529.27 949.561 1503.62 1100.94Z" stroke="#575757" stroke-width="2"/>
</g>
</svg>
