<svg width="179" height="4" viewBox="0 0 179 4" fill="none" xmlns="http://www.w3.org/2000/svg">
<path fill-rule="evenodd" clip-rule="evenodd" d="M12.6086 2.03263C13.9141 2.1225 15.4685 2.20935 17.1754 2.29097C24.1082 2.62246 33.3574 2.85916 37.9938 2.8796C71.3595 3.02676 104.616 2.44886 137.916 1.43878C125.488 1.43869 113.061 1.44172 100.634 1.4537C73.3986 1.61196 42.7597 1.81186 20.1071 1.95966C17.6218 1.97587 15.2327 1.99146 12.9548 2.00629C12.8393 2.015 12.7239 2.02378 12.6086 2.03263ZM168.538 1.44207C171.774 1.4424 175.01 1.44262 178.246 1.44262C178.662 1.44262 179 1.1969 179 0.89378C179 0.590664 178.662 0.344939 178.246 0.344939C175.997 0.344939 173.749 0.344835 171.5 0.34466C171.496 0.341448 171.492 0.33834 171.488 0.335337C171.397 0.264958 171.302 0.229046 171.26 0.21432C171.129 0.168269 170.992 0.156669 170.962 0.15411L170.958 0.153765C170.899 0.148371 170.833 0.144694 170.765 0.141916C170.628 0.136276 170.442 0.132672 170.209 0.130778C162.194 0.0657302 154.178 0.0960132 146.171 0.126267L144.981 0.130751C133.393 0.174192 117.677 0.256949 100.627 0.356024C94.5624 0.361872 88.4981 0.369851 82.4338 0.38064C75.8664 0.392325 69.071 0.294407 62.1705 0.194974C45.781 -0.0411901 28.7987 -0.285895 12.8713 0.909113C8.35158 0.938549 4.27104 0.965018 0.747588 0.987549C0.331063 0.990212 -0.00363042 1.23809 2.97361e-05 1.54119C0.00368989 1.8443 0.344317 2.08785 0.760843 2.08519C2.84158 2.07188 5.11653 2.0572 7.56142 2.04135C7.56164 2.04529 7.56191 2.04924 7.56224 2.05321C7.57604 2.22171 7.68233 2.34489 7.76953 2.41808C7.92161 2.54574 8.12041 2.6107 8.22315 2.6416C8.46751 2.71509 8.80443 2.77337 9.17266 2.82383C10.6726 3.02932 13.612 3.22063 17.0765 3.38628C24.0353 3.71902 33.3146 3.95667 37.9846 3.97727C78.4843 4.15588 118.817 3.26718 159.248 1.83466C161.085 1.76956 164.756 1.62512 167.509 1.49311C167.868 1.47588 168.213 1.4588 168.538 1.44207ZM170.71 0.198322L170.708 0.198657C170.724 0.195516 170.727 0.19575 170.71 0.198322ZM8.77701 2.41803C8.76787 2.4217 8.76204 2.42326 8.76204 2.42326C8.76204 2.42326 8.76619 2.42133 8.77701 2.41803Z" fill="#F8444F"/>
</svg>
