<svg width="161" height="4" viewBox="0 0 161 4" fill="none" xmlns="http://www.w3.org/2000/svg">
<path fill-rule="evenodd" clip-rule="evenodd" d="M11.3407 2.03263C12.5149 2.1225 13.913 2.20935 15.4482 2.29097C21.6839 2.62246 30.003 2.85916 34.1732 2.8796C64.1837 3.02676 94.0962 2.44886 124.047 1.43878C112.869 1.43869 101.692 1.44172 90.5141 1.4537C66.0177 1.61196 38.4598 1.81186 18.0851 1.95966C15.8498 1.97587 13.701 1.99146 11.6521 2.00629C11.5482 2.015 11.4444 2.02378 11.3407 2.03263ZM151.59 1.44207C154.5 1.4424 157.411 1.44262 160.322 1.44262C160.696 1.44262 161 1.1969 161 0.89378C161 0.590664 160.696 0.344939 160.322 0.344939C158.299 0.344939 156.277 0.344835 154.254 0.34466C154.25 0.341448 154.247 0.33834 154.243 0.335337C154.161 0.264958 154.076 0.229046 154.039 0.21432C153.92 0.168269 153.798 0.156669 153.771 0.15411L153.767 0.153765C153.714 0.148371 153.654 0.144694 153.593 0.141916C153.47 0.136276 153.303 0.132672 153.093 0.130778C145.884 0.0657302 138.674 0.0960132 131.472 0.126267L130.402 0.130751C119.979 0.174192 105.843 0.256949 90.5079 0.356024C85.0534 0.361872 79.5989 0.369851 74.1444 0.38064C68.2374 0.392325 62.1253 0.294407 55.9187 0.194974C41.1773 -0.0411901 25.9028 -0.285895 11.577 0.909113C7.51175 0.938549 3.84155 0.965018 0.672412 0.987549C0.297772 0.990212 -0.00326535 1.23809 2.67459e-05 1.54119C0.00331884 1.8443 0.309693 2.08785 0.684334 2.08519C2.55583 2.07188 4.60202 2.0572 6.80106 2.04135C6.80125 2.04529 6.8015 2.04924 6.80179 2.05321C6.8142 2.22171 6.9098 2.34489 6.98824 2.41808C7.12503 2.54574 7.30383 2.6107 7.39624 2.6416C7.61603 2.71509 7.91907 2.77337 8.25027 2.82383C9.59935 3.02932 12.2432 3.22063 15.3593 3.38628C21.6183 3.71902 29.9646 3.95667 34.1649 3.97727C70.592 4.15588 106.869 3.26718 143.234 1.83466C144.887 1.76956 148.188 1.62512 150.664 1.49311C150.988 1.47588 151.298 1.4588 151.59 1.44207ZM153.544 0.198322L153.542 0.198657C153.556 0.195516 153.559 0.19575 153.544 0.198322ZM7.8944 2.41803C7.88619 2.4217 7.88094 2.42326 7.88094 2.42326C7.88094 2.42326 7.88467 2.42133 7.8944 2.41803Z" fill="#F8444F"/>
</svg>
