<svg width="24" height="24" viewBox="0 0 15 15" fill="none" xmlns="http://www.w3.org/2000/svg">
<path d="M12.0882 12.68C10.9164 13.8518 7.9153 12.7507 5.38516 10.2206C2.85502 7.69043 1.75391 4.68937 2.92576 3.51751L3.69734 2.74593C4.23 2.21327 5.1077 2.22735 5.65773 2.77738L6.85283 3.97249C7.40286 4.52252 7.41694 5.40022 6.88428 5.93288L6.71855 6.0986C6.43096 6.3862 6.40283 6.85014 6.67005 7.17397C6.92781 7.48632 7.20569 7.79745 7.50699 8.09874C7.80829 8.40004 8.11941 8.67793 8.43176 8.93568C8.75559 9.20291 9.21954 9.17477 9.50713 8.88718L9.67286 8.72145C10.2055 8.18879 11.0832 8.20287 11.6332 8.7529L12.8284 9.94801C13.3784 10.498 13.3925 11.3757 12.8598 11.9084L12.0882 12.68Z" fill="url(#paint0_linear_4980_153306)" stroke="url(#paint1_linear_4980_153306)" stroke-width="0.899436"/>
<defs>
<linearGradient id="paint0_linear_4980_153306" x1="2.21964" y1="7.39231" x2="23.4203" y2="7.26325" gradientUnits="userSpaceOnUse">
<stop stop-color="#2F2F2F"/>
<stop offset="1" stop-color="#2F2F2F"/>
</linearGradient>
<linearGradient id="paint1_linear_4980_153306" x1="2.21964" y1="7.39231" x2="23.4203" y2="7.26325" gradientUnits="userSpaceOnUse">
<stop stop-color="#2F2F2F"/>
<stop offset="1" stop-color="#2F2F2F"/>
</linearGradient>
</defs>
</svg>
