<svg width="32" height="32" viewBox="0 0 32 32" fill="none" xmlns="http://www.w3.org/2000/svg">
<path d="M23.884 6.705L16 14.589L8.11602 6.705C7.9264 6.53148 7.67714 6.4378 7.42017 6.4435C7.1632 6.44919 6.91833 6.55381 6.73658 6.73556C6.55484 6.91731 6.45022 7.16218 6.44452 7.41915C6.43883 7.67612 6.5325 7.92538 6.70602 8.115L14.586 15.999L6.70402 23.881C6.60773 23.9728 6.53075 24.0829 6.47761 24.2048C6.42448 24.3268 6.39626 24.4581 6.39461 24.5911C6.39296 24.7241 6.41792 24.8561 6.46802 24.9793C6.51812 25.1026 6.59235 25.2145 6.68634 25.3087C6.78033 25.4028 6.89219 25.4772 7.01535 25.5274C7.1385 25.5777 7.27046 25.6029 7.40348 25.6014C7.53649 25.5999 7.66787 25.5719 7.78989 25.5189C7.91191 25.466 8.02211 25.3892 8.11402 25.293L16 17.411L23.884 25.295C24.0736 25.4685 24.3229 25.5622 24.5799 25.5565C24.8368 25.5508 25.0817 25.4462 25.2635 25.2644C25.4452 25.0827 25.5498 24.8378 25.5555 24.5808C25.5612 24.3239 25.4675 24.0746 25.294 23.885L17.41 16.001L25.294 8.115C25.3903 8.02323 25.4673 7.91313 25.5204 7.79119C25.5736 7.66924 25.6018 7.5379 25.6034 7.40489C25.6051 7.27188 25.5801 7.13988 25.53 7.01666C25.4799 6.89343 25.4057 6.78147 25.3117 6.68734C25.2177 6.59321 25.1058 6.51883 24.9827 6.46855C24.8595 6.41828 24.7276 6.39313 24.5946 6.39459C24.4616 6.39605 24.3302 6.42408 24.2082 6.47705C24.0861 6.53001 23.9759 6.60683 23.884 6.703V6.705Z" fill="#000000"/>
</svg>
