<svg width="23" height="22" viewBox="0 0 23 22" fill="none" xmlns="http://www.w3.org/2000/svg">
<path d="M0.968383 18.9111C0.366984 19.4808 0.341325 20.4302 0.911071 21.0316C1.48082 21.633 2.43022 21.6587 3.03162 21.0889L0.968383 18.9111ZM22.4995 2.04053C22.5218 1.2124 21.8687 0.522929 21.0405 0.500548L7.54545 0.135816C6.71733 0.113434 6.02786 0.766618 6.00548 1.59474C5.98309 2.42287 6.63628 3.11234 7.4644 3.13472L19.46 3.45893L19.1358 15.4545C19.1134 16.2827 19.7666 16.9721 20.5947 16.9945C21.4229 17.0169 22.1123 16.3637 22.1347 15.5356L22.4995 2.04053ZM3.03162 21.0889L22.0316 3.08893L19.9684 0.911071L0.968383 18.9111L3.03162 21.0889Z" fill="black"/>
</svg>
