<svg width="97" height="97" viewBox="0 0 83 83" fill="none" xmlns="http://www.w3.org/2000/svg">
<circle cx="41.5" cy="41.5" r="41.5" fill="#FABB5A"/>
<path fill-rule="evenodd" clip-rule="evenodd" d="M29.9163 27.4068C30.6201 24.3904 34.9143 24.3904 35.618 27.4068C35.7331 27.9002 36.2989 28.1346 36.7292 27.8671C39.3598 26.2318 42.3963 29.2683 40.761 31.8988C40.4935 32.3291 40.7278 32.8949 41.2213 33.0101C44.2376 33.7138 44.2376 38.008 41.2213 38.7118C40.7278 38.8269 40.4935 39.3927 40.761 39.823C42.3962 42.4535 39.3598 45.49 36.7292 43.8547C36.2989 43.5872 35.7331 43.8216 35.618 44.315C34.9143 47.3314 30.6201 47.3314 29.9163 44.315C29.8012 43.8216 29.2354 43.5872 28.8051 43.8547C26.1745 45.49 23.1381 42.4535 24.7734 39.823C25.0408 39.3927 24.8065 38.8269 24.3131 38.7118C21.2967 38.008 21.2967 33.7138 24.3131 33.0101C24.8065 32.8949 25.0408 32.3291 24.7734 31.8988C23.1381 29.2683 26.1745 26.2318 28.8051 27.8671C29.2354 28.1346 29.8012 27.9002 29.9163 27.4068ZM33.4877 27.9038C33.3099 27.1414 32.2245 27.1414 32.0466 27.9038C31.5911 29.856 29.3526 30.7832 27.6502 29.7249C26.9853 29.3116 26.2178 30.0791 26.6311 30.7439C27.6895 32.4464 26.7622 34.6849 24.8101 35.1403C24.0477 35.3182 24.0477 36.4036 24.8101 36.5815C26.7622 37.0369 27.6895 39.2755 26.6311 40.9779C26.2178 41.6428 26.9853 42.4103 27.6502 41.9969C29.3526 40.9386 31.5911 41.8658 32.0466 43.818C32.2245 44.5804 33.3099 44.5804 33.4877 43.818C33.9432 41.8658 36.1817 40.9386 37.8841 41.9969C38.549 42.4103 39.3165 41.6428 38.9032 40.9779C37.8449 39.2755 38.7721 37.037 40.7242 36.5815C41.4867 36.4036 41.4867 35.3182 40.7242 35.1403C38.7721 34.6849 37.8449 32.4464 38.9032 30.7439C39.3165 30.0791 38.549 29.3116 37.8841 29.7249C36.1817 30.7832 33.9432 29.856 33.4877 27.9038Z" fill="white"/>
<path fill-rule="evenodd" clip-rule="evenodd" d="M32.7656 34.2188C31.8595 34.2188 31.125 34.9533 31.125 35.8594C31.125 36.7655 31.8595 37.5 32.7656 37.5C33.6717 37.5 34.4062 36.7655 34.4062 35.8594C34.4062 34.9533 33.6717 34.2188 32.7656 34.2188ZM28.9375 35.8594C28.9375 33.7452 30.6514 32.0312 32.7656 32.0312C34.8798 32.0312 36.5938 33.7452 36.5938 35.8594C36.5938 37.9736 34.8798 39.6875 32.7656 39.6875C30.6514 39.6875 28.9375 37.9736 28.9375 35.8594Z" fill="white"/>
<path fill-rule="evenodd" clip-rule="evenodd" d="M46.544 40.7138C47.3468 38.4633 50.6382 38.8383 50.9142 41.2117C50.9594 41.6 51.3726 41.829 51.7257 41.6616C53.8848 40.6379 55.947 43.2304 54.4639 45.1039C54.2212 45.4103 54.3515 45.8644 54.7196 45.9958C56.9701 46.7986 56.5951 50.09 54.2217 50.366C53.8334 50.4111 53.6044 50.8243 53.7719 51.1775C54.7955 53.3365 52.203 55.3987 50.3296 53.9156C50.0231 53.673 49.569 53.8032 49.4377 54.1714C48.6348 56.4219 45.3435 56.0469 45.0675 53.6734C45.0223 53.2852 44.6091 53.0562 44.2559 53.2236C42.0969 54.2473 40.0347 51.6547 41.5178 49.7813C41.7604 49.4749 41.6302 49.0207 41.2621 48.8894C39.0116 48.0866 39.3866 44.7952 41.76 44.5192C42.1482 44.4741 42.3773 44.0609 42.2098 43.7077C41.1862 41.5487 43.7787 39.4865 45.6521 40.9696C45.9586 41.2122 46.4127 41.082 46.544 40.7138ZM49.238 41.4067C49.1683 40.8068 48.3363 40.712 48.1334 41.2808C47.6138 42.7373 45.8171 43.2525 44.6047 42.2927C44.1312 41.9178 43.4759 42.439 43.7346 42.9847C44.3971 44.382 43.4909 46.0168 41.9549 46.1954C41.355 46.2652 41.2602 47.0971 41.8291 47.3C43.2855 47.8196 43.8007 49.6163 42.8409 50.8288C42.466 51.3023 42.9873 51.9576 43.533 51.6988C44.9303 51.0363 46.5651 51.9425 46.7437 53.4785C46.8134 54.0784 47.6453 54.1732 47.8483 53.6044C48.3678 52.1479 50.1646 51.6327 51.377 52.5925C51.8505 52.9674 52.5058 52.4462 52.2471 51.9004C51.5846 50.5032 52.4907 48.8684 54.0268 48.6898C54.6267 48.62 54.7215 47.7881 54.1526 47.5852C52.6961 47.0656 52.1809 45.2689 53.1408 44.0564C53.5156 43.5829 52.9944 42.9276 52.4487 43.1864C51.0514 43.8489 49.4166 42.9427 49.238 41.4067Z" fill="white"/>
<path fill-rule="evenodd" clip-rule="evenodd" d="M48.1337 46.1867C47.4392 46.1076 46.8121 46.6065 46.733 47.301C46.6539 47.9954 47.1527 48.6226 47.8472 48.7017C48.5417 48.7808 49.1688 48.282 49.248 47.5875C49.3271 46.893 48.8282 46.2659 48.1337 46.1867ZM45.0563 47.1099C45.241 45.4894 46.7043 44.3255 48.3248 44.5101C49.9452 44.6947 51.1092 46.158 50.9246 47.7785C50.74 49.399 49.2766 50.563 47.6562 50.3784C46.0357 50.1937 44.8717 48.7304 45.0563 47.1099Z" fill="white"/>
</svg>
