<svg width="55" height="140" viewBox="0 0 55 140" fill="none" xmlns="http://www.w3.org/2000/svg">
<path d="M8.70711 15.2929C8.31658 14.9024 7.68342 14.9024 7.29289 15.2929L0.928932 21.6569C0.538408 22.0474 0.538408 22.6805 0.928932 23.0711C1.31946 23.4616 1.95262 23.4616 2.34315 23.0711L8 17.4142L13.6569 23.0711C14.0474 23.4616 14.6805 23.4616 15.0711 23.0711C15.4616 22.6805 15.4616 22.0474 15.0711 21.6569L8.70711 15.2929ZM7 16V124.5H9V16H7Z" fill="#2F2F2F"/>
<path d="M41.902 4.424C41.902 3.70533 42.0187 3.06133 42.252 2.492C42.4853 1.92267 42.8307 1.46533 43.288 1.12C43.7453 0.784 44.296 0.606667 44.94 0.588V3.136C44.576 3.17333 44.296 3.29933 44.1 3.514C43.9133 3.72867 43.82 4.00867 43.82 4.354C43.82 4.70867 43.8993 4.98867 44.058 5.194C44.226 5.39933 44.4547 5.502 44.744 5.502C44.9867 5.502 45.1873 5.418 45.346 5.25C45.5047 5.09133 45.6353 4.89067 45.738 4.648C45.8407 4.41467 45.9573 4.07867 46.088 3.64C46.284 3.00533 46.48 2.48733 46.676 2.086C46.872 1.68467 47.1613 1.33933 47.544 1.05C47.9267 0.760667 48.426 0.616 49.042 0.616C49.9567 0.616 50.6707 0.947333 51.184 1.61C51.7067 2.27267 51.968 3.136 51.968 4.2C51.968 5.28267 51.7067 6.15533 51.184 6.818C50.6707 7.48067 49.952 7.83533 49.028 7.882V5.292C49.3453 5.27333 49.5927 5.15667 49.77 4.942C49.9567 4.72733 50.05 4.452 50.05 4.116C50.05 3.82667 49.9707 3.59333 49.812 3.416C49.6627 3.23867 49.4433 3.15 49.154 3.15C48.8367 3.15 48.5893 3.29933 48.412 3.598C48.2347 3.89667 48.0433 4.36333 47.838 4.998C47.6233 5.63267 47.418 6.146 47.222 6.538C47.026 6.93933 46.7413 7.28467 46.368 7.574C45.9947 7.86333 45.514 8.008 44.926 8.008C44.366 8.008 43.8573 7.86333 43.4 7.574C42.9427 7.294 42.5787 6.88333 42.308 6.342C42.0373 5.80067 41.902 5.16133 41.902 4.424ZM42 20.6393L46.34 17.3353L42 17.3353V14.9413L51.828 14.9413V17.3353H47.516L51.828 20.6113L51.828 23.4253L47.012 19.6173L42 23.5653V20.6393ZM51.828 32.557H42V30.163L51.828 30.163V32.557ZM48.664 47.2419C48.0947 47.2419 47.572 47.1112 47.096 46.8499C46.6293 46.5886 46.2513 46.1872 45.962 45.6459C45.6727 45.1046 45.528 44.4326 45.528 43.6299V42.1459H42V39.7519H51.828V43.6299C51.828 44.4139 51.6927 45.0766 51.422 45.6179C51.1513 46.1592 50.778 46.5652 50.302 46.8359C49.826 47.1066 49.28 47.2419 48.664 47.2419ZM47.432 43.4479C47.432 43.9052 47.5393 44.2459 47.754 44.4699C47.9687 44.6939 48.272 44.8059 48.664 44.8059C49.056 44.8059 49.3593 44.6939 49.574 44.4699C49.7887 44.2459 49.896 43.9052 49.896 43.4479V42.1459H47.432V43.4479ZM51.828 69.445H49.91V66.841H42V64.447H49.91V61.843H51.828V69.445ZM41.902 80.7545C41.902 79.8305 42.1167 78.9812 42.546 78.2065C42.9753 77.4412 43.5727 76.8299 44.338 76.3725C45.1127 75.9245 45.9807 75.7005 46.942 75.7005C47.9033 75.7005 48.7667 75.9245 49.532 76.3725C50.2973 76.8299 50.8947 77.4412 51.324 78.2065C51.7533 78.9812 51.968 79.8305 51.968 80.7545C51.968 81.6785 51.7533 82.5232 51.324 83.2885C50.8947 84.0632 50.2973 84.6699 49.532 85.1085C48.7667 85.5565 47.9033 85.7805 46.942 85.7805C45.9807 85.7805 45.1127 85.5565 44.338 85.1085C43.5727 84.6605 42.9753 84.0539 42.546 83.2885C42.1167 82.5232 41.902 81.6785 41.902 80.7545ZM44.086 80.7545C44.086 81.5385 44.3473 82.1639 44.87 82.6305C45.3927 83.1065 46.0833 83.3445 46.942 83.3445C47.81 83.3445 48.5007 83.1065 49.014 82.6305C49.5367 82.1639 49.798 81.5385 49.798 80.7545C49.798 79.9612 49.5413 79.3265 49.028 78.8505C48.5147 78.3839 47.8193 78.1505 46.942 78.1505C46.074 78.1505 45.3787 78.3839 44.856 78.8505C44.3427 79.3265 44.086 79.9612 44.086 80.7545ZM51.828 108.069H49.91V105.465H42L42 103.071H49.91L49.91 100.467H51.828V108.069ZM41.902 119.379C41.902 118.455 42.1167 117.605 42.546 116.831C42.9753 116.065 43.5727 115.454 44.338 114.997C45.1127 114.549 45.9807 114.325 46.942 114.325C47.9033 114.325 48.7667 114.549 49.532 114.997C50.2973 115.454 50.8947 116.065 51.324 116.831C51.7533 117.605 51.968 118.455 51.968 119.379C51.968 120.303 51.7533 121.147 51.324 121.913C50.8947 122.687 50.2973 123.294 49.532 123.733C48.7667 124.181 47.9033 124.405 46.942 124.405C45.9807 124.405 45.1127 124.181 44.338 123.733C43.5727 123.285 42.9753 122.678 42.546 121.913C42.1167 121.147 41.902 120.303 41.902 119.379ZM44.086 119.379C44.086 120.163 44.3473 120.788 44.87 121.255C45.3927 121.731 46.0833 121.969 46.942 121.969C47.81 121.969 48.5007 121.731 49.014 121.255C49.5367 120.788 49.798 120.163 49.798 119.379C49.798 118.585 49.5413 117.951 49.028 117.475C48.5147 117.008 47.8193 116.775 46.942 116.775C46.074 116.775 45.3787 117.008 44.856 117.475C44.3427 117.951 44.086 118.585 44.086 119.379ZM48.664 138.687C48.0947 138.687 47.572 138.556 47.096 138.295C46.6293 138.033 46.2513 137.632 45.962 137.091C45.6727 136.549 45.528 135.877 45.528 135.075V133.591H42L42 131.197H51.828V135.075C51.828 135.859 51.6927 136.521 51.422 137.063C51.1513 137.604 50.778 138.01 50.302 138.281C49.826 138.551 49.28 138.687 48.664 138.687ZM47.432 134.893C47.432 135.35 47.5393 135.691 47.754 135.915C47.9687 136.139 48.272 136.251 48.664 136.251C49.056 136.251 49.3593 136.139 49.574 135.915C49.7887 135.691 49.896 135.35 49.896 134.893V133.591H47.432V134.893Z" fill="#2F2F2F"/>
</svg>
