<svg width="155" height="44" viewBox="0 0 155 44" fill="none" xmlns="http://www.w3.org/2000/svg">
<g opacity="0.5">
<path fill-rule="evenodd" clip-rule="evenodd" d="M2.86834 38.293L0 43.9965H1.19066L1.74381 42.8212H3.6167L3.78623 43.9965H4.88872L3.86742 38.293H2.86834ZM3.17789 39.7463L3.48016 41.8693H2.1861L3.17789 39.7463Z" fill="white"/>
<path fill-rule="evenodd" clip-rule="evenodd" d="M10.6002 38.3789L9.97572 42.0288C9.88922 42.6396 9.63531 43.1224 9.21415 43.4774C8.7925 43.8322 8.26961 44.0045 7.64499 43.9944C7.25414 43.9867 6.91455 43.9012 6.62641 43.7378C6.33826 43.5743 6.12547 43.3437 5.98852 43.0459C5.85141 42.7481 5.80423 42.4102 5.84764 42.0326L6.46816 38.3789H7.58405L6.96337 42.0363C6.94551 42.1783 6.94437 42.3114 6.95944 42.4355C7.01022 42.8463 7.25528 43.0591 7.69463 43.0745C8.00931 43.0845 8.26699 42.9983 8.46766 42.8159C8.66817 42.6333 8.79758 42.3722 8.85606 42.0326L9.48067 38.3789H10.6002Z" fill="white"/>
<path fill-rule="evenodd" clip-rule="evenodd" d="M15.4144 39.3027H13.7694L12.9695 43.9146H11.8538L12.6535 39.3027H11.0273L11.1912 38.3789H15.5782L15.4144 39.3027Z" fill="white"/>
<path fill-rule="evenodd" clip-rule="evenodd" d="M18.9805 40.993L19.011 40.6319C19.0362 40.1808 18.9761 39.8385 18.8301 39.6053C18.684 39.3723 18.4625 39.2504 18.1655 39.2403C17.7009 39.2251 17.332 39.4305 17.0591 39.8562C16.7862 40.282 16.6319 40.8777 16.5965 41.6432C16.571 42.0918 16.6308 42.4372 16.7754 42.6792C16.92 42.9213 17.1448 43.0475 17.4495 43.0575C17.848 43.0753 18.1781 42.92 18.4396 42.5917C18.701 42.2635 18.8724 41.799 18.9538 41.1984L18.9805 40.993ZM17.4 43.9889C17.0318 43.9813 16.7074 43.8945 16.427 43.7285C16.1464 43.5627 15.9244 43.3231 15.7606 43.0099C15.5968 42.6969 15.5021 42.3377 15.4769 41.9322C15.4488 41.5164 15.4934 41.0729 15.6102 40.6014C15.7268 40.13 15.9147 39.7157 16.1737 39.3582C16.4327 39.0009 16.7367 38.7333 17.0858 38.556C17.4347 38.3786 17.8125 38.2937 18.2189 38.3012C18.5919 38.3089 18.9182 38.3971 19.1975 38.5654C19.4767 38.734 19.6963 38.9762 19.8562 39.2916C20.0163 39.6073 20.1077 39.9653 20.1304 40.3656C20.1558 40.8119 20.1077 41.2706 19.9858 41.742C19.8639 42.2135 19.6747 42.6217 19.4184 42.9662C19.1618 43.311 18.8617 43.5695 18.5177 43.7419C18.1737 43.9143 17.8012 43.9967 17.4 43.9889Z" fill="white"/>
<path fill-rule="evenodd" clip-rule="evenodd" d="M22.829 38.3789L23.5108 42.3824L25.5786 38.3789H27.0637L26.1004 43.9146H24.9807L25.2548 42.3368L25.7957 39.8732L23.6705 43.9146H22.9052L22.1626 39.7324L21.8045 42.4584L21.5495 43.9146H20.4336L21.3971 38.3789H22.829Z" fill="white"/>
<path fill-rule="evenodd" clip-rule="evenodd" d="M30.9063 40.993L30.9367 40.6319C30.962 40.1808 30.9018 39.8385 30.7559 39.6053C30.6098 39.3723 30.3883 39.2504 30.0913 39.2403C29.6266 39.2251 29.2578 39.4305 28.9849 39.8562C28.712 40.282 28.5577 40.8777 28.5223 41.6432C28.4967 42.0918 28.5565 42.4372 28.7012 42.6792C28.8458 42.9213 29.0706 43.0475 29.3753 43.0575C29.7738 43.0753 30.1039 42.92 30.3654 42.5917C30.6268 42.2635 30.7981 41.799 30.8796 41.1984L30.9063 40.993ZM29.3258 43.9889C28.9576 43.9813 28.6332 43.8945 28.3528 43.7285C28.0721 43.5627 27.8502 43.3231 27.6864 43.0099C27.5226 42.6969 27.4279 42.3377 27.4026 41.9322C27.3746 41.5164 27.4192 41.0729 27.536 40.6014C27.6526 40.13 27.8405 39.7157 28.0995 39.3582C28.3585 39.0009 28.6625 38.7333 29.0116 38.556C29.3605 38.3786 29.7383 38.2937 30.1447 38.3012C30.5177 38.3089 30.844 38.3971 31.1233 38.5654C31.4025 38.734 31.6221 38.9762 31.782 39.2916C31.9421 39.6073 32.0335 39.9653 32.0562 40.3656C32.0816 40.8119 32.0335 41.2706 31.9116 41.742C31.7897 42.2135 31.6005 42.6217 31.3441 42.9662C31.0876 43.311 30.7875 43.5695 30.4435 43.7419C30.0995 43.9143 29.727 43.9967 29.3258 43.9889Z" fill="white"/>
<path fill-rule="evenodd" clip-rule="evenodd" d="M36.8949 39.3027H35.2499L34.45 43.9146H33.3342L34.134 39.3027H32.5078L32.6716 38.3789H37.0587L36.8949 39.3027Z" fill="white"/>
<path fill-rule="evenodd" clip-rule="evenodd" d="M37.9438 43.9146H36.8281L37.7879 38.3789H38.9035L37.9438 43.9146Z" fill="white"/>
<path fill-rule="evenodd" clip-rule="evenodd" d="M41.2282 42.5307L43.0942 38.3789H44.3738L41.6356 43.9146H40.4704L39.4727 38.3789H40.6723L41.2282 42.5307Z" fill="white"/>
<path fill-rule="evenodd" clip-rule="evenodd" d="M47.6441 41.5155H45.5191L45.2601 42.9983H47.7585L47.5984 43.9146H43.9844L44.9479 38.3789H48.5544L48.3906 39.3027H45.9036L45.6713 40.622H47.8042L47.6441 41.5155Z" fill="white"/>
<path fill-rule="evenodd" clip-rule="evenodd" d="M51.3892 43.9146H50.2734L51.2332 38.3789H52.3488L51.3892 43.9146Z" fill="white"/>
<path fill-rule="evenodd" clip-rule="evenodd" d="M56.8286 43.9146H55.747L54.2048 40.2228L53.561 43.9146H52.4453L53.4089 38.3789H54.4866L56.0326 42.0782L56.6763 38.3789H57.7882L56.8286 43.9146Z" fill="white"/>
<path fill-rule="evenodd" clip-rule="evenodd" d="M60.0525 42.5307L61.9184 38.3789H63.198L60.4599 43.9146H59.2947L58.2969 38.3789H59.4965L60.0525 42.5307Z" fill="white"/>
<path fill-rule="evenodd" clip-rule="evenodd" d="M66.4683 41.5155H64.3434L64.0844 42.9983H66.5827L66.4226 43.9146H62.8086L63.7721 38.3789H67.3786L67.2148 39.3027H64.7278L64.4955 40.622H66.6284L66.4683 41.5155Z" fill="white"/>
<path fill-rule="evenodd" clip-rule="evenodd" d="M71.4849 43.9146H70.4032L68.8611 40.2228L68.2173 43.9146H67.1016L68.0651 38.3789H69.1428L70.6889 42.0782L71.3325 38.3789H72.4445L71.4849 43.9146Z" fill="white"/>
<path fill-rule="evenodd" clip-rule="evenodd" d="M77.2269 39.3027H75.5819L74.782 43.9146H73.6663L74.466 39.3027H72.8398L73.0037 38.3789H77.3907L77.2269 39.3027Z" fill="white"/>
<path fill-rule="evenodd" clip-rule="evenodd" d="M80.793 40.993L80.8235 40.6319C80.8487 40.1808 80.7886 39.8385 80.6426 39.6053C80.4965 39.3723 80.275 39.2504 79.978 39.2403C79.5134 39.2251 79.1445 39.4305 78.8716 39.8562C78.5987 40.282 78.4444 40.8777 78.409 41.6432C78.3835 42.0918 78.4433 42.4372 78.5879 42.6792C78.7325 42.9213 78.9573 43.0475 79.262 43.0575C79.6605 43.0753 79.9906 42.92 80.2521 42.5917C80.5135 42.2635 80.6849 41.799 80.7663 41.1984L80.793 40.993ZM79.2125 43.9889C78.8443 43.9813 78.5199 43.8945 78.2395 43.7285C77.9589 43.5627 77.7369 43.3231 77.5731 43.0099C77.4093 42.6969 77.3146 42.3377 77.2894 41.9322C77.2613 41.5164 77.3059 41.0729 77.4227 40.6014C77.5393 40.13 77.7272 39.7157 77.9862 39.3582C78.2452 39.0009 78.5492 38.7333 78.8983 38.556C79.2472 38.3786 79.625 38.2937 80.0314 38.3012C80.4046 38.3089 80.7307 38.3971 81.01 38.5654C81.2892 38.734 81.5088 38.9762 81.6687 39.2916C81.8288 39.6073 81.9202 39.9653 81.9429 40.3656C81.9683 40.8119 81.9202 41.2706 81.7983 41.742C81.6764 42.2135 81.4872 42.6217 81.2309 42.9662C80.9743 43.311 80.6742 43.5695 80.3302 43.7419C79.9862 43.9143 79.6137 43.9967 79.2125 43.9889Z" fill="white"/>
<path fill-rule="evenodd" clip-rule="evenodd" d="M83.8762 40.9643L84.7064 40.9718C85.0008 40.9668 85.244 40.8876 85.4355 40.7342C85.6273 40.581 85.7422 40.3725 85.7802 40.1088C85.8157 39.863 85.7764 39.6704 85.6622 39.5309C85.5479 39.3916 85.3664 39.3168 85.1176 39.3065L84.1655 39.3027L83.8762 40.9643ZM84.6225 41.8882H83.7161L83.362 43.9146H82.2461L83.2098 38.3789L85.0453 38.3827C85.6596 38.3827 86.1325 38.5272 86.4639 38.8161C86.7953 39.105 86.9419 39.5068 86.9036 40.0213C86.8504 40.7818 86.4441 41.3102 85.685 41.6067L86.4657 43.8538V43.9146H85.2776L84.6225 41.8882Z" fill="white"/>
<path fill-rule="evenodd" clip-rule="evenodd" d="M89.2883 40.8655L90.8382 38.3789H92.1176L89.6957 41.968L89.3607 43.9146H88.2258L88.5876 41.8425L87.4375 38.3828L88.6142 38.3789L89.2883 40.8655Z" fill="white"/>
<path fill-rule="evenodd" clip-rule="evenodd" d="M95.9618 38.3789L96.6436 42.3824L98.7114 38.3789H100.197L99.2332 43.9146H98.1135L98.3876 42.3368L98.9285 39.8732L96.8033 43.9146H96.038L95.2954 39.7324L94.9373 42.4584L94.6821 43.9146H93.5664L94.5299 38.3789H95.9618Z" fill="white"/>
<path fill-rule="evenodd" clip-rule="evenodd" d="M103.894 41.5155H101.769L101.51 42.9983H104.008L103.848 43.9146H100.234L101.198 38.3789H104.804L104.641 39.3027H102.154L101.921 40.622H104.054L103.894 41.5155Z" fill="white"/>
<path fill-rule="evenodd" clip-rule="evenodd" d="M106.154 40.9643L106.984 40.9718C107.278 40.9668 107.521 40.8876 107.713 40.7342C107.905 40.581 108.02 40.3725 108.058 40.1088C108.093 39.863 108.054 39.6704 107.94 39.5309C107.825 39.3916 107.644 39.3168 107.395 39.3065L106.443 39.3027L106.154 40.9643ZM106.9 41.8882H105.993L105.639 43.9146H104.523L105.487 38.3789L107.323 38.3827C107.937 38.3827 108.41 38.5272 108.741 38.8161C109.073 39.105 109.219 39.5068 109.181 40.0213C109.128 40.7818 108.721 41.3102 107.962 41.6067L108.743 43.8538V43.9146H107.555L106.9 41.8882Z" fill="white"/>
<path fill-rule="evenodd" clip-rule="evenodd" d="M113.911 42.0652C113.868 42.4478 113.737 42.7869 113.519 43.0821C113.301 43.3776 113.016 43.6044 112.666 43.7627C112.316 43.9212 111.937 43.9966 111.531 43.9889C111.166 43.9814 110.847 43.8971 110.575 43.7361C110.304 43.5753 110.09 43.3419 109.933 43.0366C109.777 42.7311 109.689 42.3795 109.669 41.9814C109.651 41.6697 109.683 41.282 109.766 40.8182C109.848 40.3542 109.996 39.9424 110.208 39.5826C110.42 39.2227 110.672 38.9374 110.964 38.7271C111.375 38.4329 111.845 38.2913 112.373 38.3013C112.946 38.3114 113.401 38.4882 113.738 38.8315C114.074 39.1751 114.259 39.6523 114.292 40.2629L113.18 40.2592C113.18 39.9095 113.11 39.6534 112.971 39.4912C112.831 39.3291 112.614 39.2429 112.319 39.2326C111.939 39.22 111.626 39.3558 111.381 39.6395C111.136 39.9234 110.971 40.3378 110.888 40.8828C110.806 41.4125 110.771 41.8092 110.781 42.0727C110.794 42.4073 110.868 42.6539 111.005 42.8122C111.143 42.9707 111.334 43.0536 111.581 43.0613C111.921 43.0739 112.193 42.9934 112.397 42.8197C112.602 42.6462 112.737 42.3973 112.803 42.0727L113.911 42.0652Z" fill="white"/>
<path fill-rule="evenodd" clip-rule="evenodd" d="M118.766 43.9146H117.65L118.062 41.5421H115.91L115.495 43.9146H114.379L115.343 38.3789H116.458L116.066 40.622H118.222L118.61 38.3789H119.726L118.766 43.9146Z" fill="white"/>
<path fill-rule="evenodd" clip-rule="evenodd" d="M121.618 41.8501H122.955L122.642 39.7894L121.618 41.8501ZM123.095 42.7739H121.161L120.589 43.9146H119.359L122.322 38.3789H123.354L124.409 43.9146H123.27L123.095 42.7739Z" fill="white"/>
<path fill-rule="evenodd" clip-rule="evenodd" d="M129.348 43.9146H128.266L126.724 40.2228L126.081 43.9146H124.965L125.928 38.3789H127.006L128.552 42.0782L129.196 38.3789H130.308L129.348 43.9146Z" fill="white"/>
<path fill-rule="evenodd" clip-rule="evenodd" d="M132.263 39.3027L131.62 42.9983L132.084 43.002C132.597 43.002 133.009 42.8145 133.32 42.4393C133.631 42.0643 133.809 41.4978 133.855 40.7399L133.863 40.6183C133.87 40.1999 133.79 39.8794 133.623 39.6563C133.455 39.4334 133.205 39.3166 132.873 39.3065L132.263 39.3027ZM130.344 43.9146L131.307 38.3789L132.899 38.3827C133.272 38.3904 133.608 38.4746 133.907 38.6355C134.205 38.7964 134.447 39.0277 134.632 39.3294C134.817 39.631 134.929 39.9706 134.967 40.3483C134.987 40.5689 134.985 40.7944 134.959 41.025L134.933 41.2266C134.821 42.0376 134.502 42.6884 133.975 43.1788C133.448 43.6693 132.809 43.9146 132.058 43.9146H130.344Z" fill="white"/>
<path fill-rule="evenodd" clip-rule="evenodd" d="M136.487 43.9146H135.371L136.331 38.3789H137.446L136.487 43.9146Z" fill="white"/>
<path fill-rule="evenodd" clip-rule="evenodd" d="M140.592 42.4376C140.645 42.1359 140.497 41.9053 140.146 41.7457L139.412 41.453C138.558 41.0727 138.154 40.5494 138.197 39.8828C138.214 39.5735 138.316 39.2999 138.501 39.0615C138.687 38.8234 138.947 38.6365 139.282 38.5007C139.617 38.3651 139.979 38.2999 140.367 38.305C140.903 38.3151 141.336 38.4742 141.666 38.7822C141.996 39.09 142.159 39.5026 142.154 40.0197H141.042C141.054 39.7686 140.999 39.5735 140.876 39.434C140.753 39.2949 140.562 39.2226 140.303 39.2175C140.049 39.2124 139.828 39.2702 139.64 39.3904C139.452 39.5107 139.34 39.6762 139.305 39.8866C139.257 40.1629 139.442 40.3821 139.861 40.5443L140.364 40.7345L140.653 40.8675C141.402 41.2376 141.752 41.7571 141.704 42.4263C141.681 42.7533 141.577 43.0352 141.39 43.2722C141.203 43.5092 140.949 43.6912 140.628 43.8178C140.307 43.9443 139.954 44.0042 139.568 43.9963C139.174 43.9888 138.824 43.9066 138.517 43.7494C138.209 43.5922 137.976 43.3703 137.816 43.0841C137.666 42.8179 137.596 42.5137 137.606 42.1716L138.722 42.1753C138.687 42.776 138.983 43.0815 139.61 43.0916C139.881 43.0916 140.105 43.0321 140.28 42.913C140.455 42.7937 140.559 42.6354 140.592 42.4376Z" fill="white"/>
<path fill-rule="evenodd" clip-rule="evenodd" d="M143.417 43.9146H142.301L143.261 38.3789H144.376L143.417 43.9146Z" fill="white"/>
<path fill-rule="evenodd" clip-rule="evenodd" d="M148.856 43.9146H147.774L146.232 40.2228L145.588 43.9146H144.473L145.436 38.3789H146.514L148.06 42.0782L148.704 38.3789H149.816L148.856 43.9146Z" fill="white"/>
<path fill-rule="evenodd" clip-rule="evenodd" d="M154.3 43.2133C154.102 43.4642 153.812 43.6575 153.43 43.7931C153.048 43.9287 152.617 43.9926 152.137 43.9851C151.759 43.9826 151.426 43.8995 151.139 43.736C150.852 43.5726 150.626 43.3375 150.461 43.0308C150.296 42.7242 150.202 42.3744 150.179 41.9814C150.154 41.6164 150.193 41.1874 150.296 40.6945C150.398 40.2016 150.575 39.7693 150.825 39.3981C151.075 39.0267 151.375 38.7493 151.725 38.5653C152.076 38.3817 152.464 38.2937 152.891 38.3012C153.47 38.3114 153.923 38.4743 154.25 38.7897C154.578 39.1054 154.765 39.5572 154.81 40.1451L153.736 40.1414C153.708 39.8321 153.626 39.604 153.489 39.457C153.352 39.3099 153.147 39.2314 152.876 39.2213C152.406 39.2059 152.036 39.4122 151.766 39.839C151.495 40.2662 151.341 40.8853 151.303 41.6963C151.277 42.1297 151.344 42.4656 151.503 42.7037C151.661 42.9422 151.903 43.0639 152.228 43.0688C152.606 43.0789 152.929 42.989 153.196 42.7989L153.382 41.8445H152.369L152.518 41.0044H154.635L154.3 43.2133Z" fill="white"/>
</g>
<g opacity="0.7">
<path fill-rule="evenodd" clip-rule="evenodd" d="M67.5714 22.0227L72.3287 9.31642L75.3473 22.0227H67.5714ZM67.1383 0L51.3555 35.3243H62.5258L64.6602 29.6656H77.0811L78.4437 35.3243H89.9001L79.0724 0H67.1383Z" fill="white"/>
<path fill-rule="evenodd" clip-rule="evenodd" d="M93.8125 35.3243H104.777L107.253 0H96.2882L93.8125 35.3243Z" fill="white"/>
<path fill-rule="evenodd" clip-rule="evenodd" d="M140.425 0L133.41 21.6611L129.368 0H114.98L112.504 35.3243H121.464L123.353 8.54483L128.355 35.3243H136.465L145.257 8.54483L143.369 35.3243H152.329L154.805 0H140.425Z" fill="white"/>
</g>
<path fill-rule="evenodd" clip-rule="evenodd" d="M54.7902 0L41.2604 30.3872L39.9409 27.4995L51.7952 0H47.6692L37.5189 22.7508L36.9249 21.4734H33.4062L35.709 26.8064L35.6893 26.8509L39.3964 35.3243H43.3757H43.3967L59.1466 0H54.7902Z" fill="white"/>
<path fill-rule="evenodd" clip-rule="evenodd" d="M16.3655 0L0 35.3243H11.4354L14.4139 28.9016H28.6723L31.416 35.3243H36.0866L30.285 21.4734H25.5099L25.5177 21.492L17.8688 21.474L21.8686 12.8754L24.4207 18.8577H35.8351L27.8555 0H16.3655Z" fill="white"/>
</svg>
