<svg width="190" height="48" viewBox="0 0 190 48" fill="none" xmlns="http://www.w3.org/2000/svg">
<g clip-path="url(#clip0_6514_86900)">
<path d="M31.4346 28.2332V45.0246C31.4346 45.5178 31.1274 45.9512 30.6705 46.1231L25.981 47.8568C25.7188 47.9539 25.4267 47.9539 25.1645 47.8568L20.475 46.1231C20.0106 45.9512 19.7109 45.5103 19.7109 45.0246V28.2332C19.7109 27.74 20.0181 27.3066 20.475 27.1347L25.1645 25.401C25.4267 25.3038 25.7188 25.3038 25.981 25.401L30.6705 27.1347C31.1274 27.3066 31.4346 27.7474 31.4346 28.2332Z" fill="white"/>
<path d="M31.4349 30.2807V31.9098C31.375 31.9098 31.315 31.9023 31.2626 31.8874L25.5768 30.6245L19.891 31.8874C19.8311 31.9023 19.7712 31.9098 19.7188 31.9098V30.2807L25.5843 28.9805L31.4349 30.2807Z" fill="white"/>
<path d="M31.4343 33.9803V35.5944C31.4118 35.5944 31.3968 35.5944 31.3743 35.5944L25.5687 35.1685L19.7631 35.5944C19.7406 35.5944 19.7256 35.5944 19.7031 35.5944V33.9803L25.5687 33.5469L31.4343 33.9803Z" fill="white"/>
<path d="M31.4343 37.6719V39.286L25.5687 39.7194L19.7031 39.286V37.6719C19.7256 37.6719 19.7406 37.6719 19.7631 37.6719L25.5687 38.0978L31.3743 37.6719C31.3893 37.6719 31.4118 37.6719 31.4343 37.6719Z" fill="white"/>
<path d="M31.4343 41.3555V42.9845L25.5687 44.2848L19.7031 42.9845V41.3555C19.7631 41.3555 19.823 41.3629 19.8754 41.3779L25.5612 42.6408L31.247 41.3779C31.3144 41.3629 31.3743 41.3555 31.4343 41.3555Z" fill="white"/>
<path d="M50.874 29.8777L49.4132 32.0448C49.1885 32.3811 48.8364 32.6128 48.4394 32.7024L38.5061 34.7724C38.4012 34.7948 38.2963 34.8023 38.1915 34.8023C38.154 34.8023 38.1166 34.8023 38.0791 34.7948C38.0941 34.8546 38.1016 34.9069 38.1091 34.9667L38.6484 39.7941C38.7158 40.377 38.4387 40.9599 37.9368 41.2737L34.9478 43.1718C34.7006 43.3288 34.4084 43.411 34.1088 43.411C33.8841 43.411 33.6668 43.3661 33.4645 43.269L28.9024 41.1915C28.4005 40.9674 28.0559 40.4816 28.0035 39.9361L26.8873 29.0408C26.8349 28.5401 27.0297 28.0469 27.4117 27.7181L27.9885 27.2174C28.2732 26.9708 28.6328 26.8363 29.0148 26.8363C29.0598 26.8363 29.0972 26.8363 29.1422 26.8437C29.0672 26.4925 29.1122 26.1114 29.292 25.7751L30.131 24.2208C30.4007 23.7126 30.9251 23.4062 31.5019 23.4062H45.5253C45.9448 23.4062 46.3343 23.5707 46.6265 23.8621L50.6867 27.9124C51.2036 28.4429 51.286 29.2649 50.874 29.8777Z" fill="white"/>
<path d="M29.9453 26.1405L30.7843 24.5861C30.9266 24.3246 31.1963 24.1602 31.4959 24.1602H45.5194C45.7366 24.1602 45.9389 24.2424 46.0887 24.3993L50.1489 28.4496C50.4186 28.7186 50.4635 29.152 50.2463 29.4659L48.7855 31.633C48.6657 31.8048 48.4859 31.9319 48.2836 31.9692L38.3578 34.0467C38.1031 34.099 37.8484 34.0317 37.6537 33.8599L30.1176 27.1194C29.8404 26.8728 29.7655 26.4693 29.9453 26.1405Z" fill="white"/>
<path d="M27.8997 28.2992L28.4766 27.7985C28.7837 27.5295 29.2407 27.5295 29.5478 27.806L37.0989 34.5539C37.2487 34.6884 37.3386 34.8678 37.3611 35.0621L37.9004 39.8895C37.9379 40.1959 37.7881 40.4948 37.5334 40.6592L34.5444 42.5573C34.3122 42.7068 34.0275 42.7217 33.7728 42.6096L29.2107 40.5322C28.9485 40.4126 28.7687 40.166 28.7462 39.882L27.6301 28.9867C27.6001 28.7251 27.705 28.4711 27.8997 28.2992Z" fill="white"/>
<path d="M29.9453 26.1405L30.7843 24.5861C30.9266 24.3246 31.1963 24.1602 31.4959 24.1602H45.5194C45.7366 24.1602 45.9389 24.2424 46.0887 24.3993L50.1489 28.4496C50.4186 28.7186 50.4635 29.152 50.2463 29.4659L48.7855 31.633C48.6657 31.8048 48.4859 31.9319 48.2836 31.9692L38.3578 34.0467C38.1031 34.099 37.8484 34.0317 37.6537 33.8599L30.1176 27.1194C29.8404 26.8728 29.7655 26.4693 29.9453 26.1405Z" fill="url(#paint0_linear_6514_86900)"/>
<path d="M27.8997 28.2992L28.4766 27.7985C28.7837 27.5295 29.2407 27.5295 29.5478 27.806L37.0989 34.5539C37.2487 34.6884 37.3386 34.8678 37.3611 35.0621L37.9004 39.8895C37.9379 40.1959 37.7881 40.4948 37.5334 40.6592L34.5444 42.5573C34.3122 42.7068 34.0275 42.7217 33.7728 42.6096L29.2107 40.5322C28.9485 40.4126 28.7687 40.166 28.7462 39.882L27.6301 28.9867C27.6001 28.7251 27.705 28.4711 27.8997 28.2992Z" fill="url(#paint1_linear_6514_86900)"/>
<path d="M24.2504 29.0632L23.1343 39.9585C23.0818 40.5041 22.7297 40.9823 22.2353 41.214L17.6732 43.2914C17.4709 43.3811 17.2537 43.4334 17.029 43.4334C16.7293 43.4334 16.4447 43.3512 16.19 43.1943L13.201 41.2962C12.7066 40.9823 12.4219 40.3994 12.4893 39.8166L13.0287 34.9891C13.0362 34.9293 13.0437 34.8695 13.0587 34.8172C13.0212 34.8172 12.9838 34.8247 12.9463 34.8247C12.8414 34.8247 12.7291 34.8098 12.6317 34.7948L2.69841 32.7024C2.30138 32.6202 1.94929 32.3886 1.72456 32.0448L0.263784 29.8777C-0.148229 29.2649 -0.0733171 28.4355 0.458554 27.9124L4.51876 23.8621C4.81091 23.5707 5.20045 23.4062 5.61995 23.4062H19.6434C20.2202 23.4062 20.7446 23.7201 21.0143 24.2208L21.8533 25.7751C22.0331 26.1114 22.078 26.4925 22.0031 26.8437C22.048 26.8363 22.0855 26.8363 22.1304 26.8363C22.505 26.8363 22.8721 26.9708 23.1567 27.2174L23.7335 27.7181C24.1081 28.0693 24.3029 28.5625 24.2504 29.0632Z" fill="white"/>
<path d="M21.1927 26.1405L20.3537 24.5861C20.2114 24.3246 19.9417 24.1602 19.642 24.1602H5.61861C5.40137 24.1602 5.19911 24.2424 5.04928 24.3993L0.989081 28.4496C0.7194 28.7186 0.674453 29.152 0.891696 29.4659L2.35247 31.633C2.47233 31.8048 2.65212 31.9319 2.85438 31.9692L12.7801 34.0392C13.0348 34.0915 13.2895 34.0243 13.4843 33.8524L21.0204 27.1194C21.2976 26.8728 21.3725 26.4693 21.1927 26.1405Z" fill="white"/>
<path d="M23.2408 28.2992L22.6639 27.7985C22.3568 27.5295 21.8998 27.5295 21.5927 27.806L14.0416 34.5539C13.8918 34.6884 13.8019 34.8678 13.7794 35.0621L13.2401 39.8895C13.2026 40.1959 13.3524 40.4948 13.6071 40.6592L16.5961 42.5573C16.8283 42.7068 17.113 42.7217 17.3677 42.6096L21.9298 40.5322C22.192 40.4126 22.3718 40.166 22.3943 39.882L23.5104 28.9867C23.5404 28.7251 23.4355 28.4711 23.2408 28.2992Z" fill="white"/>
<path d="M21.1927 26.1405L20.3537 24.5861C20.2114 24.3246 19.9417 24.1602 19.642 24.1602H5.61861C5.40137 24.1602 5.19911 24.2424 5.04928 24.3993L0.989081 28.4496C0.7194 28.7186 0.674453 29.152 0.891696 29.4659L2.35247 31.633C2.47233 31.8048 2.65212 31.9319 2.85438 31.9692L12.7801 34.0392C13.0348 34.0915 13.2895 34.0243 13.4843 33.8524L21.0204 27.1194C21.2976 26.8728 21.3725 26.4693 21.1927 26.1405Z" fill="url(#paint2_linear_6514_86900)"/>
<path d="M23.2408 28.2992L22.6639 27.7985C22.3568 27.5295 21.8998 27.5295 21.5927 27.806L14.0416 34.5539C13.8918 34.6884 13.8019 34.8678 13.7794 35.0621L13.2401 39.8895C13.2026 40.1959 13.3524 40.4948 13.6071 40.6592L16.5961 42.5573C16.8283 42.7068 17.113 42.7217 17.3677 42.6096L21.9298 40.5322C22.192 40.4126 22.3718 40.166 22.3943 39.882L23.5104 28.9867C23.5404 28.7251 23.4355 28.4711 23.2408 28.2992Z" fill="white"/>
<path d="M38.2339 0L30.0161 16.216H28.4056L25.5664 9.74455L29.8439 0H38.2339Z" fill="#E0E0E0"/>
<path d="M25.566 9.74455L22.7268 16.216H21.1162L12.8984 0H21.2885L25.566 9.74455Z" fill="#E0E0E0"/>
<path d="M29.844 0L25.5665 9.74455L21.2891 0H29.844Z" fill="white"/>
<path d="M31.4346 17.1512V22.27C31.4346 22.7632 31.1274 23.1967 30.6705 23.3685L25.981 25.1022C25.7188 25.1994 25.4267 25.1994 25.1645 25.1022L20.475 23.3685C20.0106 23.1967 19.7109 22.7632 19.7109 22.27V17.1512C19.7109 16.6579 20.0181 16.2245 20.475 16.0526L25.1645 14.319C25.4267 14.2218 25.7188 14.2218 25.981 14.319L26.85 14.6403L27.4493 14.8645L30.5956 16.0302L30.663 16.0526C30.8203 16.1124 30.9551 16.2021 31.075 16.3067C31.2997 16.5234 31.4346 16.8223 31.4346 17.1512Z" fill="white"/>
<path d="M30.5955 16.0216L30.3857 16.1934C30.1985 16.3504 29.9363 16.3952 29.7041 16.313L27.9361 15.6629C27.7039 15.5807 27.5391 15.3789 27.4942 15.1323L27.4492 14.8633L30.5955 16.0216Z" fill="white"/>
<path d="M20.543 16.0216L20.7527 16.1934C20.94 16.3504 21.2022 16.3952 21.4344 16.313L23.2023 15.6629C23.4346 15.5807 23.5994 15.3789 23.6443 15.1323L23.6892 14.8633L20.543 16.0216Z" fill="white"/>
</g>
<path d="M66.2688 42.437H57.6523V23.354C57.6523 21.7646 58.9622 20.4688 60.5689 20.4688H66.2688C71.2832 20.4688 75.3561 24.4979 75.3561 29.4585V33.4573C75.3561 38.4078 71.2832 42.437 66.2688 42.437ZM61.7457 38.3875H66.2688C69.0216 38.3875 71.2627 36.1704 71.2627 33.4472V29.4585C71.2627 26.7353 69.0216 24.5182 66.2688 24.5182H61.7457V38.3875Z" fill="white"/>
<path d="M80.9762 42.4351H76.8828V33.4352C76.8828 29.2946 80.2803 25.9336 84.4657 25.9336H86.1645V29.983H84.4657C82.5419 29.983 80.9762 31.5319 80.9762 33.4352V42.4351Z" fill="white"/>
<path d="M129.171 42.4351H125.078V33.4352C125.078 29.2946 128.476 25.9336 132.661 25.9336H134.36V29.983H132.661C130.737 29.983 129.171 31.5319 129.171 33.4352V42.4351Z" fill="white"/>
<path d="M91.6168 25.9336H87.5234V42.4351H91.6168V25.9336Z" fill="white"/>
<path d="M107.459 25.9336L101.667 40.8963C101.349 41.7264 100.562 42.2629 99.661 42.2629C98.7605 42.2629 97.9725 41.7264 97.6552 40.8963L93.4289 29.983C92.6716 28.0292 94.135 25.9336 96.243 25.9336L99.6508 34.7512L102.322 27.847C102.772 26.6929 103.887 25.9336 105.136 25.9336H107.459Z" fill="white"/>
<path d="M147.623 42.437H136.98V23.354C136.98 21.7646 138.29 20.4688 139.907 20.4688H147.204C150.673 20.4688 153.497 23.2629 153.497 26.6948C153.497 28.1526 152.985 29.4889 152.146 30.5519C153.579 31.7971 154.49 33.6193 154.49 35.6541C154.48 39.3897 151.41 42.437 147.623 42.437ZM141.074 38.3875H147.623C149.148 38.3875 150.386 37.1626 150.386 35.6541C150.386 34.1457 149.148 32.9208 147.623 32.9208H141.074V38.3875ZM141.074 28.8713H147.193C148.411 28.8713 149.394 27.8995 149.394 26.6948C149.394 25.4901 148.411 24.5182 147.204 24.5182H141.084V28.8713H141.074Z" fill="white"/>
<path d="M123.492 35.4498C123.554 35.0347 123.594 34.6196 123.594 34.1843C123.594 33.749 123.564 33.3339 123.492 32.9189C122.878 28.9707 119.409 25.9336 115.254 25.9336C110.659 25.9336 106.914 29.6388 106.914 34.1843C106.914 38.7298 110.659 42.4351 115.254 42.4351C118.611 42.4351 121.517 40.461 122.837 37.6162H117.7C117.004 38.1022 116.165 38.3856 115.254 38.3856C113.361 38.3856 111.744 37.1505 111.202 35.4498H123.492ZM111.192 32.9189C111.734 31.2181 113.341 29.983 115.244 29.983C117.137 29.983 118.754 31.2181 119.296 32.9189H111.192Z" fill="white"/>
<path d="M172.234 35.4498C172.296 35.0347 172.337 34.6196 172.337 34.1843C172.337 33.749 172.306 33.3339 172.234 32.9189C171.62 28.9707 168.151 25.9336 163.996 25.9336C159.402 25.9336 155.656 29.6388 155.656 34.1843C155.656 38.7298 159.402 42.4351 163.996 42.4351C167.353 42.4351 170.259 40.461 171.579 37.6162H166.432C165.736 38.1022 164.897 38.3856 163.986 38.3856C162.093 38.3856 160.476 37.1505 159.934 35.4498H172.234ZM159.944 32.9189C160.486 31.2181 162.093 29.983 163.996 29.983C165.9 29.983 167.507 31.2181 168.049 32.9189H159.944Z" fill="white"/>
<path d="M189.898 35.4498C189.96 35.0347 190.001 34.6196 190.001 34.1843C190.001 33.749 189.97 33.3339 189.898 32.9189C189.284 28.9707 185.815 25.9336 181.661 25.9336C177.066 25.9336 173.32 29.6388 173.32 34.1843C173.32 38.7298 177.066 42.4351 181.661 42.4351C185.017 42.4351 187.923 40.461 189.243 37.6162H184.106C183.41 38.1022 182.571 38.3856 181.661 38.3856C179.767 38.3856 178.15 37.1505 177.608 35.4498H189.898ZM177.608 32.9189C178.15 31.2181 179.757 29.983 181.661 29.983C183.564 29.983 185.171 31.2181 185.713 32.9189H177.608Z" fill="white"/>
<path d="M87.5234 24.7018H91.6168V20.6523H90.8902C89.0277 20.6523 87.5234 22.1405 87.5234 23.983V24.7018Z" fill="white"/>
<defs>
<linearGradient id="paint0_linear_6514_86900" x1="63.7603" y1="45.6154" x2="37.7559" y2="25.923" gradientUnits="userSpaceOnUse">
<stop stop-color="white"/>
<stop offset="1" stop-color="white" stop-opacity="0"/>
</linearGradient>
<linearGradient id="paint1_linear_6514_86900" x1="40.4581" y1="61.155" x2="30.3412" y2="28.637" gradientUnits="userSpaceOnUse">
<stop stop-color="white"/>
<stop offset="1" stop-color="white" stop-opacity="0"/>
</linearGradient>
<linearGradient id="paint2_linear_6514_86900" x1="-12.6228" y1="45.6154" x2="13.3816" y2="25.923" gradientUnits="userSpaceOnUse">
<stop stop-color="white"/>
<stop offset="1" stop-color="white" stop-opacity="0"/>
</linearGradient>
<clipPath id="clip0_6514_86900">
<rect width="51.1346" height="47.9306" fill="white"/>
</clipPath>
</defs>
</svg>
