<svg width="159" height="30" viewBox="0 0 159 30" fill="none" xmlns="http://www.w3.org/2000/svg">
<path d="M40.5983 0H14.7169C13.371 0 12.0802 0.526784 11.1285 1.46447C10.1768 2.40215 9.6421 3.67392 9.6421 5V12.5C9.6421 12.8978 9.4817 13.2794 9.19619 13.5607C8.91067 13.842 8.52344 14 8.11966 14H2.53739C1.86444 14 1.21904 14.2634 0.743185 14.7322C0.267332 15.2011 0 15.837 0 16.5L0 25C0 26.3261 0.534664 27.5979 1.48637 28.5355C2.43808 29.4732 3.72887 30 5.07479 30H30.9562C32.3021 30 33.5929 29.4732 34.5446 28.5355C35.4963 27.5979 36.031 26.3261 36.031 25V17.5C36.031 17.1022 36.1914 16.7206 36.4769 16.4393C36.7624 16.158 37.1497 16 37.5534 16H43.1357C43.8087 16 44.4541 15.7366 44.9299 15.2678C45.4058 14.7989 45.6731 14.163 45.6731 13.5V5C45.6731 3.67392 45.1384 2.40215 44.1867 1.46447C43.235 0.526784 41.9442 0 40.5983 0V0ZM28.9263 14C28.2533 14 27.6079 14.2634 27.1321 14.7322C26.6562 15.2011 26.3889 15.837 26.3889 16.5V22C26.3889 22.3978 26.2285 22.7794 25.943 23.0607C25.6575 23.342 25.2702 23.5 24.8665 23.5H11.1645C10.7608 23.5 10.3735 23.342 10.088 23.0607C9.8025 22.7794 9.6421 22.3978 9.6421 22V17.5C9.6421 17.1022 9.8025 16.7206 10.088 16.4393C10.3735 16.158 10.7608 16 11.1645 16H16.7468C17.4198 16 18.0652 15.7366 18.541 15.2678C19.0169 14.7989 19.2842 14.163 19.2842 13.5V8C19.2842 7.60218 19.4446 7.22064 19.7301 6.93934C20.0156 6.65804 20.4029 6.5 20.8066 6.5H34.5086C34.9123 6.5 35.2996 6.65804 35.5851 6.93934C35.8706 7.22064 36.031 7.60218 36.031 8V12.5C36.031 12.8978 35.8706 13.2794 35.5851 13.5607C35.2996 13.842 34.9123 14 34.5086 14H28.9263Z" fill="white"/>
<path d="M82.8589 22.5683C82.8429 22.5001 82.8125 22.4359 82.7697 22.38C82.7269 22.324 82.6726 22.2776 82.6104 22.2437C82.5482 22.2097 82.4795 22.189 82.4086 22.1829C82.3378 22.1769 82.2664 22.1855 82.1992 22.2083C81.7586 22.373 81.29 22.4528 80.8189 22.4433C80.6383 22.4447 80.4598 22.4053 80.297 22.3282C80.1343 22.251 79.9916 22.1382 79.88 21.9983C79.6204 21.6502 79.4897 21.2249 79.5096 20.7933V13.2183H82.4733C82.6079 13.2183 82.7369 13.1656 82.8321 13.0719C82.9273 12.9781 82.9807 12.8509 82.9807 12.7183V9.21832C82.9807 9.08571 82.9273 8.95854 82.8321 8.86477C82.7369 8.771 82.6079 8.71832 82.4733 8.71832H79.5096V5.63832C79.5092 5.54671 79.4832 5.45698 79.4345 5.37892C79.3859 5.30086 79.3164 5.23748 79.2336 5.19569C79.1509 5.15389 79.0581 5.1353 78.9653 5.14194C78.8726 5.14858 78.7835 5.18019 78.7078 5.23332L74.6936 8.02332C74.628 8.06933 74.5745 8.13005 74.5374 8.20047C74.5004 8.2709 74.4808 8.349 74.4805 8.42832V21.9983C74.4805 23.5933 74.922 24.8333 75.7948 25.6933C76.6677 26.5533 77.9415 26.9983 79.5806 26.9983C80.9156 27.0285 82.2279 26.6551 83.3411 25.9283C83.4189 25.8721 83.4788 25.7953 83.5139 25.7067C83.5489 25.6181 83.5576 25.5216 83.539 25.4283L82.8589 22.5683Z" fill="white"/>
<path d="M67.7551 16.8506C66.9461 16.4913 66.1117 16.1905 65.2583 15.9506C64.44 15.7157 63.6079 15.5304 62.7666 15.3956C62.1368 15.3129 61.5238 15.1341 60.9498 14.8656C60.3358 14.5606 60.3358 14.2506 60.3358 14.1456C60.3427 13.9386 60.405 13.7372 60.5164 13.5615C60.6278 13.3859 60.7843 13.2424 60.9701 13.1456C61.5245 12.827 62.1611 12.6741 62.8021 12.7056C63.7666 12.7027 64.7221 12.8879 65.6136 13.2506L65.9992 13.4356C66.1639 13.518 66.3483 13.5546 66.5325 13.5414C66.7167 13.5282 66.8938 13.4657 67.0446 13.3606L68.7752 12.1556C68.9159 12.0575 69.029 11.9256 69.1037 11.7725C69.1785 11.6193 69.2123 11.45 69.2022 11.2804C69.192 11.1107 69.1382 10.9465 69.0457 10.803C68.9532 10.6596 68.8252 10.5418 68.6737 10.4606C66.8725 9.42965 64.8429 8.84778 62.7615 8.76562C60.5286 8.76562 58.7321 9.31062 57.433 10.3856C56.8126 10.863 56.3113 11.4739 55.9674 12.1715C55.6235 12.8692 55.4461 13.6351 55.4488 14.4106C55.4086 15.3508 55.6542 16.2813 56.1542 17.083C56.6542 17.8847 57.3857 18.5211 58.2551 18.9106C59.0642 19.2632 59.9009 19.5508 60.757 19.7706C61.5756 19.9936 62.4057 20.1739 63.2436 20.3106C63.8744 20.3989 64.4864 20.5881 65.0553 20.8706C65.4816 21.1006 65.6897 21.3706 65.6897 21.7006C65.6958 21.9279 65.6419 22.1529 65.5334 22.3536C65.4249 22.5543 65.2654 22.7238 65.0706 22.8456C64.4545 23.1919 63.7481 23.3503 63.0406 23.3006C61.9504 23.2736 60.8769 23.0304 59.8841 22.5856C59.5458 22.4456 59.2312 22.3006 58.9402 22.1506C58.7793 22.074 58.6007 22.0405 58.4225 22.0537C58.2443 22.0669 58.0727 22.1262 57.9253 22.2256L55.601 23.8406C55.0935 24.1956 55.0935 24.6006 55.3625 24.8056C56.3158 25.5093 57.3581 26.0875 58.4632 26.5256C59.8665 27.0327 61.3533 27.2786 62.8478 27.2506C65.2228 27.2506 67.1157 26.7156 68.4757 25.6556C69.1281 25.1725 69.6552 24.5443 70.0142 23.8222C70.3731 23.1001 70.5537 22.3046 70.5412 21.5006C70.5724 20.4751 70.2971 19.4632 69.7495 18.5906C69.2668 17.8351 68.5748 17.2313 67.7551 16.8506Z" fill="white"/>
<path d="M97.6861 9.33293C97.6866 9.26237 97.6719 9.19252 97.6429 9.12797C97.614 9.06343 97.5716 9.00564 97.5183 8.95841C97.4651 8.91119 97.4024 8.87559 97.3342 8.85396C97.2661 8.83233 97.194 8.82517 97.1228 8.83293C96.2069 8.92334 95.3176 9.18825 94.5043 9.61293C93.711 10.0074 92.9878 10.5258 92.3627 11.1479V7.21793C92.3625 7.12671 92.3371 7.03728 92.289 6.9593C92.241 6.88133 92.1722 6.81779 92.0902 6.77556C92.0081 6.73333 91.9159 6.71402 91.8235 6.71973C91.7311 6.72543 91.642 6.75594 91.5659 6.80793L87.5061 9.64293C87.4398 9.68943 87.3859 9.75095 87.3488 9.8223C87.3117 9.89366 87.2925 9.97276 87.293 10.0529V26.2479C87.293 26.3805 87.3464 26.5077 87.4416 26.6015C87.5368 26.6952 87.6659 26.7479 87.8005 26.7479H91.8603C91.9949 26.7479 92.124 26.6952 92.2191 26.6015C92.3143 26.5077 92.3678 26.3805 92.3678 26.2479V15.3279C92.8119 14.7781 93.3971 14.3552 94.0627 14.1029C94.8029 13.764 95.6065 13.5801 96.4225 13.5629C96.6712 13.5629 96.8945 13.5629 97.0924 13.5629C97.1624 13.5685 97.2328 13.5596 97.2991 13.537C97.3654 13.5144 97.4263 13.4784 97.4778 13.4314C97.5293 13.3844 97.5703 13.3274 97.5984 13.264C97.6264 13.2006 97.6407 13.1321 97.6405 13.0629L97.6861 9.33293Z" fill="white"/>
<path d="M132.899 6.60988V10.9999C132.253 10.291 131.46 9.72817 130.572 9.35014C129.685 8.9721 128.725 8.7878 127.758 8.80988C126.668 8.78334 125.586 8.99615 124.59 9.43288C123.593 9.86961 122.708 10.5193 121.999 11.3349C120.517 12.9999 119.766 15.2749 119.766 18.0599C119.766 20.8449 120.517 23.1499 121.999 24.7799C122.717 25.5816 123.605 26.2184 124.6 26.6451C125.595 27.0719 126.673 27.2783 127.758 27.2499C128.725 27.2632 129.683 27.0739 130.569 26.6946C131.455 26.3153 132.25 25.7547 132.899 25.0499V26.3249C132.899 26.4575 132.953 26.5847 133.048 26.6784C133.143 26.7722 133.272 26.8249 133.407 26.8249H137.527C137.662 26.8249 137.791 26.7722 137.886 26.6784C137.981 26.5847 138.035 26.4575 138.035 26.3249V3.74488C138.035 3.65285 138.01 3.56247 137.962 3.48369C137.913 3.40491 137.844 3.34079 137.761 3.2984C137.678 3.256 137.585 3.23697 137.492 3.24341C137.399 3.24985 137.309 3.2815 137.233 3.33488L133.117 6.19988C133.05 6.24583 132.995 6.30711 132.957 6.3785C132.919 6.44989 132.899 6.52927 132.899 6.60988ZM132.899 20.9899C132.493 21.5274 131.958 21.957 131.341 22.2399C130.669 22.5799 129.925 22.7597 129.169 22.7649C128.604 22.7839 128.041 22.6775 127.522 22.4533C127.004 22.2291 126.544 21.8931 126.175 21.4699C125.37 20.5153 124.954 19.2999 125.008 18.0599C124.95 16.8087 125.366 15.5811 126.175 14.6149C126.543 14.1909 127.003 13.8542 127.522 13.63C128.04 13.4057 128.603 13.2997 129.169 13.3199C129.923 13.3194 130.666 13.4905 131.341 13.8199C131.959 14.1028 132.495 14.5344 132.899 15.0749V20.9899Z" fill="white"/>
<path d="M114.478 10.329C112.833 9.17623 110.834 8.61975 108.82 8.75404C104.673 8.94904 102.192 10.564 101.309 11.254C101.207 11.3331 101.14 11.4477 101.121 11.5741C101.102 11.7006 101.133 11.8294 101.207 11.934L102.923 14.329C102.963 14.3852 103.014 14.4327 103.074 14.4684C103.133 14.5042 103.199 14.5274 103.268 14.5368C103.337 14.5462 103.408 14.5415 103.475 14.5229C103.542 14.5044 103.604 14.4724 103.658 14.429C104.9 13.4586 106.438 12.93 108.023 12.929C108.96 12.8843 109.887 13.1424 110.662 13.664C110.966 13.8783 111.212 14.1634 111.378 14.4941C111.543 14.8247 111.623 15.1906 111.611 15.559V17.254C110.367 16.109 108.566 15.529 106.318 15.529C104.724 15.5029 103.168 16.0086 101.903 16.964C100.624 17.934 99.9742 19.394 99.9742 21.314C99.9367 22.1412 100.094 22.9657 100.434 23.723C100.774 24.4802 101.287 25.1497 101.933 25.679C103.159 26.6974 104.714 27.2522 106.318 27.244C108.556 27.244 110.332 26.629 111.611 25.419V26.319C111.611 26.4517 111.664 26.5788 111.759 26.6726C111.854 26.7664 111.984 26.819 112.118 26.819H116.213C116.348 26.819 116.477 26.7664 116.572 26.6726C116.668 26.5788 116.721 26.4517 116.721 26.319V15.504C116.721 13.129 115.965 11.389 114.478 10.329ZM111.611 22.379C110.91 23.259 109.753 23.704 108.165 23.704C107.38 23.7324 106.607 23.5135 105.957 23.079C105.688 22.8957 105.47 22.6484 105.324 22.3599C105.177 22.0715 105.107 21.7513 105.12 21.429C105.107 21.0992 105.177 20.7713 105.324 20.4747C105.471 20.1781 105.691 19.9219 105.962 19.729C106.605 19.283 107.379 19.0565 108.165 19.084C109.753 19.084 110.91 19.534 111.611 20.414V22.379Z" fill="white"/>
<path d="M156.091 10.329C154.446 9.17623 152.447 8.61975 150.433 8.75404C146.287 8.94904 143.805 10.564 142.922 11.254C142.82 11.3331 142.753 11.4477 142.734 11.5741C142.715 11.7006 142.746 11.8294 142.821 11.934L144.536 14.329C144.576 14.3852 144.627 14.4327 144.687 14.4684C144.746 14.5042 144.813 14.5274 144.882 14.5368C144.951 14.5462 145.021 14.5415 145.088 14.5229C145.155 14.5044 145.218 14.4724 145.272 14.429C146.513 13.4586 148.051 12.93 149.636 12.929C150.573 12.8843 151.5 13.1424 152.275 13.664C152.58 13.8783 152.826 14.1634 152.991 14.4941C153.157 14.8247 153.237 15.1906 153.224 15.559V17.254C151.981 16.109 150.179 15.529 147.931 15.529C146.337 15.5029 144.781 16.0086 143.516 16.964C142.237 17.934 141.587 19.394 141.587 21.314C141.55 22.1412 141.707 22.9657 142.047 23.723C142.387 24.4802 142.9 25.1497 143.546 25.679C144.773 26.6974 146.327 27.2522 147.931 27.244C150.169 27.244 151.945 26.629 153.224 25.419V26.319C153.224 26.4517 153.277 26.5788 153.373 26.6726C153.468 26.7664 153.597 26.819 153.731 26.819H157.827C157.961 26.819 158.09 26.7664 158.186 26.6726C158.281 26.5788 158.334 26.4517 158.334 26.319V15.504C158.334 13.129 157.578 11.389 156.091 10.329ZM153.224 22.379C152.524 23.259 151.367 23.704 149.778 23.704C148.994 23.7324 148.22 23.5135 147.571 23.079C147.301 22.8957 147.083 22.6484 146.937 22.3599C146.791 22.0715 146.721 21.7513 146.733 21.429C146.72 21.0992 146.791 20.7713 146.938 20.4747C147.085 20.1781 147.304 19.9219 147.576 19.729C148.219 19.283 148.992 19.0565 149.778 19.084C151.367 19.084 152.524 19.534 153.224 20.414V22.379Z" fill="white"/>
</svg>
