<svg width="202" height="30" viewBox="0 0 202 30" fill="none" xmlns="http://www.w3.org/2000/svg">
<path opacity="0.5" d="M5.56746 0C1.34428 0 -1.32298 4.54835 0.677467 8.01376L12.2356 27.2901C14.2361 30.7555 19.5706 30.9721 21.7933 27.5067L34.0183 8.23035C36.241 4.54835 33.5738 0 29.3506 0H5.56746V0Z" fill="white" fill-opacity="0.6"/>
<path d="M11.125 12.7793C11.125 9.53049 14.0145 6.71484 17.3486 6.71484C20.6827 6.71484 23.5723 9.53049 23.5723 12.7793C23.5723 15.1618 22.6832 15.8115 18.0154 22.5258C17.7932 22.959 17.1264 22.959 16.6818 22.5258C12.0141 15.8115 11.125 15.1618 11.125 12.7793ZM20.0159 12.7793C20.0159 11.4798 18.9045 10.1803 17.3486 10.1803C15.7927 10.1803 14.6814 11.2632 14.6814 12.7793C14.6814 14.0788 15.7927 15.3784 17.3486 15.3784C18.9045 15.3784 20.0159 14.0788 20.0159 12.7793Z" fill="white"/>
<path fill-rule="evenodd" clip-rule="evenodd" d="M52.0238 26.8534H46.9115V6.49408H40.9102V2.37891H58.0251V6.49408H52.0238V26.8534ZM62.9159 9.95746V12.5565C63.3605 11.257 63.805 10.8238 64.4718 10.3906C65.1386 9.95746 66.25 9.52429 67.3614 9.52429H68.0282V14.2892H66.9168C65.5832 14.2892 64.4718 14.939 63.805 15.8053C63.1382 16.6717 63.1382 17.3215 63.1382 18.8376V27.0679H58.2482V9.95746H62.9159ZM88.2553 9.96H83.3653V12.1259C81.5871 10.1766 80.0312 9.31024 77.5863 9.31024C72.6963 9.31024 68.9176 13.2088 68.9176 18.6235C68.9176 23.8216 72.474 27.5036 77.364 27.5036C79.809 27.5036 81.8094 26.4207 83.3653 24.4714V26.8539H88.2553V9.96ZM78.6976 23.8216C76.0303 23.8216 74.0299 21.6558 74.0299 18.6235C74.0299 15.3747 76.0303 13.2088 78.6976 13.2088C81.5872 13.2088 83.5876 15.3747 83.5876 18.4069C83.5876 21.4392 81.3649 23.8216 78.6976 23.8216ZM107.147 24.9046C105.147 26.6373 103.146 27.5036 100.479 27.5036C95.1443 27.5036 91.3656 23.6051 91.3656 18.4069C91.3656 12.9922 95.1443 9.31024 100.701 9.31024C103.368 9.31024 105.369 10.1766 107.592 12.1259L104.48 14.9415C103.368 13.8586 102.257 13.4254 100.923 13.4254C98.2561 13.4254 96.2556 15.5913 96.2556 18.4069C96.2556 21.2226 98.2561 23.3885 101.146 23.3885C102.479 23.3885 103.368 22.9553 104.48 21.8724L107.147 24.9046ZM109.147 26.8534H114.037V19.9225L118.927 26.8534H124.484L118.483 17.9733L124.484 9.95949H118.927L114.037 16.4571V2.37891H109.147V26.8534ZM131.82 26.8534H126.707V2.37891H131.82V12.7751H141.377V2.37891H146.489V26.8534H141.377V16.8903H131.82V26.8534ZM159.604 23.3885C157.159 23.3885 155.381 21.8723 154.936 19.4899H168.717V18.6235C168.717 13.2088 164.716 9.31024 159.16 9.31024C153.825 9.31024 150.046 12.9922 150.046 18.4069C150.046 23.6051 154.047 27.5036 159.604 27.5036C163.161 27.5036 166.272 25.5543 168.051 22.3055L163.605 21.2226C162.938 22.5221 161.382 23.3885 159.604 23.3885ZM159.382 13.2088C161.827 13.2088 163.383 14.7249 163.827 16.8908H155.159C155.603 14.5084 157.159 13.2088 159.382 13.2088ZM176.275 9.95746V12.5565C176.719 11.257 177.164 10.8238 177.831 10.3906C178.498 9.95746 179.609 9.52429 180.72 9.52429H181.387V14.2892H180.276C178.942 14.2892 177.831 14.939 177.164 15.8053C176.497 16.6717 176.497 17.3215 176.497 18.8376V27.0679H171.607V9.95746H176.275ZM191.61 27.5036C196.945 27.5036 201.168 23.6051 201.168 18.6235C201.168 13.2088 197.167 9.31024 191.61 9.31024C185.831 9.31024 182.053 12.9922 182.053 18.4069C182.053 23.8216 186.054 27.5036 191.61 27.5036ZM191.61 23.3885C188.721 23.3885 186.943 21.4392 186.943 18.4069C186.943 15.3747 188.943 13.4254 191.61 13.642C194.5 13.642 196.278 15.5913 196.278 18.6235C196.278 21.4392 194.278 23.3885 191.61 23.3885Z" fill="white" fill-opacity="0.6"/>
</svg>
