<svg width="178" height="41" viewBox="0 0 178 41" fill="none" xmlns="http://www.w3.org/2000/svg">
<path fill-rule="evenodd" clip-rule="evenodd" d="M170.076 4.77774C170.076 6.26164 170.741 6.91078 172.498 6.91078H174.826C176.631 6.91078 177.296 6.26164 177.296 4.77774V2.0872C177.296 0.602578 176.631 0 174.826 0H172.498C170.742 0 170.076 0.602578 170.076 2.0872V4.77774ZM170.076 8.998V33.4871H177.296V8.998H170.076ZM39.2948 41V35.3424H62.2794C64.3694 35.3424 65.1773 34.6467 65.1773 32.6519V30.6112H49.0261C41.1409 30.6112 38.243 28.2919 38.243 22.2158V18.366C38.243 10.7136 40.5708 8.34841 49.3586 8.34841H60.8543C69.3574 8.34841 72.0645 11.2238 72.0645 18.366V33.0222C72.0645 38.6348 69.3574 41 62.9443 41H39.2948ZM65.1773 18.5065C65.1773 15.1675 64.0378 14.2396 60.5695 14.2396H49.454C46.1759 14.2396 45.1786 15.2141 45.1786 18.553V21.8462C45.1786 24.536 46.1759 25.2316 49.454 25.2316H65.1773V18.5065ZM12.3506 33.4868C2.80256 33.4868 0 30.6115 0 22.6338V8.34861H7.12491V22.4482C7.12491 26.7151 8.59776 27.5963 12.9201 27.5963H20.3305C24.9383 27.5963 26.1257 26.7151 26.1257 22.4482V8.34861H33.1567V22.6338C33.1567 30.6115 30.3541 33.4868 20.7107 33.4868H12.3506ZM76.7712 26.8544C76.7712 30.9364 78.7673 33.4872 86.1769 33.4872V33.488H100.095C109.215 33.488 111.827 31.0295 111.827 23.7477V17.6258C111.827 11.225 108.597 8.34974 100.38 8.34974H80.1977V13.2657H100.381C103.516 13.2657 104.751 14.0997 104.751 17.3004V17.8571H85.7021C78.5765 17.8571 76.7712 20.2689 76.7712 24.4892V26.8544ZM86.4616 22.1232H104.75V24.2571C104.75 28.0137 103.325 28.7561 99.9997 28.7561H86.6994C84.8942 28.7561 83.8015 28.1535 83.8015 26.3908V24.6748C83.8015 22.68 84.7988 22.1232 86.4616 22.1232ZM157.673 33.4872V18.3673C157.673 15.2597 156.486 14.2861 153.778 14.2861H149.17C144.942 14.2861 143.897 15.3064 143.897 18.3673V33.4872H137.674V18.3673C137.674 15.3064 136.724 14.2861 132.354 14.2861H127.84C125.038 14.2861 123.945 15.2597 123.945 18.3673V33.4872H117.058V17.347C117.058 11.1785 119.48 8.34974 126.272 8.34974H132.496C137.72 8.34974 139.81 9.78704 140.761 12.7556C141.663 9.78704 143.896 8.34974 148.979 8.34974H155.392C162.185 8.34974 164.607 11.1793 164.607 17.347V33.4872H157.673Z" fill="#FF364E"/>
</svg>
