<svg width="912" height="1731" viewBox="0 0 912 1731" fill="none" xmlns="http://www.w3.org/2000/svg">
<g opacity="0.5">
<g style="mix-blend-mode:hard-light">
<path d="M526.794 768.416C545.365 831.562 547.098 884.73 535.37 930.12C523.643 975.505 498.438 1013.2 462.994 1045.36C392.058 1109.73 280.201 1151.89 153.643 1189.11C27.086 1226.33 -89.7854 1251.44 -184.275 1235.72C-231.488 1227.87 -273.085 1209.82 -307.515 1178.01C-341.949 1146.2 -369.275 1100.56 -387.846 1037.41C-424.977 911.16 -400.375 805.832 -334.986 722.764C-269.56 639.65 -163.234 578.738 -36.8016 541.555C89.6307 504.371 212.004 498.023 312.008 532.484C411.958 566.926 489.663 642.165 526.794 768.416Z" stroke="#575757" stroke-width="2"/>
<path d="M494.348 668.531C526.254 726.101 539.549 777.609 538.011 824.465C536.473 871.315 520.101 913.598 492.532 952.722C437.356 1031.02 337.397 1096.58 222.014 1160.52C106.632 1224.47 -1.94143 1274.48 -97.5839 1279.77C-145.373 1282.41 -189.906 1273.88 -230.448 1250.35C-270.995 1226.82 -307.625 1188.24 -339.53 1130.67C-403.321 1015.57 -402.301 907.408 -356.618 812.071C-310.911 716.681 -220.442 634.031 -105.174 570.149C10.0946 506.267 128.132 473.362 233.246 485.166C338.304 496.962 430.558 553.427 494.348 668.531Z" stroke="#575757" stroke-width="2"/>
<path d="M38.9837 387.437C104.309 379.385 157.051 386.324 199.929 405.279C242.802 424.232 275.891 455.233 301.86 495.437C353.834 575.899 377.236 693.124 393.374 824.051C409.512 954.977 415.277 1074.38 384.397 1165.05C368.967 1210.36 344.396 1248.47 307.409 1277.26C270.417 1306.06 220.939 1325.6 155.614 1333.65C25.0039 1349.75 -74.9187 1308.34 -146.244 1230.31C-217.608 1152.24 -260.413 1037.42 -276.535 906.623C-292.657 775.826 -279.014 654.05 -228.745 560.984C-178.503 467.968 -91.6261 403.536 38.9837 387.437Z" stroke="#575757" stroke-width="2"/>
<path d="M-39.9731 397.269C23.1138 378.499 76.276 376.599 121.703 388.184C167.124 399.768 204.895 424.854 237.17 460.196C301.764 530.929 344.274 642.653 381.893 769.092C419.512 895.532 444.991 1012.32 429.57 1106.86C421.865 1154.1 403.951 1195.75 372.25 1230.28C340.544 1264.82 294.99 1292.29 231.903 1311.06C105.769 1348.59 0.364334 1324.32 -82.9098 1259.19C-166.229 1194.03 -227.476 1087.89 -265.057 961.577C-302.639 835.262 -309.373 712.909 -275.228 612.798C-241.101 512.74 -166.107 434.797 -39.9731 397.269Z" stroke="#575757" stroke-width="2"/>
<path d="M-127.749 424.754C-69.4213 394.255 -17.606 382.214 29.1988 384.889C75.9974 387.564 117.871 404.957 156.315 433.468C233.253 490.528 296.364 592.049 357.49 708.95C418.616 825.85 465.979 935.605 468.939 1031.35C470.419 1079.19 460.809 1123.5 436.304 1163.46C411.795 1203.42 372.341 1239.11 314.013 1269.6C197.395 1330.58 89.2945 1326.94 -4.90634 1278.95C-99.158 1230.94 -179.588 1138.5 -240.654 1021.71C-301.719 904.926 -331.749 786.125 -317.398 681.328C-303.054 576.588 -244.367 485.732 -127.749 424.754Z" stroke="#575757" stroke-width="2"/>
<path d="M-213.839 472.092C-162.974 430.319 -114.712 407.945 -68.3479 401.001C-21.99 394.058 22.5544 402.528 66.012 422.583C152.986 462.719 235.508 549.204 319.229 651.149C402.951 753.095 471.74 850.857 494.2 943.975C505.422 990.503 505.07 1035.84 489.245 1079.97C473.419 1124.1 442.088 1167.09 391.222 1208.86C289.523 1292.38 182.958 1310.9 80.9408 1283.17C-21.1318 1255.43 -118.754 1181.37 -202.393 1079.53C-286.032 977.681 -339.701 867.521 -347.065 762.003C-354.424 656.542 -315.538 555.611 -213.839 472.092Z" stroke="#575757" stroke-width="2"/>
<path d="M-419.816 857.692C-424.158 792.015 -414.246 739.751 -392.894 698.014C-371.545 656.283 -338.721 625.001 -297.112 601.349C-213.838 554.011 -95.4762 537.282 36.1536 528.579C167.783 519.877 287.318 520.878 376.099 556.841C420.46 574.809 457.116 601.498 483.773 640.055C510.434 678.617 527.141 729.122 531.483 794.798C540.164 926.11 493.168 1023.53 411.225 1090.32C329.238 1157.15 212.181 1193.39 80.6813 1202.09C-50.8184 1210.78 -171.628 1190.27 -261.699 1134.81C-351.723 1079.39 -411.135 989.003 -419.816 857.692Z" stroke="#575757" stroke-width="2"/>
</g>
<circle cx="224.289" cy="418.406" r="10.8785" transform="rotate(9.75059 224.289 418.406)" fill="#343434"/>
</g>
</svg>
