<svg width="637" height="1383" viewBox="0 0 637 1383" fill="none" xmlns="http://www.w3.org/2000/svg">
<g style="mix-blend-mode:hard-light" opacity="0.42">
<path d="M1086.48 531.031C1113.13 585.338 1122.97 633.222 1119.41 676.152C1115.86 719.076 1098.9 757.133 1071.8 791.78C1017.57 861.124 922.809 916.726 813.946 970.15C705.083 1023.57 603.126 1064.51 515.095 1064.98C471.112 1065.21 430.633 1055.34 394.504 1031.9C358.37 1008.44 326.516 971.361 299.866 917.054C246.582 808.478 252.473 709.253 298.769 623.839C345.092 538.375 431.921 466.648 540.667 413.281C649.413 359.915 759.274 335.119 855.216 350.767C951.103 366.405 1033.19 422.455 1086.48 531.031Z" stroke="#575757" stroke-width="2"/>
<path d="M1041.54 445.601C1079.4 492.782 1099.46 537.364 1105.36 580.035C1111.26 622.701 1103.01 663.541 1084.13 703.267C1046.34 782.776 966.002 857.72 871.424 933.616C776.846 1009.51 686.282 1071.71 600.476 1091.39C557.604 1101.21 515.947 1100.42 475.571 1085.42C435.19 1070.42 396.01 1041.18 358.149 994.003C282.453 899.674 266.545 801.555 293.082 708.096C319.635 614.582 388.716 525.633 483.192 449.818C577.669 374.004 679.469 325.827 776.514 320.158C873.502 314.491 965.846 351.272 1041.54 445.601Z" stroke="#575757" stroke-width="2"/>
<path d="M585.321 261.857C643.24 244.396 692.087 242.473 733.867 252.966C775.641 263.458 810.432 286.383 840.209 318.754C899.809 383.543 939.256 486.085 974.259 602.188C1009.26 718.291 1033.07 825.55 1019.21 912.485C1012.29 955.92 995.967 994.255 966.953 1026.09C937.936 1057.93 896.166 1083.32 838.247 1100.79C722.449 1135.7 625.504 1113.74 548.758 1054.17C471.968 994.562 415.32 897.222 380.354 781.243C345.388 665.265 338.793 552.834 369.839 460.714C400.867 368.649 469.523 296.769 585.321 261.857Z" stroke="#575757" stroke-width="2"/>
<path d="M515.334 283.055C569.556 256.233 617.409 246.24 660.35 249.662C703.286 253.083 741.395 269.923 776.127 296.909C845.643 350.922 901.543 445.506 955.309 554.2C1009.08 662.894 1050.33 764.722 1051.08 852.751C1051.45 896.733 1041.71 937.243 1018.38 973.446C995.038 1009.65 958.057 1041.62 903.834 1068.45C795.426 1122.07 696.182 1116.49 610.623 1070.47C525.014 1024.41 453.013 937.81 399.304 829.232C345.596 720.655 320.453 610.873 335.799 514.882C351.135 418.947 406.926 336.68 515.334 283.055Z" stroke="#575757" stroke-width="2"/>
<path d="M440.104 321.613C488.19 284.908 533.245 265.94 576.048 261.079C618.844 256.219 659.472 265.452 698.728 285.292C777.297 324.999 850.268 407.134 923.846 503.527C997.424 599.919 1057.41 691.966 1074.99 778.225C1083.78 821.323 1081.97 862.948 1066 902.948C1050.02 942.953 1019.84 981.411 971.757 1018.12C875.619 1091.5 777.142 1105.02 684.355 1076.22C591.514 1047.41 504.267 976.19 430.768 879.901C357.269 783.613 311.577 680.673 308.265 583.519C304.954 486.423 343.966 394.998 440.104 321.613Z" stroke="#575757" stroke-width="2"/>
<path d="M369.49 377.888C409.062 332.133 449.291 304.359 490.197 290.855C531.098 277.353 572.756 278.091 615.237 289.491C700.261 312.308 788.474 377.801 880.195 457.126C971.915 536.452 1049.44 614.301 1084.28 695.148C1101.68 735.541 1108.42 776.658 1100.96 819.077C1093.49 861.503 1071.81 905.316 1032.24 951.071C953.119 1042.55 859.483 1075.91 762.77 1066.68C665.999 1057.44 566.041 1005.55 474.419 926.307C382.797 847.066 317.037 755.634 293.944 661.207C270.864 566.834 290.373 469.367 369.49 377.888Z" stroke="#575757" stroke-width="2"/>
<path d="M242.931 759.226C228.775 700.411 229.62 651.534 242.461 610.415C255.3 569.302 280.157 535.864 314.161 507.966C382.219 452.128 486.83 418.548 604.728 390.171C722.626 361.795 831.059 344.097 917.071 362.852C960.045 372.222 997.394 390.687 1027.53 421.456C1057.68 452.228 1080.67 495.369 1094.83 554.183C1123.13 671.771 1095.73 767.319 1031.9 840.569C968.046 913.863 867.656 964.911 749.884 993.258C632.113 1021.6 519.489 1021.83 429.274 985.616C339.112 949.428 271.233 876.814 242.931 759.226Z" stroke="#575757" stroke-width="2"/>
</g>
<circle cx="366.5" cy="813.5" r="6.5" fill="#343434"/>
</svg>
