<svg width="1440" height="1471" viewBox="0 0 1440 1471" fill="none" xmlns="http://www.w3.org/2000/svg">
<g style="mix-blend-mode:hard-light">
<path d="M1155.02 564.342C1183.35 622.174 1193.82 673.171 1190.04 718.896C1186.25 764.615 1168.22 805.148 1139.41 842.047C1081.75 915.895 981.004 975.104 865.28 1031.99C749.555 1088.87 641.16 1132.46 547.564 1132.96C500.798 1133.21 457.755 1122.7 419.336 1097.73C380.912 1072.75 347.044 1033.26 318.709 975.423C262.058 859.796 268.32 754.122 317.545 663.157C366.796 572.143 459.111 495.762 574.718 438.936C690.326 382.11 807.125 355.702 909.133 372.366C1011.08 389.021 1098.37 448.714 1155.02 564.342Z" stroke="#575757" stroke-width="2"/>
<path d="M1107.24 473.369C1147.5 523.613 1168.82 571.092 1175.1 616.542C1181.37 661.985 1172.6 705.484 1152.52 747.791C1112.35 832.465 1026.93 912.27 926.392 993.081C825.853 1073.89 729.57 1140.13 638.339 1161.08C592.755 1171.55 548.459 1170.7 505.525 1154.73C462.585 1138.75 420.927 1107.61 380.673 1057.37C300.193 956.915 283.277 852.419 311.493 752.887C339.724 653.299 413.17 558.578 513.608 477.849C614.045 397.119 722.274 345.814 825.454 339.776C928.577 333.742 1026.76 372.914 1107.24 473.369Z" stroke="#575757" stroke-width="2"/>
<path d="M622.199 277.706C683.777 259.111 735.715 257.062 780.142 268.239C824.563 279.413 861.557 303.83 893.219 338.305C956.587 407.303 998.523 516.5 1035.73 640.123C1072.94 763.745 1098.25 877.964 1083.52 970.546C1076.16 1016.81 1058.8 1057.63 1027.95 1091.54C997.097 1125.45 952.683 1152.5 891.106 1171.09C767.99 1208.27 664.912 1184.89 583.312 1121.45C501.667 1057.97 441.443 954.309 404.27 830.812C367.098 707.314 360.084 587.586 393.093 489.483C426.084 391.434 499.084 314.884 622.199 277.706Z" stroke="#575757" stroke-width="2"/>
<path d="M547.79 300.277C605.438 271.714 656.318 261.07 701.98 264.714C747.636 268.359 788.16 286.295 825.09 315.036C899 372.557 958.429 473.28 1015.58 589.013C1072.74 704.747 1116.6 813.182 1117.4 906.929C1117.79 953.771 1107.44 996.917 1082.62 1035.48C1057.81 1074.04 1018.48 1108.09 960.836 1136.65C845.577 1193.76 740.056 1187.82 649.085 1138.8C558.064 1089.76 481.516 997.532 424.418 881.915C367.321 766.299 340.588 649.392 356.904 547.166C373.21 444.996 432.531 357.383 547.79 300.277Z" stroke="#575757" stroke-width="2"/>
<path d="M467.804 341.338C518.928 302.251 566.833 282.048 612.347 276.871C657.856 271.694 701.058 281.529 742.797 302.658C826.333 344.945 903.912 432.411 982.127 535.046C1060.34 637.682 1124.12 735.702 1142.81 827.563C1152.15 873.462 1150.23 917.797 1133.25 960.401C1116.26 1003.01 1084.17 1043.97 1033.05 1083.06C930.833 1161.2 826.129 1175.61 727.472 1144.94C628.761 1114.25 536.004 1038.41 457.868 935.876C379.731 833.344 331.151 723.725 327.629 620.26C324.109 516.853 365.59 419.487 467.804 341.338Z" stroke="#575757" stroke-width="2"/>
<path d="M392.73 401.27C434.802 352.545 477.575 322.964 521.074 308.581C564.566 294.201 608.862 294.987 654.031 307.128C744.431 331.427 838.215 401.171 935.717 485.634C1033.22 570.097 1115.64 652.998 1152.68 739.095C1171.19 782.115 1178.35 825.907 1170.42 871.088C1162.48 916.276 1139.42 962.936 1097.35 1011.66C1013.23 1109.08 913.674 1144.61 810.843 1134.77C707.954 1124.94 601.684 1069.68 504.28 985.299C406.877 900.921 336.961 803.556 312.408 702.995C287.869 602.49 308.613 498.689 392.73 401.27Z" stroke="#575757" stroke-width="2"/>
<path d="M258.183 807.363C243.133 744.73 244.03 692.675 257.685 648.879C271.338 605.089 297.77 569.475 333.925 539.764C406.285 480.3 517.503 444.542 642.833 414.328C768.162 384.113 883.443 365.266 974.892 385.238C1020.58 395.217 1060.3 414.884 1092.35 447.656C1124.41 480.432 1148.85 526.378 1163.9 589.01C1193.99 714.234 1164.86 815.992 1097 894.003C1029.1 972.057 922.372 1026.42 797.169 1056.6C671.967 1086.78 552.229 1087.02 456.311 1048.46C360.446 1009.92 288.274 932.586 258.183 807.363Z" stroke="#575757" stroke-width="2"/>
</g>
</svg>
