<svg width="165" height="41" viewBox="0 0 165 41" fill="none" xmlns="http://www.w3.org/2000/svg">
<path d="M88.1485 40.8168C88.2456 40.8168 88.3426 40.8168 88.4396 40.8168C92.6113 40.5432 94.9396 37.2595 94.6486 32.1516C94.4546 28.503 92.8053 24.6721 90.4769 21.7533C89.4097 20.4763 88.1485 19.3817 86.7903 18.5608C87.1784 17.7399 87.5664 16.8278 88.0515 16.0069C90.5739 11.1726 96.6859 3.05461 108.231 2.41611C113.567 2.14248 118.223 3.6931 122.007 6.88556C113.082 12.9968 107.94 23.0303 108.134 30.1449C108.328 36.3474 112.111 40.0871 118.611 40.3607C123.268 40.5432 126.955 38.6277 129.38 34.7967C133.358 28.503 132.582 18.0135 127.731 10.4429C126.955 9.16588 126.082 8.07132 125.112 7.06798C128.604 5.06129 132.582 3.60189 137.044 3.23703C156.351 1.68641 163.045 39.7223 163.142 40.0871C163.239 40.5432 163.724 40.908 164.209 40.8168C164.694 40.7256 165.082 40.2695 164.985 39.8135C164.985 39.7222 163.239 29.78 158.97 20.2027C153.343 7.25041 145.679 0.774281 136.85 1.41277C131.903 1.77762 127.537 3.41946 123.753 5.69978C119.582 1.96005 114.246 0.227003 108.231 0.500642C98.9173 1.04792 91.156 6.15585 86.4023 15.0947C86.0142 15.9156 85.5291 16.7366 85.2381 17.5575C83.5888 16.8278 81.8425 16.5541 79.9992 16.6453C74.1783 16.919 69.5215 20.9324 66.514 28.3206C64.7677 32.5164 63.9916 36.621 63.7976 38.3541H-36.0316C-36.6137 38.3541 -37.0018 38.7189 -37.0018 39.2662C-37.0018 39.8135 -36.6137 40.1783 -36.0316 40.1783H65.3498L65.4469 39.3574C65.4469 39.175 67.7752 19.1081 79.9992 18.5608C81.6485 18.4696 83.1037 18.8345 84.4619 19.3817C81.7455 26.77 81.4545 34.7967 84.1709 38.6277C85.2381 40.0871 86.5963 40.8168 88.1485 40.8168ZM86.1112 20.2939C90.0889 22.939 92.5143 28.2294 92.7083 32.2428C92.8053 33.7934 92.8053 38.7189 88.3426 38.9925C87.2754 39.0838 86.4993 38.6277 85.7231 37.6243C83.6858 34.6143 83.4918 27.4997 86.1112 20.2939ZM123.365 8.07132C124.335 9.07466 125.209 10.1692 125.985 11.355C130.544 18.3784 131.224 28.047 127.634 33.7934C126.276 35.9825 123.559 38.6277 118.611 38.4453C111.335 38.1716 110.074 33.0637 109.977 30.0537C109.88 23.3039 114.925 13.8177 123.365 8.07132Z" fill="#522C2C"/>
</svg>
