<svg width="169" height="45" viewBox="0 0 169 45" fill="none" xmlns="http://www.w3.org/2000/svg">
<path d="M1.09668 44.1725C1.64467 44.1725 2.19266 43.7603 2.19266 43.2451C2.19266 42.8329 6.13821 2.23431 31.0168 2.23431C31.236 2.23431 31.5648 2.23431 31.784 2.23431C43.9493 2.64648 50.306 9.75639 53.4843 15.6298C54.1419 16.8663 54.6899 18.1028 55.2379 19.3393C50.4156 21.6062 46.47 26.4492 46.0316 33.7652C45.7029 39.4325 48.114 43.2451 52.2787 43.5542C54.2515 43.6573 56.005 42.8329 57.2106 40.9782C59.9505 37.0626 60.6082 28.6131 57.8682 20.3697C59.0738 20.0606 60.3889 19.8545 61.8137 19.8545C76.2806 20.3697 77.5957 42.2147 77.7053 42.5238V43.5542H167.904C168.562 43.5542 169 43.142 169 42.5238C169 41.9055 168.562 41.4934 167.904 41.4934H79.7877C79.5685 39.5356 79.0205 35.1048 77.2669 30.5709C74.0886 22.5336 68.8279 18.1028 61.9233 17.8967C60.3889 17.8967 58.745 18.1028 57.2106 18.515C56.6626 17.1754 56.1146 15.9389 55.4571 14.7024C50.5252 5.63468 42.0862 0.482593 31.8936 0.173467C20.3859 -0.13566 11.1797 7.18035 5.37102 21.5032C1.09671 32.1166 0.110306 42.6268 0.000701904 43.039C0.000701904 43.6573 0.439102 44.1725 1.09668 44.1725ZM55.8954 21.2971C58.3066 28.8192 57.8682 36.5473 55.4571 39.9477C54.5803 41.0812 53.5939 41.6995 52.4979 41.5965C48.9908 41.2873 48.0044 37.2687 48.2236 33.9713C48.4428 29.7466 50.8539 23.8732 55.8954 21.2971Z" fill="#522C2C"/>
</svg>
